<svg class="hide">
  <defs>

    <symbol id="health">
      <path d="M74.8,12.9c-1,2.1-2.3,4.1-3.5,6.1c-1.2,2.1-2.4,4.2-3.5,6.3s-2.2,4.3-3.1,6.4c-0.5,1.1-1,2.3-1.5,3.6
		c-0.3,0.9-0.7,1.8-0.9,2.8c-0.7,3.6,0.5,7,2.1,10.2c0.7,1.6,1.6,3.1,2.4,4.6c0.3,0.8,0.8,1.5,1.1,2.3c0.2,0.3,0.3,0.8,0.4,1.1
		c0.1,0.1,0.1,0.2,0.1,0.3l0,0h0.1c0.1,0.3,0.2,0.4,0.3,0.7c0.5,1.4,0.9,2.9,1.1,4.3l0,0c0.1,0.1,0.1,0.1,0.1,0.2c0,0.2,0,0.3,0,0.6
		c0,0.4,0.1,0.8,0.1,1.2c0.2,0.6,0.2,1.3,0.2,1.9c0,0.3-0.1,0.7-0.1,1c0,0.2-0.1,0.3-0.1,0.6c0,0.1,0,0.2,0,0.2s0,0,0,0.1l0,0
		c-0.2,0.7-0.3,1.5-0.3,2.2c-0.1,0.7-0.3,1.5-0.3,2.3c-0.1,0.9-0.2,1.6-0.3,2.4c0,0.3,0.1,0.8,0.3,1c0.3,0.2,1,0.1,1.1-0.3
		c0.4-1,1-2,1.2-3c0.3-1,0.5-1.9,0.7-2.9c0.3-1.9,0.4-3.8,0.3-5.8s-0.4-4.2-1.1-6.1c-0.5-1.6-1.3-3.3-2.1-4.9
		c-0.8-1.6-1.6-3.1-2.3-4.7c-0.2-0.3-0.3-0.8-0.5-1.1c-0.1-0.2-0.1-0.3-0.2-0.4c0-0.1-0.1-0.1-0.1-0.1c0-0.1-0.1-0.3-0.1-0.3
		c-0.3-0.8-0.6-1.6-0.8-2.3c-0.1-0.3-0.2-0.8-0.3-1.1c0-0.1,0-0.2-0.1-0.3l0,0c0-0.2,0-0.4,0-0.6c0.1-0.6,0.1-1,0.1-1.4
		c0-0.2,0-0.3,0-0.6c0.1-0.1,0.1-0.2,0.1-0.3l0,0l0,0c0.1-1,0.4-1.8,0.8-2.7c0.2-0.5,0.3-1,0.6-1.6c0.1-0.3,0.3-0.5,0.3-0.8l0,0
		v-0.1c0.1-0.2,0.2-0.3,0.3-0.5c0.1-0.3,0.2-0.3,0.3-0.6c0.1-0.1,0.1-0.3,0.1-0.3c0.1-0.1,0.1-0.2,0.2-0.3c0.2-0.4,0.3-0.8,0.4-1.2
		c0.3-0.9,0.8-1.6,1.1-2.5c0.8-1.6,1.5-3.3,2.2-5c1.4-3.3,2.8-6.7,4.3-10C76.1,12.8,75.2,12.2,74.8,12.9z"/>
	<path d="M56,78.1L56,78.1L56,78.1c-0.1-0.1-0.2-0.1-0.3-0.2s0,0-0.1-0.1c0,0-0.3-0.3-0.2-0.2c-0.3-0.3-0.7-0.6-1-0.9
		c-0.2-0.2-0.3-0.3-0.4-0.5c0,0-0.1-0.2-0.2-0.2c0-0.1-0.1-0.2-0.2-0.3c-0.1-0.1-0.1-0.2-0.2-0.3c0,0,0,0-0.1,0
		c-0.1-0.2-0.2-0.3-0.3-0.3c-0.2-0.3-0.3-0.4-0.4-0.7c-0.6-0.9-1.1-1.8-1.6-2.8c-0.1-0.2-0.2-0.3-0.3-0.5c0,0-0.1-0.1-0.1-0.2
		s-0.1-0.2-0.1-0.3c-0.2-0.3-0.3-0.7-0.3-1.1c0.1,0,0.1,0,0.1-0.1c0.6-0.8,1.1-1.6,1.6-2.4c0.3-0.8,0.7-1.6,1-2.3
		c0.3-0.7,0.4-1.5,0.6-2.3c0.3-1.6,0.6-3.1,0.6-4.7c0-1.5-0.2-2.9-0.3-4.3c-0.1-0.3-0.7-0.3-0.6,0.1c0.2,1.5,0,3-0.3,4.4
		c-0.2,0.8-0.3,1.5-0.5,2.3c-0.2,0.3-0.3,0.7-0.4,1c-0.1,0.2-0.1,0.3-0.2,0.5c0,0,0,0-0.1,0.1l0,0c0,0.1-0.1,0.2-0.2,0.3
		c-0.7,1.4-1.4,2.7-2.3,4c-0.1,0.1-0.3,0.3-0.3,0.4l0,0c0,0.1-0.1,0.1-0.1,0.2c-0.3,0.3-0.5,0.6-0.8,0.9c-0.5,0.6-1,1.1-1.6,1.6
		c-0.2,0.2-0.4,0.3-0.7,0.6c0,0-0.3,0.2-0.3,0.3c-0.2,0.2-0.3,0.3-0.5,0.3c-0.6,0.4-1.2,0.8-1.9,1c-0.1,0-0.1,0-0.1,0.1
		c-0.1,0-0.1,0-0.2,0c-0.1,0.1-0.3,0.1-0.4,0.2C42,71.9,41.6,72,41.2,72c-0.3,0.1-0.7,0.2-1,0.2c-0.1,0-0.1,0-0.1,0
		c0.3,0,0.3,0-0.2,0c0,0,0,0-0.1,0c-0.2,0-0.3,0.1-0.5,0.1c-0.8,0.2-1.6,0.2-2,0.9c-0.2,0.3-0.3,0.6-0.2,1c0.2,0.4,0.5,0.9,1,1
		c1,0.3,1.9,0.1,2.9-0.1c1.6-0.3,3-0.9,4.4-1.6c1-0.5,1.9-1.2,2.8-2c0.2,0.5,0.3,1,0.6,1.4c0.6,1.1,1.2,2.1,2.1,3
		c0.8,0.9,1.6,1.7,2.6,2.3c0.4,0.2,1,0.4,1.4,0.5c0.3,0,0.4,0,0.7,0c0.2,0,0.3,0,0.3-0.1c0.1,0,0.2-0.1,0.2-0.1l0,0l0,0
		C56.4,78.8,56.4,78.1,56,78.1z"/>
	<path d="M40.5,39.6c0.5-0.8,1-1.7,1.3-2.6c0.7-1.7,1-3.6,1-5.5c0.1-1.9-0.3-3.9-0.6-5.8c-0.4-1.9-0.8-3.7-1.3-5.6
		c-0.6-2.2-1.1-4.3-1.3-6.6c-0.1-0.9-1.2-0.9-1.3,0c0,1.7,0.1,3.5,0.3,5.2c0.1,1,0.2,2,0.3,3c0.1,0.4,0.1,1,0.2,1.4l0,0v0.1
		c0,0.1,0.1,0.3,0.1,0.3c0,0.3,0.1,0.5,0.1,0.8c0.3,1.9,0.4,3.7,0.4,5.6c0,1,0,1.8-0.1,2.7c0,0.1,0,0.3,0,0.3l0,0
		c0,0.2-0.1,0.3-0.1,0.6c-0.1,0.4-0.2,0.9-0.3,1.3c-0.1,0.3-0.2,0.8-0.3,1.2l0,0c0,0.1-0.1,0.2-0.1,0.3c-0.1,0.2-0.2,0.4-0.3,0.7
		c-0.3,0.3-0.4,0.7-0.7,1l-0.1,0.1c0,0-0.1,0.1-0.2,0.2c-0.2,0.2-0.3,0.4-0.4,0.6c-1.4,1.5-3,2.9-4.3,4.2c-1.6,1.5-3,3-4.1,4.7
		c-0.6,1-1.1,1.9-1.5,3c-0.5,1.1-1,2.3-1.4,3.5c-0.9,2.3-1.3,4.7-1.6,7c-0.3,2.3-0.2,4.5,0.3,6.8c0.7,4.2,2.3,8.2,4.1,12.1
		c1.1,2.5,2.3,5,3.6,7.5c0.4,0.7,1.4,0.2,1.3-0.5c-0.4-2-1.2-3.9-2-5.8c-0.8-2-1.5-3.9-2.2-5.9s-1.2-4-1.6-6.1
		c-0.1-0.4-0.2-1-0.3-1.5c0,0,0-0.2-0.1-0.2c0-0.1,0-0.2,0-0.3c0-0.3-0.1-0.6-0.1-0.9c-0.1-1-0.2-2.2-0.1-3.3c0-0.6,0.1-1.1,0.1-1.6
		c0,0,0-0.1,0.1-0.1c0,0,0,0,0-0.1s0-0.3,0-0.3c0.1-0.3,0.1-0.7,0.2-1c0.3-1.1,0.4-2.3,0.9-3.4c0.3-1.1,0.7-2.2,1.1-3.2
		c0,0,0.1-0.2,0.1-0.3c0-0.2,0.1-0.3,0.2-0.4c0.1-0.3,0.2-0.5,0.3-0.8c0.3-0.5,0.4-1.1,0.8-1.6c0.3-0.4,0.5-0.9,0.8-1.3
		c0.2-0.2,0.3-0.3,0.4-0.6c0-0.1,0-0.1,0.1-0.2l0.2-0.3c0.7-0.8,1.3-1.5,2.1-2.2c1.4-1.4,3-2.7,4.3-4.1
		C39.2,41.2,39.9,40.5,40.5,39.6z"/>
	<path d="M56.2,20.1c-2.1,2.7-3.4,6-4.3,9.3c-0.5,1.8-1,3.6-1.1,5.6c0,0.9-0.1,1.7-0.1,2.5c0.1,0.9,0.3,1.6,0.4,2.4
		c0.3,1.3,2.2,1,2.2-0.3c0-0.2,0-0.3,0-0.4s0-0.2,0-0.3c0,0.3,0,0,0,0c0.1-0.4,0.1-1,0.1-1.4c0.1-0.8,0-1.6,0.1-2.4
		c0.1-0.9,0.1-1.7,0.2-2.6c0-0.4,0.1-0.9,0.2-1.3v-0.1c0,0,0,0,0-0.1s0-0.2,0.1-0.3c0-0.3,0-0.4,0.1-0.7c0.4-3.1,1.2-6.5,3-9.2
		C57.2,20.2,56.6,19.7,56.2,20.1z"/>
    </symbol>

    <symbol id="arrangement">
 <path fill="none" stroke="#000000" stroke-width="1.5" stroke-miterlimit="10" d="M40.9,17h28.8c4.6,0,7.6,3,7.6,7.6v57.5
	c0,4.6-3,7.6-7.6,7.6H30.3c-4.6,0-7.6-3-7.6-7.6V24.5c0-4.6,3-7.6,7.6-7.6L40.9,17"/>
<path fill="#D4765D" stroke="#000000" stroke-width="1.2" stroke-miterlimit="10" d="M62.2,23H37.9c-1.6,0-3-1.6-3-3v-6
	c0-1.6,1.6-3,3-3h24.3c1.6,0,3,1.6,3,3v6C65.2,21.5,63.7,23,62.2,23z"/>
<path d="M30.4,54.8c0,0-1.6-1.6-1.6,0c0,0-1.6,1.6,0,1.6l3,4.6l0,0c0,0,1.6,1.6,1.6,0l0,0l9.1-9.1v-1.6h-1.6L31.9,58L30.4,54.8z"/>
<path d="M51.6,35.1L51.6,35.1c-1.6,1.6,0,3,0,3h18.1c0,0,1.6,0,1.6-1.6c0-1.6,0-1.6,0-1.6L51.6,35.1z"/>
<path d="M51.6,54.8L51.6,54.8c-1.6,1.6,0,3,0,3h18.1c0,0,1.6,0,1.6-1.6c0,0,0-1.6-1.6-1.6C71.3,54.8,51.6,54.8,51.6,54.8z"/>
<path d="M30.4,76.1c0,0-1.6-1.6-1.6,0c0,0-1.6,1.6,0,1.6l3,4.6l0,0c0,0,1.6,1.6,1.6,0l0,0l9.1-9.1v-1.6h-1.6l-9.1,7.6L30.4,76.1z"/>
<path d="M51.6,74.5C51.6,74.5,51.6,76.1,51.6,74.5c-1.6,1.6,0,3,0,3h18.1c0,0,1.6,0,1.6-1.6c0,0,0-1.6-1.6-1.6
	C71.3,74.5,51.6,74.5,51.6,74.5z"/>
<path d="M30.4,35.6c0,0-1.6-1.6-1.6,0c0,0-1.6,1.6,0,1.6l3,4.6l0,0c0,0,1.6,1.6,1.6,0l0,0l9.1-9.1v-1.6h-1.6l-9.1,7.6L30.4,35.6z"/>
	
    </symbol>
<symbol id="aftercare">
<path stroke="#000000" stroke-width="0.25" stroke-miterlimit="10" d="M43.5,29c1.4,0.4,2.9,0.5,4.4,0.4c-0.1,1.7-0.3,3.6,0.1,5.3
		c0.1,0.8,1.4,0.8,1.6,0c0.3-1.7,0.1-5.3,0.1-5.3c1.9,0,3.8,0.3,5.5-0.4c0.4-0.2,0.4-0.8,0-1c-1.7-0.7-5.6-0.4-5.6-0.4
		c0-1.5,0-3-0.4-4.4c-0.1-0.5-0.9-0.5-1,0c-0.2,1.5-0.2,3-0.2,4.5c-1.5,0-3.1,0-4.5,0.4C43.1,28.3,43.1,28.9,43.5,29z"/>
	<path stroke="#000000" stroke-width="0.25" stroke-miterlimit="10" d="M76.9,61c-3-7.1-6.3-14.1-9.4-21.2
		c0.3-1.1,4.2-10.2,5.6-14.2c-15.1-15.5-36.9-11.2-49.5,0c-0.2,0.2-0.3,0.5-0.2,0.7c1.5,4.8,2.6,9.6,6,13.4c0.1,0.1,0.2,0.2,0.3,0.3
		c-3,7.5-6,15.3-7.9,23.1c-0.9,3.9-2.1,8.5-1.2,12.6c2,9.6,14.8,10.6,20.7,3.7c0,0,3.7,1.6,5.7,1.9c3.7,0.6,7-0.1,9.9-1.7
		c6.6,8,20.2,6.4,22.5-4.3C80.4,70.5,78.7,65.3,76.9,61z M72.7,55.9c-4.3-0.5-8.4-0.2-12.7-1.3C53.8,53,49.7,49.3,46.5,44
		c0.4-0.9,0.7-1.9,0.9-2.9c3.3-0.6,6.4-0.7,9.8,0.8c2.9,1.2,5.1,2.2,8.2,1.4c0.5-0.1,1-0.7,1.4-1.4C68.4,46.6,70.6,51.3,72.7,55.9z
		 M27.1,32.7c-0.6-1.5-1.1-3.1-1.6-4.7c-0.5-1.8-1-1.4,0.5-2.6c3.7-3.1,8-5.6,12.5-7.3c11-4,24.2-1,32.6,6.8
		c-1.7,4.9-3.9,9.5-5.9,14.2c-1.8,4.4-9.4-0.4-13.2-0.7s-7.8,1.3-11.5,2.1C33.9,42.1,29.6,38.7,27.1,32.7z M30.8,40.9
		c3.7,2.7,8.9,1.9,13.2,1c0.8-0.2,1.6-0.4,2.4-0.5c-2.3,4-4.5,7.1-8.6,9.6c-3.6,2.2-7.9,3.3-11.9,4.6C27.4,50.6,29.3,45.8,30.8,40.9
		z M24.5,79.7c-3-2.6-2.6-7.6-2.1-11.1c0.5-4,1.6-7.8,2.8-11.6c1.5,0,3-0.4,4.6-0.9c-1.1,8.2,3.1,17.4,9.9,22.1
		C35.8,82.2,29,83.5,24.5,79.7z M46.2,79.1C35.7,77.4,31.2,65,31,55.8c2.7-1,5.3-2.3,7.5-3.5c2.9-1.6,5.7-4,7.4-6.9
		C49,55.7,67.4,58.1,67.4,58.1C66.5,68.9,58.4,81.1,46.2,79.1z M75.2,79.5c-4.7,5.7-11.9,2.7-16.7-0.9c6.4-4.5,10.4-13.2,10.9-20.5
		l0,0c1.4,0,2.9-0.1,4.2-0.2c1.3,2.9,2.4,5.9,3.3,8.9C77.9,71,78.1,75.9,75.2,79.5z"/>
	<path stroke="#000000" stroke-width="0.25" stroke-miterlimit="10" d="M40.4,59.3c-0.1,0.4-0.4,0.8-0.4,1.3c0,0.6,0.8,0.8,1.1,0.3
		s0.1-1-0.1-1.6C40.9,59.1,40.5,59.1,40.4,59.3z"/>
	<path stroke="#000000" stroke-width="0.25" stroke-miterlimit="10" d="M57,59.3c-0.1,0.4-0.4,0.8-0.4,1.3c0,0.6,0.8,0.8,1.1,0.3
		s0.1-1-0.1-1.6C57.5,59.1,57.1,59.1,57,59.3z"/>
	<path stroke="#000000" stroke-width="0.25" stroke-miterlimit="10" d="M52.4,70.6c-2.4,1.3-4.9,0.9-7.3-0.1
		c-0.4-0.2-0.6,0.4-0.4,0.7c1.9,2.4,6.1,2.2,8.5,0.7C54,71.5,53.2,70.2,52.4,70.6z"/>

</symbol>

<symbol id="vacations">
	<path fill="none" stroke="#000000" stroke-width="2" stroke-linecap="round" stroke-linejoin="round" stroke-miterlimit="10" d="
	M78.6,10v4.3V10z"/>
<path fill="none" stroke="#000000" stroke-width="2" stroke-linecap="round" stroke-linejoin="round" stroke-miterlimit="10" d="
	M75.8,14.8l-1.6-4L75.8,14.8z"/>
<path fill="none" stroke="#000000" stroke-width="2" stroke-linecap="round" stroke-linejoin="round" stroke-miterlimit="10" d="
	M70.5,13.3l3,3L70.5,13.3z"/>
<path fill="none" stroke="#000000" stroke-width="2" stroke-linecap="round" stroke-linejoin="round" stroke-miterlimit="10" d="
	M72,18.7l-4-1.6L72,18.7z"/>
<path fill="none" stroke="#000000" stroke-width="2" stroke-linecap="round" stroke-linejoin="round" stroke-miterlimit="10" d="
	M55.8,46.6c1.7-0.1,3.3-0.3,4.8-0.5L72,18.7c0.4-0.9,0.9-1.7,1.6-2.3l0,0c0.7-0.7,1.4-1.2,2.3-1.5c0.8-0.4,1.8-0.5,2.7-0.5l0,0H90
	V10H78.6c-1.6,0-3,0.3-4.4,0.9c-1.4,0.6-2.7,1.4-3.7,2.5l0,0c-1.1,1.1-1.9,2.3-2.5,3.7l0,0L55.8,46.6z"/>
<path fill="none" stroke="#000000" stroke-width="2" stroke-linecap="round" stroke-linejoin="round" stroke-miterlimit="10" d="
	M59.4,37.8C55,37.3,49.9,37,44.3,37c-15.8,0-28.6,2.2-28.6,5s12.8,5,28.6,5c4.1,0,8-0.2,11.5-0.4L59.4,37.8z"/>
<path fill="none" stroke="#000000" stroke-width="2" stroke-linecap="round" stroke-linejoin="round" stroke-miterlimit="10" d="
	M63.8,38.4l-3.2,7.7c7.4-0.9,12.2-2.4,12.2-4.1C72.9,40.6,69.4,39.3,63.8,38.4z"/>
<path fill="none" stroke="#000000" stroke-width="2" stroke-linecap="round" stroke-linejoin="round" stroke-miterlimit="10" d="
	M78.6,42c0,26.5-15.4,48-34.3,48S10,68.5,10,42c0,4.7,15.4,8.6,34.3,8.6S78.6,46.7,78.6,42z"/>
<path fill="none" stroke="#000000" stroke-width="2" stroke-linecap="round" stroke-linejoin="round" stroke-miterlimit="10" d="
	M65.1,35.2l-4.5,10.9c-1.5,0.2-3.1,0.3-4.8,0.5l5-12.1c-4.9-0.7-10.5-1.1-16.5-1.1C25.4,33.4,10,37.3,10,42s15.4,8.6,34.3,8.6
	s34.3-3.8,34.3-8.6C78.6,39.2,73.3,36.8,65.1,35.2z"/>
<path fill="none" stroke="#000000" stroke-width="2" stroke-linecap="round" stroke-linejoin="round" stroke-miterlimit="10" d="
	M62.8,11.8L32,12.2L62.8,11.8z"/>
<path fill="none" stroke="#000000" stroke-width="2" stroke-linecap="round" stroke-linejoin="round" stroke-miterlimit="10" d="
	M53.6,20.8L32,12.2L53.6,20.8z"/>
<path fill="none" stroke="#000000" stroke-width="2" stroke-linecap="round" stroke-linejoin="round" stroke-miterlimit="10" d="
	M44.1,26.5L32,12.2L44.1,26.5z"/>
<path fill="none" stroke="#000000" stroke-width="2" stroke-linecap="round" stroke-linejoin="round" stroke-miterlimit="10" d="
	M10,33.7l22-21.5L10,33.7z"/>
<path fill="none" stroke="#000000" stroke-width="2" stroke-linecap="round" stroke-linejoin="round" stroke-miterlimit="10" d="
	M22.8,33.6L32,12.2L22.8,33.6z"/>
<path fill="none" stroke="#000000" stroke-width="2" stroke-linecap="round" stroke-linejoin="round" stroke-miterlimit="10" d="
	M33.6,30.9L32,12.2L33.6,30.9z"/>
<path fill="none" stroke="#000000" stroke-width="2" stroke-linecap="round" stroke-linejoin="round" stroke-miterlimit="10" d="
	M57.7,11.9C45.5,24,29.6,30.1,13.7,30.1l0,0L32,12.2L57.7,11.9z"/>
<path fill="none" stroke="#000000" stroke-width="2" stroke-linecap="round" stroke-linejoin="round" stroke-miterlimit="10" d="
	M31.1,10l0.9,2.2L31.1,10z"/>
<path fill="none" stroke="#000000" stroke-width="2" stroke-linecap="round" stroke-linejoin="round" stroke-miterlimit="10" d="
	M37.5,25.4L46.4,47L37.5,25.4z"/>
<path fill="none" stroke="#000000" stroke-width="2" stroke-linecap="round" stroke-linejoin="round" stroke-miterlimit="10" d="
	M19.3,56.4l4.3,4.3L19.3,56.4z"/>
<path fill="none" stroke="#000000" stroke-width="2" stroke-linecap="round" stroke-linejoin="round" stroke-miterlimit="10" d="
	M40.7,60.7L45,65L40.7,60.7z"/>
<path fill="none" stroke="#000000" stroke-width="2" stroke-linecap="round" stroke-linejoin="round" stroke-miterlimit="10" d="
	M65,57.9l4.3,4.3L65,57.9z"/>
<path fill="none" stroke="#000000" stroke-width="2" stroke-linecap="round" stroke-linejoin="round" stroke-miterlimit="10" d="
	M40.7,76.4l-4.3,4.3L40.7,76.4z"/>
<path fill="none" stroke="#000000" stroke-width="2" stroke-linecap="round" stroke-linejoin="round" stroke-miterlimit="10" d="
	M57.9,56.4l-4.3,4.3L57.9,56.4z"/>
<path fill="none" stroke="#000000" stroke-width="2" stroke-linecap="round" stroke-linejoin="round" stroke-miterlimit="10" d="
	M31.4,64.1v6.1V64.1z"/>
<path fill="none" stroke="#000000" stroke-width="2" stroke-linecap="round" stroke-linejoin="round" stroke-miterlimit="10" d="
	M48.6,77v6V77z"/>
<path fill="none" stroke="#000000" stroke-width="2" stroke-linecap="round" stroke-linejoin="round" stroke-miterlimit="10" d="
	M55.5,71.4h6.1H55.5z"/>
</symbol>

    <!-- etc -->

  </defs>
</svg>