<?xml version="1.0" encoding="utf-8"?>
<!-- Generator: Adobe Illustrator 20.1.0, SVG Export Plug-In . SVG Version: 6.00 Build 0)  -->
<svg version="1.1" id="Layer_1" xmlns="http://www.w3.org/2000/svg" xmlns:xlink="http://www.w3.org/1999/xlink" x="0px" y="0px"
	 viewBox="0 0 256 258" style="enable-background:new 0 0 256 258;" xml:space="preserve">
<path d="M81.5,116v27.9c0,0,0,0.1,0.1,0.1h46.1c0,0,0.1,0,0.1,0.1c-1.9,12-14,35.1-46.2,35.1c-27.8,0-50.5-23-50.5-51.4
	s22.7-51.4,50.5-51.4c15.8,0,26.4,6.7,32.4,12.5c0,0,0.1,0,0.1,0l22-21.2c0,0,0-0.1,0-0.1c-14.2-13.2-32.6-21.2-54.5-21.2
	C36.4,46.2,0,82.6,0,127.7s36.4,81.5,81.5,81.5c47,0,78.2-33,78.2-79.6c0-5.3-0.6-9.4-1.3-13.4c0,0,0-0.1-0.1-0.1H81.5L81.5,116z"/>
<path d="M81.5,117.4h76.9c0,0,0.1,0,0.1,0.1c0.8,3.8,1.3,7.9,1.3,12.7v-0.8c0-5.3-0.6-9.4-1.3-13.4c0,0,0-0.1-0.1-0.1
	H81.5V117.4L81.5,117.4z M81.5,47.6c21.5,0,39.7,7.8,53.6,20.6l0.8-0.8C121.3,53.8,102.1,45.6,79,46.3c-44.2,1.2-79,38-79,82.1l0,0
	C0.5,83.8,36.8,47.6,81.5,47.6L81.5,47.6z M81.5,180.5c32.2,0,44.3-23,46.2-35.1h-0.3c-2.6,12.3-14.8,33.6-45.8,33.6
	c-27.6,0-50-22.7-50.4-50.6c0,0.2-0.1,0.5-0.1,0.7C31,157.5,53.6,180.5,81.5,180.5L81.5,180.5z"/>
<path d="M81.5,76.2c-27.8,0-50.5,23-50.5,51.4c0,0.2,0.1,0.5,0.1,0.7c0.3-28,22.8-50.6,50.4-50.6
	c15.8,0,26.4,6.7,32.4,12.5c0,0,0.1,0,0.1,0L136,69c-0.2-0.2-0.6-0.5-0.8-0.7L114,88.9c0,0-0.1,0-0.1,0
	C107.8,83.1,97.2,76.2,81.5,76.2L81.5,76.2z M81.5,144v1.4h45.8c0.1-0.5,0.2-1,0.3-1.4H81.5L81.5,144z"/>
<path d="M81.5,209.1c-44.7,0-81-36.1-81.5-80.8l0,0.4c0,44.1,35,80.7,79.1,81.7c48.3,1.1,80.6-32.2,80.6-79.6v-0.7
	C159.3,176.4,128.2,209.1,81.5,209.1L81.5,209.1z"/>
<path d="M256,116h-23.2c0,0-0.1,0-0.1-0.1V92.8c0,0,0-0.1-0.1-0.1h-23.1c0,0-0.1,0-0.1,0.1V116c0,0,0,0.1-0.1,0.1h-23.1
	c0,0-0.1,0-0.1,0.1v23.1c0,0,0,0.1,0.1,0.1h23.1c0,0,0.1,0,0.1,0.1v23.1c0,0,0,0.1,0.1,0.1h23.1c0,0,0.1,0,0.1-0.1v-23.1
	c0,0,0-0.1,0.1-0.1H256"/>
<path d="M232.7,116H256v1.4h-23.3V116z M209.5,92.8h23.3v1.4h-23.3V92.8z M186.2,116h23.3v1.4h-23.3V116z"/>
<path d="M186.2,139.3h23.3v1.4h-23.3V139.3z M232.7,139.3H256v1.4h-23.3V139.3z M209.5,162.6h23.3v1.4h-23.3V162.6z"/>
</svg>
