<?xml version="1.0" encoding="iso-8859-1"?>
<!-- Generator: Adobe Illustrator 21.0.0, SVG Export Plug-In . SVG Version: 6.00 Build 0)  -->
<svg version="1.1" id="health" xmlns="http://www.w3.org/2000/svg" xmlns:xlink="http://www.w3.org/1999/xlink" x="0px" y="0px"
	 viewBox="0 0 414 211" style="enable-background:new 0 0 414 211;" xml:space="preserve">
<path style="fill:#FFFFFF;" d="M274.33,3.848c-2.717,5.706-6.249,11.14-9.51,16.574c-3.26,5.706-6.521,11.412-9.51,17.117
	c-2.989,5.706-5.978,11.683-8.423,17.389c-1.359,2.989-2.717,6.249-4.076,9.781c-0.815,2.445-1.902,4.891-2.445,7.608
	c-1.902,9.781,1.359,19.019,5.706,27.714c1.902,4.347,4.347,8.423,6.521,12.498c0.815,2.174,2.174,4.076,2.989,6.249
	c0.543,0.815,0.815,2.174,1.087,2.989c0.272,0.272,0.272,0.543,0.272,0.815l0,0h0.272c0.272,0.815,0.543,1.087,0.815,1.902
	c1.359,3.804,2.445,7.879,2.989,11.683l0,0c0.272,0.272,0.272,0.272,0.272,0.543c0,0.543,0,0.815,0,1.63
	c0,1.087,0.272,2.174,0.272,3.26c0.543,1.63,0.543,3.532,0.543,5.162c0,0.815-0.272,1.902-0.272,2.717
	c0,0.543-0.272,0.815-0.272,1.63c0,0.272,0,0.543,0,0.543s0,0,0,0.272l0,0c-0.543,1.902-0.815,4.076-0.815,5.978
	c-0.272,1.902-0.815,4.076-0.815,6.249c-0.272,2.445-0.543,4.347-0.815,6.521c0,0.815,0.272,2.174,0.815,2.717
	c0.815,0.543,2.717,0.272,2.989-0.815c1.087-2.717,2.717-5.434,3.26-8.151c0.815-2.717,1.359-5.162,1.902-7.879
	c0.815-5.162,1.087-10.325,0.815-15.759s-1.087-11.412-2.989-16.574c-1.359-4.347-3.532-8.966-5.706-13.314
	c-2.174-4.347-4.347-8.423-6.249-12.77c-0.543-0.815-0.815-2.174-1.359-2.989c-0.272-0.543-0.272-0.815-0.543-1.087
	c0-0.272-0.272-0.272-0.272-0.272c0-0.272-0.272-0.815-0.272-0.815c-0.815-2.174-1.63-4.347-2.174-6.249
	c-0.272-0.815-0.543-2.174-0.815-2.989c0-0.272,0-0.543-0.272-0.815l0,0c0-0.543,0-1.087,0-1.63c0.272-1.63,0.272-2.717,0.272-3.804
	c0-0.543,0-0.815,0-1.63c0.272-0.272,0.272-0.543,0.272-0.815l0,0l0,0c0.272-2.717,1.087-4.891,2.174-7.336
	c0.543-1.359,0.815-2.717,1.63-4.347c0.272-0.815,0.815-1.359,0.815-2.174l0,0v-0.272c0.272-0.543,0.543-0.815,0.815-1.359
	c0.272-0.815,0.543-0.815,0.815-1.63c0.272-0.272,0.272-0.815,0.272-0.815c0.272-0.272,0.272-0.543,0.543-0.815
	c0.543-1.087,0.815-2.174,1.087-3.26c0.815-2.445,2.174-4.347,2.989-6.793c2.174-4.347,4.076-8.966,5.978-13.585
	c3.804-8.966,7.608-18.204,11.683-27.171C277.862,3.576,275.417,1.946,274.33,3.848z"/>
<path style="fill:#FFFFFF;" d="M223.249,181L223.249,181L223.249,181c-0.272-0.272-0.543-0.272-0.815-0.543
	c-0.272-0.272,0,0-0.272-0.272c0,0-0.815-0.815-0.543-0.543c-0.815-0.815-1.902-1.63-2.717-2.445
	c-0.543-0.543-0.815-0.815-1.087-1.359c0,0-0.272-0.543-0.543-0.543c0-0.272-0.272-0.543-0.543-0.815
	c-0.272-0.272-0.272-0.543-0.543-0.815c0,0,0,0-0.272,0c-0.272-0.543-0.543-0.815-0.815-0.815c-0.543-0.815-0.815-1.087-1.087-1.902
	c-1.63-2.445-2.989-4.891-4.347-7.608c-0.272-0.543-0.543-0.815-0.815-1.359c0,0-0.272-0.272-0.272-0.543s-0.272-0.543-0.272-0.815
	c-0.543-0.815-0.815-1.902-0.815-2.989c0.272,0,0.272,0,0.272-0.272c1.63-2.174,2.989-4.347,4.347-6.521
	c0.815-2.174,1.902-4.347,2.717-6.249c0.815-1.902,1.087-4.076,1.63-6.249c0.815-4.347,1.63-8.423,1.63-12.77
	c0-4.076-0.543-7.879-0.815-11.683c-0.272-0.815-1.902-0.815-1.63,0.272c0.543,4.076,0,8.151-0.815,11.955
	c-0.543,2.174-0.815,4.076-1.359,6.249c-0.543,0.815-0.815,1.902-1.087,2.717c-0.272,0.543-0.272,0.815-0.543,1.359
	c0,0,0,0-0.272,0.272l0,0c0,0.272-0.272,0.543-0.543,0.815c-1.902,3.804-3.804,7.336-6.249,10.868
	c-0.272,0.272-0.815,0.815-0.815,1.087l0,0c0,0.272-0.272,0.272-0.272,0.543c-0.815,0.815-1.359,1.63-2.174,2.445
	c-1.359,1.63-2.717,2.989-4.347,4.347c-0.543,0.543-1.087,0.815-1.902,1.63c0,0-0.815,0.543-0.815,0.815
	c-0.543,0.543-0.815,0.815-1.359,0.815c-1.63,1.087-3.26,2.174-5.162,2.717c-0.272,0-0.272,0-0.272,0.272c-0.272,0-0.272,0-0.543,0
	c-0.272,0.272-0.815,0.272-1.087,0.543c-0.815,0.543-1.902,0.815-2.989,0.815c-0.815,0.272-1.902,0.543-2.717,0.543
	c-0.272,0-0.272,0-0.272,0c0.815,0,0.815,0-0.543,0c0,0,0,0-0.272,0c-0.543,0-0.815,0.272-1.359,0.272
	c-2.174,0.543-4.347,0.543-5.434,2.445c-0.543,0.815-0.815,1.63-0.543,2.717c0.543,1.087,1.359,2.445,2.717,2.717
	c2.717,0.815,5.162,0.272,7.879-0.272c4.347-0.815,8.151-2.445,11.955-4.347c2.717-1.359,5.162-3.26,7.608-5.434
	c0.543,1.359,0.815,2.717,1.63,3.804c1.63,2.989,3.26,5.706,5.706,8.151c2.174,2.445,4.347,4.619,7.064,6.249
	c1.087,0.543,2.717,1.087,3.804,1.359c0.815,0,1.087,0,1.902,0c0.543,0,0.815,0,0.815-0.272c0.272,0,0.543-0.272,0.543-0.272l0,0
	l0,0C224.336,182.902,224.336,181,223.249,181z"/>
<path style="fill:#FFFFFF;" d="M181.135,76.393c1.359-2.174,2.717-4.619,3.532-7.064c1.902-4.619,2.717-9.781,2.717-14.944
	c0.272-5.162-0.815-10.597-1.63-15.759c-1.087-5.162-2.174-10.053-3.532-15.216c-1.63-5.978-2.989-11.683-3.532-17.933
	c-0.272-2.445-3.26-2.445-3.532,0c0,4.619,0.272,9.51,0.815,14.129c0.272,2.717,0.543,5.434,0.815,8.151
	c0.272,1.087,0.272,2.717,0.543,3.804l0,0v0.272c0,0.272,0.272,0.815,0.272,0.815c0,0.815,0.272,1.359,0.272,2.174
	c0.815,5.162,1.087,10.053,1.087,15.216c0,2.717,0,4.891-0.272,7.336c0,0.272,0,0.815,0,0.815l0,0c0,0.543-0.272,0.815-0.272,1.63
	c-0.272,1.087-0.543,2.445-0.815,3.532c-0.272,0.815-0.543,2.174-0.815,3.26l0,0c0,0.272-0.272,0.543-0.272,0.815
	c-0.272,0.543-0.543,1.087-0.815,1.902c-0.815,0.815-1.087,1.902-1.902,2.717l-0.272,0.272c0,0-0.272,0.272-0.543,0.543
	c-0.543,0.543-0.815,1.087-1.087,1.63c-3.804,4.076-8.151,7.879-11.683,11.412c-4.347,4.076-8.151,8.151-11.14,12.77
	c-1.63,2.717-2.989,5.162-4.076,8.151c-1.359,2.989-2.717,6.249-3.804,9.51c-2.445,6.249-3.532,12.77-4.347,19.019
	c-0.815,6.249-0.543,12.227,0.815,18.476c1.902,11.412,6.249,22.28,11.14,32.876c2.989,6.793,6.249,13.585,9.781,20.378
	c1.087,1.902,3.804,0.543,3.532-1.359c-1.087-5.434-3.26-10.597-5.434-15.759c-2.174-5.434-4.076-10.597-5.978-16.031
	s-3.26-10.868-4.347-16.574c-0.272-1.087-0.543-2.717-0.815-4.076c0,0,0-0.543-0.272-0.543c0-0.272,0-0.543,0-0.815
	c0-0.815-0.272-1.63-0.272-2.445c-0.272-2.717-0.543-5.978-0.272-8.966c0-1.63,0.272-2.989,0.272-4.347c0,0,0-0.272,0.272-0.272
	c0,0,0,0,0-0.272s0-0.815,0-0.815c0.272-0.815,0.272-1.902,0.543-2.717c0.815-2.989,1.087-6.249,2.445-9.238
	c0.815-2.989,1.902-5.978,2.989-8.695c0,0,0.272-0.543,0.272-0.815c0-0.543,0.272-0.815,0.543-1.087
	c0.272-0.815,0.543-1.359,0.815-2.174c0.815-1.359,1.087-2.989,2.174-4.347c0.815-1.087,1.359-2.445,2.174-3.532
	c0.543-0.543,0.815-0.815,1.087-1.63c0-0.272,0-0.272,0.272-0.543l0.543-0.815c1.902-2.174,3.532-4.076,5.706-5.978
	c3.804-3.804,8.151-7.336,11.683-11.14C177.603,80.741,179.505,78.839,181.135,76.393z"/>
<path style="fill:#FFFFFF;" d="M223.793,23.411c-5.706,7.336-9.238,16.302-11.683,25.269c-1.359,4.891-2.717,9.781-2.989,15.216
	c0,2.445-0.272,4.619-0.272,6.793c0.272,2.445,0.815,4.347,1.087,6.521c0.815,3.532,5.978,2.717,5.978-0.815
	c0-0.543,0-0.815,0-1.087s0-0.543,0-0.815c0,0.815,0,0,0,0c0.272-1.087,0.272-2.717,0.272-3.804c0.272-2.174,0-4.347,0.272-6.521
	c0.272-2.445,0.272-4.619,0.543-7.064c0-1.087,0.272-2.445,0.543-3.532v-0.272c0,0,0,0,0-0.272c0-0.272,0-0.543,0.272-0.815
	c0-0.815,0-1.087,0.272-1.902c1.087-8.423,3.26-17.661,8.151-24.997C226.51,23.682,224.88,22.324,223.793,23.411z"/>
</svg>
