<svg id="Layer_1" data-name="Layer 1" xmlns="http://www.w3.org/2000/svg" viewBox="0 0 36.82 18.06"><title>bg</title><path d="M35.93,20.69H38a.23.23,0,0,0,.23-.23V16.88a.23.23,0,0,0-.23-.23h0l0,0v-1a.12.12,0,0,0-.12-.12h0V12.48a.12.12,0,0,0-.18-.1l-1.35.81a.12.12,0,0,0-.06.1V15.6h0a.12.12,0,0,0-.12.12v1.73l-.12,0a.23.23,0,0,0-.2.22v2.75A.23.23,0,0,0,35.93,20.69Zm1.51-7.94a.87.87,0,0,1-.9.54Zm-1,.76.21,0a1.1,1.1,0,0,0,.52-.12,1.11,1.11,0,0,0,.39-.35V15.6H36.42Zm-.16,2.33h1.43v.93l-1.23.5-.2.08Zm-.31,1.89h0l.2-.08h0l.32-.13,1.5-.6v3.54H35.95Z" transform="translate(-16.18 -12.26)" fill="#1f9b89"/><rect x="20.9" y="1.41" width="0.24" height="0.83" fill="#1f9b89"/><path d="M37.12,14.8a.12.12,0,0,0,0,.17.12.12,0,0,0,.08,0,.12.12,0,0,0,.09,0,.12.12,0,0,0,0-.09.12.12,0,0,0,0-.08A.12.12,0,0,0,37.12,14.8Z" transform="translate(-16.18 -12.26)" fill="#1f9b89"/><rect x="21.42" y="6.63" width="0.24" height="1.26" fill="#1f9b89"/><path d="M37.64,18.47a.13.13,0,0,0,0,.09.12.12,0,0,0,.12.12.12.12,0,0,0,.12-.12.12.12,0,0,0-.21-.09Z" transform="translate(-16.18 -12.26)" fill="#1f9b89"/><path d="M41.52,20.47V15a.23.23,0,0,0-.23-.23H39.2A.23.23,0,0,0,39,15v5.49a.23.23,0,0,0,.23.23h2.09A.23.23,0,0,0,41.52,20.47ZM41.28,15v4.05h-.44v.24h.44v.43H39.22v-.43h1.32v-.24H39.22V15Zm-2.06,5.46V20h2.06v.49Z" transform="translate(-16.18 -12.26)" fill="#1f9b89"/><path d="M19,16.63l-.56-4.37H17.43l-.56,4.37a2.28,2.28,0,0,0-.68,1.67v1.92h.22a.53.53,0,0,0,.58.46h1.93a.53.53,0,0,0,.58-.46h.23V18.3A2.29,2.29,0,0,0,19,16.63ZM17.64,12.5h.63l.51,4H17.13Zm1.28,7.95H17c-.18,0-.34-.1-.34-.22h2.61C19.26,20.35,19.11,20.45,18.92,20.45Zm.57-.46H16.42V18.3a2,2,0,0,1,.71-1.59h1.65a2,2,0,0,1,.71,1.59Z" transform="translate(-16.18 -12.26)" fill="#1f9b89"/><path d="M18,17.59a1,1,0,1,0,1,1A1,1,0,0,0,18,17.59Zm0,1.79a.77.77,0,1,1,.77-.77A.78.78,0,0,1,18,19.38Z" transform="translate(-16.18 -12.26)" fill="#1f9b89"/><path d="M18.66,17l-.14.19a1.31,1.31,0,0,1,.4.51l.22-.1A1.55,1.55,0,0,0,18.66,17Z" transform="translate(-16.18 -12.26)" fill="#1f9b89"/><rect x="18.1" y="13.3" width="0.24" height="1.92" transform="translate(-17.81 -9.9) rotate(-7.11)" fill="#1f9b89"/><path d="M18.5,15.66a.12.12,0,0,0-.17,0,.12.12,0,0,0,0,.08.12.12,0,0,0,.12.12.12.12,0,0,0,.09,0,.12.12,0,0,0,0-.17Z" transform="translate(-16.18 -12.26)" fill="#1f9b89"/><rect x="20.45" y="18.65" width="1.92" height="0.24" transform="translate(-16.04 25.43) rotate(-82.89)" fill="#1f9b89"/><path d="M21.6,17.4a.12.12,0,0,0,.09-.21.12.12,0,0,0-.21.09.12.12,0,0,0,0,.09A.12.12,0,0,0,21.6,17.4Z" transform="translate(-16.18 -12.26)" fill="#1f9b89"/><path d="M19.13,18a.12.12,0,0,0,.09-.21.12.12,0,0,0-.21.09.12.12,0,0,0,0,.09A.12.12,0,0,0,19.13,18Z" transform="translate(-16.18 -12.26)" fill="#1f9b89"/><path d="M21.27,13.59h.08l.16-.93h-.73l.16.93H21v2.72H20l.57,4.45h1.06l.58-4.45h-1Zm0-.69-.08.43-.08-.43Zm.24,7.62h-.63l-.51-4H22Z" transform="translate(-16.18 -12.26)" fill="#1f9b89"/><path d="M33.24,24.44v0a1.76,1.76,0,0,0-.44-.46h0a1.76,1.76,0,0,0-2,0l0,0v0a.14.14,0,0,0,0,.12l.47,1.46-.1.48-.67,4,0,0a.55.55,0,0,0,.38.17.51.51,0,0,0,.21,0l.05,0,1-4,.1-.47,1-1.15a.14.14,0,0,0,0-.12ZM30.92,30h-.06A.3.3,0,0,1,30.7,30l.63-3.8.35.07,0-.24-.35-.07.06-.28.52.11-.08.39ZM32,25.54l-.63-.13L31,24.08a1.51,1.51,0,0,1,.3-.13l0,.63a.12.12,0,0,0,.12.11h0a.12.12,0,0,0,.11-.13l0-.67.23,0h.18l-.15.55a.12.12,0,0,0,.08.15h0A.12.12,0,0,0,32,24.5l.15-.57a1.51,1.51,0,0,1,.38.16l-.65,1a.12.12,0,0,0,0,.17l.07,0a.12.12,0,0,0,.1-.05l.64-1a1.53,1.53,0,0,1,.23.25Z" transform="translate(-16.18 -12.26)" fill="#1f9b89"/><path d="M29.67,23.49c0-.44-1-.64-2-.64s-2,.2-2,.64,1,.64,2,.64S29.67,23.94,29.67,23.49Zm-3.77,0c0-.14.62-.4,1.76-.4s1.76.26,1.76.4-.62.4-1.76.4S25.9,23.63,25.9,23.49Z" transform="translate(-16.18 -12.26)" fill="#1f9b89"/><path d="M28.87,25.25h0a.55.55,0,0,1,0-.77c.9-.17,1.49-.54,1.49-1,0-.62-1.15-1.09-2.68-1.09S25,22.87,25,23.49c0,.44.58.81,1.47,1a.55.55,0,0,1,0,.77l0,0a2.68,2.68,0,1,0,2.44,0Zm-3.64-1.75c0-.4,1-.85,2.44-.85s2.44.45,2.44.85-1,.85-2.44.85S25.23,23.9,25.23,23.49Zm1.55,1a6.84,6.84,0,0,0,1.75,0,.79.79,0,0,0-.07.33.8.8,0,0,0,0,.24,2.67,2.67,0,0,0-1.69,0A.8.8,0,0,0,26.78,24.53Zm.9,5.56a2.44,2.44,0,1,1,2.44-2.44A2.44,2.44,0,0,1,27.68,30.08Z" transform="translate(-16.18 -12.26)" fill="#1f9b89"/><path d="M27.68,25.47a2.18,2.18,0,1,0,2.18,2.18A2.18,2.18,0,0,0,27.68,25.47Zm-1.94,2.18a1.94,1.94,0,0,1,1.82-1.93v3.87A1.94,1.94,0,0,1,25.74,27.65Zm2.06,1.93V25.71a1.94,1.94,0,0,1,0,3.87Z" transform="translate(-16.18 -12.26)" fill="#1f9b89"/><path d="M52.88,21.66,51.36,22l-2.94-.13A2.08,2.08,0,1,0,45.71,25a.85.85,0,0,0,0,.18l.5,3a.85.85,0,0,0,.83.7h.15l.2,0,.08.76a.12.12,0,0,0,.12.11h0a.12.12,0,0,0,.11-.13l-.08-.78h.07a.85.85,0,0,0,.68-1l-.27-1.57h.19v-.92H48l0-.17a2.08,2.08,0,0,0,.48-.39l.13-.15h.06l2.84-.38L53,24.4Zm-4.81,3.85v.32L48,25.51Zm.08,2.3a.6.6,0,0,1-.49.7l-.5.09a.61.61,0,0,1-.7-.49l-.5-3a2.06,2.06,0,0,0,.93.22H47a2.08,2.08,0,0,0,.74-.17Zm.58-4.59a1.84,1.84,0,0,1-2.81,1.64l0,0a1.84,1.84,0,1,1,2.38-2.76h0a1.85,1.85,0,0,1,.29.43l.22-.1a2.08,2.08,0,0,0-.16-.28l2.64.11,0,1.16h.24l0-1.17.71-.16.08,2-.82-.11h-.05l-2.71.36a2.07,2.07,0,0,0,.26-1.1Zm3.8.87L52.44,22l.21,0,.09,2.16Z" transform="translate(-16.18 -12.26)" fill="#1f9b89"/><path d="M45.92,23.48l1.34-1.08a.12.12,0,0,0-.15-.19l-1.34,1.08a.12.12,0,0,0,.08.21Z" transform="translate(-16.18 -12.26)" fill="#1f9b89"/><path d="M47.87,23.12l-1.34,1.08a.12.12,0,0,0,.15.19L48,23.31a.12.12,0,0,0-.15-.19Z" transform="translate(-16.18 -12.26)" fill="#1f9b89"/><path d="M47.91,22.44a.12.12,0,0,0-.17,0l-1.95,1.63a.12.12,0,1,0,.15.18l1.94-1.63A.12.12,0,0,0,47.91,22.44Z" transform="translate(-16.18 -12.26)" fill="#1f9b89"/></svg>