<?xml version="1.0" encoding="utf-8"?>
<!-- Generator: Adobe Illustrator 19.0.1, SVG Export Plug-In . SVG Version: 6.00 Build 0)  -->
<svg version="1.1" id="Layer_1" xmlns="http://www.w3.org/2000/svg" xmlns:xlink="http://www.w3.org/1999/xlink" x="0px" y="0px"
	 viewBox="0 0 193 205" style="enable-background:new 0 0 193 205;" xml:space="preserve">
<style type="text/css">
	.st0{fill:#009FE3;}
	.st1{fill:#83CDDB;}
</style>
<g>
	<path class="st0" d="M119.7,112.2c0,0,30.6-20.8,53.6-52.5c0,0,8.1-10.7,12.6,0.6c0,0,18,49.9-53.6,86.1c0,0-33.1,17.9-74.2,15.9
		c0,0,8.5-24.1,41.9-38.1L119.7,112.2z"/>
	<path class="st1" d="M15.6,154c0,0,61.9-3.4,48-26.1c0,0-47.4-61.2-53-87S13.4,5.3,20.7,7.8l74.6,67.1c0,0,38.4,30,25.3,59.2
		c0,0-10.4,34.8-74.4,27.5C46.2,161.6,4.1,158.2,15.6,154z"/>
	<g>
		<g>
			<path class="st1" d="M159.6,67.5c-15-18-37.1-28.4-60.5-28.4c-10.7,0-21.1,2.1-30.8,6.3l-1.2-2.8C77.2,38.2,88,36,99.1,36
				c24.4,0,47.3,10.8,62.9,29.5L159.6,67.5z"/>
		</g>
	</g>
	<g>
		<g>
			<path class="st1" d="M23.5,149c-4.1-9.9-6.2-20.4-6.2-31.2c0-11.9,2.5-23.4,7.5-34.2l2.8,1.3c-4.8,10.4-7.2,21.4-7.2,32.9
				c0,10.4,2,20.5,5.9,30L23.5,149z"/>
		</g>
	</g>
	<g>
		<g>
			<path class="st1" d="M99.1,199.6c-25.8,0-50.3-12.4-65.7-33.1l2.5-1.9c14.8,19.9,38.4,31.8,63.2,31.8c43.4,0,78.7-35.3,78.7-78.7
				h3.1C180.9,162.9,144.2,199.6,99.1,199.6z"/>
		</g>
	</g>
</g>
</svg>
