<?xml version="1.0" encoding="utf-8"?>
<!-- Generator: Adobe Illustrator 19.0.1, SVG Export Plug-In . SVG Version: 6.00 Build 0)  -->
<svg version="1.1" id="Layer_1" xmlns="http://www.w3.org/2000/svg" xmlns:xlink="http://www.w3.org/1999/xlink" x="0px" y="0px"
	 viewBox="-7 200.1 595.3 389" style="enable-background:new -7 200.1 595.3 389;" xml:space="preserve">
<style type="text/css">
	.st0{fill:#83CDDB;}
	.st1{fill:#36A9E1;}
	.st2{fill:#009FE3;}
</style>
<g>
	<g>
		<path class="st0" d="M105,515.8c-3.2,1.3-7.3,2.6-12.4,3.8s-10.1,1.8-15,1.8c-11.4,0-20.4-3.3-27.2-9.8
			c-6.7-6.6-10.1-15.9-10.1-27.9c0-11.3,3.4-20.4,10.1-27.2c6.8-6.8,16-10.2,27.7-10.2c6.1,0,11,0.6,14.8,1.7s7.7,2.7,11.7,4.7v16.9
			h-1.7c-0.9-0.7-2.1-1.6-3.8-2.9c-1.6-1.2-3.2-2.3-4.8-3.2c-1.8-1-3.9-1.9-6.3-2.7c-2.4-0.7-4.9-1.1-7.6-1.1
			c-3.1,0-5.9,0.5-8.5,1.5s-4.8,2.5-6.8,4.5c-1.9,1.9-3.4,4.4-4.5,7.4s-1.7,6.4-1.7,10.4c0,8.4,2.1,14.7,6.4,18.7c4.2,4,10,6,17.4,6
			c0.6,0,1.4,0,2.3,0s1.6-0.1,2.3-0.1v-14.2h-14v-13.6H105V515.8z"/>
		<path class="st0" d="M167.6,492.7c0,9-2.5,16-7.4,21.2s-11.8,7.7-20.8,7.7c-8.9,0-15.8-2.6-20.8-7.7c-4.9-5.2-7.4-12.2-7.4-21.2
			c0-9.1,2.5-16.2,7.4-21.3c4.9-5.1,11.9-7.7,20.8-7.7c8.9,0,15.9,2.6,20.8,7.7C165.2,476.6,167.6,483.7,167.6,492.7z M150.2,492.8
			c0-3.2-0.3-5.9-0.8-8.1s-1.3-3.9-2.2-5.2c-1-1.4-2.1-2.3-3.4-2.8c-1.3-0.5-2.7-0.8-4.3-0.8c-1.5,0-2.9,0.2-4.1,0.7
			c-1.2,0.5-2.4,1.4-3.4,2.7c-1,1.3-1.7,3-2.3,5.2s-0.9,5-0.9,8.3s0.3,6,0.8,8.1c0.6,2.1,1.3,3.7,2.1,4.9c0.9,1.3,2,2.2,3.4,2.8
			s2.9,0.9,4.5,0.9c1.4,0,2.7-0.3,4.2-0.9c1.4-0.6,2.5-1.5,3.4-2.6c1-1.4,1.8-3.1,2.3-5C149.9,499,150.2,496.3,150.2,492.8z"/>
		<path class="st1" d="M223.5,461.4h-30.4v13.7H221v13.8h-27.9V520H175v-72.3h48.4v13.7H223.5z"/>
		<path class="st1" d="M281.8,492.7c0,9-2.5,16-7.4,21.2s-11.8,7.7-20.8,7.7c-8.9,0-15.8-2.6-20.8-7.7c-4.9-5.2-7.4-12.2-7.4-21.2
			c0-9.1,2.5-16.2,7.4-21.3c4.9-5.1,11.9-7.7,20.8-7.7c8.9,0,15.9,2.6,20.8,7.7C279.4,476.6,281.8,483.7,281.8,492.7z M264.4,492.8
			c0-3.2-0.3-5.9-0.8-8.1s-1.3-3.9-2.2-5.2c-1-1.4-2.1-2.3-3.4-2.8s-2.7-0.8-4.3-0.8c-1.5,0-2.9,0.2-4.1,0.7
			c-1.2,0.5-2.4,1.4-3.4,2.7c-1,1.3-1.7,3-2.3,5.2s-0.9,5-0.9,8.3s0.3,6,0.8,8.1c0.6,2.1,1.3,3.7,2.1,4.9c0.9,1.3,2,2.2,3.4,2.8
			s2.9,0.9,4.5,0.9c1.4,0,2.7-0.3,4.2-0.9c1.4-0.6,2.5-1.5,3.4-2.6c1-1.4,1.8-3.1,2.3-5C264.1,499,264.4,496.3,264.4,492.8z"/>
		<path class="st1" d="M325,481.5h-1.4c-0.6-0.2-1.6-0.4-2.8-0.5c-1.2-0.1-2.6-0.2-4.1-0.2c-1.8,0-3.6,0.3-5.6,0.8s-3.9,1.1-5.7,1.8
			v36.5h-17v-54.5h17v7.8c0.8-0.7,1.9-1.6,3.2-2.7c1.4-1.1,2.6-2,3.8-2.6c1.2-0.7,2.7-1.4,4.3-1.9c1.6-0.5,3.2-0.8,4.6-0.8
			c0.6,0,1.2,0,1.8,0c0.7,0,1.3,0.1,1.8,0.1v16.2H325z"/>
		<path class="st0" d="M361.1,521.4c-10.8,0-19.5-3.3-25.8-9.8c-6.4-6.6-9.6-15.8-9.6-27.7c0-11.5,3.2-20.6,9.6-27.4
			s15-10.2,25.9-10.2c2.9,0,5.5,0.2,7.8,0.5s4.5,0.8,6.6,1.4c1.7,0.5,3.4,1.1,5.4,2c1.9,0.8,3.5,1.6,4.7,2.2v17.2h-1.8
			c-0.9-0.8-2-1.7-3.3-2.8c-1.3-1.1-2.8-2.1-4.5-3.2c-1.7-1-3.5-1.9-5.6-2.6c-2-0.7-4.1-1.1-6.3-1.1c-2.6,0-5,0.4-7.2,1.2
			c-2.2,0.8-4.3,2.3-6.2,4.3c-1.8,1.8-3.3,4.3-4.4,7.5c-1.1,3.1-1.7,6.8-1.7,11.1c0,4.5,0.6,8.3,1.8,11.3c1.2,3.1,2.8,5.5,4.7,7.4
			c1.9,1.8,4,3.1,6.3,3.9c2.3,0.8,4.6,1.2,6.9,1.2c2.4,0,4.7-0.4,6.8-1.2c2.2-0.8,4-1.7,5.5-2.6c1.6-1,3-2,4.3-3.1
			c1.2-1,2.3-2,3.2-2.8h1.7v17c-1.3,0.6-2.9,1.3-4.6,2.1s-3.5,1.5-5.4,2c-2.3,0.7-4.4,1.2-6.4,1.5
			C367.3,521.2,364.6,521.4,361.1,521.4z"/>
		<path class="st0" d="M423,514.2c-1.2,1-2.2,1.8-3.1,2.6s-2.2,1.6-3.7,2.3s-3,1.3-4.4,1.7s-3.5,0.6-6,0.6c-4.8,0-8.8-1.6-12-4.9
			c-3.2-3.2-4.8-7.3-4.8-12.2c0-4,0.8-7.3,2.4-9.8s3.9-4.5,7-5.9c3.1-1.5,6.7-2.5,11-3.1s8.9-1,13.8-1.4v-0.3c0-3-1.1-5.1-3.3-6.2
			c-2.2-1.1-5.5-1.7-10-1.7c-2,0-4.4,0.4-7,1.1c-2.7,0.7-5.3,1.7-7.9,2.8h-1.5v-13.2c1.7-0.5,4.4-1.1,8.2-1.7c3.8-0.7,7.5-1,11.4-1
			c9.4,0,16.2,1.6,20.5,4.7s6.4,7.9,6.4,14.3V520h-17V514.2z M423,505.7v-11.4c-2.9,0.3-5.2,0.5-7,0.8c-1.8,0.2-3.5,0.6-5.2,1.2
			c-1.5,0.5-2.6,1.3-3.5,2.4c-0.8,1.1-1.2,2.5-1.2,4.2c0,2.6,0.7,4.3,2.1,5.3s3.4,1.4,6.1,1.4c1.5,0,3-0.3,4.6-1
			C420.3,507.9,421.7,507,423,505.7z"/>
		<path class="st0" d="M486.6,481.5h-1.4c-0.6-0.2-1.6-0.4-2.8-0.5c-1.2-0.1-2.6-0.2-4.1-0.2c-1.8,0-3.6,0.3-5.6,0.8
			s-3.9,1.1-5.7,1.8v36.5h-17v-54.5h17v7.8c0.8-0.7,1.9-1.6,3.2-2.7c1.4-1.1,2.6-2,3.8-2.6c1.2-0.7,2.7-1.4,4.3-1.9
			c1.6-0.5,3.2-0.8,4.6-0.8c0.6,0,1.2,0,1.8,0c0.7,0,1.3,0.1,1.8,0.1v16.2H486.6z"/>
		<path class="st0" d="M518.5,521.4c-10.3,0-18.2-2.5-23.7-7.4s-8.2-11.9-8.2-21c0-8.9,2.6-16,7.7-21.3s12.3-8,21.5-8
			c8.3,0,14.6,2.3,18.8,6.8s6.3,10.9,6.3,19.3v6.1h-37.2c0.2,2.5,0.7,4.6,1.6,6.3c0.9,1.7,2.1,3.1,3.6,4.1s3.2,1.7,5.1,2.2
			c1.9,0.4,4.1,0.7,6.4,0.7c2,0,3.9-0.2,5.8-0.7c1.9-0.4,3.7-1,5.2-1.7c1.4-0.6,2.7-1.3,3.9-2s2.1-1.3,2.9-1.9h1.8v14
			c-1.4,0.6-2.7,1.1-3.8,1.5c-1.1,0.5-2.7,0.9-4.7,1.4c-1.8,0.5-3.7,0.9-5.7,1.1C523.7,521.3,521.3,521.4,518.5,521.4z M524.1,485.7
			c-0.1-3.6-0.9-6.3-2.5-8.2c-1.6-1.9-4-2.8-7.2-2.8c-3.3,0-5.9,1-7.7,3c-1.9,2-2.9,4.7-3.1,8.1h20.5V485.7z"/>
	</g>
	<g>
		<g>
			<g>
				<g>
					<path class="st1" d="M69.2,574.7h-4.8v-17.6H48v17.5h-4.8v-35.8H48v14h16.5v-14h4.8v35.9H69.2z"/>
				</g>
			</g>
			<g>
				<g>
					<path class="st1" d="M87.8,575.3c-4.3,0-7.6-1.2-10-3.6c-2.4-2.4-3.6-5.8-3.6-10.3c0-4.4,1.1-7.9,3.4-10.4
						c2.3-2.6,5.3-3.9,9-3.9c1.7,0,3.1,0.2,4.4,0.7s2.4,1.2,3.4,2.3c1,1,1.7,2.3,2.2,3.8s0.8,3.3,0.8,5.4v2.5H78.9
						c0,3.1,0.8,5.5,2.4,7.2s3.7,2.5,6.5,2.5c1,0,2-0.1,2.9-0.3s1.8-0.5,2.6-0.9c0.8-0.4,1.5-0.7,2.1-1.1c0.6-0.3,1-0.7,1.4-1h0.3
						v4.9c-0.5,0.2-1.2,0.5-2,0.8s-1.5,0.6-2.1,0.7c-0.9,0.2-1.7,0.4-2.4,0.6C89.8,575.2,88.9,575.3,87.8,575.3z M93.1,558.2
						c0-1.2-0.2-2.3-0.4-3.1c-0.3-0.9-0.6-1.6-1.1-2.2c-0.5-0.7-1.2-1.2-2-1.5c-0.8-0.4-1.8-0.5-3.1-0.5c-1.2,0-2.2,0.2-3.1,0.5
						c-0.8,0.4-1.6,0.9-2.3,1.6c-0.7,0.7-1.2,1.5-1.5,2.3c-0.4,0.9-0.6,1.9-0.7,3L93.1,558.2L93.1,558.2z"/>
				</g>
			</g>
			<g>
				<g>
					<path class="st1" d="M117.1,571.8c-0.4,0.3-0.9,0.7-1.5,1.1s-1.2,0.9-1.8,1.2c-0.8,0.4-1.6,0.7-2.3,1c-0.7,0.2-1.8,0.3-3.1,0.3
						c-1.1,0-2.2-0.2-3.2-0.6s-1.9-1-2.6-1.8c-0.7-0.7-1.3-1.7-1.7-2.7c-0.4-1.1-0.6-2.2-0.6-3.4c0-1.9,0.4-3.4,1.2-4.7
						c0.8-1.3,2-2.3,3.7-3.1c1.5-0.7,3.3-1.2,5.3-1.4c2.1-0.3,4.3-0.5,6.6-0.6v-1c0-1.1-0.2-1.9-0.5-2.6c-0.3-0.6-0.8-1.1-1.3-1.5
						c-0.6-0.4-1.3-0.6-2.1-0.7c-0.8-0.1-1.7-0.2-2.6-0.2c-1,0-2.3,0.2-3.7,0.5c-1.4,0.3-2.8,0.8-4.2,1.4h-0.3v-4.6
						c0.8-0.2,2-0.5,3.6-0.8s3.1-0.4,4.6-0.4c1.8,0,3.4,0.1,4.7,0.4c1.3,0.3,2.4,0.8,3.4,1.6c1,0.7,1.7,1.7,2.2,2.9s0.7,2.6,0.7,4.3
						v18.4h-4.5C117.1,574.8,117.1,571.8,117.1,571.8z M117.1,568.1v-7.5c-1.1,0.1-2.4,0.2-4.1,0.4c-1.6,0.2-3,0.4-4,0.7
						c-1.2,0.4-2.2,0.9-3,1.7s-1.2,1.8-1.2,3.2c0,1.5,0.4,2.7,1.3,3.5s2.1,1.2,3.8,1.2c1.4,0,2.7-0.3,3.9-0.9
						C115,569.7,116.1,568.9,117.1,568.1z"/>
				</g>
			</g>
			<g>
				<g>
					<path class="st1" d="M132.5,574.7H128v-37.4h4.5V574.7z"/>
				</g>
			</g>
			<g>
				<g>
					<path class="st1" d="M147.4,575.2c-2.5,0-4.4-0.7-5.8-2.1s-2.1-3.6-2.1-6.6v-14.9h-3.1v-3.8h3.1v-7.7h4.5v7.7h8.3v3.8H144v12.8
						c0,1.4,0,2.4,0.1,3.2s0.2,1.4,0.6,2.1c0.3,0.6,0.7,1,1.3,1.3s1.4,0.4,2.5,0.4c0.7,0,1.4-0.1,2.1-0.3c0.7-0.2,1.2-0.4,1.5-0.5
						h0.3v4.1c-0.9,0.2-1.7,0.4-2.6,0.6C148.9,575.1,148.1,575.2,147.4,575.2z"/>
				</g>
			</g>
			<g>
				<g>
					<path class="st1" d="M176.8,574.7h-4.5v-15.3c0-1.2-0.1-2.4-0.2-3.4s-0.4-1.9-0.7-2.6c-0.4-0.7-0.9-1.2-1.5-1.5
						c-0.7-0.3-1.6-0.5-2.7-0.5c-1.1,0-2.3,0.3-3.5,0.9c-1.2,0.6-2.4,1.4-3.5,2.3v20.1h-4.5v-37.4h4.5v13.5c1.3-1.2,2.7-2.1,4-2.8
						c1.3-0.6,2.7-1,4.2-1c2.6,0,4.7,0.9,6.2,2.6c1.5,1.7,2.2,4.3,2.2,7.6V574.7z"/>
				</g>
			</g>
			<g>
				<g>
					<path class="st1" d="M223.2,563.7c0,1.8-0.3,3.4-1,4.7c-0.7,1.4-1.6,2.5-2.7,3.4c-1.3,1.1-2.8,1.8-4.3,2.3
						c-1.5,0.4-3.5,0.7-6,0.7h-10.3V539h9.5c2.5,0,4.5,0.1,5.7,0.3c1.3,0.2,2.5,0.6,3.7,1.2c1.3,0.7,2.2,1.6,2.8,2.7
						s0.9,2.4,0.9,3.9c0,1.7-0.4,3.2-1.3,4.5c-0.9,1.3-2.1,2.4-3.7,3.1v0.2c2.1,0.6,3.8,1.6,5,3.2
						C222.6,559.5,223.2,561.4,223.2,563.7z M216.6,547.6c0-0.9-0.1-1.6-0.4-2.3c-0.3-0.6-0.8-1.1-1.4-1.5c-0.8-0.4-1.6-0.7-2.6-0.8
						s-2.3-0.1-3.9-0.1h-4.6v10.5h5.4c1.5,0,2.6-0.1,3.3-0.2c0.7-0.2,1.4-0.5,2.2-0.9c0.7-0.5,1.2-1.1,1.5-1.8
						C216.4,549.6,216.6,548.7,216.6,547.6z M218.3,563.9c0-1.3-0.2-2.5-0.6-3.3c-0.4-0.9-1.2-1.6-2.3-2.2c-0.8-0.4-1.6-0.7-2.5-0.8
						s-2.1-0.2-3.8-0.2h-5.4v13.2h3.9c2.1,0,3.7-0.1,4.9-0.3s2.3-0.6,3.2-1.2c0.9-0.6,1.6-1.3,2-2.1
						C218.1,566.2,218.3,565.1,218.3,563.9z"/>
				</g>
			</g>
			<g>
				<g>
					<path class="st1" d="M239.5,575.3c-4.3,0-7.6-1.2-10-3.6c-2.4-2.4-3.6-5.8-3.6-10.3c0-4.4,1.1-7.9,3.4-10.4
						c2.3-2.6,5.3-3.9,9-3.9c1.7,0,3.1,0.2,4.4,0.7c1.3,0.5,2.4,1.2,3.4,2.3c1,1,1.7,2.3,2.2,3.8s0.8,3.3,0.8,5.4v2.5h-18.6
						c0,3.1,0.8,5.5,2.4,7.2s3.7,2.5,6.5,2.5c1,0,2-0.1,2.9-0.3s1.8-0.5,2.6-0.9s1.5-0.7,2.1-1.1c0.6-0.3,1-0.7,1.4-1h0.3v4.9
						c-0.5,0.2-1.2,0.5-2,0.8s-1.5,0.6-2.1,0.7c-0.9,0.2-1.7,0.4-2.4,0.6C241.5,575.2,240.6,575.3,239.5,575.3z M244.8,558.2
						c0-1.2-0.2-2.3-0.4-3.1c-0.3-0.9-0.6-1.6-1.1-2.2c-0.5-0.7-1.2-1.2-2-1.5c-0.8-0.4-1.8-0.5-3.1-0.5c-1.2,0-2.2,0.2-3.1,0.5
						c-0.8,0.4-1.6,0.9-2.3,1.6c-0.7,0.7-1.2,1.5-1.5,2.3c-0.4,0.9-0.6,1.9-0.7,3L244.8,558.2L244.8,558.2z"/>
				</g>
			</g>
			<g>
				<g>
					<path class="st1" d="M274.9,547.8l-14.5,36.8h-4.8l4.8-11.2l-9.8-25.6h4.9l7.3,19.9l7.3-19.9H274.9z"/>
				</g>
			</g>
			<g>
				<g>
					<path class="st1" d="M300,561.2c0,4.5-1.1,8-3.3,10.5c-2.2,2.5-5.1,3.7-8.7,3.7c-3.7,0-6.7-1.3-8.8-3.8
						c-2.1-2.5-3.2-6-3.2-10.4c0-4.5,1.1-8,3.3-10.5c2.2-2.5,5.1-3.7,8.7-3.7s6.5,1.2,8.7,3.7C298.9,553.3,300,556.7,300,561.2z
						 M295.3,561.2c0-3.5-0.6-6.1-1.9-7.8s-3.1-2.5-5.4-2.5c-2.4,0-4.2,0.8-5.4,2.5c-1.3,1.7-1.9,4.3-1.9,7.8c0,3.4,0.6,5.9,1.9,7.7
						c1.3,1.7,3.1,2.6,5.4,2.6s4.1-0.9,5.4-2.6C294.7,567.2,295.3,564.7,295.3,561.2z"/>
				</g>
			</g>
			<g>
				<g>
					<path class="st1" d="M325.8,574.7h-4.5v-15.3c0-1.2-0.1-2.4-0.2-3.4s-0.4-1.9-0.7-2.6c-0.4-0.7-0.9-1.2-1.5-1.5
						c-0.7-0.3-1.6-0.5-2.7-0.5s-2.3,0.3-3.5,0.9c-1.2,0.6-2.4,1.4-3.5,2.3v20.1h-4.5v-26.9h4.5v3c1.3-1.2,2.7-2.1,4-2.8
						c1.3-0.6,2.7-1,4.2-1c2.6,0,4.7,0.9,6.2,2.6c1.5,1.7,2.2,4.3,2.2,7.6V574.7z"/>
				</g>
			</g>
			<g>
				<g>
					<path class="st1" d="M352.8,574.7h-4.5V572c-0.7,0.6-1.3,1.1-1.8,1.5s-1.1,0.7-1.8,1.1c-0.6,0.3-1.3,0.5-2,0.7
						s-1.5,0.3-2.4,0.3c-1.5,0-2.8-0.3-4.1-0.9c-1.2-0.6-2.3-1.5-3.2-2.7c-0.9-1.2-1.6-2.6-2-4.4c-0.5-1.7-0.7-3.7-0.7-6
						c0-2.4,0.3-4.4,0.9-6.1c0.6-1.7,1.4-3.2,2.5-4.5c1-1.2,2.2-2.1,3.5-2.8s2.8-1,4.4-1c1.3,0,2.5,0.2,3.5,0.4c1,0.3,2,0.8,3.1,1.4
						v-11.6h4.5v37.3H352.8z M348.3,568.1v-15.5c-1.1-0.5-2.1-0.9-3-1.1c-0.9-0.2-1.9-0.3-2.9-0.3c-2.3,0-4.1,0.9-5.5,2.6
						c-1.3,1.7-2,4.3-2,7.5s0.5,5.6,1.5,7.2c1,1.7,2.6,2.5,4.9,2.5c1.2,0,2.4-0.3,3.6-0.8C346.1,569.8,347.2,569,348.3,568.1z"/>
				</g>
			</g>
			<g>
				<g>
					<path class="st1" d="M399.4,563.7c0,1.8-0.3,3.4-1,4.7c-0.7,1.4-1.6,2.5-2.7,3.4c-1.3,1.1-2.8,1.8-4.3,2.3
						c-1.5,0.4-3.5,0.7-6,0.7h-10.3V539h9.5c2.5,0,4.5,0.1,5.7,0.3c1.3,0.2,2.5,0.6,3.7,1.2c1.3,0.7,2.2,1.6,2.8,2.7
						c0.6,1.1,0.9,2.4,0.9,3.9c0,1.7-0.4,3.2-1.3,4.5s-2.1,2.4-3.7,3.1v0.2c2.1,0.6,3.8,1.6,5,3.2
						C398.8,559.5,399.4,561.4,399.4,563.7z M392.7,547.6c0-0.9-0.1-1.6-0.4-2.3c-0.3-0.6-0.8-1.1-1.4-1.5c-0.8-0.4-1.6-0.7-2.6-0.8
						s-2.3-0.1-3.9-0.1h-4.6v10.5h5.4c1.5,0,2.6-0.1,3.3-0.2c0.7-0.2,1.4-0.5,2.2-0.9c0.7-0.5,1.2-1.1,1.5-1.8
						C392.6,549.6,392.7,548.7,392.7,547.6z M394.4,563.9c0-1.3-0.2-2.5-0.6-3.3c-0.4-0.9-1.2-1.6-2.3-2.2c-0.8-0.4-1.6-0.7-2.5-0.8
						s-2.1-0.2-3.8-0.2h-5.4v13.2h3.9c2.1,0,3.7-0.1,4.9-0.3c1.2-0.2,2.3-0.6,3.2-1.2c0.9-0.6,1.6-1.3,2-2.1
						C394.2,566.2,394.4,565.1,394.4,563.9z"/>
				</g>
			</g>
			<g>
				<g>
					<path class="st1" d="M426.1,561.2c0,4.5-1.1,8-3.3,10.5c-2.2,2.5-5.1,3.7-8.7,3.7c-3.7,0-6.7-1.3-8.8-3.8
						c-2.1-2.5-3.2-6-3.2-10.4c0-4.5,1.1-8,3.3-10.5c2.2-2.5,5.1-3.7,8.7-3.7s6.5,1.2,8.7,3.7C425,553.3,426.1,556.7,426.1,561.2z
						 M421.4,561.2c0-3.5-0.6-6.1-1.9-7.8s-3.1-2.5-5.4-2.5c-2.4,0-4.2,0.8-5.4,2.5c-1.3,1.7-1.9,4.3-1.9,7.8c0,3.4,0.6,5.9,1.9,7.7
						c1.3,1.7,3.1,2.6,5.4,2.6s4.1-0.9,5.4-2.6C420.8,567.2,421.4,564.7,421.4,561.2z"/>
				</g>
			</g>
			<g>
				<g>
					<path class="st1" d="M445,552.7h-0.2c-0.3-0.1-0.7-0.2-1.1-0.2s-0.8,0-1.4,0c-1.2,0-2.4,0.3-3.6,0.8s-2.3,1.3-3.4,2.4v19.1
						h-4.5v-26.9h4.5v4c1.7-1.5,3.1-2.5,4.3-3.1c1.2-0.6,2.4-0.9,3.6-0.9c0.5,0,0.8,0,1,0s0.5,0.1,0.8,0.1L445,552.7L445,552.7z"/>
				</g>
			</g>
			<g>
				<g>
					<path class="st1" d="M468.9,574.7h-4.5V572c-0.7,0.6-1.3,1.1-1.8,1.5s-1.1,0.7-1.8,1.1c-0.6,0.3-1.3,0.5-2,0.7
						s-1.5,0.3-2.4,0.3c-1.5,0-2.8-0.3-4.1-0.9c-1.2-0.6-2.3-1.5-3.2-2.7c-0.9-1.2-1.6-2.6-2-4.4c-0.5-1.7-0.7-3.7-0.7-6
						c0-2.4,0.3-4.4,0.9-6.1c0.6-1.7,1.4-3.2,2.5-4.5c1-1.2,2.2-2.1,3.5-2.8s2.8-1,4.4-1c1.3,0,2.5,0.2,3.5,0.4c1,0.3,2,0.8,3.1,1.4
						v-11.6h4.5v37.3H468.9z M464.4,568.1v-15.5c-1.1-0.5-2.1-0.9-3-1.1c-0.9-0.2-1.9-0.3-2.9-0.3c-2.3,0-4.1,0.9-5.5,2.6
						c-1.3,1.7-2,4.3-2,7.5s0.5,5.6,1.5,7.2c1,1.7,2.6,2.5,4.9,2.5c1.2,0,2.4-0.3,3.6-0.8C462.2,569.8,463.3,569,464.4,568.1z"/>
				</g>
			</g>
			<g>
				<g>
					<path class="st1" d="M487.1,575.3c-4.3,0-7.6-1.2-10-3.6s-3.6-5.8-3.6-10.3c0-4.4,1.1-7.9,3.4-10.4c2.3-2.6,5.3-3.9,9-3.9
						c1.7,0,3.1,0.2,4.4,0.7s2.4,1.2,3.4,2.3c1,1,1.7,2.3,2.2,3.8s0.8,3.3,0.8,5.4v2.5h-18.6c0,3.1,0.8,5.5,2.4,7.2s3.7,2.5,6.5,2.5
						c1,0,2-0.1,2.9-0.3c1-0.2,1.8-0.5,2.6-0.9c0.8-0.4,1.5-0.7,2.1-1.1c0.6-0.3,1-0.7,1.4-1h0.3v4.9c-0.5,0.2-1.2,0.5-2,0.8
						s-1.5,0.6-2.1,0.7c-0.9,0.2-1.7,0.4-2.4,0.6C489.1,575.2,488.2,575.3,487.1,575.3z M492.4,558.2c0-1.2-0.2-2.3-0.4-3.1
						c-0.3-0.9-0.6-1.6-1.1-2.2c-0.5-0.7-1.2-1.2-2-1.5c-0.8-0.4-1.8-0.5-3.1-0.5c-1.2,0-2.2,0.2-3.1,0.5c-0.8,0.4-1.6,0.9-2.3,1.6
						c-0.7,0.7-1.2,1.5-1.5,2.3c-0.4,0.9-0.6,1.9-0.7,3L492.4,558.2L492.4,558.2z"/>
				</g>
			</g>
			<g>
				<g>
					<path class="st1" d="M515.6,552.7h-0.2c-0.3-0.1-0.7-0.2-1.1-0.2c-0.4,0-0.8,0-1.4,0c-1.2,0-2.4,0.3-3.6,0.8
						c-1.2,0.5-2.3,1.3-3.4,2.4v19.1h-4.5v-26.9h4.5v4c1.7-1.5,3.1-2.5,4.3-3.1s2.4-0.9,3.6-0.9c0.5,0,0.8,0,1,0s0.5,0.1,0.8,0.1
						L515.6,552.7L515.6,552.7z"/>
				</g>
			</g>
			<g>
				<g>
					<path class="st1" d="M526.4,575.3c-1.8,0-3.5-0.2-5-0.7c-1.6-0.5-2.9-1-3.9-1.5V568h0.2c0.4,0.3,0.8,0.6,1.4,1
						c0.5,0.4,1.2,0.8,2.1,1.2c0.8,0.4,1.6,0.7,2.5,0.9c0.9,0.3,1.9,0.4,2.9,0.4c0.7,0,1.5-0.1,2.3-0.2c0.8-0.2,1.4-0.4,1.8-0.6
						c0.6-0.4,1-0.8,1.2-1.2s0.4-1,0.4-1.9c0-1.1-0.3-1.9-0.9-2.4c-0.6-0.5-1.6-1-3.1-1.4c-0.6-0.1-1.3-0.3-2.3-0.5
						s-1.8-0.4-2.6-0.6c-2.1-0.6-3.5-1.5-4.5-2.8c-0.9-1.2-1.4-2.7-1.4-4.5c0-2.4,0.9-4.4,2.7-5.9s4.3-2.3,7.3-2.3
						c1.5,0,3,0.2,4.5,0.6s2.8,0.8,3.8,1.4v4.8h-0.2c-1.2-0.9-2.4-1.6-3.9-2.2c-1.4-0.5-2.8-0.8-4.3-0.8s-2.8,0.3-3.8,0.9
						c-1,0.6-1.5,1.6-1.5,2.8c0,1.1,0.3,2,0.9,2.5c0.6,0.6,1.6,1,2.9,1.4c0.7,0.2,1.4,0.4,2.3,0.5c0.8,0.2,1.7,0.4,2.6,0.6
						c2,0.5,3.5,1.3,4.5,2.5s1.5,2.7,1.5,4.7c0,1.2-0.2,2.3-0.7,3.3s-1.1,1.9-2,2.7c-1,0.8-2,1.4-3.3,1.8S528.2,575.3,526.4,575.3z"
						/>
				</g>
			</g>
		</g>
	</g>
	<path class="st2" d="M305.7,312.3c0,0,30.6-20.8,53.6-52.5c0,0,8.1-10.7,12.6,0.6c0,0,18,49.9-53.6,86.1c0,0-33.1,17.9-74.2,15.9
		c0,0,8.5-24.1,41.9-38.1L305.7,312.3z"/>
	<path class="st0" d="M201.6,354.1c0,0,61.9-3.4,48-26.1c0,0-47.4-61.2-53-87s2.8-35.6,10.1-33.1l74.6,67.1c0,0,38.4,30,25.3,59.2
		c0,0-10.4,34.8-74.4,27.5C232.2,361.7,190.1,358.3,201.6,354.1z"/>
	<g>
		<g>
			<path class="st0" d="M345.6,267.6c-15-18-37.1-28.4-60.5-28.4c-10.7,0-21.1,2.1-30.8,6.3l-1.2-2.8c10.1-4.3,20.9-6.5,32-6.5
				c24.4,0,47.3,10.8,62.9,29.5L345.6,267.6z"/>
		</g>
	</g>
	<g>
		<g>
			<path class="st0" d="M209.5,349.1c-4.1-9.9-6.2-20.4-6.2-31.2c0-11.9,2.5-23.4,7.5-34.2l2.8,1.3c-4.8,10.4-7.2,21.4-7.2,32.9
				c0,10.4,2,20.5,5.9,30L209.5,349.1z"/>
		</g>
	</g>
	<g>
		<g>
			<path class="st0" d="M285.1,399.7c-25.8,0-50.3-12.4-65.7-33.1l2.5-1.9c14.8,19.9,38.4,31.8,63.2,31.8
				c43.4,0,78.7-35.3,78.7-78.7h3.1C366.9,363,330.2,399.7,285.1,399.7z"/>
		</g>
	</g>
</g>
</svg>
