<svg>
  <defs>

    <symbol id="health">
      <path fill="#000000" d="M3.914,0.376C3.853,0.493,3.783,0.605,3.715,0.719C3.646,0.835,3.579,0.954,3.518,1.073   c-0.064,0.12-0.123,0.242-0.175,0.365c-0.03,0.066-0.057,0.134-0.082,0.201c-0.02,0.05-0.039,0.101-0.049,0.156   c-0.039,0.202,0.029,0.399,0.116,0.58c0.041,0.09,0.091,0.175,0.138,0.263C3.488,2.681,3.51,2.723,3.532,2.767   c0.01,0.021,0.02,0.042,0.027,0.062c0.005,0.005,0.007,0.01,0.007,0.015c0,0,0,0,0,0.001c0,0.001,0.003,0.001,0.003,0.001   c0.005,0.013,0.01,0.024,0.015,0.037c0.029,0.079,0.049,0.162,0.062,0.245v0.002c0.003,0.004,0.003,0.007,0.003,0.011   c0,0.011,0.002,0.021,0.002,0.032C3.653,3.196,3.655,3.218,3.655,3.24c0.005,0.04,0.005,0.08,0.003,0.12   c0,0.019-0.003,0.038-0.005,0.056c0,0.011-0.003,0.021-0.003,0.032c0,0.005,0,0.009,0,0.012c0,0.001,0,0.002,0,0.004   c0,0,0,0,0,0.001c-0.008,0.041-0.015,0.082-0.02,0.122C3.623,3.628,3.613,3.671,3.608,3.713C3.604,3.76,3.599,3.805,3.594,3.852   C3.592,3.874,3.597,3.895,3.616,3.906c0.02,0.012,0.057,0.007,0.066-0.019c0.024-0.057,0.052-0.113,0.068-0.173   c0.018-0.053,0.03-0.106,0.04-0.162c0.017-0.108,0.027-0.218,0.02-0.329C3.803,3.108,3.783,2.989,3.746,2.878   C3.717,2.783,3.673,2.692,3.628,2.603C3.584,2.515,3.537,2.427,3.493,2.339c-0.01-0.021-0.021-0.042-0.03-0.062   C3.458,2.267,3.456,2.258,3.451,2.25c0-0.003-0.003-0.006-0.003-0.007C3.446,2.236,3.443,2.229,3.441,2.221   C3.424,2.178,3.406,2.134,3.396,2.088C3.39,2.067,3.385,2.046,3.382,2.024C3.38,2.019,3.38,2.014,3.377,2.008c0,0,0,0,0-0.001   c0-0.012-0.002-0.023-0.002-0.036C3.372,1.95,3.372,1.928,3.372,1.907c0-0.011,0-0.022,0-0.033   c0.003-0.005,0.003-0.011,0.003-0.016c0,0,0,0,0-0.001c0-0.001,0-0.002,0-0.002c0.007-0.052,0.024-0.101,0.044-0.151   c0.01-0.029,0.022-0.059,0.034-0.088c0.005-0.015,0.013-0.03,0.018-0.044c0-0.001,0-0.001,0-0.002c0,0,0.002-0.004,0.002-0.006   c0.005-0.01,0.011-0.02,0.013-0.03C3.49,1.521,3.495,1.512,3.5,1.5c0.003-0.007,0.005-0.013,0.005-0.017   c0.003-0.006,0.005-0.012,0.01-0.019c0.008-0.023,0.018-0.045,0.027-0.067c0.02-0.047,0.042-0.095,0.064-0.142   c0.042-0.095,0.083-0.188,0.125-0.284c0.079-0.188,0.155-0.377,0.239-0.564C3.985,0.371,3.934,0.339,3.914,0.376z"/><path fill="#000000" d="M2.845,4.076L2.845,4.076C2.843,4.075,2.843,4.075,2.843,4.074c-0.005-0.001-0.01-0.005-0.015-0.006   c-0.003-0.003,0-0.001-0.006-0.006C2.82,4.06,2.801,4.044,2.811,4.052C2.791,4.037,2.773,4.02,2.759,4.002   c-0.01-0.01-0.018-0.02-0.027-0.031c-0.002-0.001-0.007-0.009-0.01-0.01C2.72,3.957,2.717,3.951,2.712,3.947   c-0.003-0.005-0.005-0.01-0.01-0.013c0,0,0-0.001-0.003-0.002c-0.005-0.008-0.01-0.014-0.015-0.02   c-0.01-0.014-0.017-0.026-0.024-0.04c-0.032-0.05-0.064-0.103-0.089-0.159c-0.005-0.009-0.01-0.02-0.015-0.03   c0-0.002-0.003-0.006-0.003-0.008C2.552,3.668,2.549,3.663,2.547,3.656c-0.008-0.02-0.013-0.041-0.02-0.062   C2.524,3.588,2.522,3.583,2.52,3.579c0.034-0.043,0.062-0.091,0.089-0.139c0.022-0.042,0.039-0.087,0.057-0.132   C2.68,3.267,2.689,3.224,2.699,3.182c0.022-0.087,0.032-0.177,0.035-0.266c0.002-0.082-0.008-0.16-0.021-0.242   C2.709,2.654,2.675,2.659,2.678,2.681c0.01,0.083,0,0.17-0.018,0.252C2.652,2.977,2.643,3.018,2.631,3.06   C2.623,3.08,2.616,3.101,2.608,3.121C2.605,3.129,2.601,3.14,2.599,3.15c0,0.001,0,0.002-0.003,0.004c0,0,0,0.001,0,0.002   c-0.002,0.006-0.005,0.012-0.01,0.019C2.549,3.253,2.505,3.329,2.456,3.4C2.451,3.407,2.443,3.417,2.436,3.425   c0,0.001,0,0.001,0,0.001C2.434,3.431,2.431,3.433,2.429,3.438C2.414,3.454,2.399,3.473,2.387,3.489   C2.359,3.522,2.327,3.552,2.298,3.58C2.286,3.591,2.271,3.602,2.259,3.613c0.002-0.001-0.015,0.01-0.018,0.013   c-0.01,0.008-0.02,0.014-0.029,0.02C2.178,3.67,2.143,3.689,2.104,3.707C2.101,3.709,2.101,3.709,2.099,3.71   c-0.003,0-0.005,0.001-0.008,0.002c-0.007,0.004-0.017,0.006-0.027,0.01C2.044,3.73,2.024,3.736,2.002,3.741   c-0.02,0.005-0.039,0.01-0.059,0.012C1.94,3.755,1.94,3.755,1.938,3.755c0.018-0.002,0.015-0.002-0.01,0.001c0,0,0,0-0.003,0   C1.916,3.758,1.904,3.76,1.894,3.76C1.853,3.763,1.808,3.763,1.785,3.804c-0.01,0.017-0.015,0.034-0.01,0.055   c0.008,0.027,0.03,0.051,0.057,0.057C1.884,3.93,1.94,3.92,1.992,3.913c0.087-0.015,0.173-0.047,0.249-0.09   C2.298,3.793,2.35,3.753,2.399,3.71c0.01,0.028,0.021,0.055,0.034,0.079c0.032,0.063,0.071,0.12,0.118,0.173   c0.042,0.05,0.091,0.098,0.147,0.13c0.025,0.012,0.052,0.023,0.079,0.028c0.013,0.002,0.027,0.001,0.039,0   C2.825,4.118,2.83,4.118,2.835,4.117C2.84,4.116,2.843,4.114,2.843,4.113c0,0,0,0,0.002,0l0,0C2.869,4.111,2.869,4.076,2.845,4.076   z"/><path fill="#000000" d="M1.971,1.889C2,1.843,2.024,1.792,2.044,1.741c0.037-0.097,0.052-0.206,0.052-0.309   c0.003-0.109-0.015-0.22-0.034-0.329C2.039,0.997,2.018,0.892,1.99,0.788C1.958,0.665,1.924,0.54,1.914,0.413   C1.911,0.366,1.845,0.366,1.842,0.414c-0.002,0.1,0.006,0.199,0.016,0.297c0.005,0.056,0.01,0.112,0.02,0.168   c0.005,0.025,0.007,0.053,0.012,0.077v0.001c0,0.002,0,0.004,0,0.006c0,0.007,0.003,0.013,0.003,0.02   c0.002,0.015,0.005,0.029,0.007,0.044c0.016,0.107,0.025,0.213,0.027,0.319c0,0.052,0,0.104-0.005,0.154c0,0.006,0,0.013,0,0.019   c0,0-0.002,0-0.002,0.001c0,0.011-0.003,0.022-0.005,0.034C1.909,1.581,1.904,1.605,1.896,1.63   C1.892,1.652,1.884,1.674,1.874,1.698c0,0,0,0,0,0.001c-0.002,0.003-0.005,0.01-0.007,0.015C1.862,1.726,1.857,1.738,1.85,1.751   C1.837,1.771,1.825,1.792,1.811,1.812c0,0.001-0.003,0.003-0.005,0.006c0,0.001-0.005,0.007-0.008,0.01   C1.79,1.839,1.78,1.852,1.771,1.862c-0.078,0.083-0.165,0.16-0.248,0.237C1.436,2.181,1.357,2.267,1.293,2.367   C1.259,2.419,1.231,2.476,1.207,2.534C1.177,2.6,1.15,2.666,1.128,2.732c-0.047,0.13-0.076,0.264-0.094,0.4   C1.02,3.261,1.026,3.39,1.047,3.517C1.086,3.755,1.182,3.981,1.28,4.199c0.064,0.143,0.131,0.286,0.205,0.423   C1.51,4.661,1.566,4.633,1.557,4.591c-0.027-0.112-0.069-0.221-0.113-0.33C1.401,4.15,1.359,4.04,1.32,3.926   C1.283,3.814,1.249,3.699,1.227,3.583c-0.005-0.027-0.01-0.055-0.015-0.083c0-0.002,0-0.01-0.003-0.012   c0-0.005,0-0.011-0.002-0.016c0-0.016-0.003-0.032-0.005-0.048C1.197,3.363,1.194,3.3,1.197,3.239   c0.002-0.032,0.005-0.062,0.007-0.094c0-0.002,0-0.003,0.003-0.005c0,0,0-0.001,0-0.004c0-0.007,0-0.015,0.002-0.022   c0.003-0.02,0.005-0.037,0.01-0.055c0.013-0.064,0.027-0.128,0.047-0.191c0.018-0.062,0.04-0.124,0.064-0.183   c0-0.002,0.005-0.012,0.005-0.014c0.002-0.008,0.007-0.016,0.01-0.023C1.35,2.635,1.357,2.62,1.364,2.605   c0.013-0.031,0.027-0.062,0.042-0.09C1.421,2.49,1.436,2.465,1.45,2.44c0.008-0.011,0.018-0.022,0.025-0.033   c0.002-0.004,0.002-0.006,0.007-0.01c-0.002,0.001,0.01-0.014,0.01-0.016c0.037-0.043,0.074-0.083,0.116-0.123   c0.079-0.079,0.167-0.153,0.246-0.233C1.896,1.981,1.936,1.938,1.971,1.889z"/><path fill="#000000" d="M2.859,0.786C2.741,0.94,2.665,1.124,2.611,1.31c-0.03,0.103-0.055,0.208-0.062,0.314   C2.547,1.672,2.542,1.72,2.544,1.768c0.003,0.048,0.016,0.094,0.025,0.14C2.586,1.98,2.694,1.962,2.694,1.89   c0-0.008,0-0.018,0-0.025c0-0.006,0-0.011,0-0.017c0,0.019,0,0.002,0-0.001C2.699,1.82,2.699,1.792,2.699,1.766   c0.003-0.046,0-0.091,0.003-0.137c0.005-0.049,0.005-0.098,0.01-0.146c0.002-0.026,0.005-0.05,0.008-0.076   c0.002-0.002,0.002-0.004,0.002-0.005c0-0.001,0-0.002,0-0.004c0-0.006,0-0.012,0.003-0.02c0-0.013,0.002-0.026,0.005-0.039   C2.756,1.162,2.801,0.97,2.901,0.817C2.916,0.793,2.879,0.763,2.859,0.786z"/>
    </symbol>

    <symbol id="arrangement">
    	<path fill="#FFFFFF" stroke="#000000" stroke-width="0.17" stroke-miterlimit="10" d="M2.8,1.8h1.9C5,1.8,5.2,2,5.2,2.3v3.8
	c0,0.3-0.2,0.5-0.5,0.5H2.1c-0.3,0-0.5-0.2-0.5-0.5V2.3c0-0.3,0.2-0.5,0.5-0.5H2.8"/>
<path fill="#FFFFFF" stroke="#000000" stroke-width="0.12" stroke-miterlimit="10" d="M4.2,2.2H2.6C2.5,2.2,2.4,2.1,2.4,2V1.6
	c0-0.1,0.1-0.2,0.2-0.2h1.6c0.1,0,0.2,0.1,0.2,0.2V2C4.4,2.1,4.3,2.2,4.2,2.2z"/>
<path d="M2.1,3C2.1,3,2,2.9,2.1,3C2,3,1.9,3.1,2.1,3l0.1,0.4l0,0c0,0,0.1,0.1,0.1,0l0,0l0.6-0.6V2.7H2.8L2.2,3.2L2.1,3z"/>
<path d="M2.1,4.3c0,0-0.1-0.1-0.1,0c0,0-0.1,0.1,0,0.1l0.2,0.3l0,0c0,0,0.1,0.1,0.1,0l0,0l0.6-0.6V4H2.8L2.2,4.5L2.1,4.3z"/>
<path d="M3.5,3L3.5,3c-0.1,0.1,0,0.2,0,0.2h1.2c0,0,0.1,0,0.1-0.1s0-0.1,0-0.1H3.5z"/>
<path d="M3.5,4.3L3.5,4.3c-0.1,0.1,0,0.2,0,0.2h1.2c0,0,0.1,0,0.1-0.1c0,0,0-0.1-0.1-0.1C4.8,4.3,3.5,4.3,3.5,4.3z"/>
<path d="M2.1,5.7c0,0-0.1-0.1-0.1,0c0,0-0.1,0.1,0,0.1l0.2,0.3l0,0c0,0,0.1,0.1,0.1,0l0,0l0.6-0.6V5.4H2.8L2.2,5.9L2.1,5.7z"/>
<path d="M3.5,5.6C3.5,5.6,3.5,5.7,3.5,5.6c-0.1,0.1,0,0.2,0,0.2h1.2c0,0,0.1,0,0.1-0.1c0,0,0-0.1-0.1-0.1C4.8,5.6,3.5,5.6,3.5,5.6z"
	/>
    </symbol>
<symbol id="aftercare">
<path stroke="#000000" stroke-width="0.25" stroke-miterlimit="10" d="M43.5,29c1.4,0.4,2.9,0.5,4.4,0.4c-0.1,1.7-0.3,3.6,0.1,5.3
		c0.1,0.8,1.4,0.8,1.6,0c0.3-1.7,0.1-5.3,0.1-5.3c1.9,0,3.8,0.3,5.5-0.4c0.4-0.2,0.4-0.8,0-1c-1.7-0.7-5.6-0.4-5.6-0.4
		c0-1.5,0-3-0.4-4.4c-0.1-0.5-0.9-0.5-1,0c-0.2,1.5-0.2,3-0.2,4.5c-1.5,0-3.1,0-4.5,0.4C43.1,28.3,43.1,28.9,43.5,29z"/>
	<path stroke="#000000" stroke-width="0.25" stroke-miterlimit="10" d="M76.9,61c-3-7.1-6.3-14.1-9.4-21.2
		c0.3-1.1,4.2-10.2,5.6-14.2c-15.1-15.5-36.9-11.2-49.5,0c-0.2,0.2-0.3,0.5-0.2,0.7c1.5,4.8,2.6,9.6,6,13.4c0.1,0.1,0.2,0.2,0.3,0.3
		c-3,7.5-6,15.3-7.9,23.1c-0.9,3.9-2.1,8.5-1.2,12.6c2,9.6,14.8,10.6,20.7,3.7c0,0,3.7,1.6,5.7,1.9c3.7,0.6,7-0.1,9.9-1.7
		c6.6,8,20.2,6.4,22.5-4.3C80.4,70.5,78.7,65.3,76.9,61z M72.7,55.9c-4.3-0.5-8.4-0.2-12.7-1.3C53.8,53,49.7,49.3,46.5,44
		c0.4-0.9,0.7-1.9,0.9-2.9c3.3-0.6,6.4-0.7,9.8,0.8c2.9,1.2,5.1,2.2,8.2,1.4c0.5-0.1,1-0.7,1.4-1.4C68.4,46.6,70.6,51.3,72.7,55.9z
		 M27.1,32.7c-0.6-1.5-1.1-3.1-1.6-4.7c-0.5-1.8-1-1.4,0.5-2.6c3.7-3.1,8-5.6,12.5-7.3c11-4,24.2-1,32.6,6.8
		c-1.7,4.9-3.9,9.5-5.9,14.2c-1.8,4.4-9.4-0.4-13.2-0.7s-7.8,1.3-11.5,2.1C33.9,42.1,29.6,38.7,27.1,32.7z M30.8,40.9
		c3.7,2.7,8.9,1.9,13.2,1c0.8-0.2,1.6-0.4,2.4-0.5c-2.3,4-4.5,7.1-8.6,9.6c-3.6,2.2-7.9,3.3-11.9,4.6C27.4,50.6,29.3,45.8,30.8,40.9
		z M24.5,79.7c-3-2.6-2.6-7.6-2.1-11.1c0.5-4,1.6-7.8,2.8-11.6c1.5,0,3-0.4,4.6-0.9c-1.1,8.2,3.1,17.4,9.9,22.1
		C35.8,82.2,29,83.5,24.5,79.7z M46.2,79.1C35.7,77.4,31.2,65,31,55.8c2.7-1,5.3-2.3,7.5-3.5c2.9-1.6,5.7-4,7.4-6.9
		C49,55.7,67.4,58.1,67.4,58.1C66.5,68.9,58.4,81.1,46.2,79.1z M75.2,79.5c-4.7,5.7-11.9,2.7-16.7-0.9c6.4-4.5,10.4-13.2,10.9-20.5
		l0,0c1.4,0,2.9-0.1,4.2-0.2c1.3,2.9,2.4,5.9,3.3,8.9C77.9,71,78.1,75.9,75.2,79.5z"/>
	<path stroke="#000000" stroke-width="0.25" stroke-miterlimit="10" d="M40.4,59.3c-0.1,0.4-0.4,0.8-0.4,1.3c0,0.6,0.8,0.8,1.1,0.3
		s0.1-1-0.1-1.6C40.9,59.1,40.5,59.1,40.4,59.3z"/>
	<path stroke="#000000" stroke-width="0.25" stroke-miterlimit="10" d="M57,59.3c-0.1,0.4-0.4,0.8-0.4,1.3c0,0.6,0.8,0.8,1.1,0.3
		s0.1-1-0.1-1.6C57.5,59.1,57.1,59.1,57,59.3z"/>
	<path stroke="#000000" stroke-width="0.25" stroke-miterlimit="10" d="M52.4,70.6c-2.4,1.3-4.9,0.9-7.3-0.1
		c-0.4-0.2-0.6,0.4-0.4,0.7c1.9,2.4,6.1,2.2,8.5,0.7C54,71.5,53.2,70.2,52.4,70.6z"/>

</symbol>

<symbol id="vacations">
	<path fill="none" stroke="#000000" stroke-width="2" stroke-linecap="round" stroke-linejoin="round" stroke-miterlimit="10" d="
	M78.6,10v4.3V10z"/>
<path fill="none" stroke="#000000" stroke-width="2" stroke-linecap="round" stroke-linejoin="round" stroke-miterlimit="10" d="
	M75.8,14.8l-1.6-4L75.8,14.8z"/>
<path fill="none" stroke="#000000" stroke-width="2" stroke-linecap="round" stroke-linejoin="round" stroke-miterlimit="10" d="
	M70.5,13.3l3,3L70.5,13.3z"/>
<path fill="none" stroke="#000000" stroke-width="2" stroke-linecap="round" stroke-linejoin="round" stroke-miterlimit="10" d="
	M72,18.7l-4-1.6L72,18.7z"/>
<path fill="none" stroke="#000000" stroke-width="2" stroke-linecap="round" stroke-linejoin="round" stroke-miterlimit="10" d="
	M55.8,46.6c1.7-0.1,3.3-0.3,4.8-0.5L72,18.7c0.4-0.9,0.9-1.7,1.6-2.3l0,0c0.7-0.7,1.4-1.2,2.3-1.5c0.8-0.4,1.8-0.5,2.7-0.5l0,0H90
	V10H78.6c-1.6,0-3,0.3-4.4,0.9c-1.4,0.6-2.7,1.4-3.7,2.5l0,0c-1.1,1.1-1.9,2.3-2.5,3.7l0,0L55.8,46.6z"/>
<path fill="none" stroke="#000000" stroke-width="2" stroke-linecap="round" stroke-linejoin="round" stroke-miterlimit="10" d="
	M59.4,37.8C55,37.3,49.9,37,44.3,37c-15.8,0-28.6,2.2-28.6,5s12.8,5,28.6,5c4.1,0,8-0.2,11.5-0.4L59.4,37.8z"/>
<path fill="none" stroke="#000000" stroke-width="2" stroke-linecap="round" stroke-linejoin="round" stroke-miterlimit="10" d="
	M63.8,38.4l-3.2,7.7c7.4-0.9,12.2-2.4,12.2-4.1C72.9,40.6,69.4,39.3,63.8,38.4z"/>
<path fill="none" stroke="#000000" stroke-width="2" stroke-linecap="round" stroke-linejoin="round" stroke-miterlimit="10" d="
	M78.6,42c0,26.5-15.4,48-34.3,48S10,68.5,10,42c0,4.7,15.4,8.6,34.3,8.6S78.6,46.7,78.6,42z"/>
<path fill="none" stroke="#000000" stroke-width="2" stroke-linecap="round" stroke-linejoin="round" stroke-miterlimit="10" d="
	M65.1,35.2l-4.5,10.9c-1.5,0.2-3.1,0.3-4.8,0.5l5-12.1c-4.9-0.7-10.5-1.1-16.5-1.1C25.4,33.4,10,37.3,10,42s15.4,8.6,34.3,8.6
	s34.3-3.8,34.3-8.6C78.6,39.2,73.3,36.8,65.1,35.2z"/>
<path fill="none" stroke="#000000" stroke-width="2" stroke-linecap="round" stroke-linejoin="round" stroke-miterlimit="10" d="
	M62.8,11.8L32,12.2L62.8,11.8z"/>
<path fill="none" stroke="#000000" stroke-width="2" stroke-linecap="round" stroke-linejoin="round" stroke-miterlimit="10" d="
	M53.6,20.8L32,12.2L53.6,20.8z"/>
<path fill="none" stroke="#000000" stroke-width="2" stroke-linecap="round" stroke-linejoin="round" stroke-miterlimit="10" d="
	M44.1,26.5L32,12.2L44.1,26.5z"/>
<path fill="none" stroke="#000000" stroke-width="2" stroke-linecap="round" stroke-linejoin="round" stroke-miterlimit="10" d="
	M10,33.7l22-21.5L10,33.7z"/>
<path fill="none" stroke="#000000" stroke-width="2" stroke-linecap="round" stroke-linejoin="round" stroke-miterlimit="10" d="
	M22.8,33.6L32,12.2L22.8,33.6z"/>
<path fill="none" stroke="#000000" stroke-width="2" stroke-linecap="round" stroke-linejoin="round" stroke-miterlimit="10" d="
	M33.6,30.9L32,12.2L33.6,30.9z"/>
<path fill="none" stroke="#000000" stroke-width="2" stroke-linecap="round" stroke-linejoin="round" stroke-miterlimit="10" d="
	M57.7,11.9C45.5,24,29.6,30.1,13.7,30.1l0,0L32,12.2L57.7,11.9z"/>
<path fill="none" stroke="#000000" stroke-width="2" stroke-linecap="round" stroke-linejoin="round" stroke-miterlimit="10" d="
	M31.1,10l0.9,2.2L31.1,10z"/>
<path fill="none" stroke="#000000" stroke-width="2" stroke-linecap="round" stroke-linejoin="round" stroke-miterlimit="10" d="
	M37.5,25.4L46.4,47L37.5,25.4z"/>
<path fill="none" stroke="#000000" stroke-width="2" stroke-linecap="round" stroke-linejoin="round" stroke-miterlimit="10" d="
	M19.3,56.4l4.3,4.3L19.3,56.4z"/>
<path fill="none" stroke="#000000" stroke-width="2" stroke-linecap="round" stroke-linejoin="round" stroke-miterlimit="10" d="
	M40.7,60.7L45,65L40.7,60.7z"/>
<path fill="none" stroke="#000000" stroke-width="2" stroke-linecap="round" stroke-linejoin="round" stroke-miterlimit="10" d="
	M65,57.9l4.3,4.3L65,57.9z"/>
<path fill="none" stroke="#000000" stroke-width="2" stroke-linecap="round" stroke-linejoin="round" stroke-miterlimit="10" d="
	M40.7,76.4l-4.3,4.3L40.7,76.4z"/>
<path fill="none" stroke="#000000" stroke-width="2" stroke-linecap="round" stroke-linejoin="round" stroke-miterlimit="10" d="
	M57.9,56.4l-4.3,4.3L57.9,56.4z"/>
<path fill="none" stroke="#000000" stroke-width="2" stroke-linecap="round" stroke-linejoin="round" stroke-miterlimit="10" d="
	M31.4,64.1v6.1V64.1z"/>
<path fill="none" stroke="#000000" stroke-width="2" stroke-linecap="round" stroke-linejoin="round" stroke-miterlimit="10" d="
	M48.6,77v6V77z"/>
<path fill="none" stroke="#000000" stroke-width="2" stroke-linecap="round" stroke-linejoin="round" stroke-miterlimit="10" d="
	M55.5,71.4h6.1H55.5z"/>
</symbol>

    <!-- etc -->

  </defs>
</svg>