<?xml version="1.0" encoding="iso-8859-1"?>
<!-- Generator: Adobe Illustrator 21.0.0, SVG Export Plug-In . SVG Version: 6.00 Build 0)  -->
<svg version="1.1" xmlns="http://www.w3.org/2000/svg" xmlns:xlink="http://www.w3.org/1999/xlink" x="0px" y="0px"
	 viewBox="0 0 414 211" style="enable-background:new 0 0 414 211;" xml:space="preserve">
<g id="airplane">
	<path style="fill:#35838D;stroke:#3E3E3E;stroke-miterlimit:10;" d="M232.824,41.695c0-2.11,0.021-4.088-0.021-6.057
		c-0.01-0.249-0.288-0.537-0.512-0.72c-5.778-4.611-11.56-9.216-17.357-13.797c-0.553-0.431-0.781-0.862-0.751-1.582
		c0.051-1.69,0.021-3.378,0-5.068c-0.021-2.161-1.522-3.754-3.535-3.754h-0.021c-2.013,0-3.516,1.593-3.535,3.754
		c-0.021,1.69-0.051,3.378,0,5.068c0.03,0.72-0.198,1.151-0.751,1.582c-5.792,4.581-11.581,9.186-17.357,13.797
		c-0.219,0.182-0.502,0.472-0.512,0.72c-0.041,1.969-0.021,3.947-0.021,6.057l18.631-9.43c0,3.571,0.021,6.944-0.021,10.322
		c0,0.269-0.258,0.613-0.502,0.807c-1.877,1.526-3.784,3.023-5.681,4.54c-0.187,0.162-0.482,0.365-0.487,0.558
		c-0.041,1.259-0.021,2.516-0.021,3.915c2.577-1.019,5.006-1.978,7.456-2.947c0.01,1.593,1.263,2.882,2.815,2.882
		c1.552,0,2.806-1.289,2.815-2.882c2.451,0.969,4.879,1.923,7.456,2.947c0-1.4,0.021-2.658-0.021-3.915
		c-0.01-0.193-0.304-0.396-0.487-0.558c-1.897-1.517-3.804-3.013-5.681-4.54c-0.238-0.193-0.502-0.537-0.502-0.807
		c-0.041-3.378-0.021-6.751-0.021-10.322C220.438,35.426,226.58,38.529,232.824,41.695z"/>
</g>
<g id="Layer_1">
</g>
</svg>
