<?xml version="1.0" encoding="iso-8859-1"?>
<!-- Generator: Adobe Illustrator 21.0.0, SVG Export Plug-In . SVG Version: 6.00 Build 0)  -->
<svg version="1.1" xmlns="http://www.w3.org/2000/svg" xmlns:xlink="http://www.w3.org/1999/xlink" x="0px" y="0px"
	 viewBox="0 0 414 211" style="enable-background:new 0 0 414 211;" xml:space="preserve">
<g id="ambulance">
	<g id="Layer_18">
		<g>
			<path style="fill:#35838D;stroke:#3E3E3E;stroke-miterlimit:10;" d="M174.771,153.129c-3.403,0-6.021,2.618-6.021,6.021
				c0,3.403,2.749,6.021,6.021,6.021c3.272,0,6.021-2.618,6.021-6.021C180.792,155.747,178.174,153.129,174.771,153.129z"/>
			<polygon style="fill:#DD6E45;stroke:#3E3E3E;stroke-miterlimit:10;" points="213.253,155.354 207.363,155.354 207.363,161.375 
				201.342,161.375 201.342,167.265 207.363,167.265 207.363,173.286 213.253,173.286 213.253,167.265 219.143,167.265 
				219.274,167.265 219.274,161.375 213.253,161.375 			"/>
			<path style="fill:#8BBDC9;stroke:#3E3E3E;stroke-miterlimit:10;" d="M174.117,146.192h72.906c1.832,0,3.141-1.832,2.487-3.534
				l-6.675-17.67c-0.654-2.225-2.749-3.665-4.974-3.665h-54.581c-2.225,0-4.319,1.44-4.974,3.665l-6.675,17.67
				C170.975,144.36,172.153,146.323,174.117,146.192z"/>
			<path style="fill:#35838D;stroke:#3E3E3E;stroke-miterlimit:10;" d="M210.635,89.124l0.003-0.389
				c-2.47-0.575-4.759,2.13-4.715,4.839v4.581h4.712V89.124z"/>
			<path style="fill:#35838D;stroke:#3E3E3E;stroke-miterlimit:10;" d="M246.499,153.129c-3.403,0-6.021,2.618-6.021,6.021
				c0,3.403,2.749,6.021,6.021,6.021c3.272,0,6.021-2.618,6.021-6.021C252.52,155.747,249.902,153.129,246.499,153.129z"/>
			<path style="fill:#35838D;stroke:#3E3E3E;stroke-miterlimit:10;" d="M163.253,126.428h-0.131h-6.021
				c-2.356,0-4.188,1.963-4.188,4.188v16.361h10.34V126.428z"/>
			<path style="fill:#35838D;stroke:#3E3E3E;stroke-miterlimit:10;" d="M264.169,127.082h-6.021v20.55h10.209v-16.361
				C268.488,128.915,266.525,127.082,264.169,127.082z"/>
			<g>
				<path style="fill:#35838D;" d="M242.834,199.571c-2.775,0-4.95-2.175-4.95-4.95v-1.594h-54.628v1.594
					c0,2.775-2.174,4.95-4.95,4.95h-10.602c-2.776,0-4.95-2.175-4.95-4.95v-6.651h95.633v6.651c0,2.775-2.175,4.95-4.95,4.95
					H242.834z"/>
				<path style="fill:#3E3E3E;" d="M257.886,188.469v6.152c0,2.487-1.963,4.45-4.45,4.45h-10.602c-2.487,0-4.45-1.963-4.45-4.45
					v-2.094h-55.628v2.094c0,2.487-1.963,4.45-4.45,4.45h-10.602c-2.487,0-4.45-1.963-4.45-4.45v-6.152h17.801h1.702h55.759h1.44
					H257.886 M258.886,187.469h-1h-17.932h-1.44h-55.759h-1.702h-17.801h-1v1v6.152c0,3.056,2.394,5.45,5.45,5.45h10.602
					c3.056,0,5.45-2.394,5.45-5.45v-1.094h53.628v1.094c0,3.056,2.394,5.45,5.45,5.45h10.602c3.056,0,5.45-2.394,5.45-5.45v-6.152
					V187.469L258.886,187.469z"/>
			</g>
			<g>
				<path style="fill:#3E3E3E;" d="M210.766,88.399c2.709,0,4.914,2.204,4.914,4.914v4.843v1.5h1.5h0.071v2.558v0.262v1.5h1.5
					h31.021c2.709,0,4.914,2.204,4.914,4.914v41.361v0.576l0.385,0.428c0.974,1.082,1.447,2.295,1.447,3.709v19.895l-0.004,1.014
					l0.943,0.377c0.093,0.046,0.291,0.287,0.37,0.592v7.572c0,0.149-0.121,0.355-0.283,0.409l-0.162,0.054h-0.149h-93.194h-0.149
					l-0.162-0.054c-0.162-0.054-0.283-0.261-0.283-0.409v-7.723c0-0.149,0.121-0.355,0.283-0.41l1.026-0.342v-1.081v-19.895
					c0-1.435,0.508-2.766,1.393-3.651l0.439-0.439v-0.621v-41.361c0-2.709,2.204-4.914,4.914-4.914h30.89h1.5v-1.5v-0.262v-2.558
					h0.071h1.5v-1.5v-4.843c0-2.709,2.204-4.914,4.914-4.914H210.766 M210.766,86.899h-0.393c-3.534,0-6.414,2.88-6.414,6.414v4.843
					h-0.262c-0.654,0-1.309,0.524-1.309,1.309v2.749c0,0.131,0,0.131,0,0.262h-30.89c-3.534,0-6.414,2.88-6.414,6.414v41.361
					c-1.178,1.178-1.832,2.88-1.832,4.712v19.895c-0.785,0.262-1.309,1.047-1.309,1.833v7.723c0,0.785,0.524,1.571,1.309,1.832
					v0.131h0.785h93.194h0.785v-0.131c0.785-0.262,1.309-1.047,1.309-1.832v-7.723c-0.131-0.785-0.654-1.571-1.309-1.833v-19.895
					c0-1.832-0.654-3.403-1.832-4.712v-41.361c0-3.534-2.88-6.414-6.414-6.414H218.75c0-0.131,0-0.131,0-0.262v-2.749
					c0-0.654-0.524-1.309-1.309-1.309h-0.262v-4.843C217.179,89.778,214.3,86.899,210.766,86.899L210.766,86.899z"/>
			</g>
		</g>
	</g>
	<g id="Layer_17">
		<g>
			<path style="fill:#3E3E3E;" d="M246.806,167.937c-0.078,0.031-0.166,0.115-0.157,0.251l0.163,2.334
				c0.004,0.061,0.037,0.123,0.089,0.169c0.053,0.046,0.118,0.069,0.18,0.065c0.022-0.002,0.044-0.007,0.066-0.015
				c0.103-0.041,0.176-0.15,0.168-0.254l-0.163-2.334c-0.005-0.066-0.035-0.128-0.083-0.172c-0.035-0.032-0.096-0.068-0.186-0.062
				C246.857,167.921,246.831,167.927,246.806,167.937z"/>
			<path style="fill:#3E3E3E;" d="M246.806,167.937c-0.078,0.031-0.166,0.115-0.157,0.251l0.163,2.334
				c0.004,0.061,0.037,0.123,0.089,0.169c0.053,0.046,0.118,0.069,0.18,0.065c0.022-0.002,0.044-0.007,0.066-0.015
				c0.103-0.041,0.176-0.15,0.168-0.254l-0.163-2.334c-0.005-0.066-0.035-0.128-0.083-0.172c-0.035-0.032-0.096-0.068-0.186-0.062
				C246.857,167.921,246.831,167.927,246.806,167.937z"/>
			<path style="fill:#3E3E3E;" d="M246.884,168.133c-0.026,0.01-0.025,0.03-0.024,0.041l0.163,2.334l0.045,0.038
				c0.022-0.009,0.037-0.035,0.038-0.045l-0.163-2.333l-0.044-0.038L246.884,168.133z"/>
			<path style="fill:#3E3E3E;" d="M246.884,168.133c-0.026,0.01-0.025,0.03-0.024,0.041l0.163,2.334l0.045,0.038
				c0.022-0.009,0.037-0.035,0.038-0.045l-0.163-2.333l-0.044-0.038L246.884,168.133z"/>
			<path style="fill:#3E3E3E;" d="M252.33,165.657c-0.03,0.012-0.056,0.029-0.078,0.051c-0.047,0.046-0.074,0.111-0.075,0.18
				c-0.001,0.069,0.023,0.132,0.068,0.178l1.631,1.677c0.07,0.071,0.183,0.094,0.279,0.056c0.029-0.012,0.056-0.029,0.078-0.051
				c0.097-0.095,0.1-0.262,0.006-0.357l-1.631-1.677C252.539,165.642,252.426,165.619,252.33,165.657L252.33,165.657z"/>
			<path style="fill:#3E3E3E;" d="M252.33,165.657c-0.03,0.012-0.056,0.029-0.078,0.051c-0.047,0.046-0.074,0.111-0.075,0.18
				c-0.001,0.069,0.023,0.132,0.068,0.178l1.631,1.677c0.07,0.071,0.183,0.094,0.279,0.056c0.029-0.012,0.056-0.029,0.078-0.051
				c0.097-0.095,0.1-0.262,0.006-0.357l-1.631-1.677C252.539,165.642,252.426,165.619,252.33,165.657L252.33,165.657z"/>
			<path style="fill:#3E3E3E;" d="M252.401,165.857l-0.004,0.061l1.631,1.677c0.008,0.008,0.033,0.014,0.05,0.007
				c0.023-0.02,0.023-0.052,0.012-0.064l-1.632-1.678c-0.008-0.008-0.033-0.014-0.05-0.007
				C252.404,165.854,252.402,165.856,252.401,165.857z"/>
			<path style="fill:#3E3E3E;" d="M252.401,165.857l-0.004,0.061l1.631,1.677c0.008,0.008,0.033,0.014,0.05,0.007
				c0.023-0.02,0.023-0.052,0.012-0.064l-1.632-1.678c-0.008-0.008-0.033-0.014-0.05-0.007
				C252.404,165.854,252.402,165.856,252.401,165.857z"/>
			<path style="fill:#3E3E3E;" d="M240.371,166.069c-0.044,0.018-0.082,0.046-0.11,0.083l-1.38,1.886
				c-0.039,0.053-0.055,0.119-0.044,0.186c0.011,0.068,0.047,0.129,0.099,0.168c0.067,0.05,0.16,0.06,0.243,0.027
				c0.044-0.018,0.082-0.047,0.11-0.083l1.38-1.886c0.039-0.053,0.054-0.119,0.044-0.186c-0.011-0.068-0.047-0.129-0.099-0.168
				C240.548,166.047,240.454,166.036,240.371,166.069L240.371,166.069z"/>
			<path style="fill:#3E3E3E;" d="M240.371,166.069c-0.044,0.018-0.082,0.046-0.11,0.083l-1.38,1.886
				c-0.039,0.053-0.055,0.119-0.044,0.186c0.011,0.068,0.047,0.129,0.099,0.168c0.067,0.05,0.16,0.06,0.243,0.027
				c0.044-0.018,0.082-0.047,0.11-0.083l1.38-1.886c0.039-0.053,0.054-0.119,0.044-0.186c-0.011-0.068-0.047-0.129-0.099-0.168
				C240.548,166.047,240.454,166.036,240.371,166.069L240.371,166.069z"/>
			<path style="fill:#3E3E3E;" d="M240.449,166.265c-0.008,0.003-0.014,0.008-0.019,0.013l-1.379,1.884l0.01,0.06l0.058-0.011
				l1.38-1.886l-0.011-0.06L240.449,166.265z"/>
			<path style="fill:#3E3E3E;" d="M240.449,166.265c-0.008,0.003-0.014,0.008-0.019,0.013l-1.379,1.884l0.01,0.06l0.058-0.011
				l1.38-1.886l-0.011-0.06L240.449,166.265z"/>
		</g>
	</g>
	<g id="Layer_16">
		<g>
			<path style="fill:#3E3E3E;" d="M174.881,167.936c0.078,0.031,0.166,0.115,0.157,0.251l-0.163,2.334
				c-0.004,0.061-0.037,0.123-0.089,0.169c-0.053,0.046-0.118,0.069-0.18,0.065c-0.022-0.002-0.044-0.007-0.066-0.015
				c-0.103-0.041-0.176-0.15-0.168-0.254l0.163-2.334c0.005-0.066,0.035-0.128,0.083-0.172c0.035-0.032,0.096-0.068,0.186-0.062
				C174.831,167.92,174.857,167.926,174.881,167.936z"/>
			<path style="fill:#3E3E3E;" d="M174.881,167.936c0.078,0.031,0.166,0.115,0.157,0.251l-0.163,2.334
				c-0.004,0.061-0.037,0.123-0.089,0.169c-0.053,0.046-0.118,0.069-0.18,0.065c-0.022-0.002-0.044-0.007-0.066-0.015
				c-0.103-0.041-0.176-0.15-0.168-0.254l0.163-2.334c0.005-0.066,0.035-0.128,0.083-0.172c0.035-0.032,0.096-0.068,0.186-0.062
				C174.831,167.92,174.857,167.926,174.881,167.936z"/>
			<path style="fill:#3E3E3E;" d="M174.804,168.132c0.026,0.01,0.025,0.03,0.024,0.041l-0.163,2.334l-0.045,0.038
				c-0.022-0.009-0.037-0.035-0.038-0.045l0.163-2.333l0.044-0.038L174.804,168.132z"/>
			<path style="fill:#3E3E3E;" d="M174.804,168.132c0.026,0.01,0.025,0.03,0.024,0.041l-0.163,2.334l-0.045,0.038
				c-0.022-0.009-0.037-0.035-0.038-0.045l0.163-2.333l0.044-0.038L174.804,168.132z"/>
			<path style="fill:#3E3E3E;" d="M169.357,165.655c0.03,0.012,0.056,0.029,0.078,0.051c0.047,0.046,0.074,0.111,0.075,0.18
				c0.001,0.069-0.023,0.132-0.068,0.178l-1.631,1.677c-0.07,0.071-0.183,0.094-0.279,0.056c-0.029-0.012-0.056-0.029-0.078-0.051
				c-0.097-0.095-0.1-0.262-0.006-0.357l1.631-1.677C169.149,165.64,169.261,165.617,169.357,165.655L169.357,165.655z"/>
			<path style="fill:#3E3E3E;" d="M169.357,165.655c0.03,0.012,0.056,0.029,0.078,0.051c0.047,0.046,0.074,0.111,0.075,0.18
				c0.001,0.069-0.023,0.132-0.068,0.178l-1.631,1.677c-0.07,0.071-0.183,0.094-0.279,0.056c-0.029-0.012-0.056-0.029-0.078-0.051
				c-0.097-0.095-0.1-0.262-0.006-0.357l1.631-1.677C169.149,165.64,169.261,165.617,169.357,165.655L169.357,165.655z"/>
			<path style="fill:#3E3E3E;" d="M169.287,165.856l0.004,0.061l-1.631,1.677c-0.008,0.008-0.033,0.014-0.05,0.007
				c-0.023-0.02-0.023-0.052-0.012-0.064l1.632-1.678c0.008-0.008,0.033-0.014,0.05-0.007
				C169.284,165.853,169.286,165.855,169.287,165.856z"/>
			<path style="fill:#3E3E3E;" d="M169.287,165.856l0.004,0.061l-1.631,1.677c-0.008,0.008-0.033,0.014-0.05,0.007
				c-0.023-0.02-0.023-0.052-0.012-0.064l1.632-1.678c0.008-0.008,0.033-0.014,0.05-0.007
				C169.284,165.853,169.286,165.855,169.287,165.856z"/>
			<path style="fill:#3E3E3E;" d="M181.316,166.068c0.044,0.018,0.082,0.046,0.11,0.083l1.38,1.886
				c0.039,0.053,0.055,0.119,0.044,0.186c-0.011,0.068-0.047,0.129-0.099,0.168c-0.067,0.05-0.16,0.06-0.243,0.027
				c-0.044-0.018-0.082-0.047-0.11-0.083l-1.38-1.886c-0.039-0.053-0.054-0.119-0.044-0.186c0.011-0.068,0.047-0.129,0.099-0.168
				C181.14,166.045,181.233,166.035,181.316,166.068L181.316,166.068z"/>
			<path style="fill:#3E3E3E;" d="M181.316,166.068c0.044,0.018,0.082,0.046,0.11,0.083l1.38,1.886
				c0.039,0.053,0.055,0.119,0.044,0.186c-0.011,0.068-0.047,0.129-0.099,0.168c-0.067,0.05-0.16,0.06-0.243,0.027
				c-0.044-0.018-0.082-0.047-0.11-0.083l-1.38-1.886c-0.039-0.053-0.054-0.119-0.044-0.186c0.011-0.068,0.047-0.129,0.099-0.168
				C181.14,166.045,181.233,166.035,181.316,166.068L181.316,166.068z"/>
			<path style="fill:#3E3E3E;" d="M181.239,166.263c0.008,0.003,0.014,0.008,0.019,0.013l1.379,1.884l-0.01,0.06l-0.058-0.011
				l-1.38-1.886l0.011-0.06L181.239,166.263z"/>
			<path style="fill:#3E3E3E;" d="M181.239,166.263c0.008,0.003,0.014,0.008,0.019,0.013l1.379,1.884l-0.01,0.06l-0.058-0.011
				l-1.38-1.886l0.011-0.06L181.239,166.263z"/>
		</g>
	</g>
	<g id="Layer_15">
		<path style="fill:#3E3E3E;" d="M210.706,82.668c0.111-0.034,0.24-0.141,0.241-0.329l0.021-3.22
			c0.001-0.085-0.038-0.172-0.105-0.241c-0.067-0.068-0.155-0.108-0.24-0.108c-0.03,0-0.061,0.004-0.092,0.014
			c-0.146,0.045-0.257,0.188-0.257,0.331l-0.021,3.22c-0.001,0.091,0.034,0.18,0.095,0.244c0.045,0.047,0.124,0.104,0.249,0.105
			C210.635,82.684,210.672,82.678,210.706,82.668z"/>
	</g>
	<g id="Layer_14">
		<path style="fill:#3E3E3E;" d="M210.706,82.668c0.111-0.034,0.24-0.141,0.241-0.329l0.021-3.22
			c0.001-0.085-0.038-0.172-0.105-0.241c-0.067-0.068-0.155-0.108-0.24-0.108c-0.03,0-0.061,0.004-0.092,0.014
			c-0.146,0.045-0.257,0.188-0.257,0.331l-0.021,3.22c-0.001,0.091,0.034,0.18,0.095,0.244c0.045,0.047,0.124,0.104,0.249,0.105
			C210.635,82.684,210.672,82.678,210.706,82.668z"/>
	</g>
	<g id="Layer_13">
		<path style="fill:#3E3E3E;" d="M210.62,82.391c0.037-0.011,0.037-0.039,0.037-0.053l0.021-3.22l-0.057-0.057
			c-0.031,0.01-0.055,0.043-0.056,0.057l-0.021,3.22l0.056,0.057L210.62,82.391z"/>
	</g>
	<g id="Layer_12">
		<path style="fill:#4C3232;" d="M210.62,82.391c0.037-0.011,0.037-0.039,0.037-0.053l0.021-3.22l-0.057-0.057
			c-0.031,0.01-0.055,0.043-0.056,0.057l-0.021,3.22l0.056,0.057L210.62,82.391z"/>
	</g>
	<g id="Layer_11">
		<path style="fill:#3E3E3E;" d="M202.935,85.611c0.057-0.069,0.085-0.163,0.077-0.257c-0.008-0.094-0.05-0.177-0.119-0.234
			l-2.467-2.07c-0.106-0.088-0.263-0.103-0.39-0.038c-0.039,0.02-0.072,0.047-0.099,0.08c-0.119,0.144-0.1,0.373,0.041,0.49
			l2.468,2.07"/>
	</g>
	<g id="Layer_10">
		<path style="fill:#3E3E3E;" d="M202.935,85.611c0.057-0.069,0.085-0.163,0.077-0.257c-0.008-0.094-0.05-0.177-0.119-0.234
			l-2.467-2.07c-0.106-0.088-0.263-0.103-0.39-0.038c-0.039,0.02-0.072,0.047-0.099,0.08c-0.119,0.144-0.1,0.373,0.041,0.49
			l2.468,2.07"/>
	</g>
	<g id="Layer_9">
		<path style="fill:#3E3E3E;" d="M202.711,85.427l-0.004-0.084l-2.468-2.07c-0.012-0.01-0.047-0.014-0.069-0.002
			c-0.029,0.03-0.024,0.075-0.007,0.089l2.469,2.071"/>
	</g>
	<g id="Layer_8">
		<path style="fill:#3E3E3E;" d="M202.711,85.427l-0.004-0.084l-2.468-2.07c-0.012-0.01-0.047-0.014-0.069-0.002
			c-0.029,0.03-0.024,0.075-0.007,0.089l2.469,2.071"/>
	</g>
	<g id="Layer_7">
		<path style="fill:#3E3E3E;" d="M218.489,85.725c0.064-0.013,0.123-0.043,0.169-0.087l2.323-2.226
			c0.066-0.062,0.102-0.148,0.104-0.242c0.002-0.094-0.032-0.186-0.094-0.251c-0.079-0.083-0.203-0.12-0.323-0.095
			c-0.064,0.013-0.123,0.043-0.169,0.087l-2.323,2.226c-0.066,0.062-0.102,0.148-0.104,0.242c-0.002,0.094,0.032,0.186,0.094,0.251
			C218.244,85.713,218.368,85.749,218.489,85.725L218.489,85.725z"/>
	</g>
	<g id="Layer_6">
		<path style="fill:#3E3E3E;" d="M218.431,85.44c0.011-0.002,0.021-0.007,0.028-0.014l2.321-2.224l0-0.084l-0.081,0.002
			l-2.322,2.226l0,0.084L218.431,85.44z"/>
	</g>
	<g id="Layer_5">
		<path style="fill:#4C3232;" d="M218.431,85.44c0.011-0.002,0.021-0.007,0.028-0.014l2.321-2.224l0-0.084l-0.081,0.002
			l-2.322,2.226l0,0.084L218.431,85.44z"/>
	</g>
	<g id="Layer_4">
		<path style="fill:none;stroke:#3E3E3E;stroke-miterlimit:10;" d="M210.865,89.125l-0.003-0.389c2.47-0.575,4.759,2.13,4.715,4.839
			v4.581h-4.712V89.125z"/>
	</g>
</g>
<g id="Layer_1">
</g>
</svg>
