<?xml version="1.0" encoding="iso-8859-1"?>
<!-- Generator: Adobe Illustrator 21.0.0, SVG Export Plug-In . SVG Version: 6.00 Build 0)  -->
<svg version="1.1" xmlns="http://www.w3.org/2000/svg" xmlns:xlink="http://www.w3.org/1999/xlink" x="0px" y="0px"
	 viewBox="0 0 414 211" style="enable-background:new 0 0 414 211;" xml:space="preserve">
<g id="bathtub">
	<path style="fill:none;" d="M340.876,174.991c-0.938-0.352-1.994-0.117-2.698,0.674c-0.411,0.498-0.645,1.144-0.586,1.789
		c0.059,0.645,0.352,1.232,0.85,1.671c0.469,0.381,1.114,0.616,1.759,0.557c0.645-0.059,1.232-0.352,1.671-0.85
		c0.85-1.026,0.762-2.58-0.264-3.431C341.375,175.226,341.14,175.079,340.876,174.991z M339.733,175.695
		c-0.674,0-1.232,0.528-1.261,1.202h-0.323c0.029-0.88,0.762-1.554,1.613-1.525L339.733,175.695z"/>
	<path style="fill:none;" d="M336.712,172.088c1.378,0.147,2.668-0.235,3.724-1.202c2.17-1.759,2.463-4.956,0.704-7.125
		c-0.616-0.704-1.349-1.232-2.199-1.554c-0.381-0.147-0.792-0.205-1.232-0.264c-1.378-0.117-2.668,0.293-3.724,1.144
		s-1.73,2.053-1.847,3.431s0.293,2.668,1.144,3.724C334.132,171.297,335.334,171.971,336.712,172.088z M336.918,162.705
		c0.44,0,0.88,0.088,1.32,0.293l-0.147,0.323c-0.352-0.176-0.733-0.264-1.144-0.264c-1.173-0.029-2.141,0.645-2.58,1.73
		l-0.323-0.117C334.513,163.468,335.627,162.705,336.918,162.705z"/>
	<path style="fill:none;" d="M346.799,167.602c0.469,0.381,1.114,0.616,1.759,0.557s1.232-0.352,1.671-0.85
		c0.88-1.026,0.762-2.61-0.264-3.431c-0.235-0.176-0.469-0.323-0.733-0.411c-0.938-0.352-1.994-0.117-2.698,0.674
		c-0.411,0.499-0.645,1.144-0.587,1.789C346.008,166.576,346.301,167.162,346.799,167.602z M348.148,163.819l-0.029,0.323
		c-0.674,0-1.232,0.528-1.261,1.202h-0.323C346.565,164.464,347.269,163.79,348.148,163.819z"/>
	<path style="fill:none;" d="M343.369,159.861c0.762,0.264,1.613-0.117,1.877-0.88s-0.117-1.613-0.88-1.877s-1.613,0.117-1.877,0.88
		S342.606,159.597,343.369,159.861z M343.809,157.222l-0.059,0.352c-0.323-0.059-0.586,0.147-0.645,0.44l-0.352-0.059
		C342.87,157.486,343.31,157.163,343.809,157.222z"/>
	<path style="fill:none;" d="M340.642,171.209c-0.323,0.293-0.704,0.528-1.114,0.704c0.323,0.235,0.674,0.352,1.085,0.352
		c0.499,0.059,1.026-0.176,1.378-0.528c0.381-0.381,0.586-0.85,0.586-1.378c0-0.381-0.147-0.821-0.411-1.202
		C341.844,169.948,341.345,170.652,340.642,171.209z"/>
	<path style="fill:#4C3232;stroke:#DD6E45;stroke-width:0.25;stroke-miterlimit:10;" d="M366.757,178.202l0.002-0.002
		c-0.734,0.293-1.479,0.554-2.225,0.813c-11.332,3.981-22.982,4.433-34.772,3.054c-1.417-0.169-3.067-0.655-2.315,1.712
		c1.655,5.184,5.482,11.417,13.27,10.893c2.361-0.159,4.748-0.023,7.12-0.023c2.372,0,4.748,0.005,7.12,0
		c9.153-0.018,14.342-4.563,15.528-13.591C371.054,176.75,370.823,176.575,366.757,178.202z M359.891,192.309l6.394-4.459
		C365.417,190.21,363.027,191.934,359.891,192.309z"/>
	<path style="fill:#4C3232;stroke:#DD6E45;stroke-width:0.25;stroke-miterlimit:10;" d="M361.284,195.049h-0.002
		c-0.762,0.056-1.761,0.136-1.44,1.288c0.3,1.045,0.678,2.23,2.027,2.366c0.96,0.102,1.576-0.536,1.401-1.57
		C363.101,196.162,362.819,194.936,361.284,195.049z"/>
	<path style="fill:#4C3232;stroke:#DD6E45;stroke-width:0.25;stroke-miterlimit:10;" d="M336.132,195.274
		c-1.406-0.293-1.632,0.999-1.874,1.897c-0.254,0.942,0.503,1.547,1.355,1.599c1.366,0.079,1.874-1.322,2.123-2.366
		C338.023,195.229,336.737,195.405,336.132,195.274z"/>
	
		<ellipse style="fill:#DD6E45;stroke:#3E3E3E;stroke-width:0.5;stroke-miterlimit:10;" cx="358.557" cy="176.067" rx="3.077" ry="3.088"/>
	<path style="fill:#3E3E3E;" d="M337.885,175.431c-0.499,0.557-0.733,1.29-0.674,2.023s0.411,1.408,0.968,1.906
		c0.264,0.205,0.557,0.381,0.85,0.498c0.352,0.117,0.733,0.205,1.173,0.176c0.733-0.059,1.408-0.411,1.906-0.968
		c1.026-1.173,0.909-2.932-0.293-3.959C340.642,174.141,338.853,174.258,337.885,175.431z M341.873,178.833
		c-0.44,0.498-1.026,0.792-1.671,0.85c-0.645,0.059-1.29-0.176-1.759-0.557c-0.498-0.44-0.792-1.026-0.85-1.671
		c-0.059-0.645,0.176-1.29,0.586-1.789c0.704-0.792,1.759-1.026,2.698-0.674c0.264,0.088,0.498,0.235,0.733,0.411
		C342.636,176.252,342.724,177.806,341.873,178.833z"/>
	<path style="fill:#3E3E3E;" d="M343.222,160.183c0.938,0.352,1.994-0.147,2.317-1.085c0.352-0.938-0.147-1.994-1.085-2.317
		c-0.938-0.352-1.994,0.147-2.316,1.085C341.785,158.834,342.284,159.861,343.222,160.183z M342.489,157.984
		c0.264-0.762,1.114-1.144,1.877-0.88s1.144,1.114,0.88,1.877s-1.114,1.144-1.877,0.88
		C342.606,159.597,342.225,158.747,342.489,157.984z"/>
	<path style="fill:#3E3E3E;" d="M335.363,172.118c0.44,0.147,0.88,0.235,1.349,0.293c0.85,0.088,1.701-0.059,2.463-0.323
		c0.176,0.205,0.411,0.352,0.674,0.44c0.235,0.088,0.528,0.147,0.792,0.147c0.616,0,1.202-0.235,1.613-0.674
		c0.44-0.44,0.674-1.026,0.704-1.613c0-0.586-0.205-1.144-0.616-1.554c0.586-1.73,0.293-3.695-0.938-5.219
		c-0.938-1.114-2.199-1.818-3.636-1.965s-2.844,0.293-3.959,1.202c-1.114,0.938-1.818,2.199-1.965,3.636
		c-0.147,1.437,0.293,2.844,1.202,3.959C333.663,171.179,334.454,171.766,335.363,172.118z M342.577,170.358
		c0,0.528-0.205,0.997-0.586,1.378c-0.352,0.352-0.88,0.586-1.378,0.528c-0.411,0-0.762-0.117-1.085-0.352
		c0.411-0.176,0.792-0.411,1.114-0.704c0.704-0.557,1.202-1.261,1.525-2.053C342.43,169.537,342.577,169.977,342.577,170.358z
		 M333.985,163.086c1.056-0.85,2.346-1.261,3.724-1.144c0.44,0.059,0.85,0.117,1.232,0.264c0.85,0.323,1.583,0.85,2.199,1.554
		c1.759,2.17,1.466,5.366-0.704,7.125c-1.056,0.968-2.346,1.349-3.724,1.202c-1.378-0.117-2.58-0.792-3.431-1.847
		c-0.85-1.056-1.261-2.346-1.144-3.724S332.93,163.937,333.985,163.086z"/>
	<path style="fill:#DD6E45;" d="M336.947,163.057c0.411,0,0.792,0.088,1.144,0.264l0.147-0.323c-0.44-0.205-0.88-0.293-1.32-0.293
		c-1.29,0-2.404,0.762-2.874,1.965l0.323,0.117C334.806,163.702,335.774,163.028,336.947,163.057z"/>
	<path style="fill:#D8583D;" d="M343.75,157.574l0.059-0.352c-0.498-0.059-0.938,0.264-1.056,0.733l0.352,0.059
		C343.163,157.72,343.427,157.515,343.75,157.574z"/>
	<path style="fill:#DD6E45;" d="M338.149,176.897h0.323c0.029-0.674,0.586-1.202,1.261-1.202l0.029-0.323
		C338.912,175.343,338.178,176.018,338.149,176.897z"/>
	<path style="fill:#3E3E3E;" d="M346.536,167.807c0.264,0.205,0.557,0.381,0.85,0.498c0.352,0.117,0.733,0.205,1.173,0.176
		c0.733-0.059,1.407-0.411,1.906-0.968c1.056-1.173,0.909-2.932-0.264-3.959c-1.173-0.968-2.962-0.85-3.959,0.323
		c-0.498,0.557-0.733,1.29-0.674,2.023C345.626,166.634,345.978,167.309,346.536,167.807z M346.536,164.142
		c0.704-0.792,1.759-1.026,2.698-0.674c0.264,0.088,0.498,0.235,0.733,0.411c1.026,0.821,1.144,2.404,0.264,3.431
		c-0.44,0.498-1.026,0.792-1.671,0.85s-1.29-0.176-1.759-0.557c-0.498-0.44-0.792-1.026-0.85-1.671
		C345.89,165.286,346.125,164.64,346.536,164.142z"/>
	<path style="fill:#D8583D;" d="M346.858,165.344c0.029-0.674,0.586-1.202,1.261-1.202l0.029-0.323
		c-0.88-0.029-1.583,0.645-1.613,1.525H346.858z"/>
	<path style="fill:#DD6E45;" d="M366.285,187.85l-6.394,4.459C363.027,191.934,365.417,190.21,366.285,187.85z"/>
</g>
<g id="Layer_1">
</g>
</svg>
