<?xml version="1.0" encoding="iso-8859-1"?>
<!-- Generator: Adobe Illustrator 21.0.0, SVG Export Plug-In . SVG Version: 6.00 Build 0)  -->
<svg version="1.1" xmlns="http://www.w3.org/2000/svg" xmlns:xlink="http://www.w3.org/1999/xlink" x="0px" y="0px"
	 viewBox="0 0 414 211" style="enable-background:new 0 0 414 211;" xml:space="preserve">
<g id="beach">
	<g id="beach_1_">
		<g>
			<path style="fill:#27AE60;stroke:#228C4D;stroke-width:0.25;stroke-miterlimit:10;" d="M315.329,163.067
				c1.884,0.594,3.765,1.191,5.635,1.82c0.329,0.111,0.444,0.031,0.59-0.256v-0.001c1.05-2.08,2.333-3.992,4.038-5.597
				c0.646-0.613,1.355-1.146,2.114-1.632c-2.233-0.162-4.375,0.192-6.44,1.003c-2.364,0.928-4.372,2.356-6.046,4.268
				C315.026,162.894,315.022,162.971,315.329,163.067z"/>
			<path style="fill:#228C4D;" d="M317.617,185.612c-0.491,0.008-0.98,0.008-1.471-0.004c-0.172-0.004-0.233,0.057-0.23,0.23
				c0.011,0.491,0.004,0.981,0.004,1.471h0.001c-0.005,0.479,0,0.958-0.012,1.44c0,0.172,0.054,0.242,0.226,0.242
				c0.503-0.008,1.004-0.004,1.506,0.004c0.16,0.005,0.211-0.065,0.211-0.218c0-0.982,0-1.962,0.007-2.943
				C317.862,185.651,317.782,185.609,317.617,185.612z"/>
			<path style="fill:#228C4D;" d="M322.907,165.269c-0.134,0.256,0.05,0.245,0.188,0.287c2.873,0.928,5.747,1.863,8.624,2.789
				c0.942,0.306,1.889,0.606,2.831,0.919c0.223,0.08,0.291,0.023,0.326-0.214c0.115-0.996,0.195-1.996,0.207-3.122
				c-0.03-1.724-0.192-3.54-0.923-5.261c-0.188-0.441-0.418-0.858-0.709-1.245c-0.935-1.242-2.184-1.647-3.674-1.203
				c-1.242,0.376-2.269,1.1-3.195,1.969C325.034,161.645,323.881,163.396,322.907,165.269z"/>
			<path style="fill:#228C4D;" d="M331.902,156.662c0.284,0.028,0.564,0.139,0.816,0.28c0.188,0.103,0.275,0.065,0.326-0.146
				c0.028-0.142,0.104-0.272,0.092-0.399c0.004-0.357-0.214-0.651-0.54-0.743c-0.326-0.096-0.69,0.061-0.855,0.368l-0.073,0.188
				C331.534,156.47,331.545,156.627,331.902,156.662z"/>
			<path style="fill:#27AE60;" d="M323.225,185.648c-0.169,0.016-0.333,0.004-0.502,0.004c-0.766-0.004-0.766-0.004-1.003,0.732
				l-0.001,0.001l-0.456,1.395c-0.145,0.46,0.047,0.85,0.472,0.984c0.406,0.13,0.785-0.08,0.935-0.524
				c0.26-0.771,0.502-1.544,0.77-2.311C323.524,185.687,323.447,185.633,323.225,185.648z"/>
			<path style="fill:#27AE60;stroke:#228C4D;stroke-width:0.25;stroke-miterlimit:10;" d="M335.534,160.026
				c0.279,0.69,0.498,1.364,0.655,2.057c0.394,1.743,0.444,3.513,0.348,5.294c-0.038,0.74-0.111,1.471-0.23,2.199
				c-0.026,0.165,0,0.261,0.184,0.318c1.858,0.597,3.713,1.196,5.571,1.797c0.049,0.016,0.107,0.012,0.16,0.019
				C342.576,168.201,338.894,161.75,335.534,160.026z"/>
			<path style="fill:#27AE60;stroke:#228C4D;stroke-width:0.25;stroke-miterlimit:10;" d="M341.272,172.97
				c-1.026-0.345-2.057-0.67-3.088-1.003l-21.811-7.049c-0.425-0.139-0.846-0.28-1.271-0.414c-0.498-0.153-0.909,0.011-1.05,0.425
				c-0.146,0.433,0.084,0.827,0.594,0.992c3.88,1.257,7.765,2.509,11.65,3.766c0.272,0.089,0.674,0.089,0.766,0.322
				c0.08,0.204-0.122,0.521-0.211,0.785c-1.057,3.222-2.114,6.443-3.183,9.661c-0.087,0.284-0.073,0.395,0.245,0.357
				c0.146-0.016,0.291-0.004,0.437-0.004c0.775,0.004,0.77,0.004,1.012-0.728c1.022-3.112,2.057-6.222,3.072-9.341v-0.001
				c0.084-0.263,0.188-0.298,0.444-0.218c3.904,1.268,7.812,2.529,11.716,3.793c0.08,0.026,0.164,0.057,0.253,0.077
				c0.421,0.092,0.808-0.103,0.923-0.467C341.901,173.513,341.713,173.116,341.272,172.97z"/>
			<path style="fill:#228C4D;" d="M333.028,182.317c-1.694-0.357-3.41-0.429-5.13-0.441c-1.179-0.011-2.367-0.004-3.551-0.004
				v-0.007c-1.778,0-3.551,0.034-5.329-0.012c-2.605-0.068-4.827-1.01-6.501-3.072c-0.219-0.268-0.399-0.563-0.571-0.866
				c-0.395-0.697-1.165-0.946-1.832-0.597v-0.001c-0.679,0.36-0.923,1.16-0.533,1.881c1.13,2.022,2.797,3.455,4.904,4.394
				c1.628,0.724,3.352,0.985,5.122,0.989c3.188,0.007,6.372-0.007,9.555,0.019c1.566,0.012,3.118,0.195,4.604,0.747
				c1.647,0.613,2.9,1.728,3.953,3.1c0.207,0.268,0.43,0.514,0.763,0.629c0.555,0.192,1.165,0.005,1.525-0.467
				c0.333-0.444,0.36-1.107,0.019-1.567C338.246,184.646,336.005,182.945,333.028,182.317z"/>
		</g>
		<g>
			<path style="fill:none;" d="M350.243,198.2c0.554-0.155,1.126-0.271,1.655-0.487c0.648-0.263,1.278-0.583,1.886-0.931
				c0.668-0.382,1.3-0.825,1.951-1.238c0.314-0.199,0.377-0.474,0.278-0.871c-2.338,0.379-4.701,0.409-7.061,0.884
				c0.063,0.231,0.095,0.402,0.157,0.561c0.247,0.636,0.507,1.267,0.756,1.903C349.939,198.211,350.073,198.247,350.243,198.2z"/>
			<path style="fill:none;" d="M350.097,198.672c0.206,0.522,0.396,1.002,0.593,1.505c0.384-0.209,0.729-0.453,1.166-0.456
				c-0.15,0.19-0.324,0.332-0.493,0.478c-0.172,0.148-0.435,0.204-0.539,0.529c0.432-0.084,0.69-0.5,1.156-0.414
				c-0.192,0.418-0.58,0.537-0.876,0.76c0.138,0.492,0.205,0.583,0.707,0.567c0.575-0.018,1.151-0.093,1.719-0.185
				c0.221-0.036,0.417-0.114,0.661-0.075c0.464,0.073,0.923-0.279,1.026-0.747c0.089-0.41,0.16-0.825,0.218-1.24
				c0.155-1.089,0.298-2.18,0.461-3.379C354.003,197.203,352.213,198.281,350.097,198.672z"/>
			<path style="fill:none;" d="M348.111,195.906c-0.069,0.5-0.101,1.005-0.131,1.51c-0.005,0.094,0.043,0.225,0.113,0.283
				c0.41,0.343,0.863,0.573,1.43,0.498c-0.103-0.612-0.778-2.231-1.146-2.724C348.277,195.631,348.133,195.759,348.111,195.906z"/>
			<path style="fill:none;" d="M350.965,194.863c1.115-0.129,2.232-0.24,3.346-0.375c0.603-0.072,1.203-0.176,1.792-0.263
				c0-0.251,0-0.455,0-0.713c-2.226,0.257-4.412,0.505-6.598,0.767c-0.324,0.039-0.64,0.146-0.98,0.227
				c0.049,0.253,0.09,0.47,0.124,0.648C349.443,195.054,350.203,194.951,350.965,194.863z"/>
			<path style="fill:none;" d="M358.283,200.144c-0.295,0.25-0.5,0.564-0.631,1.04c0.574-0.258,1.081-0.18,1.638,0.06
				c0.042-0.297,0.088-0.537,0.104-0.78c0.006-0.092-0.035-0.213-0.098-0.279C359.05,199.934,358.556,199.913,358.283,200.144z"/>
			<path style="fill:none;" d="M360.971,197.177c0,0-0.638-0.324-1.092-0.509c-0.106,0.236-0.234,0.494-0.34,0.727
				c0.64,0.164,1.245,0.373,1.245,0.373L360.971,197.177z"/>
			<path style="fill:#27AE60;stroke:#228C4D;stroke-width:0.25;stroke-miterlimit:10;" d="M360.994,198.163l0.428-1.136
				c0,0-0.593-0.282-1.026-0.473c-0.19-0.084-0.393-0.141-0.641-0.227c-0.234,0.402-0.457,0.784-0.712,1.221
				c0.247,0.108,0.458,0.201,0.631,0.276c-0.202,0.493-0.39,0.956-0.581,1.419c-0.108,0.26-0.253,0.455-0.587,0.42
				c-0.313-0.032-0.526,0.173-0.711,0.388c-0.235,0.272-0.447,0.579-0.521,0.936c-0.011,0.054-0.066,0.482-0.177,0.411
				c-0.458-0.289-0.945-0.409-1.516-0.208c0.026-0.195,0.036-0.315,0.057-0.432c0.117-0.638,0.267-1.27,0.348-1.912
				c0.108-0.852,0.157-1.712,0.243-2.568c0.038-0.382,0.088-0.742,0.483-0.987c0.239-0.148,0.423-0.428,0.56-0.686
				c0.349-0.661,0.103-1.027-0.66-1.037c-0.03,0-0.061-0.026-0.091-0.039c-0.17-0.417-0.171-0.424-0.596-0.383
				c-0.609,0.06-1.219,0.126-1.826,0.202c-1.13,0.141-2.259,0.292-3.387,0.438c-0.864,0.111-1.728,0.217-2.498,0.314
				c-0.138,0.233-0.213,0.378-0.305,0.51c-0.173,0.252-0.318,0.491-0.201,0.828c0.051,0.147-0.029,0.339-0.045,0.51
				c-0.039,0.418-0.1,0.836-0.108,1.254c-0.008,0.39,0.191,0.696,0.506,0.927c0.38,0.279,0.802,0.423,1.272,0.437
				c0.191,0.005,0.375,0.011,0.458,0.257c0.309,0.912,0.773,1.77,0.954,2.728c0.053,0.279,0.252,0.426,0.554,0.426
				c0.401,0.001,0.803-0.001,1.204-0.009c0.435-0.009,0.876,0.012,1.304-0.053c0.468-0.071,0.999-0.042,1.317-0.568
				c0.02,0.165,0.035,0.289,0.06,0.494c0.186-0.083,0.335-0.12,0.447-0.205c0.276-0.209,0.563-0.272,0.882-0.133
				c0.314,0.138,0.624,0.287,0.932,0.429c0.036-0.023,0.073-0.037,0.094-0.062c0.435-0.533,0.945-0.674,1.594-0.38
				c0.179,0.081,0.464,0.059,0.648-0.027c0.291-0.135,0.509-0.183,0.757,0.069c0.077,0.079,0.272,0.123,0.371,0.075
				c0.057-0.027,0.083-0.086,0.036-0.186c-0.056-0.12-0.179-0.19-0.297-0.235c-0.267-0.1-0.581-0.105-0.859-0.175
				c0.011,0.003,0.045-0.49,0.044-0.511c-0.005-0.136-0.05-0.253-0.133-0.361c-0.045-0.059-0.41-0.424-0.408-0.428
				c0.266-0.588,0.53-1.177,0.808-1.793C360.428,198.006,360.994,198.163,360.994,198.163z M349.506,194.279
				c2.186-0.262,4.372-0.51,6.598-0.767c0,0.258,0,0.462,0,0.713c-0.59,0.087-1.189,0.191-1.792,0.263
				c-1.114,0.134-2.231,0.246-3.346,0.375c-0.762,0.089-1.522,0.191-2.316,0.291c-0.034-0.178-0.075-0.395-0.124-0.648
				C348.866,194.426,349.181,194.318,349.506,194.279z M348.093,197.699c-0.07-0.058-0.118-0.189-0.113-0.283
				c0.029-0.504,0.062-1.01,0.131-1.51c0.021-0.147,0.165-0.275,0.267-0.434c0.367,0.493,1.043,2.112,1.146,2.724
				C348.956,198.272,348.503,198.042,348.093,197.699z M349.864,198.021c-0.248-0.636-0.508-1.267-0.756-1.903
				c-0.062-0.159-0.093-0.33-0.157-0.561c2.359-0.475,4.723-0.505,7.061-0.884c0.099,0.398,0.036,0.672-0.278,0.871
				c-0.651,0.412-1.283,0.856-1.951,1.238c-0.608,0.348-1.238,0.668-1.886,0.931c-0.53,0.216-1.101,0.333-1.655,0.487
				C350.073,198.247,349.939,198.211,349.864,198.021z M355.218,200.635c-0.103,0.468-0.562,0.82-1.026,0.747
				c-0.244-0.039-0.44,0.039-0.661,0.075c-0.569,0.091-1.145,0.167-1.719,0.185c-0.501,0.016-0.568-0.076-0.707-0.567
				c0.296-0.223,0.683-0.342,0.876-0.76c-0.465-0.086-0.723,0.33-1.156,0.414c0.104-0.325,0.368-0.381,0.539-0.529
				c0.17-0.146,0.343-0.289,0.493-0.478c-0.437,0.002-0.783,0.247-1.166,0.456c-0.198-0.503-0.387-0.983-0.593-1.505
				c2.116-0.391,3.906-1.469,5.8-2.656c-0.163,1.199-0.307,2.29-0.461,3.379C355.377,199.81,355.307,200.225,355.218,200.635z
				 M359.295,200.185c0.063,0.066,0.104,0.187,0.098,0.279c-0.015,0.242-0.061,0.483-0.104,0.78c-0.556-0.24-1.063-0.318-1.638-0.06
				c0.13-0.476,0.336-0.789,0.631-1.04C358.556,199.913,359.05,199.934,359.295,200.185z M359.538,197.395
				c0.106-0.233,0.234-0.491,0.34-0.727c0.455,0.185,1.092,0.509,1.092,0.509l-0.187,0.591
				C360.784,197.768,360.179,197.559,359.538,197.395z"/>
		</g>
		<path style="fill:#27AE60;stroke:#228C4D;stroke-width:0.25;stroke-miterlimit:10;" d="M349.924,201.899
			c-0.114-0.069-0.23-0.141-0.344-0.213c-0.639-0.405-1.275-0.356-1.813,0.165c-0.184,0.178-0.678,1.099-0.855,0.434
			c-0.03-0.11-0.006-0.234-0.006-0.441c0,0.051-0.799,0.302-0.888,0.332c-0.177,0.06-0.373,0.093-0.53,0.201
			c-0.116,0.079-0.189,0.299-0.348,0.259c-0.118-0.03-0.17-0.136-0.137-0.25c0.029-0.1,0.112-0.222,0.203-0.262
			c0.379-0.17,0.763-0.334,1.159-0.457c0.205-0.063,0.463-0.108,0.652-0.039c0.263,0.097,0.408,0.008,0.612-0.125
			c0.697-0.452,1.422-0.556,2.16-0.072C349.948,201.534,350.018,201.727,349.924,201.899z"/>
		<path style="fill:#228C4D;" d="M347.478,203.984c0.002,0.022-0.018,0.049-0.072,0.082c-0.051,0.031-0.202-0.017-0.186-0.092
			C347.236,203.9,347.472,203.912,347.478,203.984z"/>
		<path style="fill:#228C4D;" d="M352.126,204.748c0.002,0.022-0.018,0.049-0.071,0.082c-0.051,0.031-0.202-0.017-0.186-0.092
			C351.884,204.664,352.12,204.676,352.126,204.748z"/>
		<path style="fill:#228C4D;" d="M346.932,205.396c-0.006,0.06-0.088,0.126-0.144,0.118c-0.049-0.007-0.118-0.079-0.122-0.127
			c-0.002-0.039,0.077-0.119,0.12-0.119c0.045,0,0.124,0.056,0.141,0.098C346.932,205.376,346.933,205.386,346.932,205.396z"/>
		<path style="fill:#228C4D;" d="M348.765,205.051c0.001-0.008,0.003-0.017,0.007-0.026c0.058-0.128,0.218-0.056,0.259,0.05
			C349.1,205.259,348.748,205.187,348.765,205.051z"/>
		<path style="fill:#228C4D;" d="M348.62,202.773c0.08-0.07,0.253-0.051,0.284,0.062
			C348.975,203.097,348.569,202.817,348.62,202.773z"/>
		<path style="fill:#228C4D;" d="M352.945,203.754c0.032-0.035,0.132-0.034,0.168-0.007c0.066,0.048,0.019,0.178-0.069,0.172
			c-0.043-0.002-0.12-0.108-0.108-0.148C352.938,203.764,352.941,203.759,352.945,203.754z"/>
		<path style="fill:#228C4D;" d="M345.925,203.294c0.009-0.013,0.024-0.025,0.042-0.032c0.048-0.019,0.188,0.033,0.202,0.087
			c0.037,0.135-0.172,0.058-0.216,0.037C345.908,203.364,345.904,203.324,345.925,203.294z"/>
		<path style="fill:#228C4D;" d="M350.081,203.627c0.001-0.035,0.116-0.112,0.149-0.104c0.086,0.021,0.053,0.158-0.016,0.18
			C350.171,203.716,350.08,203.678,350.081,203.627z"/>
		<path style="fill:#228C4D;" d="M358.888,204.996c-0.014-0.056,0.034-0.14,0.094-0.152c0.07-0.014,0.18,0.139,0.14,0.201
			c-0.035,0.053-0.184,0.016-0.219-0.021C358.895,205.016,358.891,205.006,358.888,204.996z"/>
		<path style="fill:#228C4D;" d="M358.627,202.188c0-0.022,0.023-0.047,0.079-0.074c0.054-0.026,0.2,0.037,0.176,0.11
			C358.86,202.295,358.626,202.26,358.627,202.188z"/>
		<path style="fill:#228C4D;" d="M353.824,202.91c0-0.022,0.023-0.047,0.079-0.074c0.054-0.026,0.2,0.037,0.176,0.11
			C354.057,203.017,353.823,202.982,353.824,202.91z"/>
		<path style="fill:#228C4D;" d="M361.002,203.24c0.012-0.059,0.1-0.117,0.155-0.103c0.048,0.012,0.109,0.09,0.109,0.139
			c-0.002,0.039-0.089,0.11-0.132,0.107c-0.045-0.005-0.118-0.068-0.131-0.112C361,203.26,361,203.25,361.002,203.24z"/>
		<path style="fill:#228C4D;" d="M356.894,202.808c-0.002,0.008-0.005,0.017-0.01,0.025c-0.07,0.122-0.223,0.034-0.252-0.075
			C356.58,202.569,356.924,202.675,356.894,202.808z"/>
		<path style="fill:#228C4D;" d="M357.033,205.035c-0.087,0.062-0.257,0.025-0.277-0.09
			C356.711,204.677,357.088,204.996,357.033,205.035z"/>
		<path style="fill:#228C4D;" d="M351.493,202.971c-0.035,0.031-0.135,0.021-0.168-0.009c-0.061-0.055-0.001-0.179,0.086-0.165
			c0.042,0.007,0.109,0.12,0.094,0.158C351.501,202.961,351.498,202.967,351.493,202.971z"/>
		<path style="fill:#228C4D;" d="M358.739,203.583c-0.01,0.012-0.026,0.022-0.045,0.027c-0.049,0.014-0.184-0.051-0.193-0.106
			c-0.023-0.138,0.177-0.041,0.219-0.016C358.763,203.515,358.763,203.555,358.739,203.583z"/>
		<path style="fill:#228C4D;" d="M355.394,204.169c-0.004,0.035-0.126,0.1-0.159,0.088c-0.083-0.029-0.037-0.162,0.034-0.177
			C355.313,204.071,355.4,204.118,355.394,204.169z"/>
		<path style="fill:#228C4D;" d="M361.253,204.19c0.008,0.057-0.048,0.136-0.108,0.142c-0.071,0.007-0.165-0.156-0.119-0.213
			c0.04-0.049,0.185,0.002,0.215,0.042C361.247,204.169,361.251,204.179,361.253,204.19z"/>
		<g>
			<path style="fill:none;" d="M364.752,172.067c-0.04-0.012-0.081-0.023-0.121-0.034c-0.049,0.22-0.283,0.386-0.053,0.687
				C364.636,172.502,364.694,172.284,364.752,172.067z"/>
			<path style="fill:none;" d="M365.704,172.344c-0.028-0.005-0.058-0.011-0.086-0.016c-0.053,0.239-0.105,0.478-0.175,0.795
				c0.213-0.057,0.338-0.09,0.474-0.127C365.839,172.756,365.772,172.55,365.704,172.344z"/>
			<path style="fill:none;" d="M366.932,172.274c-0.216,0.049-0.439,0.081-0.642,0.163c-0.049,0.02-0.032,0.207-0.053,0.374
				c0.28-0.151,0.51-0.275,0.739-0.398C366.962,172.366,366.948,172.32,366.932,172.274z"/>
			<path style="fill:none;" d="M365.237,172.349c-0.06-0.013-0.119-0.027-0.179-0.041c-0.026,0.211-0.052,0.422-0.078,0.633
				c0.025,0.008,0.052,0.016,0.077,0.023C365.117,172.758,365.177,172.553,365.237,172.349z"/>
			<path style="fill:none;" d="M362.792,176.87c-0.152-0.406-0.461-0.468-0.836-0.399c-0.24,0.044-0.479,0.09-0.719,0.127
				c-0.241,0.037-0.468,0.091-0.624,0.353c0.087,0.058,0.146,0.116,0.215,0.14c1.026,0.354,2.088,0.527,3.163,0.591
				c0.551,0.032,1.12-0.019,1.573-0.398c-0.626-0.784-1.622-0.415-2.332-0.88c-0.088,0.217-0.159,0.392-0.237,0.585
				C362.888,176.929,362.808,176.912,362.792,176.87z"/>
			<path style="fill:none;" d="M364.263,171.773c-0.059-0.014-0.117-0.03-0.176-0.045c-0.086,0.326-0.171,0.653-0.257,0.98
				c0.048,0.014,0.095,0.028,0.143,0.041C364.07,172.423,364.167,172.098,364.263,171.773z"/>
			<g>
				<path style="fill:none;" d="M365.704,172.344c-0.028-0.005-0.058-0.011-0.086-0.016c-0.053,0.239-0.105,0.478-0.175,0.795
					c0.213-0.057,0.338-0.09,0.474-0.127C365.839,172.756,365.772,172.55,365.704,172.344z"/>
				<path style="fill:none;" d="M366.932,172.274c-0.216,0.049-0.439,0.081-0.642,0.163c-0.049,0.02-0.032,0.207-0.053,0.374
					c0.28-0.151,0.51-0.275,0.739-0.398C366.962,172.366,366.948,172.32,366.932,172.274z"/>
				<path style="fill:none;" d="M361.957,176.471c-0.24,0.044-0.479,0.09-0.719,0.127c-0.241,0.037-0.468,0.091-0.624,0.353
					c0.087,0.058,0.146,0.116,0.215,0.14c1.026,0.354,2.088,0.527,3.163,0.591c0.551,0.032,1.12-0.019,1.573-0.398
					c-0.626-0.784-1.622-0.415-2.332-0.88c-0.088,0.217-0.159,0.392-0.237,0.585c-0.107-0.061-0.187-0.078-0.203-0.119
					C362.64,176.464,362.331,176.402,361.957,176.471z"/>
				<path style="fill:none;" d="M365.237,172.349c-0.06-0.013-0.119-0.027-0.179-0.041c-0.026,0.211-0.052,0.422-0.078,0.633
					c0.025,0.008,0.052,0.016,0.077,0.023C365.117,172.758,365.177,172.553,365.237,172.349z"/>
				<path style="fill:none;" d="M364.263,171.773c-0.059-0.014-0.117-0.03-0.176-0.045c-0.086,0.326-0.171,0.653-0.257,0.98
					c0.048,0.014,0.095,0.028,0.143,0.041C364.07,172.423,364.167,172.098,364.263,171.773z"/>
				<path style="fill:none;" d="M364.752,172.067c-0.04-0.012-0.081-0.023-0.121-0.034c-0.049,0.22-0.283,0.386-0.053,0.687
					C364.636,172.502,364.694,172.284,364.752,172.067z"/>
				<g>
					<path style="fill:none;" d="M362.995,176.989c-0.107-0.061-0.187-0.078-0.203-0.119c-0.152-0.406-0.461-0.468-0.836-0.399
						c-0.24,0.044-0.479,0.09-0.719,0.127c-0.241,0.037-0.468,0.091-0.624,0.353c0.087,0.058,0.146,0.116,0.215,0.14
						c1.026,0.354,2.088,0.527,3.163,0.591c0.551,0.032,1.12-0.019,1.573-0.398c-0.626-0.784-1.622-0.415-2.332-0.88
						C363.144,176.621,363.073,176.796,362.995,176.989z"/>
					<path style="fill:#27AE60;stroke:#228C4D;stroke-width:0.25;stroke-miterlimit:10;" d="M356.608,184.594
						c-0.275,0.049-0.547,0.146-0.803,0.258c-0.073,0.032-0.142,0.214-0.114,0.292c0.025,0.072,0.18,0.11,0.284,0.136
						c0.049,0.013,0.123-0.022,0.17-0.057c0.553-0.417,1.021-0.252,1.46,0.196c0.196,0.199,0.407,0.261,0.716,0.191
						c0.75-0.171,1.487-0.099,2.149,0.352c0.049,0.034,0.107,0.064,0.166,0.077c0.108,0.022,0.22,0.03,0.323,0.042
						c0.118-0.346-0.094-0.434-0.306-0.536c-0.668-0.322-1.338-0.611-2.108-0.366c-0.11,0.035-0.243-0.005-0.366-0.008
						c-0.419-0.011-0.668-0.197-0.704-0.494l-0.568-0.201C356.832,184.543,356.737,184.572,356.608,184.594z"/>
					<g>
						<path style="fill:#27AE60;stroke:#228C4D;stroke-width:0.25;stroke-miterlimit:10;" d="M362.995,176.989
							c-0.107-0.061-0.187-0.078-0.203-0.119c-0.152-0.406-0.461-0.468-0.836-0.399c-0.24,0.044-0.479,0.09-0.719,0.127
							c-0.241,0.037-0.468,0.091-0.624,0.353c0.087,0.058,0.146,0.116,0.215,0.14c1.026,0.354,2.088,0.527,3.163,0.591
							c0.551,0.032,1.12-0.019,1.573-0.398c-0.626-0.784-1.622-0.415-2.332-0.88C363.144,176.621,363.073,176.796,362.995,176.989z"
							/>
						<path style="fill:#27AE60;stroke:#228C4D;stroke-width:0.25;stroke-miterlimit:10;" d="M367.446,186.022l-0.532-0.251
							c-0.548-0.22-1.041-0.122-1.519,0.032c-0.319,0.102-0.543,0.079-0.833-0.138c-0.723-0.544-1.737-0.342-2.183,0.395
							c0.092,0.04,0.186,0.116,0.268,0.106c0.116-0.014,0.221-0.096,0.335-0.143c0.575-0.239,1.144-0.518,1.601,0.229
							c0.068,0.11,0.37,0.127,0.553,0.103c0.277-0.036,0.543-0.147,0.814-0.225c0.35-0.102,0.664-0.079,0.989,0.136
							c0.447,0.295,0.991,0.223,1.502,0.318C368.316,186.007,367.822,186.142,367.446,186.022z"/>
						<path style="fill:#27AE60;stroke:#228C4D;stroke-width:0.25;stroke-miterlimit:10;" d="M367.047,182.39
							c-0.17-1.334-0.397-2.66-0.554-3.995c-0.132-1.116-0.603-1.883-1.8-2.039c-0.241-0.032-0.48-0.089-0.717-0.147
							c-0.234-0.058-0.463-0.131-0.749-0.213l-0.435-0.038c-0.619,0.067-1.166,0.107-1.706,0.189
							c-0.609,0.091-1.039,0.459-1.292,1.008c-0.23,0.498-0.428,1.012-0.625,1.525c-0.714,1.857-1.429,3.715-2.123,5.58
							c-0.038,0.101-0.082,0.17-0.137,0.218l0.568,0.201c-0.015-0.125,0.008-0.271,0.072-0.431c0.273-0.68,0.551-1.358,0.812-2.043
							c0.399-1.048,0.778-2.101,1.179-3.147c0.215-0.562,0.46-1.113,0.696-1.68c1.098,0.267,2.097,0.613,3.164,0.674
							c0.755,0.044,1.499,0.149,2.219-0.185c0.082-0.039,0.189-0.024,0.34-0.039c0.339,2.643,0.806,5.24,0.96,7.944l0.532,0.251
							C367.315,184.816,367.2,183.599,367.047,182.39z M363.991,177.682c-1.075-0.065-2.138-0.238-3.163-0.591
							c-0.069-0.024-0.128-0.082-0.215-0.14c0.156-0.262,0.383-0.315,0.624-0.353c0.241-0.038,0.479-0.084,0.719-0.127
							c0.375-0.069,0.683-0.007,0.836,0.399c0.016,0.042,0.096,0.059,0.203,0.119c0.079-0.193,0.15-0.368,0.237-0.585
							c0.711,0.464,1.706,0.096,2.332,0.88C365.111,177.664,364.543,177.715,363.991,177.682z"/>
					</g>
				</g>
				<path style="fill:#27AE60;stroke:#228C4D;stroke-width:0.25;stroke-miterlimit:10;" d="M364.693,174.402
					c0.367,0.264,0.783,0.211,1.211-0.007c0.788-0.401,1.499-0.981,2.414-1.107c0.021-0.002,0.032-0.067,0.074-0.164
					c-0.123-0.067-0.248-0.166-0.39-0.205c-0.44-0.12-0.879-0.096-1.333-0.026c-0.764,0.118-1.522,0.225-2.12-0.52
					c-0.337-0.42-0.85-0.255-0.99,0.256c-0.315,1.154-0.642,2.305-0.72,3.509c-0.02,0.298-0.129,0.591-0.179,0.815l0.435,0.038
					c0.144-0.902,0.281-1.762,0.406-2.541C363.953,174.137,364.293,174.114,364.693,174.402z M366.16,173.432
					c0.203-0.082,0.426-0.113,0.642-0.163c0.015,0.046,0.03,0.092,0.045,0.138c-0.23,0.123-0.459,0.247-0.739,0.398
					C366.128,173.639,366.111,173.452,366.16,173.432z M365.489,173.324c0.028,0.005,0.057,0.011,0.086,0.016
					c0.068,0.206,0.135,0.412,0.213,0.652c-0.136,0.037-0.26,0.07-0.474,0.127C365.383,173.801,365.436,173.563,365.489,173.324z
					 M364.929,173.304c0.06,0.014,0.119,0.028,0.179,0.041c-0.06,0.205-0.12,0.41-0.18,0.615c-0.025-0.007-0.051-0.015-0.077-0.023
					C364.877,173.725,364.903,173.514,364.929,173.304z M364.501,173.028c0.04,0.011,0.081,0.023,0.121,0.034
					c-0.058,0.218-0.116,0.435-0.174,0.652C364.217,173.414,364.452,173.248,364.501,173.028z M363.957,172.723
					c0.059,0.015,0.117,0.031,0.176,0.045c-0.097,0.325-0.193,0.65-0.29,0.975c-0.048-0.013-0.095-0.026-0.143-0.041
					C363.786,173.376,363.871,173.05,363.957,172.723z"/>
			</g>
		</g>
		<path style="fill:#27AE60;stroke:#228C4D;stroke-width:0.25;stroke-miterlimit:10;" d="M356.541,183.493
			c-0.589-0.58-1.237-0.702-1.966-0.284c-0.287-0.294-0.619-0.221-0.949-0.092c-0.15,0.058-0.29,0.143-0.433,0.218
			c-0.168,0.089-0.367,0.187-0.462-0.044c-0.034-0.081,0.1-0.31,0.209-0.36c0.471-0.215,0.933-0.469,1.502-0.276
			c0.201,0.068,0.467-0.03,0.698-0.076c0.659-0.133,1.138,0.121,1.46,0.6c0.037,0.055,0.023,0.143,0.033,0.217
			C356.602,183.427,356.572,183.46,356.541,183.493z"/>
		<path style="fill:#27AE60;stroke:#228C4D;stroke-width:0.25;stroke-miterlimit:10;" d="M371.783,185.504
			c-0.135,0.087-0.247,0.22-0.338,0.206c-0.292-0.047-0.625-0.079-0.853-0.241c-0.642-0.463-1.297-0.532-2.012-0.238
			c-0.056,0.023-0.111,0.082-0.162,0.076c-0.108-0.013-0.212-0.059-0.317-0.091c0.04-0.122,0.055-0.333,0.126-0.355
			c0.604-0.177,1.231-0.3,1.845-0.082C370.616,184.972,371.139,185.228,371.783,185.504z"/>
		<path style="fill:#228C4D;" d="M352.784,187.849c-0.119,0.064-0.226-0.09-0.285-0.171c-0.035-0.048-0.141-0.161-0.107-0.218
			C352.544,187.204,353.091,187.683,352.784,187.849z"/>
		<path style="fill:#228C4D;" d="M365.655,190.005c-0.002,0.001-0.005,0.002-0.007,0.004c-0.07,0.031-0.289-0.098-0.351-0.143
			c-0.164-0.121,0.113-0.314,0.259-0.272C365.69,189.632,365.811,189.927,365.655,190.005z"/>
		<path style="fill:#228C4D;" d="M365.693,184.603c0.029-0.05,0.085-0.083,0.166-0.077c0.14,0.01,0.182,0.111,0.179,0.236
			c-0.006,0.21-0.163,0.254-0.305,0.088C365.666,184.772,365.654,184.671,365.693,184.603z"/>
		<path style="fill:#228C4D;" d="M371.357,187.991c-0.097-0.139-0.183-0.239-0.235-0.354c-0.013-0.029,0.083-0.108,0.13-0.163
			c0.097,0.104,0.2,0.204,0.286,0.317C371.547,187.802,371.446,187.894,371.357,187.991z"/>
		<path style="fill:#228C4D;" d="M363.628,181.924c-0.117,0.024-0.276-0.123-0.272-0.238c0.004-0.108,0.219-0.213,0.316-0.156
			c0.095,0.056,0.086,0.281,0.023,0.354C363.676,181.906,363.653,181.919,363.628,181.924z"/>
		<path style="fill:#228C4D;" d="M368.893,187.474c-0.031,0.033-0.07,0.057-0.108,0.065c-0.246,0.05-0.352-0.423-0.071-0.368
			c0.074,0.015,0.196,0.047,0.229,0.126C368.967,187.355,368.939,187.424,368.893,187.474z"/>
		<path style="fill:#228C4D;" d="M361.564,188.658c0.143-0.116,0.276,0.074,0.287,0.257c0.02,0.325-0.466-0.016-0.35-0.186
			C361.522,188.698,361.543,188.675,361.564,188.658z"/>
		<path style="fill:#228C4D;" d="M353.566,185.123c0.021-0.009,0.048-0.01,0.078,0c0.058,0.02,0.171,0.132,0.169,0.195
			c-0.004,0.117-0.191,0.106-0.259,0.049C353.473,185.299,353.486,185.156,353.566,185.123z"/>
		<path style="fill:#228C4D;" d="M365,178.713c0.044-0.101,0.444-0.074,0.324,0.113c-0.071,0.11-0.357,0.022-0.327-0.105
			C364.998,178.718,364.999,178.715,365,178.713z"/>
		<path style="fill:#228C4D;" d="M355.257,186.991c0.032-0.032,0.109-0.044,0.153-0.047c0.221-0.015,0.381,0.339,0.103,0.314
			C355.388,187.247,355.099,187.148,355.257,186.991z"/>
		<path style="fill:#228C4D;" d="M360.843,179.382c0.099,0.048,0.198,0.226,0.141,0.326c-0.112,0.2-0.316-0.045-0.294-0.192
			C360.712,179.375,360.778,179.35,360.843,179.382z"/>
		<path style="fill:#228C4D;" d="M357.289,190.884c-0.024,0.045-0.078,0.073-0.166,0.058c-0.248-0.043-0.265-0.465,0.056-0.303
			C357.286,190.691,357.328,190.81,357.289,190.884z"/>
		<path style="fill:#228C4D;" d="M359.286,181.836c0.111-0.047,0.395,0.082,0.42,0.2c0.033,0.157-0.166,0.134-0.259,0.103
			c-0.054-0.018-0.146-0.059-0.183-0.105C359.228,181.988,359.199,181.873,359.286,181.836z"/>
		<path style="fill:#228C4D;" d="M363.098,188.067c-0.099,0.005-0.212-0.141-0.158-0.235c0.119-0.205,0.409,0.165,0.187,0.23
			C363.117,188.065,363.108,188.066,363.098,188.067z"/>
		<path style="fill:#228C4D;" d="M358.645,186.604c0.098-0.017,0.228,0.113,0.187,0.213c-0.091,0.219-0.427-0.111-0.215-0.204
			C358.626,186.608,358.636,186.606,358.645,186.604z"/>
		<path style="fill:#27AE60;stroke:#228C4D;stroke-width:0.25;stroke-miterlimit:10;" d="M311.14,189.269
			c-0.481,0.147-0.944,0.38-1.377,0.637c-0.124,0.074-0.206,0.413-0.14,0.547c0.06,0.122,0.346,0.156,0.538,0.181
			c0.091,0.012,0.215-0.067,0.291-0.139c0.895-0.866,1.766-0.673,2.648,0.029c0.394,0.313,0.783,0.377,1.319,0.183
			c1.302-0.47,2.632-0.502,3.912,0.158c0.095,0.05,0.205,0.091,0.313,0.101c0.199,0.015,0.399,0.005,0.585,0.005
			c0.134-0.643-0.263-0.754-0.663-0.89c-1.263-0.429-2.522-0.797-3.842-0.192c-0.189,0.086-0.435,0.045-0.654,0.066
			c-0.696,0.067-1.164-0.167-1.331-0.619l-1.149-0.286C311.476,189.15,311.329,189.211,311.14,189.269z"/>
		<path style="fill:#27AE60;stroke:#228C4D;stroke-width:0.25;stroke-miterlimit:10;" d="M328.29,189.589l-1.004-0.331
			c-1.026-0.272-1.885,0.01-2.704,0.389c-0.548,0.252-0.952,0.261-1.516-0.063c-1.409-0.812-3.175-0.231-3.809,1.184
			c0.174,0.051,0.357,0.166,0.501,0.13c0.203-0.05,0.374-0.22,0.567-0.329c0.975-0.552,1.929-1.176,2.907,0.057
			c0.145,0.181,0.688,0.146,1.009,0.063c0.486-0.126,0.937-0.382,1.403-0.58c0.602-0.259,1.169-0.286,1.796,0.026
			c0.863,0.429,1.818,0.182,2.75,0.238C329.839,189.371,328.987,189.72,328.29,189.589z"/>
		<path style="fill:#27AE60;stroke:#228C4D;stroke-width:0.25;stroke-miterlimit:10;" d="M312.961,188.018
			c-1.178-0.905-2.361-0.981-3.572-0.076c-0.577-0.462-1.154-0.259-1.714,0.045c-0.254,0.136-0.486,0.319-0.724,0.484
			c-0.281,0.196-0.614,0.414-0.835,0.023c-0.078-0.137,0.111-0.575,0.294-0.688c0.794-0.487,1.563-1.042,2.621-0.822
			c0.374,0.077,0.827-0.155,1.229-0.289c1.148-0.381,2.058-0.033,2.737,0.751c0.078,0.091,0.073,0.25,0.106,0.379
			C313.055,187.888,313.008,187.953,312.961,188.018z"/>
		<path style="fill:#27AE60;stroke:#228C4D;stroke-width:0.25;stroke-miterlimit:10;" d="M336.388,189.43
			c-0.222,0.185-0.394,0.447-0.558,0.442c-0.531-0.021-1.133-0.003-1.575-0.244c-1.248-0.685-2.432-0.666-3.643,0.017
			c-0.096,0.053-0.181,0.171-0.273,0.171c-0.196,0-0.391-0.058-0.586-0.093c0.045-0.227,0.024-0.607,0.147-0.66
			c1.04-0.448,2.131-0.805,3.276-0.55C334.188,188.735,335.177,189.078,336.388,189.43z"/>
		<path style="fill:#228C4D;" d="M305.438,197.458c-0.199,0.141-0.423-0.112-0.547-0.243c-0.074-0.078-0.287-0.257-0.239-0.365
			C304.868,196.359,305.948,197.096,305.438,197.458z"/>
		<path style="fill:#228C4D;" d="M328.884,198.488c-0.004,0.002-0.008,0.005-0.012,0.008c-0.118,0.07-0.538-0.111-0.657-0.178
			c-0.32-0.179,0.133-0.585,0.402-0.543C328.864,197.813,329.146,198.313,328.884,198.488z"/>
		<path style="fill:#228C4D;" d="M327.767,188.836c0.04-0.095,0.133-0.166,0.28-0.174c0.253-0.012,0.349,0.159,0.371,0.383
			c0.036,0.376-0.235,0.489-0.526,0.223C327.757,189.144,327.712,188.967,327.767,188.836z"/>
		<path style="fill:#228C4D;" d="M338.62,193.643c-0.203-0.228-0.379-0.387-0.497-0.58c-0.03-0.049,0.124-0.21,0.196-0.32
			c0.197,0.164,0.402,0.32,0.58,0.504C338.917,193.263,338.758,193.45,338.62,193.643z"/>
		<path style="fill:#228C4D;" d="M334.108,193.26c-0.048,0.065-0.112,0.117-0.178,0.139c-0.429,0.144-0.722-0.678-0.208-0.642
			c0.136,0.01,0.36,0.041,0.436,0.175C334.214,193.031,334.18,193.16,334.108,193.26z"/>
		<path style="fill:#228C4D;" d="M321.286,196.979c0.23-0.238,0.509,0.072,0.569,0.396c0.107,0.576-0.835,0.073-0.665-0.255
			C321.22,197.06,321.252,197.014,321.286,196.979z"/>
		<path style="fill:#228C4D;" d="M306.235,192.421c0.036-0.021,0.083-0.029,0.14-0.017c0.107,0.022,0.335,0.199,0.345,0.311
			c0.018,0.21-0.317,0.231-0.452,0.144C306.109,192.757,306.1,192.498,306.235,192.421z"/>
		<path style="fill:#228C4D;" d="M309.663,195.385c0.05-0.065,0.185-0.103,0.262-0.118c0.391-0.075,0.755,0.522,0.253,0.539
			C309.953,195.813,309.416,195.701,309.663,195.385z"/>
		<path style="fill:#228C4D;" d="M314.753,196.844c-0.033,0.086-0.123,0.147-0.284,0.139c-0.452-0.022-0.576-0.772,0.034-0.554
			C314.705,196.501,314.807,196.705,314.753,196.844z"/>
		<path style="fill:#228C4D;" d="M323.896,195.588c-0.176,0.031-0.409-0.206-0.333-0.385c0.167-0.393,0.766,0.205,0.384,0.37
			C323.929,195.58,323.912,195.585,323.896,195.588z"/>
		<path style="fill:#228C4D;" d="M315.627,193.952c0.171-0.052,0.432,0.152,0.38,0.34c-0.115,0.411-0.786-0.104-0.428-0.318
			C315.594,193.964,315.61,193.957,315.627,193.952z"/>
	</g>
	<g id="footsteps">
		<path style="fill:#228C4D;" d="M242.098,139.427c-0.345,0-0.735-0.16-0.908-0.374c-0.072-0.089-0.097-0.174-0.079-0.26
			c0.078-0.364,0.517-0.392,0.651-0.392c0.308,0,0.624,0.118,0.787,0.294c0.086,0.093,0.125,0.197,0.116,0.308
			C242.636,139.354,242.34,139.427,242.098,139.427L242.098,139.427z"/>
		<path style="fill:#228C4D;" d="M241.952,137.871c-0.19,0-0.392-0.074-0.478-0.174c-0.043-0.049-0.043-0.088-0.039-0.116
			c0.023-0.149,0.222-0.216,0.409-0.216c0.211,0,0.44,0.087,0.455,0.233c0.009,0.076-0.005,0.134-0.043,0.175
			C242.202,137.834,242.088,137.871,241.952,137.871L241.952,137.871z"/>
		<path style="fill:#228C4D;" d="M241.558,136.912c-0.153,0-0.303-0.053-0.373-0.133c-0.038-0.043-0.039-0.079-0.036-0.106
			c0.017-0.137,0.193-0.199,0.35-0.199c0.162,0,0.358,0.068,0.404,0.215c-0.004,0.029-0.021,0.086-0.06,0.127
			C241.788,136.876,241.681,136.912,241.558,136.912L241.558,136.912z"/>
		<path style="fill:#228C4D;" d="M241.095,136.052c-0.134,0-0.265-0.042-0.325-0.105c-0.026-0.028-0.029-0.049-0.028-0.066
			c0.005-0.12,0.204-0.204,0.379-0.204c0.04,0,0.239,0.006,0.271,0.132c0.024,0.097-0.007,0.136-0.016,0.149
			C241.33,136.015,241.22,136.052,241.095,136.052L241.095,136.052z"/>
		<path style="fill:#228C4D;" d="M240.419,135.353c-0.135,0-0.225-0.048-0.229-0.081c-0.003-0.023-0.001-0.057,0.037-0.101
			c0.062-0.068,0.18-0.116,0.289-0.116c0.066,0,0.149,0.016,0.174,0.091c0.024,0.074,0.004,0.102-0.003,0.112
			C240.648,135.314,240.537,135.353,240.419,135.353z"/>
		<path style="fill:#228C4D;" d="M239.732,138.841c-0.156,0-0.325-0.017-0.517-0.053c-0.139-0.025-0.278-0.059-0.413-0.101
			c-0.133-0.04-0.26-0.088-0.382-0.148c-0.207-0.101-0.392-0.243-0.587-0.394c-0.19-0.146-0.387-0.297-0.611-0.413
			c-0.064-0.032-0.128-0.062-0.195-0.088c-0.5-0.191-0.882-0.273-1.278-0.273c-0.213,0-0.438,0.024-0.688,0.074l-0.189,0.04
			c-0.145,0.031-0.291,0.063-0.439,0.081c-0.055,0.007-0.101,0.009-0.143,0.009c-0.081,0-0.149-0.011-0.239-0.023l-0.094-0.014
			c-0.574-0.12-0.998-0.523-1.094-0.989c-0.074-0.364,0.068-0.696,0.402-0.935c0.193-0.138,0.44-0.202,0.776-0.202
			c0.289,0,0.622,0.046,1.064,0.119c0.197,0.032,0.39,0.079,0.58,0.125c0.346,0.084,0.703,0.17,1.075,0.17
			c0.202,0,0.391-0.025,0.578-0.076l0.258-0.072c0.317-0.09,0.644-0.183,0.968-0.231c0.114-0.016,0.23-0.026,0.346-0.026
			c0.362,0,0.651,0.097,0.86,0.289c0.137,0.126,0.478,0.462,0.668,0.831c0.107,0.209,0.187,0.434,0.237,0.668
			c0.089,0.418,0.17,1.164-0.288,1.467C240.224,138.786,240.003,138.841,239.732,138.841L239.732,138.841z"/>
		<path style="fill:#228C4D;" d="M249.614,144.091c-0.323,0-0.651-0.129-0.816-0.321c-0.092-0.108-0.128-0.229-0.108-0.361
			c0.034-0.225,0.358-0.326,0.662-0.326c0.346,0,0.672,0.124,0.81,0.308c0.079,0.105,0.097,0.229,0.053,0.375
			C250.128,144.068,249.733,144.091,249.614,144.091z"/>
		<path style="fill:#228C4D;" d="M249.128,145.055c-0.192,0-0.414-0.095-0.516-0.222c-0.07-0.087-0.055-0.154-0.051-0.177
			c0.029-0.133,0.254-0.141,0.298-0.141c0.216,0,0.446,0.098,0.522,0.223c0.024,0.039,0.049,0.102-0.007,0.21
			C249.327,145.042,249.2,145.055,249.128,145.055z"/>
		<path style="fill:#228C4D;" d="M248.437,145.754c-0.161,0-0.339-0.079-0.425-0.187c-0.063-0.08-0.048-0.143-0.043-0.164
			c0.027-0.109,0.177-0.121,0.239-0.121c0.179,0,0.37,0.086,0.443,0.2c0.026,0.04,0.054,0.105,0.005,0.214
			C248.618,145.737,248.514,145.754,248.437,145.754z"/>
		<path style="fill:#228C4D;" d="M247.748,146.355c-0.141,0-0.319-0.093-0.404-0.21c-0.039-0.055-0.051-0.105-0.037-0.147
			c0.023-0.068,0.131-0.075,0.177-0.075c0.175,0,0.373,0.094,0.431,0.205c0.011,0.022,0.038,0.073-0.028,0.168
			C247.878,146.31,247.847,146.355,247.748,146.355z"/>
		<path style="fill:#228C4D;" d="M246.899,146.708c-0.105,0-0.241-0.085-0.305-0.189c-0.035-0.057-0.042-0.108-0.021-0.15
			c0.01-0.019,0.053-0.026,0.087-0.026c0.141,0,0.319,0.095,0.367,0.195c0.009,0.02,0.026,0.057-0.03,0.125
			C246.98,146.685,246.954,146.708,246.899,146.708z"/>
		<path style="fill:#228C4D;" d="M245.961,145.879c-0.256,0-0.539-0.087-0.842-0.256c-0.285-0.16-0.555-0.362-0.817-0.557
			l-0.221-0.164c-0.495-0.363-1.046-0.434-1.578-0.502c-0.194-0.024-0.389-0.049-0.584-0.089c-0.814-0.166-1.411-0.316-1.69-0.736
			c-0.27-0.406-0.191-0.743-0.078-0.954c0.201-0.375,0.659-0.626,1.142-0.626c0.069,0,0.139,0.005,0.208,0.016l0.152,0.037
			c0.149,0.034,0.223,0.051,0.362,0.124c0.132,0.07,0.258,0.152,0.383,0.234l0.16,0.103c0.604,0.381,1.102,0.515,1.906,0.515
			c0.074-0.001,0.145-0.005,0.216-0.013c0.249-0.027,0.488-0.098,0.718-0.167c0.236-0.07,0.459-0.137,0.688-0.158
			c0.072-0.007,0.143-0.009,0.215-0.009c0.064,0,0.129,0.002,0.193,0.007c0.141,0.009,0.283,0.027,0.422,0.053
			c0.523,0.097,0.878,0.272,1.056,0.52c0.32,0.448-0.022,1.115-0.254,1.473c-0.131,0.202-0.285,0.384-0.46,0.54
			c-0.309,0.277-0.747,0.469-0.921,0.538C246.22,145.855,246.093,145.879,245.961,145.879z"/>
		<path style="fill:#228C4D;" d="M260.062,140.795c-0.35,0-0.746-0.169-0.922-0.394c-0.072-0.092-0.097-0.182-0.076-0.268
			c0.083-0.337,0.467-0.373,0.628-0.373c0.316,0,0.64,0.124,0.806,0.311c0.087,0.097,0.125,0.203,0.112,0.316
			C260.572,140.724,260.292,140.795,260.062,140.795L260.062,140.795z"/>
		<path style="fill:#228C4D;" d="M259.952,139.235c-0.195,0-0.402-0.078-0.492-0.185c-0.044-0.052-0.043-0.092-0.038-0.12
			c0.027-0.151,0.229-0.204,0.392-0.204c0.217,0,0.459,0.094,0.471,0.245c0.006,0.076-0.009,0.133-0.046,0.172
			C260.186,139.201,260.081,139.235,259.952,139.235z"/>
		<path style="fill:#228C4D;" d="M259.582,138.265c-0.155,0-0.313-0.058-0.385-0.142c-0.039-0.045-0.039-0.082-0.034-0.11
			c0.023-0.149,0.223-0.189,0.337-0.189c0.176,0,0.375,0.078,0.417,0.227c-0.004,0.028-0.022,0.083-0.062,0.124
			C259.799,138.233,259.7,138.265,259.582,138.265L259.582,138.265z"/>
		<path style="fill:#228C4D;" d="M259.143,137.392c-0.137,0-0.277-0.046-0.338-0.112c-0.027-0.029-0.029-0.051-0.028-0.069
			c0.007-0.116,0.197-0.193,0.368-0.193c0.117,0,0.26,0.037,0.283,0.14c0.021,0.097-0.009,0.134-0.019,0.146
			C259.365,137.359,259.264,137.392,259.143,137.392L259.143,137.392z"/>
		<path style="fill:#228C4D;" d="M258.485,136.674c-0.141,0-0.239-0.053-0.242-0.088c-0.001-0.022,0.001-0.056,0.039-0.097
			c0.061-0.066,0.174-0.11,0.283-0.11c0.057,0,0.158,0.012,0.183,0.097c0.022,0.072,0.002,0.1-0.005,0.11
			C258.704,136.638,258.598,136.674,258.485,136.674z"/>
		<path style="fill:#228C4D;" d="M257.74,140.141c-0.17,0-0.357-0.022-0.573-0.068c-0.138-0.03-0.276-0.067-0.41-0.113
			c-0.13-0.044-0.256-0.096-0.377-0.159c-0.202-0.107-0.382-0.254-0.573-0.409c-0.187-0.152-0.379-0.309-0.601-0.431
			c-0.062-0.034-0.126-0.066-0.193-0.094c-0.531-0.22-0.922-0.31-1.351-0.31c-0.189,0-0.388,0.018-0.607,0.056l-0.19,0.034
			c-0.147,0.028-0.293,0.055-0.441,0.068c-0.045,0.004-0.083,0.006-0.118,0.006c-0.095,0-0.168-0.014-0.268-0.03l-0.089-0.016
			c-0.571-0.137-0.983-0.553-1.065-1.02c-0.064-0.367,0.088-0.694,0.428-0.922c0.185-0.124,0.41-0.181,0.71-0.181
			c0.335,0,0.743,0.074,1.132,0.15c0.195,0.038,0.385,0.09,0.574,0.141c0.365,0.099,0.742,0.202,1.14,0.202
			c0.177,0,0.344-0.02,0.511-0.06l0.255-0.064c0.321-0.081,0.653-0.166,0.98-0.204c0.095-0.011,0.191-0.018,0.287-0.018
			c0.39,0,0.697,0.106,0.91,0.315c0.134,0.131,0.465,0.477,0.644,0.849c0.101,0.211,0.174,0.438,0.218,0.676
			c0.076,0.42,0.136,1.167-0.331,1.457C258.188,140.093,257.986,140.141,257.74,140.141z"/>
		<path style="fill:#228C4D;" d="M265.532,147.594c-0.338,0-0.741-0.209-0.918-0.475c-0.099-0.15-0.118-0.3-0.056-0.446
			c0.072-0.168,0.295-0.193,0.422-0.193c0.39,0,0.831,0.218,0.984,0.485c0.079,0.139,0.074,0.279-0.014,0.429
			C265.853,147.559,265.67,147.594,265.532,147.594z"/>
		<path style="fill:#228C4D;" d="M264.692,148.392c-0.185,0-0.429-0.143-0.534-0.312c-0.053-0.085-0.063-0.162-0.03-0.228
			c0.01-0.02,0.041-0.082,0.181-0.082c0.222,0,0.505,0.162,0.583,0.334c0.025,0.055,0.042,0.131-0.047,0.231
			C264.832,148.349,264.794,148.392,264.692,148.392z"/>
		<path style="fill:#228C4D;" d="M263.842,148.899c-0.164,0-0.362-0.116-0.45-0.262c-0.046-0.076-0.053-0.146-0.021-0.207
			c0.011-0.02,0.039-0.073,0.153-0.073c0.181,0,0.404,0.134,0.477,0.287c0.041,0.084,0.03,0.158-0.036,0.239l0,0
			C263.956,148.883,263.904,148.899,263.842,148.899z"/>
		<path style="fill:#228C4D;" d="M262.983,149.307c-0.127,0-0.301-0.122-0.38-0.268c-0.025-0.046-0.062-0.133-0.021-0.195
			c0.007-0.011,0.027-0.042,0.101-0.042c0.168,0,0.395,0.149,0.45,0.294c0.019,0.049,0.024,0.105-0.061,0.179
			C263.048,149.296,263.019,149.307,262.983,149.307z"/>
		<path style="fill:#228C4D;" d="M262.051,149.438c-0.095,0-0.217-0.1-0.273-0.223c-0.021-0.047-0.049-0.133,0.001-0.191
			c0.006,0,0.013-0.001,0.019-0.001c0.151,0,0.331,0.125,0.374,0.257c0.013,0.039,0.019,0.081-0.054,0.135
			C262.098,149.43,262.076,149.438,262.051,149.438z"/>
		<path style="fill:#228C4D;" d="M261.56,148.431c-0.328,0-0.667-0.164-1.008-0.487c-0.237-0.225-0.45-0.488-0.657-0.742
			l-0.172-0.212c-0.391-0.473-0.908-0.676-1.407-0.873c-0.182-0.072-0.366-0.144-0.545-0.231c-0.748-0.36-1.29-0.651-1.458-1.127
			c-0.113-0.321-0.082-0.617,0.088-0.857c0.2-0.282,0.576-0.457,0.983-0.457c0.189,0,0.373,0.037,0.547,0.11l0.135,0.07
			c0.137,0.07,0.206,0.105,0.324,0.211c0.111,0.099,0.212,0.21,0.313,0.319l0.132,0.141c0.492,0.517,0.942,0.77,1.721,0.966
			c0.07,0.018,0.141,0.031,0.21,0.041c0.129,0.018,0.258,0.024,0.387,0.024c0.118,0,0.235-0.005,0.353-0.01
			c0.112-0.005,0.225-0.009,0.337-0.009c0.123,0,0.245,0.005,0.368,0.025c0.135,0.021,0.266,0.055,0.397,0.097
			c0.134,0.044,0.266,0.096,0.396,0.156c0.483,0.222,0.784,0.479,0.896,0.764c0.2,0.511-0.295,1.075-0.607,1.365
			c-0.178,0.164-0.372,0.303-0.578,0.411c-0.368,0.193-0.839,0.271-1.025,0.296C261.646,148.428,261.603,148.431,261.56,148.431z"/>
		<path style="fill:#228C4D;" d="M274.711,151.435c-0.326,0-0.68-0.4-0.805-0.774c-0.039-0.117-0.112-0.404,0.062-0.535
			c0.078-0.06,0.163-0.089,0.258-0.089c0.303,0,0.676,0.306,0.83,0.683c0.058,0.141,0.128,0.403-0.049,0.578
			C274.914,151.391,274.817,151.435,274.711,151.435L274.711,151.435z"/>
		<path style="fill:#228C4D;" d="M275.478,150.103c-0.173,0-0.408-0.208-0.492-0.436c-0.029-0.08-0.049-0.187,0.02-0.247
			c0.035-0.03,0.074-0.045,0.124-0.045c0.167,0,0.394,0.165,0.497,0.359c0.032,0.062,0.078,0.179,0.022,0.262
			C275.583,150.092,275.52,150.103,275.478,150.103z"/>
		<path style="fill:#228C4D;" d="M275.792,149.109c-0.156,0-0.357-0.164-0.429-0.352c-0.037-0.095-0.03-0.166,0.02-0.212
			c0.033-0.03,0.07-0.044,0.118-0.044c0.131,0,0.294,0.106,0.389,0.252c0.041,0.062,0.102,0.185,0.052,0.298
			C275.898,149.099,275.834,149.109,275.792,149.109C275.792,149.109,275.792,149.109,275.792,149.109z"/>
		<path style="fill:#228C4D;" d="M275.991,148.154c-0.135,0-0.329-0.154-0.4-0.316c-0.022-0.05-0.04-0.118-0.002-0.158
			c0.009-0.009,0.037-0.04,0.11-0.04c0.139,0,0.325,0.111,0.406,0.242c0.06,0.097,0.032,0.15,0.023,0.168
			C276.075,148.154,276.016,148.154,275.991,148.154L275.991,148.154z"/>
		<path style="fill:#228C4D;" d="M275.926,147.176c-0.114,0-0.275-0.111-0.339-0.233c-0.016-0.03-0.028-0.068-0.016-0.085
			c0.009-0.014,0.037-0.054,0.126-0.054c0.116,0,0.254,0.071,0.315,0.162c0.039,0.057,0.03,0.097,0.019,0.125
			C275.998,147.169,275.959,147.176,275.926,147.176z"/>
		<path style="fill:#228C4D;" d="M273.58,149.572c-0.028,0-0.057-0.001-0.087-0.005c-0.303-0.039-0.626-0.268-0.959-0.682
			c-0.089-0.11-0.172-0.226-0.248-0.346c-0.073-0.116-0.138-0.236-0.191-0.362c-0.091-0.212-0.137-0.439-0.187-0.68
			c-0.049-0.235-0.099-0.478-0.194-0.712c-0.027-0.066-0.057-0.13-0.09-0.193c-0.381-0.707-0.736-1.083-1.359-1.434l-0.167-0.092
			c-0.132-0.072-0.263-0.144-0.388-0.227c-0.131-0.087-0.181-0.145-0.281-0.26l-0.062-0.07c-0.346-0.454-0.412-1.007-0.204-1.423
			c0.158-0.316,0.449-0.491,0.818-0.491c0.038,0,0.077,0.002,0.117,0.005c0.502,0.047,0.917,0.501,1.449,1.139
			c0.127,0.152,0.241,0.312,0.356,0.471c0.312,0.437,0.636,0.889,1.191,1.152l0.242,0.113c0.299,0.139,0.608,0.282,0.885,0.459
			c0.45,0.286,0.699,0.617,0.742,0.986c0.021,0.186,0.06,0.661-0.037,1.066c-0.055,0.228-0.141,0.45-0.257,0.661
			C274.48,148.991,274.085,149.572,273.58,149.572L273.58,149.572z"/>
		<path style="fill:#228C4D;" d="M270.542,164.011c-0.283,0-0.596-0.344-0.698-0.766c-0.039-0.158-0.093-0.541,0.216-0.7
			c0.037-0.019,0.075-0.028,0.117-0.028c0.299,0,0.697,0.467,0.772,0.908c0.05,0.29-0.045,0.479-0.282,0.565
			C270.625,164.004,270.584,164.011,270.542,164.011z"/>
		<path style="fill:#228C4D;" d="M269.191,164.006c-0.133,0-0.28-0.19-0.329-0.423c-0.032-0.151-0.022-0.35,0.112-0.408
			c0.004-0.001,0.008-0.001,0.012-0.001c0.194,0,0.404,0.27,0.425,0.545c0.02,0.252-0.131,0.275-0.195,0.285L269.191,164.006z"/>
		<path style="fill:#228C4D;" d="M268.215,163.856c-0.157-0.02-0.273-0.21-0.304-0.385c-0.008-0.045-0.041-0.275,0.113-0.337
			c0.003-0.001,0.007-0.001,0.012-0.001c0.173,0,0.322,0.216,0.344,0.427C268.4,163.785,268.28,163.839,268.215,163.856z"/>
		<path style="fill:#228C4D;" d="M267.249,163.592c-0.108,0-0.186-0.147-0.208-0.291c-0.023-0.15,0.012-0.323,0.112-0.354
			c0.001,0,0.002,0,0.003,0c0.127,0,0.271,0.22,0.274,0.436c0.002,0.206-0.119,0.209-0.178,0.21H267.249z"/>
		<path style="fill:#228C4D;" d="M266.419,163.284c-0.435-0.027-0.442-0.842-0.028-0.906
			C266.784,162.316,266.994,163.319,266.419,163.284z"/>
		<path style="fill:#228C4D;" d="M268.273,162.539c-0.19,0-0.379-0.02-0.56-0.059c-0.406-0.087-0.818-0.329-0.977-0.429
			c-0.314-0.198-0.504-0.567-0.567-1.096c-0.039-0.325-0.034-0.665-0.029-0.993l0.003-0.271c0.003-0.613-0.263-1.1-0.521-1.57
			c-0.094-0.172-0.189-0.345-0.271-0.526c-0.344-0.756-0.573-1.328-0.398-1.8c0.206-0.55,0.626-0.633,0.86-0.633
			c0.459,0,0.922,0.299,1.154,0.744l0.06,0.142c0.06,0.141,0.091,0.212,0.113,0.367c0.022,0.149,0.029,0.3,0.037,0.45l0.01,0.189
			c0.047,0.712,0.231,1.195,0.703,1.846c0.044,0.059,0.089,0.114,0.137,0.166c0.169,0.186,0.367,0.337,0.557,0.482
			c0.196,0.15,0.381,0.291,0.532,0.464c0.091,0.103,0.17,0.214,0.243,0.329c0.074,0.12,0.143,0.245,0.204,0.374
			c0.229,0.479,0.296,0.87,0.199,1.159c-0.174,0.522-0.915,0.638-1.341,0.66C268.371,162.537,268.322,162.539,268.273,162.539z"/>
		<path style="fill:#228C4D;" d="M280.5,168.109c-0.312,0-0.638-0.41-0.747-0.793c-0.03-0.104-0.11-0.455,0.098-0.584
			c0.071-0.043,0.144-0.065,0.223-0.065c0.294,0,0.647,0.32,0.787,0.713c0.045,0.128,0.128,0.444-0.089,0.621
			C280.682,168.074,280.593,168.109,280.5,168.109L280.5,168.109z"/>
		<path style="fill:#228C4D;" d="M281.376,166.856c-0.165,0-0.383-0.218-0.459-0.456c-0.024-0.076-0.051-0.211,0.036-0.271
			c0.031-0.022,0.066-0.033,0.105-0.033c0.16,0,0.377,0.174,0.473,0.381c0.026,0.057,0.081,0.202,0.007,0.289
			C281.462,166.856,281.398,166.856,281.376,166.856C281.376,166.856,281.376,166.856,281.376,166.856z"/>
		<path style="fill:#228C4D;" d="M281.785,165.897c-0.151,0-0.342-0.174-0.407-0.373c-0.025-0.075-0.039-0.175,0.033-0.229
			c0.03-0.022,0.064-0.034,0.102-0.034c0.122,0,0.282,0.114,0.37,0.265c0.034,0.057,0.105,0.204,0.036,0.325
			C281.895,165.87,281.842,165.897,281.785,165.897z"/>
		<path style="fill:#228C4D;" d="M282.07,164.965c-0.128,0-0.311-0.162-0.375-0.334c-0.018-0.048-0.041-0.135,0.007-0.177
			c0.014-0.013,0.04-0.03,0.089-0.03c0.136,0,0.317,0.122,0.396,0.266c0.041,0.074,0.046,0.136,0.015,0.185
			C282.143,164.965,282.091,164.965,282.07,164.965z"/>
		<path style="fill:#228C4D;" d="M282.099,163.986c-0.106,0-0.263-0.122-0.323-0.252c-0.018-0.038-0.029-0.084-0.015-0.101
			c0.016-0.018,0.043-0.043,0.106-0.043c0.114,0,0.257,0.082,0.318,0.183c0.045,0.074,0.022,0.118,0.013,0.135
			C282.158,163.986,282.119,163.986,282.099,163.986L282.099,163.986z"/>
		<path style="fill:#228C4D;" d="M279.584,166.147c-0.05,0-0.101-0.005-0.151-0.017c-0.296-0.068-0.596-0.327-0.889-0.772
			c-0.077-0.118-0.149-0.242-0.212-0.369c-0.062-0.122-0.115-0.248-0.157-0.378c-0.069-0.218-0.094-0.45-0.12-0.695
			c-0.026-0.239-0.052-0.486-0.124-0.728c-0.02-0.069-0.044-0.137-0.072-0.203c-0.311-0.74-0.629-1.148-1.213-1.557l-0.16-0.109
			c-0.123-0.084-0.247-0.168-0.363-0.262c-0.12-0.099-0.164-0.16-0.252-0.283l-0.057-0.079c-0.288-0.463-0.31-1.004-0.091-1.393
			c0.166-0.296,0.443-0.458,0.779-0.458c0.071,0,0.146,0.007,0.225,0.022c0.495,0.095,0.864,0.588,1.332,1.273
			c0.112,0.164,0.211,0.335,0.309,0.504c0.269,0.465,0.548,0.945,1.075,1.261l0.228,0.135c0.285,0.168,0.579,0.341,0.839,0.543
			c0.419,0.327,0.636,0.682,0.642,1.053c0.003,0.187-0.004,0.665-0.139,1.058c-0.076,0.22-0.184,0.434-0.32,0.633
			C280.484,165.632,280.061,166.147,279.584,166.147L279.584,166.147z"/>
		<g>
			<path style="fill:#228C4D;" d="M283.412,176.723c-0.331,0-0.743-0.258-0.916-0.575c-0.102-0.186-0.105-0.356-0.009-0.506
				c0.056-0.088,0.16-0.133,0.308-0.133c0.381,0,0.863,0.291,1.012,0.611c0.077,0.167,0.055,0.319-0.068,0.465
				C283.66,176.677,283.551,176.723,283.412,176.723z"/>
			<path style="fill:#228C4D;" d="M282.38,177.364c-0.171,0-0.408-0.17-0.507-0.365c-0.039-0.075-0.071-0.183-0.009-0.267
				c0.018-0.024,0.05-0.056,0.131-0.056c0.212,0,0.501,0.206,0.573,0.408c0.035,0.099,0.012,0.171-0.078,0.243
				C282.461,177.353,282.425,177.364,282.38,177.364z"/>
			<path style="fill:#228C4D;" d="M281.46,177.722c-0.158,0-0.354-0.137-0.438-0.306c-0.032-0.066-0.06-0.162,0-0.239
				c0.018-0.024,0.048-0.051,0.115-0.051c0.17,0,0.395,0.166,0.461,0.341c0.039,0.101,0.018,0.18-0.066,0.255
				c0.001-0.003-0.001-0.003-0.007-0.003C281.512,177.718,281.487,177.722,281.46,177.722z"/>
			<path style="fill:#228C4D;" d="M280.52,177.979c-0.116,0-0.273-0.134-0.343-0.294c-0.021-0.047-0.063-0.165-0.002-0.232
				c0.013-0.014,0.03-0.028,0.071-0.028c0.156,0,0.379,0.183,0.426,0.349c0.016,0.06,0.018,0.122-0.085,0.185L280.52,177.979z"/>
			<path style="fill:#228C4D;" d="M279.571,177.951c-0.087,0-0.194-0.105-0.24-0.235c-0.013-0.037-0.049-0.16,0.024-0.22
				c0.003,0,0.005,0,0.007,0c0.124,0,0.298,0.151,0.333,0.301c0.014,0.059,0.007,0.101-0.072,0.141L279.571,177.951z"/>
			<path style="fill:#228C4D;" d="M279.367,176.888c-0.372-0.013-0.722-0.235-1.042-0.661c-0.195-0.26-0.362-0.555-0.523-0.839
				l-0.137-0.24c-0.306-0.532-0.781-0.819-1.24-1.096c-0.167-0.101-0.336-0.203-0.498-0.318c-0.678-0.479-1.164-0.858-1.25-1.354
				c-0.053-0.306,0.01-0.574,0.181-0.777c0.19-0.225,0.511-0.36,0.86-0.36c0.267,0,0.528,0.076,0.755,0.219l0.125,0.095
				c0.122,0.091,0.183,0.136,0.28,0.259c0.094,0.118,0.175,0.243,0.257,0.369l0.105,0.158c0.4,0.592,0.801,0.917,1.537,1.242
				c0.067,0.028,0.133,0.053,0.199,0.074c0.241,0.076,0.488,0.107,0.726,0.137c0.245,0.03,0.476,0.06,0.694,0.133
				c0.129,0.043,0.254,0.099,0.375,0.162c0.126,0.066,0.248,0.139,0.365,0.219c0.44,0.3,0.694,0.604,0.756,0.902
				c0.112,0.538-0.469,1.011-0.826,1.245c-0.203,0.133-0.418,0.237-0.639,0.309c-0.328,0.107-0.716,0.123-0.918,0.123
				L279.367,176.888z"/>
		</g>
		<g>
			<path style="fill:#228C4D;" d="M295.184,174.951c-0.353,0-0.772-0.2-0.956-0.455c-0.076-0.105-0.098-0.205-0.068-0.296
				c0.095-0.28,0.392-0.322,0.561-0.322c0.329,0,0.681,0.149,0.857,0.364c0.091,0.11,0.124,0.226,0.101,0.346
				C295.631,174.829,295.465,174.951,295.184,174.951L295.184,174.951z"/>
			<path style="fill:#228C4D;" d="M295.183,173.387c-0.201,0-0.432-0.097-0.527-0.22c-0.046-0.061-0.041-0.105-0.034-0.133
				c0.044-0.16,0.273-0.172,0.342-0.172c0.177,0,0.359,0.064,0.453,0.158c0.042,0.042,0.062,0.085,0.062,0.13
				C295.478,173.209,295.478,173.387,295.183,173.387L295.183,173.387z"/>
			<path style="fill:#228C4D;" d="M294.891,172.388c-0.165,0-0.341-0.071-0.418-0.169c-0.04-0.051-0.037-0.091-0.03-0.119
				c0.037-0.154,0.256-0.162,0.3-0.162c0.196,0,0.417,0.099,0.448,0.265C295.178,172.31,295.079,172.388,294.891,172.388
				L294.891,172.388z"/>
			<path style="fill:#228C4D;" d="M294.53,171.481c-0.149,0-0.306-0.058-0.375-0.138c-0.029-0.034-0.03-0.058-0.027-0.077
				c0.016-0.105,0.183-0.162,0.331-0.162c0.149,0,0.308,0.057,0.322,0.166c0.012,0.095-0.019,0.129-0.028,0.141
				C294.714,171.454,294.631,171.481,294.53,171.481L294.53,171.481z"/>
			<path style="fill:#228C4D;" d="M293.93,170.708c-0.126,0-0.226-0.043-0.264-0.082c-0.016-0.135,0.144-0.209,0.287-0.209
				c0.043,0,0.187,0.008,0.21,0.114c0.016,0.072-0.006,0.099-0.013,0.108C294.115,170.681,294.029,170.708,293.93,170.708
				L293.93,170.708z"/>
			<path style="fill:#228C4D;" d="M292.988,174.103c-0.206,0-0.438-0.041-0.711-0.124c-0.137-0.041-0.27-0.09-0.4-0.147
				c-0.126-0.055-0.247-0.117-0.361-0.191c-0.193-0.124-0.36-0.286-0.536-0.457c-0.173-0.168-0.352-0.341-0.562-0.482
				c-0.06-0.039-0.12-0.076-0.183-0.11c-0.606-0.315-1.054-0.438-1.597-0.438c-0.105,0-0.216,0.005-0.333,0.015l-0.187,0.017
				c-0.15,0.015-0.3,0.03-0.452,0.031c-0.158,0-0.237-0.021-0.379-0.058l-0.09-0.023c-0.557-0.186-0.932-0.636-0.973-1.108
				c-0.032-0.371,0.147-0.684,0.506-0.882c0.155-0.085,0.335-0.127,0.551-0.127c0.367,0,0.818,0.121,1.288,0.256
				c0.191,0.055,0.375,0.123,0.559,0.19c0.412,0.151,0.838,0.308,1.311,0.308c0.105,0,0.212-0.007,0.321-0.024l0.26-0.042
				c0.327-0.053,0.664-0.108,0.994-0.118l0.084-0.001c0.49,0,0.855,0.135,1.083,0.4c0.122,0.142,0.422,0.514,0.568,0.903
				c0.082,0.218,0.136,0.45,0.159,0.692c0.041,0.425,0.035,1.175-0.455,1.424C293.325,174.07,293.169,174.103,292.988,174.103z"/>
		</g>
		<g>
			<path style="fill:#228C4D;" d="M301.242,180.66c-0.328,0-0.674-0.143-0.843-0.348c-0.093-0.114-0.127-0.24-0.1-0.375
				c0.044-0.22,0.359-0.299,0.616-0.299c0.359,0,0.708,0.138,0.85,0.336c0.079,0.111,0.093,0.237,0.043,0.385
				C301.716,180.631,301.381,180.66,301.242,180.66z"/>
			<path style="fill:#228C4D;" d="M300.689,181.602c-0.194,0-0.42-0.102-0.525-0.238c-0.072-0.093-0.054-0.162-0.048-0.185
				c0.031-0.119,0.218-0.128,0.274-0.128c0.22,0,0.463,0.108,0.54,0.241c0.025,0.044,0.047,0.108-0.014,0.214
				C300.871,181.585,300.768,181.602,300.689,181.602z"/>
			<path style="fill:#228C4D;" d="M299.967,182.27c-0.164,0-0.347-0.085-0.434-0.201c-0.064-0.085-0.045-0.149-0.039-0.17
				c0.028-0.097,0.151-0.111,0.221-0.111c0.181,0,0.38,0.094,0.454,0.214c0.026,0.042,0.053,0.11-0.002,0.219
				C300.131,182.255,300.036,182.27,299.967,182.27z"/>
			<path style="fill:#228C4D;" d="M299.244,182.841c-0.141,0-0.318-0.097-0.404-0.222c-0.04-0.059-0.052-0.111-0.035-0.155
				c0.023-0.059,0.111-0.068,0.162-0.068c0.176,0,0.381,0.103,0.44,0.22c0.018,0.038,0.029,0.088-0.033,0.171
				C299.356,182.811,299.323,182.841,299.244,182.841z"/>
			<path style="fill:#228C4D;" d="M298.376,183.158c-0.103,0-0.239-0.088-0.302-0.196c-0.036-0.062-0.041-0.114-0.018-0.157
				c0.013-0.022,0.066-0.022,0.076-0.022c0.139,0,0.322,0.103,0.369,0.209c0.014,0.029,0.022,0.065-0.033,0.127
				C298.443,183.145,298.415,183.158,298.376,183.158z"/>
			<path style="fill:#228C4D;" d="M297.513,182.289c-0.268,0-0.563-0.099-0.878-0.293c-0.279-0.172-0.542-0.388-0.797-0.595
				l-0.209-0.17c-0.479-0.384-1.026-0.478-1.555-0.569c-0.193-0.033-0.387-0.066-0.58-0.114c-0.805-0.2-1.396-0.375-1.658-0.807
				c-0.246-0.408-0.161-0.736-0.047-0.939c0.201-0.356,0.65-0.594,1.117-0.594c0.089,0,0.179,0.008,0.269,0.026l0.147,0.041
				c0.149,0.041,0.223,0.061,0.36,0.141c0.128,0.075,0.25,0.162,0.371,0.249l0.158,0.111c0.586,0.406,1.079,0.562,1.882,0.596
				l0.077,0.001c0.045,0,0.091-0.001,0.137-0.004c0.253-0.017,0.494-0.078,0.727-0.137c0.238-0.06,0.464-0.117,0.693-0.128
				l0.106-0.003c0.101,0,0.202,0.007,0.303,0.018c0.141,0.016,0.281,0.04,0.421,0.072c0.517,0.119,0.864,0.309,1.031,0.565
				c0.301,0.46-0.07,1.112-0.317,1.46c-0.139,0.197-0.301,0.371-0.482,0.52c-0.322,0.264-0.767,0.436-0.943,0.498
				C297.741,182.27,297.628,182.289,297.513,182.289z"/>
		</g>
	</g>
	<g id="sun">
		<path style="fill:#228C4D;" d="M365.234,114.913h-0.001c0.236,0.399,0.591,0.609,1.062,0.605c0.939-0.003,1.519-0.972,1.058-1.805
			c-0.595-1.069-1.211-2.127-1.837-3.174c-0.362-0.605-1.076-0.776-1.664-0.435c-0.583,0.344-0.786,1.051-0.442,1.664
			C364.008,112.821,364.621,113.869,365.234,114.913z"/>
		<path style="fill:#228C4D;" d="M358.523,117.591c1.036,0.605,2.08,1.199,3.12,1.801c0.196,0.112,0.402,0.17,0.562,0.163
			c0.613-0.003,1.091-0.359,1.239-0.87c0.152-0.537-0.048-1.091-0.544-1.381c-1.051-0.619-2.109-1.232-3.174-1.83
			c-0.623-0.351-1.352-0.145-1.685,0.446C357.697,116.53,357.889,117.222,358.523,117.591z"/>
		<path style="fill:#228C4D;" d="M372.038,114.191c0.682-0.003,1.211-0.544,1.214-1.254c0.003-0.595,0-1.193,0-1.787v-1.819
			c-0.015-0.689-0.54-1.217-1.211-1.221c-0.685-0.003-1.229,0.529-1.232,1.232c-0.007,1.203-0.007,2.407,0,3.609
			C370.812,113.652,371.356,114.191,372.038,114.191z"/>
		<path style="fill:#228C4D;" d="M360.788,125.002c0.689-0.003,1.207-0.493,1.236-1.16c0.029-0.67-0.468-1.254-1.16-1.268
			c-1.257-0.025-2.515-0.025-3.769,0c-0.674,0.015-1.189,0.601-1.166,1.239c0.015,0.674,0.555,1.185,1.247,1.189
			c0.609,0.003,1.214,0,1.823,0C359.597,125.002,360.191,125.006,360.788,125.002z"/>
		<path style="fill:#228C4D;" d="M377.398,115.768c0.428-0.007,0.79-0.166,1.008-0.532c0.652-1.094,1.301-2.196,1.917-3.309
			c0.311-0.562,0.076-1.262-0.475-1.58c-0.555-0.323-1.275-0.196-1.609,0.351c-0.67,1.099-1.323,2.207-1.932,3.338
			C375.884,114.826,376.503,115.763,377.398,115.768z"/>
		<path style="fill:#27AE60;stroke:#228C4D;stroke-width:0.25;stroke-miterlimit:10;" d="M371.81,115.268
			c-4.726-0.011-8.553,3.784-8.56,8.48c-0.007,4.697,3.798,8.523,8.48,8.538c4.736,0.011,8.568-3.787,8.574-8.502
			C380.305,119.085,376.511,115.275,371.81,115.268z"/>
		<path style="fill:#228C4D;" d="M380.122,118.676l-0.002-0.001c0.152,0.493,0.638,0.855,1.156,0.858
			c0.193,0.007,0.381-0.033,0.544-0.123c1.109-0.631,2.222-1.254,3.313-1.906c0.555-0.333,0.703-1.048,0.392-1.601
			c-0.315-0.558-0.997-0.819-1.565-0.511c-1.148,0.623-2.276,1.28-3.395,1.95C380.125,117.61,379.969,118.179,380.122,118.676z"/>
		<path style="fill:#228C4D;" d="M385.061,130.025l-0.001,0c-1.044-0.613-2.095-1.221-3.15-1.812
			c-0.627-0.351-1.344-0.152-1.685,0.438c-0.351,0.609-0.148,1.311,0.504,1.689c1.011,0.587,2.026,1.171,3.041,1.751
			c0.211,0.12,0.431,0.217,0.667,0.199c0.558,0,1.04-0.359,1.189-0.866C385.786,130.88,385.575,130.33,385.061,130.025z"/>
		<path style="fill:#228C4D;" d="M386.474,122.574h-0.001c-1.257-0.025-2.515-0.025-3.769,0c-0.674,0.015-1.189,0.601-1.167,1.239
			c0.018,0.67,0.558,1.185,1.25,1.189c0.609,0.003,1.214,0,1.823,0c0.598,0,1.193,0.003,1.791,0c0.689-0.003,1.207-0.493,1.236-1.16
			C387.667,123.172,387.17,122.589,386.474,122.574z"/>
		<path style="fill:#228C4D;" d="M363.325,128.612c-0.333-0.55-1.029-0.74-1.62-0.435c-0.166,0.087-0.326,0.185-0.489,0.279
			c-0.906,0.522-1.815,1.036-2.715,1.57c-0.514,0.305-0.718,0.863-0.55,1.41c0.16,0.519,0.631,0.863,1.211,0.858
			c0.163,0.015,0.348-0.033,0.514-0.127c1.099-0.627,2.204-1.244,3.287-1.899C363.536,129.92,363.673,129.184,363.325,128.612z"/>
		<path style="fill:#228C4D;" d="M378.35,132.692h0.001c-0.387-0.659-1.109-0.863-1.718-0.504c-0.595,0.351-0.764,1.076-0.395,1.721
			c0.293,0.519,0.598,1.029,0.899,1.547c0.305,0.525,0.595,1.054,0.913,1.573c0.305,0.496,0.881,0.695,1.42,0.526
			c0.496-0.156,0.834-0.631,0.834-1.217c0.015-0.188-0.069-0.402-0.185-0.605C379.528,134.718,378.945,133.704,378.35,132.692z"/>
		<path style="fill:#228C4D;" d="M372.041,133.626v-0.001c-0.685-0.003-1.229,0.529-1.232,1.232c-0.007,1.203-0.007,2.407,0,3.609
			c0.003,0.703,0.544,1.244,1.225,1.244c0.682-0.003,1.211-0.544,1.214-1.254c0.003-0.595,0-1.193,0-1.791v-1.819
			C373.237,134.161,372.712,133.629,372.041,133.626z"/>
		<path style="fill:#228C4D;" d="M367.064,132.457h-0.001c-0.613-0.362-1.338-0.16-1.721,0.496
			c-0.591,1.011-1.174,2.026-1.761,3.037c-0.116,0.203-0.203,0.413-0.188,0.634c-0.003,0.573,0.344,1.044,0.863,1.196
			c0.55,0.163,1.102-0.04,1.407-0.55c0.609-1.026,1.199-2.059,1.794-3.092C367.825,133.533,367.658,132.808,367.064,132.457z"/>
	</g>
</g>
<g id="Layer_1">
</g>
</svg>
