<?xml version="1.0" encoding="iso-8859-1"?>
<!-- Generator: Adobe Illustrator 21.0.0, SVG Export Plug-In . SVG Version: 6.00 Build 0)  -->
<svg version="1.1" xmlns="http://www.w3.org/2000/svg" xmlns:xlink="http://www.w3.org/1999/xlink" x="0px" y="0px"
	 viewBox="0 0 414 211" style="enable-background:new 0 0 414 211;" xml:space="preserve">
<g id="bell">
	<g id="bell_1_">
		<path style="fill:none;" d="M125.144,15.823c-0.475,0-0.877-0.302-1.026-0.77c-0.092-0.289-0.07-0.588,0.062-0.843
			c0.132-0.254,0.364-0.445,0.653-0.537c0.083-0.026,0.176-0.04,0.275-0.04c0.185,0,0.386,0.049,0.551,0.135
			c0.258,0.134,0.476,0.378,0.553,0.62c0.092,0.289,0.07,0.588-0.062,0.842c-0.132,0.255-0.363,0.445-0.653,0.537
			C125.38,15.804,125.262,15.823,125.144,15.823L125.144,15.823z"/>
		<path style="fill:none;" d="M125.144,15.823c-0.475,0-0.877-0.302-1.026-0.77c-0.092-0.289-0.07-0.588,0.062-0.843
			c0.132-0.254,0.364-0.445,0.653-0.537c0.083-0.026,0.176-0.04,0.275-0.04c0.185,0,0.386,0.049,0.551,0.135
			c0.258,0.134,0.476,0.378,0.553,0.62c0.092,0.289,0.07,0.588-0.062,0.842c-0.132,0.255-0.363,0.445-0.653,0.537
			C125.38,15.804,125.262,15.823,125.144,15.823L125.144,15.823z"/>
		<path style="fill:none;" d="M125.144,15.248c-0.222,0-0.405-0.141-0.478-0.37c-0.046-0.143-0.037-0.287,0.025-0.405
			c0.06-0.118,0.173-0.207,0.316-0.253c0.033-0.002,0.064-0.003,0.092-0.003c0.139,0,0.227,0.024,0.295,0.06
			c0.14,0.073,0.244,0.201,0.27,0.285c0.046,0.142,0.037,0.286-0.024,0.404c-0.061,0.118-0.174,0.208-0.316,0.253
			C125.263,15.238,125.202,15.248,125.144,15.248z"/>
		<path style="fill:none;" d="M125.144,15.248c-0.222,0-0.405-0.141-0.478-0.37c-0.046-0.143-0.037-0.287,0.025-0.405
			c0.06-0.118,0.173-0.207,0.316-0.253c0.033-0.002,0.064-0.003,0.092-0.003c0.139,0,0.227,0.024,0.295,0.06
			c0.14,0.073,0.244,0.201,0.27,0.285c0.046,0.142,0.037,0.286-0.024,0.404c-0.061,0.118-0.174,0.208-0.316,0.253
			C125.263,15.238,125.202,15.248,125.144,15.248z"/>
		<path style="fill:none;" d="M111.672,50.094c-2.919-11.764,3.381-23.687,14.816-27.88c2.609-0.965,5.333-1.453,8.097-1.453
			c9.727,0,18.509,6.033,22.012,15.065L111.672,50.094z M136.505,22.363c-0.935,0-1.678,0.696-1.69,1.583
			c-0.043,0.839,0.53,1.555,1.363,1.686c6.426,0.797,11.975,4.469,15.239,10.076c0.31,0.502,0.835,0.795,1.412,0.795
			c0.178,0,0.356-0.027,0.529-0.082l0.262-0.083c0.88-0.498,1.153-1.5,0.703-2.274c-3.838-6.486-10.303-10.748-17.739-11.696
			L136.505,22.363z M132.451,22.135c-0.421,0.037-0.831,0.235-1.123,0.541c-0.319,0.335-0.474,0.761-0.435,1.198
			c0.078,0.877,0.805,1.547,1.69,1.56c0,0,0.414-0.041,0.417-0.041c0.394,0,0.814-0.19,1.115-0.52
			c0.295-0.322,0.449-0.742,0.428-1.161c0.04-0.356-0.068-0.705-0.306-0.988c-0.302-0.359-0.79-0.578-1.302-0.586l-0.459-0.006
			L132.451,22.135z"/>
		<path style="fill:none;" d="M111.672,50.094c-2.919-11.764,3.381-23.687,14.816-27.88c2.609-0.965,5.333-1.453,8.097-1.453
			c9.727,0,18.509,6.033,22.012,15.065L111.672,50.094z M136.505,22.363c-0.935,0-1.678,0.696-1.69,1.583
			c-0.043,0.839,0.53,1.555,1.363,1.686c6.426,0.797,11.975,4.469,15.239,10.076c0.31,0.502,0.835,0.795,1.412,0.795
			c0.178,0,0.356-0.027,0.529-0.082l0.262-0.083c0.88-0.498,1.153-1.5,0.703-2.274c-3.838-6.486-10.303-10.748-17.739-11.696
			L136.505,22.363z M132.451,22.135c-0.421,0.037-0.831,0.235-1.123,0.541c-0.319,0.335-0.474,0.761-0.435,1.198
			c0.078,0.877,0.805,1.547,1.69,1.56c0,0,0.414-0.041,0.417-0.041c0.394,0,0.814-0.19,1.115-0.52
			c0.295-0.322,0.449-0.742,0.428-1.161c0.04-0.356-0.068-0.705-0.306-0.988c-0.302-0.359-0.79-0.578-1.302-0.586l-0.459-0.006
			L132.451,22.135z"/>
		<path style="fill:none;" d="M112.09,49.358c-2.481-11.245,3.723-22.617,14.596-26.605c2.545-0.941,5.203-1.418,7.899-1.418
			c9.22,0,17.693,5.657,21.248,14.13l-0.904,0.287c0.27-0.62,0.253-1.353-0.109-1.978c-3.931-6.643-10.551-11.007-18.163-11.978
			l-0.152-0.008c-0.684,0-1.29,0.281-1.703,0.732c-0.039-0.057-0.081-0.113-0.126-0.167c-0.408-0.484-1.056-0.78-1.734-0.79
			l-0.544-0.002c-0.557,0.049-1.099,0.311-1.486,0.717c-0.435,0.456-0.645,1.041-0.591,1.646c0.104,1.17,1.073,2.066,2.254,2.084
			c0,0,0.481-0.043,0.482-0.043c0.51,0,1.078-0.264,1.482-0.704c0.014-0.015,0.027-0.03,0.041-0.045
			c0.327,0.51,0.865,0.883,1.51,0.984c6.258,0.777,11.659,4.347,14.832,9.798c0.203,0.329,0.475,0.593,0.79,0.778L112.09,49.358z"/>
		<path style="fill:none;" d="M112.09,49.358c-2.481-11.245,3.723-22.617,14.596-26.605c2.545-0.941,5.203-1.418,7.899-1.418
			c9.22,0,17.693,5.657,21.248,14.13l-0.904,0.287c0.27-0.62,0.253-1.353-0.109-1.978c-3.931-6.643-10.551-11.007-18.163-11.978
			l-0.152-0.008c-0.684,0-1.29,0.281-1.703,0.732c-0.039-0.057-0.081-0.113-0.126-0.167c-0.408-0.484-1.056-0.78-1.734-0.79
			l-0.544-0.002c-0.557,0.049-1.099,0.311-1.486,0.717c-0.435,0.456-0.645,1.041-0.591,1.646c0.104,1.17,1.073,2.066,2.254,2.084
			c0,0,0.481-0.043,0.482-0.043c0.51,0,1.078-0.264,1.482-0.704c0.014-0.015,0.027-0.03,0.041-0.045
			c0.327,0.51,0.865,0.883,1.51,0.984c6.258,0.777,11.659,4.347,14.832,9.798c0.203,0.329,0.475,0.593,0.79,0.778L112.09,49.358z"/>
		<path style="fill:none;" d="M111.651,60.387c-0.047,0-0.057-0.03-0.063-0.049l-0.892-2.811l50.966-16.26l0.846,2.467l0.069,0.41
			l-50.901,16.24L111.651,60.387z"/>
		<path style="fill:none;" d="M111.651,60.387c-0.047,0-0.057-0.03-0.063-0.049l-0.892-2.811l50.966-16.26l0.846,2.467l0.069,0.41
			l-50.901,16.24L111.651,60.387z"/>
		<polygon style="fill:none;" points="111.388,57.81 161.375,41.96 161.907,43.697 161.935,43.845 111.983,59.683 		"/>
		<polygon style="fill:none;" points="111.388,57.81 161.375,41.96 161.907,43.697 161.935,43.845 111.983,59.683 		"/>
		<path style="fill:#DD6E45;" d="M152.829,35.545c-0.246,0-0.461-0.12-0.59-0.329c-3.41-5.857-9.218-9.7-15.928-10.532
			c-0.33-0.052-0.558-0.344-0.539-0.707c0.006-0.418,0.377-0.657,0.732-0.657c7.099,0.907,13.308,5,16.992,11.227
			c0.179,0.308,0.059,0.731-0.263,0.919l-0.032-0.002l-0.135,0.042C152.989,35.532,152.909,35.545,152.829,35.545z"/>
		<path style="fill:#DD6E45;" d="M152.829,35.545c-0.246,0-0.461-0.12-0.59-0.329c-3.41-5.857-9.218-9.7-15.928-10.532
			c-0.33-0.052-0.558-0.344-0.539-0.707c0.006-0.418,0.377-0.657,0.732-0.657c7.099,0.907,13.308,5,16.992,11.227
			c0.179,0.308,0.059,0.731-0.263,0.919l-0.032-0.002l-0.135,0.042C152.989,35.532,152.909,35.545,152.829,35.545z"/>
		<path style="fill:#DD6E45;" d="M152.829,34.97c-0.046,0-0.077-0.018-0.102-0.057c-3.496-6.005-9.456-9.945-16.345-10.799
			c-0.024-0.004-0.038-0.057-0.036-0.106c0.002-0.106,0.157-0.112,0.158-0.112c6.868,0.881,12.904,4.872,16.498,10.945
			c0.009,0.016,0.005,0.057-0.017,0.091l-0.093,0.029L152.829,34.97z"/>
		<path style="fill:#DD6E45;" d="M152.829,34.97c-0.046,0-0.077-0.018-0.102-0.057c-3.496-6.005-9.456-9.945-16.345-10.799
			c-0.024-0.004-0.038-0.057-0.036-0.106c0.002-0.106,0.157-0.112,0.158-0.112c6.868,0.881,12.904,4.872,16.498,10.945
			c0.009,0.016,0.005,0.057-0.017,0.091l-0.093,0.029L152.829,34.97z"/>
		<path style="fill:#D8583D;" d="M132.573,24.476c-0.388-0.016-0.692-0.302-0.726-0.686c-0.019-0.214,0.101-0.376,0.174-0.453
			c0.134-0.141,0.322-0.231,0.515-0.249l0.385,0.008c0.235,0.003,0.459,0.097,0.583,0.245c0.073,0.086,0.101,0.178,0.085,0.281
			l-0.009,0.058l0.006,0.058c0.015,0.171-0.049,0.349-0.177,0.488c-0.123,0.134-0.289,0.211-0.455,0.211L132.573,24.476z"/>
		<path style="fill:#D8583D;" d="M132.573,24.476c-0.388-0.016-0.692-0.302-0.726-0.686c-0.019-0.214,0.101-0.376,0.174-0.453
			c0.134-0.141,0.322-0.231,0.515-0.249l0.385,0.008c0.235,0.003,0.459,0.097,0.583,0.245c0.073,0.086,0.101,0.178,0.085,0.281
			l-0.009,0.058l0.006,0.058c0.015,0.171-0.049,0.349-0.177,0.488c-0.123,0.134-0.289,0.211-0.455,0.211L132.573,24.476z"/>
		<path style="fill:#D8583D;" d="M132.563,23.898c-0.081-0.016-0.137-0.076-0.145-0.159c0.056-0.045,0.113-0.073,0.167-0.077
			l0.322,0.01c0.039,0.001,0.073,0.007,0.099,0.015l-0.023,0.152L132.563,23.898z"/>
		<path style="fill:#D8583D;" d="M132.563,23.898c-0.081-0.016-0.137-0.076-0.145-0.159c0.056-0.045,0.113-0.073,0.167-0.077
			l0.322,0.01c0.039,0.001,0.073,0.007,0.099,0.015l-0.023,0.152L132.563,23.898z"/>
		<path style="fill:#3E3E3E;" d="M122.71,7.694c-0.229,0-0.537-0.125-0.649-0.48l-1.931-6.079c-0.051-0.16-0.03-0.348,0.057-0.517
			c0.087-0.168,0.229-0.294,0.39-0.345c0.057-0.018,0.118-0.027,0.181-0.027c0.302,0,0.596,0.204,0.681,0.475l1.931,6.079
			c0.054,0.171,0.041,0.36-0.037,0.518c-0.057,0.116-0.174,0.269-0.41,0.344C122.854,7.683,122.782,7.694,122.71,7.694z"/>
		<path style="fill:#3E3E3E;" d="M122.71,7.694c-0.229,0-0.537-0.125-0.649-0.48l-1.931-6.079c-0.051-0.16-0.03-0.348,0.057-0.517
			c0.087-0.168,0.229-0.294,0.39-0.345c0.057-0.018,0.118-0.027,0.181-0.027c0.302,0,0.596,0.204,0.681,0.475l1.931,6.079
			c0.054,0.171,0.041,0.36-0.037,0.518c-0.057,0.116-0.174,0.269-0.41,0.344C122.854,7.683,122.782,7.694,122.71,7.694z"/>
		<path style="fill:#3E3E3E;" d="M122.71,7.12c-0.076,0-0.093-0.052-0.102-0.079l-1.931-6.079l0.075-0.141
			c0.064,0,0.129,0.05,0.14,0.075l1.93,6.077l-0.073,0.141L122.71,7.12z"/>
		<path style="fill:#4C3232;" d="M122.71,7.12c-0.076,0-0.093-0.052-0.102-0.079l-1.931-6.079l0.075-0.141
			c0.064,0,0.129,0.05,0.14,0.075l1.93,6.077l-0.073,0.141L122.71,7.12z"/>
		<path style="fill:#3E3E3E;" d="M110.539,52.871c-0.303,0-0.596-0.204-0.682-0.474c-4.339-13.662,3.245-28.305,16.907-32.645
			c2.557-0.812,5.203-1.224,7.862-1.224c11.378,0,21.337,7.286,24.781,18.131c0.107,0.337-0.11,0.756-0.447,0.863L110.72,52.843
			C110.663,52.861,110.602,52.871,110.539,52.871z M134.586,19.803c-2.878,0-5.714,0.509-8.428,1.512
			c-12.06,4.423-18.631,17.111-15.284,29.513l0.13,0.483l46.84-14.876l-0.17-0.469C154.158,26.298,144.88,19.803,134.586,19.803z"/>
		<path style="fill:#3E3E3E;" d="M110.539,52.871c-0.303,0-0.596-0.204-0.682-0.474c-4.339-13.662,3.245-28.305,16.907-32.645
			c2.557-0.812,5.203-1.224,7.862-1.224c11.378,0,21.337,7.286,24.781,18.131c0.107,0.337-0.11,0.756-0.447,0.863L110.72,52.843
			C110.663,52.861,110.602,52.871,110.539,52.871z M134.586,19.803c-2.878,0-5.714,0.509-8.428,1.512
			c-12.06,4.423-18.631,17.111-15.284,29.513l0.13,0.483l46.84-14.876l-0.17-0.469C154.158,26.298,144.88,19.803,134.586,19.803z"/>
		<path style="fill:#3E3E3E;" d="M110.539,52.296c-0.059,0-0.124-0.049-0.135-0.075c-2.052-6.459-1.46-13.342,1.666-19.378
			c3.126-6.036,8.406-10.49,14.867-12.543c2.501-0.795,5.088-1.197,7.689-1.197c11.127,0,20.865,7.125,24.233,17.73
			c0.008,0.036-0.038,0.126-0.074,0.142L110.539,52.296z M134.586,19.228c-2.946,0-5.849,0.521-8.627,1.548
			c-12.341,4.525-19.066,17.509-15.64,30.202l0.288,1.062L158.589,36.8l-0.376-1.032C154.616,25.876,145.121,19.228,134.586,19.228z
			"/>
		<path style="fill:#3E3E3E;" d="M110.539,52.296c-0.059,0-0.124-0.049-0.135-0.075c-2.052-6.459-1.46-13.342,1.666-19.378
			c3.126-6.036,8.406-10.49,14.867-12.543c2.501-0.795,5.088-1.197,7.689-1.197c11.127,0,20.865,7.125,24.233,17.73
			c0.008,0.036-0.038,0.126-0.074,0.142L110.539,52.296z M134.586,19.228c-2.946,0-5.849,0.521-8.627,1.548
			c-12.341,4.525-19.066,17.509-15.64,30.202l0.288,1.062L158.589,36.8l-0.376-1.032C154.616,25.876,145.121,19.228,134.586,19.228z
			"/>
		<path style="fill:#3E3E3E;" d="M110.539,52.296c-0.059,0-0.124-0.049-0.135-0.075c-2.052-6.459-1.46-13.342,1.666-19.378
			c3.126-6.036,8.406-10.49,14.867-12.543c2.501-0.795,5.088-1.197,7.689-1.197c11.127,0,20.865,7.125,24.233,17.73
			c0.008,0.036-0.038,0.126-0.074,0.142L110.539,52.296z M134.586,19.228c-2.946,0-5.849,0.521-8.627,1.548
			c-12.341,4.525-19.066,17.509-15.64,30.202l0.288,1.062L158.589,36.8l-0.376-1.032C154.616,25.876,145.121,19.228,134.586,19.228z
			"/>
		<path style="fill:#3E3E3E;" d="M110.539,52.296c-0.059,0-0.124-0.049-0.135-0.075c-2.052-6.459-1.46-13.342,1.666-19.378
			c3.126-6.036,8.406-10.49,14.867-12.543c2.501-0.795,5.088-1.197,7.689-1.197c11.127,0,20.865,7.125,24.233,17.73
			c0.008,0.036-0.038,0.126-0.074,0.142L110.539,52.296z M134.586,19.228c-2.946,0-5.849,0.521-8.627,1.548
			c-12.341,4.525-19.066,17.509-15.64,30.202l0.288,1.062L158.589,36.8l-0.376-1.032C154.616,25.876,145.121,19.228,134.586,19.228z
			"/>
		<path style="fill:#4C3232;" d="M110.539,52.296c-0.059,0-0.124-0.049-0.135-0.075c-2.052-6.459-1.46-13.342,1.666-19.378
			c3.126-6.036,8.406-10.49,14.867-12.543c2.501-0.795,5.088-1.197,7.689-1.197c11.127,0,20.865,7.125,24.233,17.73
			c0.008,0.036-0.038,0.126-0.074,0.142L110.539,52.296z M134.586,19.228c-2.946,0-5.849,0.521-8.627,1.548
			c-12.341,4.525-19.066,17.509-15.64,30.202l0.288,1.062L158.589,36.8l-0.376-1.032C154.616,25.876,145.121,19.228,134.586,19.228z
			"/>
		<path style="fill:#3E3E3E;" d="M111.668,62.717c-1.043,0-1.99-0.688-2.302-1.673l-0.892-2.811
			c-0.394-1.241,0.321-2.622,1.562-3.016l50.856-16.152c0.232-0.074,0.472-0.111,0.716-0.111c1.036,0,2.012,0.687,2.372,1.672
			l0.886,2.792c0.401,1.261-0.3,2.615-1.562,3.016l-50.921,16.173C112.15,62.679,111.91,62.717,111.668,62.717z M161.687,40.305
			c-0.107,0-0.213,0.016-0.315,0.049l-50.921,16.173c-0.28,0.089-0.502,0.281-0.621,0.541c-0.109,0.235-0.126,0.502-0.047,0.75
			l0.892,2.811c0.139,0.436,0.521,0.717,0.976,0.717c0.107,0,0.213-0.016,0.315-0.048l50.856-16.152
			c0.384-0.122,0.643-0.436,0.704-0.801l0.108-0.035l-0.079-0.476l-0.892-2.811C162.523,40.587,162.141,40.305,161.687,40.305z"/>
		<path style="fill:#3E3E3E;" d="M111.668,62.717c-1.043,0-1.99-0.688-2.302-1.673l-0.892-2.811
			c-0.394-1.241,0.321-2.622,1.562-3.016l50.856-16.152c0.232-0.074,0.472-0.111,0.716-0.111c1.036,0,2.012,0.687,2.372,1.672
			l0.886,2.792c0.401,1.261-0.3,2.615-1.562,3.016l-50.921,16.173C112.15,62.679,111.91,62.717,111.668,62.717z M161.687,40.305
			c-0.107,0-0.213,0.016-0.315,0.049l-50.921,16.173c-0.28,0.089-0.502,0.281-0.621,0.541c-0.109,0.235-0.126,0.502-0.047,0.75
			l0.892,2.811c0.139,0.436,0.521,0.717,0.976,0.717c0.107,0,0.213-0.016,0.315-0.048l50.856-16.152
			c0.384-0.122,0.643-0.436,0.704-0.801l0.108-0.035l-0.079-0.476l-0.892-2.811C162.523,40.587,162.141,40.305,161.687,40.305z"/>
		<path style="fill:#3E3E3E;" d="M111.668,62.142c-0.795,0-1.517-0.524-1.755-1.273l-0.892-2.81c-0.3-0.944,0.244-1.994,1.188-2.294
			l50.856-16.152c0.175-0.056,0.358-0.084,0.542-0.084c0.8,0,1.553,0.532,1.832,1.294l0.878,2.768
			c0.144,0.455,0.098,0.947-0.13,1.388c-0.228,0.44-0.604,0.763-1.059,0.907l-50.92,16.173
			C112.033,62.114,111.851,62.142,111.668,62.142z M161.687,39.73c-0.166,0-0.33,0.026-0.489,0.076l-50.921,16.173
			c-0.436,0.139-0.781,0.439-0.969,0.847c-0.17,0.365-0.196,0.779-0.073,1.165l0.892,2.811c0.217,0.679,0.814,1.118,1.523,1.118
			c0.166,0,0.33-0.026,0.489-0.076l50.856-16.152c0.457-0.145,0.812-0.47,0.992-0.893l0.317-0.101l-0.188-0.984l-0.906-2.866
			C162.994,40.169,162.396,39.73,161.687,39.73z"/>
		<path style="fill:#4C3232;" d="M111.668,62.142c-0.795,0-1.517-0.524-1.755-1.273l-0.892-2.81c-0.3-0.944,0.244-1.994,1.188-2.294
			l50.856-16.152c0.175-0.056,0.358-0.084,0.542-0.084c0.8,0,1.553,0.532,1.832,1.294l0.878,2.768
			c0.144,0.455,0.098,0.947-0.13,1.388c-0.228,0.44-0.604,0.763-1.059,0.907l-50.92,16.173
			C112.033,62.114,111.851,62.142,111.668,62.142z M161.687,39.73c-0.166,0-0.33,0.026-0.489,0.076l-50.921,16.173
			c-0.436,0.139-0.781,0.439-0.969,0.847c-0.17,0.365-0.196,0.779-0.073,1.165l0.892,2.811c0.217,0.679,0.814,1.118,1.523,1.118
			c0.166,0,0.33-0.026,0.489-0.076l50.856-16.152c0.457-0.145,0.812-0.47,0.992-0.893l0.317-0.101l-0.188-0.984l-0.906-2.866
			C162.994,40.169,162.396,39.73,161.687,39.73z"/>
		<path style="fill:#3E3E3E;" d="M140.933,8.452c-0.087,0-0.17-0.017-0.248-0.05c-0.164-0.069-0.299-0.208-0.37-0.381
			c-0.072-0.173-0.074-0.357-0.005-0.519l2.449-5.889c0.107-0.251,0.368-0.422,0.651-0.422c0.086,0,0.17,0.017,0.248,0.05
			c0.341,0.145,0.517,0.565,0.375,0.899l-2.449,5.89C141.476,8.281,141.214,8.452,140.933,8.452L140.933,8.452z"/>
		<path style="fill:#3E3E3E;" d="M140.933,8.452c-0.087,0-0.17-0.017-0.248-0.05c-0.164-0.069-0.299-0.208-0.37-0.381
			c-0.072-0.173-0.074-0.357-0.005-0.519l2.449-5.889c0.107-0.251,0.368-0.422,0.651-0.422c0.086,0,0.17,0.017,0.248,0.05
			c0.341,0.145,0.517,0.565,0.375,0.899l-2.449,5.89C141.476,8.281,141.214,8.452,140.933,8.452L140.933,8.452z"/>
		<path style="fill:#3E3E3E;" d="M140.91,7.874l-0.07-0.15l2.449-5.89c0.013-0.029,0.069-0.068,0.12-0.068
			c0.078,0.027,0.111,0.109,0.094,0.151l-2.451,5.893c-0.013,0.029-0.069,0.068-0.119,0.068
			C140.921,7.877,140.913,7.875,140.91,7.874z"/>
		<path style="fill:#4C3232;" d="M140.91,7.874l-0.07-0.15l2.449-5.89c0.013-0.029,0.069-0.068,0.12-0.068
			c0.078,0.027,0.111,0.109,0.094,0.151l-2.451,5.893c-0.013,0.029-0.069,0.068-0.119,0.068
			C140.921,7.877,140.913,7.875,140.91,7.874z"/>
		<path style="fill:#3E3E3E;" d="M108.276,18.894c-0.13,0-0.255-0.035-0.362-0.101l-5.393-3.394
			c-0.152-0.094-0.257-0.246-0.299-0.428c-0.041-0.182-0.011-0.373,0.082-0.525c0.12-0.193,0.346-0.313,0.589-0.313
			c0.13,0,0.256,0.035,0.362,0.101l5.393,3.393c0.152,0.094,0.257,0.246,0.298,0.428c0.041,0.182,0.011,0.373-0.082,0.524
			C108.746,18.773,108.52,18.894,108.276,18.894L108.276,18.894z"/>
		<path style="fill:#3E3E3E;" d="M108.276,18.894c-0.13,0-0.255-0.035-0.362-0.101l-5.393-3.394
			c-0.152-0.094-0.257-0.246-0.299-0.428c-0.041-0.182-0.011-0.373,0.082-0.525c0.12-0.193,0.346-0.313,0.589-0.313
			c0.13,0,0.256,0.035,0.362,0.101l5.393,3.393c0.152,0.094,0.257,0.246,0.298,0.428c0.041,0.182,0.011,0.373-0.082,0.524
			C108.746,18.773,108.52,18.894,108.276,18.894L108.276,18.894z"/>
		<path style="fill:#3E3E3E;" d="M108.276,18.319c-0.023,0-0.045-0.005-0.06-0.015l-5.388-3.391l-0.034-0.163l0.158-0.029
			l5.392,3.393l0.034,0.164L108.276,18.319z"/>
		<path style="fill:#4C3232;" d="M108.276,18.319c-0.023,0-0.045-0.005-0.06-0.015l-5.388-3.391l-0.034-0.163l0.158-0.029
			l5.392,3.393l0.034,0.164L108.276,18.319z"/>
		<path style="fill:#D8583D;" d="M125.167,18.151c-1.502,0-2.816-0.962-3.271-2.393c-0.572-1.803,0.428-3.735,2.231-4.307
			c0.341-0.108,0.692-0.163,1.044-0.163c1.497,0,2.809,0.962,3.264,2.394c0.257,0.811,0.162,1.808-0.25,2.603
			c-0.382,0.831-1.064,1.414-1.982,1.705C125.867,18.097,125.518,18.151,125.167,18.151L125.167,18.151z M125.108,12.675
			c-0.197,0-0.387,0.029-0.565,0.085c-0.533,0.169-0.965,0.528-1.214,1.009c-0.25,0.482-0.294,1.04-0.124,1.574
			c0.273,0.86,1.053,1.438,1.938,1.438c0.216,0,0.433-0.034,0.644-0.101c0.533-0.169,0.963-0.527,1.213-1.009
			s0.294-1.04,0.124-1.573c-0.155-0.486-0.538-0.928-1.026-1.181C125.798,12.761,125.446,12.675,125.108,12.675z"/>
		<path style="fill:#D8583D;" d="M125.167,18.151c-1.502,0-2.816-0.962-3.271-2.393c-0.572-1.803,0.428-3.735,2.231-4.307
			c0.341-0.108,0.692-0.163,1.044-0.163c1.497,0,2.809,0.962,3.264,2.394c0.257,0.811,0.162,1.808-0.25,2.603
			c-0.382,0.831-1.064,1.414-1.982,1.705C125.867,18.097,125.518,18.151,125.167,18.151L125.167,18.151z M125.108,12.675
			c-0.197,0-0.387,0.029-0.565,0.085c-0.533,0.169-0.965,0.528-1.214,1.009c-0.25,0.482-0.294,1.04-0.124,1.574
			c0.273,0.86,1.053,1.438,1.938,1.438c0.216,0,0.433-0.034,0.644-0.101c0.533-0.169,0.963-0.527,1.213-1.009
			s0.294-1.04,0.124-1.573c-0.155-0.486-0.538-0.928-1.026-1.181C125.798,12.761,125.446,12.675,125.108,12.675z"/>
		<path style="fill:#D8583D;" d="M125.167,17.576c-1.25,0-2.344-0.801-2.723-1.992c-0.23-0.725-0.164-1.498,0.188-2.176
			c0.351-0.678,0.944-1.178,1.67-1.409c0.285-0.091,0.577-0.136,0.87-0.136c1.246,0,2.338,0.801,2.716,1.993
			c0.213,0.671,0.132,1.5-0.212,2.164c-0.325,0.706-0.875,1.178-1.645,1.423C125.749,17.531,125.459,17.576,125.167,17.576z
			 M125.108,12.101c-0.257,0-0.506,0.037-0.739,0.112c-0.679,0.216-1.23,0.675-1.55,1.292c-0.32,0.618-0.378,1.332-0.162,2.012
			c0.349,1.1,1.348,1.839,2.486,1.839c0.275,0,0.55-0.043,0.818-0.128c0.679-0.215,1.23-0.674,1.55-1.293
			c0.32-0.618,0.377-1.332,0.162-2.011c-0.2-0.629-0.689-1.195-1.308-1.517C125.983,12.21,125.537,12.101,125.108,12.101z"/>
		<path style="fill:#D8583D;" d="M125.167,17.576c-1.25,0-2.344-0.801-2.723-1.992c-0.23-0.725-0.164-1.498,0.188-2.176
			c0.351-0.678,0.944-1.178,1.67-1.409c0.285-0.091,0.577-0.136,0.87-0.136c1.246,0,2.338,0.801,2.716,1.993
			c0.213,0.671,0.132,1.5-0.212,2.164c-0.325,0.706-0.875,1.178-1.645,1.423C125.749,17.531,125.459,17.576,125.167,17.576z
			 M125.108,12.101c-0.257,0-0.506,0.037-0.739,0.112c-0.679,0.216-1.23,0.675-1.55,1.292c-0.32,0.618-0.378,1.332-0.162,2.012
			c0.349,1.1,1.348,1.839,2.486,1.839c0.275,0,0.55-0.043,0.818-0.128c0.679-0.215,1.23-0.674,1.55-1.293
			c0.32-0.618,0.377-1.332,0.162-2.011c-0.2-0.629-0.689-1.195-1.308-1.517C125.983,12.21,125.537,12.101,125.108,12.101z"/>
	</g>
</g>
<g id="Layer_1">
</g>
</svg>
