<?xml version="1.0" encoding="iso-8859-1"?>
<!-- Generator: Adobe Illustrator 21.0.0, SVG Export Plug-In . SVG Version: 6.00 Build 0)  -->
<svg version="1.1" xmlns="http://www.w3.org/2000/svg" xmlns:xlink="http://www.w3.org/1999/xlink" x="0px" y="0px"
	 viewBox="0 0 414 211" style="enable-background:new 0 0 414 211;" xml:space="preserve">
<g id="checklist">
	<g id="Layer_13">
		<g>
			<circle style="fill:none;" cx="131.506" cy="7.284" r="2.753"/>
			<path style="fill:none;" d="M151.558,14.028h-4.549V24.31c0,2.175-1.77,3.944-3.945,3.944h-23.128
				c-2.175,0-3.945-1.769-3.945-3.944V14.028h-4.549c-2.613,0-4.739,2.126-4.739,4.739v60.848c0,2.61,2.126,4.732,4.739,4.732
				h40.116c2.614,0,4.74-2.123,4.74-4.732V18.767C156.299,16.154,154.172,14.028,151.558,14.028z M123.758,68.397l-2.994,3.576
				v-0.013l-2.8,3.331c-0.11,0.134-0.249,0.205-0.409,0.212l-0.067,0.003l-0.065,0.015c-0.078-0.011-0.217-0.066-0.335-0.175
				l-3.123-2.9c-0.242-0.231-0.26-0.62-0.033-0.862c0.119-0.127,0.287-0.2,0.461-0.2c0.106,0,0.26,0.027,0.394,0.156l1.125,1.038
				c0.373,0.347,0.893,0.859,1.396,0.859c0.585,0,1.105-0.58,1.49-1.034l1.969-2.354l0.322-0.37l1.734-2.081
				c0.115-0.135,0.288-0.216,0.47-0.216c0.101,0,0.252,0.026,0.396,0.146C123.948,67.745,123.979,68.129,123.758,68.397z
				 M151.158,70.545h-21.62c-0.335,0-0.608-0.276-0.608-0.616c0-0.34,0.273-0.616,0.608-0.616h21.609
				c0.348,0,0.623,0.273,0.627,0.624C151.774,70.268,151.497,70.545,151.158,70.545z M151.158,57.446h-21.62
				c-0.335,0-0.608-0.273-0.608-0.608c0-0.345,0.267-0.616,0.608-0.616h21.609c0.353,0,0.623,0.268,0.627,0.623
				C151.774,57.167,151.491,57.446,151.158,57.446z M151.158,44.339h-21.62c-0.335,0-0.608-0.273-0.608-0.608
				c0-0.34,0.273-0.616,0.608-0.616h21.609c0.345,0,0.627,0.276,0.627,0.616C151.774,44.067,151.497,44.339,151.158,44.339z"/>
			<path style="fill:#DD6E45;stroke:#000000;stroke-width:0.25;stroke-miterlimit:10;" d="M151.147,69.313h-21.609
				c-0.335,0-0.608,0.276-0.608,0.616c0,0.34,0.273,0.616,0.608,0.616h21.62c0.34,0,0.616-0.276,0.616-0.608
				C151.77,69.586,151.495,69.313,151.147,69.313z"/>
			<path style="fill:#DD6E45;stroke:#000000;stroke-width:0.25;stroke-miterlimit:10;" d="M151.147,43.116h-21.609
				c-0.335,0-0.608,0.276-0.608,0.616c0,0.335,0.273,0.608,0.608,0.608h21.62c0.34,0,0.616-0.273,0.616-0.608
				C151.774,43.392,151.492,43.116,151.147,43.116z"/>
			<path style="fill:#DD6E45;stroke:#000000;stroke-width:0.5;stroke-miterlimit:10;" d="M151.778,10.141h-12.322V7.474
				c0-1.836-1.497-3.33-3.338-3.33h-9.24c-1.836,0-3.329,1.494-3.329,3.33v2.668h-12.106c-4.761,0-8.634,3.873-8.634,8.634v60.848
				c0,4.761,3.874,8.634,8.634,8.634h40.119c4.761,0,8.635-3.873,8.635-8.634V18.765C160.196,14.081,156.439,10.257,151.778,10.141z
				 M131.48,5.828c1.329,0,2.41,1.081,2.41,2.41s-1.081,2.41-2.41,2.41c-1.329,0-2.409-1.081-2.409-2.41S130.152,5.828,131.48,5.828
				z M118.734,14.429h25.422v10.224c0,0.477-0.379,0.863-0.847,0.863H119.58c-0.468,0-0.847-0.386-0.847-0.863V14.429z
				 M156.299,79.615c0,2.61-2.127,4.732-4.74,4.732h-40.116c-2.613,0-4.739-2.123-4.739-4.732V18.767
				c0-2.613,2.126-4.739,4.739-4.739h4.549V24.31c0,2.175,1.77,3.944,3.945,3.944h23.128c2.175,0,3.945-1.769,3.945-3.944V14.028
				h4.549c2.614,0,4.74,2.126,4.74,4.739V79.615z"/>
			<path style="fill:#DD6E45;stroke:#000000;stroke-width:0.25;stroke-miterlimit:10;" d="M151.147,56.222h-21.609
				c-0.341,0-0.608,0.271-0.608,0.616c0,0.335,0.273,0.608,0.608,0.608h21.62c0.334,0,0.616-0.278,0.616-0.6
				C151.77,56.49,151.5,56.222,151.147,56.222z"/>
			<path style="fill:#DD6E45;stroke:#000000;stroke-width:0.25;stroke-miterlimit:10;" d="M121.724,67.38
				c-0.182,0-0.355,0.081-0.47,0.216l-1.734,2.081l-0.322,0.37l-1.969,2.354c-0.385,0.454-0.905,1.034-1.49,1.034
				c-0.503,0-1.024-0.512-1.396-0.859l-1.125-1.038c-0.134-0.13-0.288-0.156-0.394-0.156c-0.173,0-0.341,0.073-0.461,0.2
				c-0.227,0.242-0.209,0.632,0.033,0.862l3.123,2.9c0.118,0.109,0.257,0.164,0.335,0.175l0.065-0.015l0.067-0.003
				c0.16-0.007,0.299-0.078,0.409-0.212l2.8-3.331v0.013l2.994-3.576c0.221-0.268,0.19-0.652-0.069-0.871
				C121.976,67.406,121.825,67.38,121.724,67.38z"/>
		</g>
	</g>
	<g id="Layer_12">
		<path style="fill:#DD6E45;stroke:#000000;stroke-width:0.25;stroke-miterlimit:10;" d="M115.857,48.031
			c-0.078-0.011-0.217-0.066-0.335-0.175l-3.123-2.9c-0.242-0.231-0.26-0.62-0.033-0.862c0.119-0.127,0.287-0.2,0.461-0.2
			c0.106,0,0.26,0.027,0.394,0.156l1.125,1.038c0.373,0.347,0.893,0.859,1.396,0.859c0.585,0,1.105-0.58,1.49-1.034l1.969-2.354
			l0.322-0.37l1.734-2.081c0.115-0.135,0.288-0.216,0.47-0.216c0.101,0,0.252,0.026,0.396,0.146c0.259,0.219,0.29,0.603,0.069,0.871
			l-2.994,3.576v-0.013l-2.8,3.331c-0.11,0.134-0.249,0.205-0.409,0.212l-0.067,0.003L115.857,48.031z"/>
	</g>
	<g id="Layer_11">
		<path style="fill:#DD6E45;stroke:#000000;stroke-width:0.25;stroke-miterlimit:10;" d="M115.854,62.574
			c-0.078-0.011-0.217-0.066-0.335-0.175l-3.123-2.9c-0.242-0.231-0.26-0.62-0.033-0.862c0.119-0.127,0.287-0.2,0.461-0.2
			c0.106,0,0.26,0.027,0.394,0.156l1.125,1.038c0.373,0.347,0.893,0.859,1.396,0.859c0.585,0,1.105-0.58,1.49-1.034l1.969-2.354
			l0.322-0.37l1.734-2.081c0.115-0.135,0.288-0.216,0.47-0.216c0.101,0,0.252,0.026,0.396,0.146c0.259,0.219,0.29,0.603,0.069,0.871
			l-2.994,3.576v-0.013l-2.8,3.331c-0.11,0.134-0.249,0.205-0.409,0.212l-0.067,0.003L115.854,62.574z"/>
	</g>
	<g id="Layer_10">
		<g>
			
				<line style="fill:none;stroke:#3E3E3E;stroke-width:0;stroke-linecap:round;stroke-linejoin:round;" x1="136.402" y1="15.511" x2="136.403" y2="15.511"/>
			<path style="fill:#DD6E45;stroke:#000000;stroke-width:0.25;stroke-miterlimit:10;" d="M127.955,19.344
				c0.077-0.073,0.184-0.11,0.285-0.106c0.106,0.005,0.205,0.053,0.274,0.134l0.316,0.365l0.365-1.909
				c0.033-0.168,0.172-0.295,0.341-0.312c0.168-0.017,0.332,0.078,0.397,0.237l0.463,1.115l0.444-0.934
				c0.069-0.146,0.22-0.231,0.38-0.22c0.16,0.013,0.296,0.124,0.341,0.277l0.698,2.377l0.248-1.391
				c0.031-0.161,0.157-0.288,0.319-0.314c0.164-0.028,0.323,0.053,0.403,0.197l0.674,1.238l0.428-0.863
				c0.065-0.132,0.199-0.216,0.347-0.216h2.499v-2.734c0-0.428-0.347-0.774-0.773-0.774h-10.148c-0.428,0-0.774,0.347-0.774,0.774
				v3.75l1.75-0.001L127.955,19.344z"/>
			<path style="fill:#DD6E45;stroke:#000000;stroke-width:0.25;stroke-miterlimit:10;" d="M134.917,19.79l-0.652,1.316l0.001,0.001
				c-0.063,0.13-0.194,0.214-0.339,0.217c-0.138,0.007-0.278-0.076-0.347-0.203l-0.506-0.925l-0.344,1.925
				c-0.032,0.178-0.182,0.309-0.361,0.318c-0.007,0.001-0.014,0.001-0.021,0.001c-0.171,0-0.322-0.113-0.371-0.279l-0.875-2.981
				l-0.381,0.804c-0.067,0.138-0.211,0.222-0.36,0.22c-0.152-0.004-0.289-0.098-0.348-0.24l-0.3-0.726l-0.274,1.425
				c-0.028,0.146-0.137,0.263-0.28,0.3c-0.142,0.039-0.296-0.008-0.392-0.12l-0.574-0.662L127.65,20.7
				c-0.073,0.069-0.168,0.108-0.267,0.108h-1.904v2.85c0,0.428,0.347,0.775,0.774,0.775h10.149c0.428,0,0.773-0.347,0.773-0.775
				V19.79H134.917z"/>
		</g>
	</g>
</g>
<g id="Layer_1">
</g>
</svg>
