<?xml version="1.0" encoding="iso-8859-1"?>
<!-- Generator: Adobe Illustrator 21.0.0, SVG Export Plug-In . SVG Version: 6.00 Build 0)  -->
<svg version="1.1" xmlns="http://www.w3.org/2000/svg" xmlns:xlink="http://www.w3.org/1999/xlink" x="0px" y="0px"
	 viewBox="0 0 414 211" style="enable-background:new 0 0 414 211;" xml:space="preserve">
<g id="cocktail">
	<g id="cocktail_1_">
		<path style="fill:none;" d="M410.264,96.984l1.07-1.145h-25.066l1.122,1.145c2.019,2.192,4.073,4.729,5.823,7.175
			c2.239,3.152,3.971,6.064,4.465,8.182c0.644,2.94,0.541,7.412,0.547,11.216v8.315c0,0.27-0.108,0.534-0.299,0.725
			c-0.052,0.052-0.646,0.615-1.75,1.271h5.294c-1.106-0.649-1.692-1.214-1.75-1.271c-0.189-0.189-0.298-0.455-0.298-0.725v-8.315
			l0.002,0.002c0-3.724-0.086-7.97,0.552-11.187c0.453-2.158,2.192-5.064,4.442-8.218
			C406.179,101.708,408.245,99.171,410.264,96.984z M400.061,109.879c-0.403,0.11-0.806,0.173-1.219,0.173
			c-0.432,0-0.863-0.063-1.284-0.196c-0.788-1.663-2.014-3.694-3.746-6.128c-1.167-1.629-2.467-3.303-3.809-4.886h17.637
			c-1.347,1.595-2.66,3.258-3.821,4.88C402.057,106.202,400.827,108.216,400.061,109.879z"/>
		<path style="fill:none;" d="M397.552,107.399c0.432,0.62,0.748,1.144,0.955,1.564c0.108,0.04,0.218,0.058,0.327,0.058l0.002,0.002
			c0.104,0,0.212-0.018,0.316-0.047c0.189-0.437,0.505-0.944,0.955-1.588c0.304-0.415,0.644-0.842,0.989-1.255h-4.528
			C396.909,106.547,397.247,106.979,397.552,107.399z"/>
		<path style="fill:#4C3232;" d="M406.085,105.355c2.181-3.032,4.897-6.249,7.308-8.666c0.293-0.293,0.379-0.737,0.219-1.117
			c-0.16-0.379-0.536-0.633-0.944-0.633H384.99c-0.414,0-0.788,0.254-0.944,0.633c-0.162,0.385-0.068,0.824,0.219,1.117
			c2.411,2.406,5.111,5.634,7.279,8.666c2.169,3.016,3.821,5.956,4.132,7.434c0.581,2.595,0.748,7.038,0.743,10.771v6.387
			c0,5.605-12.476,3.706-10.203,5.974h25.215c2.268-2.262-10.191-0.369-10.191-5.974v-6.152c0-3.659,0.162-8.096,0.748-11.025v0.002
			C402.253,111.305,403.898,108.37,406.085,105.355z M399.977,112.372c-0.638,3.217-0.552,7.463-0.552,11.187l-0.002-0.002v8.315
			c0,0.27,0.11,0.536,0.298,0.725c0.058,0.058,0.644,0.622,1.75,1.271h-5.294c1.104-0.656,1.698-1.219,1.75-1.271
			c0.191-0.191,0.299-0.455,0.299-0.725v-8.315c-0.005-3.803,0.097-8.276-0.547-11.216c-0.495-2.118-2.226-5.03-4.465-8.182
			c-1.75-2.446-3.803-4.983-5.823-7.175l-1.122-1.145h25.066l-1.07,1.145c-2.019,2.187-4.086,4.724-5.846,7.17
			C402.169,107.308,400.43,110.214,399.977,112.372z"/>
		<path style="fill:#DD6E45;" d="M387.41,101.227c-1.231-1.466-2.484-2.847-3.652-4.015c-0.138-0.138-0.254-0.306-0.34-0.478
			l-0.408,3.003l-0.34,2.543c0.178,0.115,0.507,0.178,0.921,0.178C384.804,102.452,386.477,101.917,387.41,101.227z"/>
		<path style="fill:#DD6E45;" d="M384.832,87.572l-0.002,0.002c-0.345-0.254-1.065-0.421-1.847-0.421
			c-0.984,0-1.841,0.264-2.163,0.662l2.032,4.954l0.379,0.915l0.852-3.246L384.832,87.572z"/>
		<path style="fill:#EA5E51;" d="M389.266,90.048c-0.557-0.701-1.104-1.054-1.421-1.104l-3.573,5.156l5.852-2.163
			C390.124,91.442,389.797,90.722,389.266,90.048z"/>
		<path style="fill:#D8583D;" d="M387.882,101.792l-0.002,0.002c-1.128,0.858-3.003,1.41-4.292,1.41
			c-0.615,0-1.07-0.115-1.386-0.345c-0.144,0.047-0.306,0.076-0.489,0.076c-1.593,0-4.478-1.802-4.823-3.194
			c-0.691-0.379-1.232-1.525-1.444-2.278c-0.138-0.478-0.173-0.858-0.097-1.145c-0.322-0.356-0.5-0.96-0.507-1.737
			c-0.005-1.065,0.322-2.341,1.065-2.958c-0.029-0.392,0.138-0.863,0.5-1.404c0.858-1.248,2.848-2.866,3.798-2.866
			c0.018,0,0.034,0,0.052,0.005c0.557-0.685,1.744-0.939,2.739-0.939c0.766,0,1.692,0.149,2.268,0.557
			c0.155-0.086,0.34-0.138,0.541-0.138c0.651,0,1.554,0.478,2.072,1.358c0.863,0.081,1.726,1.075,1.98,1.386
			c0.552,0.696,1.088,1.692,1.018,2.498c0.379,0.471,0.599,1.248,0.651,2.111h1.03c-0.126-1.789-0.766-3.51-1.87-4.96
			c-1.502-1.967-3.677-3.233-6.128-3.568c-2.451-0.34-4.886,0.306-6.853,1.807c-4.062,3.089-4.852,8.914-1.76,12.976
			c1.502,1.967,3.677,3.233,6.128,3.568c0.421,0.057,0.84,0.086,1.266,0.086c1.836,0,3.62-0.541,5.156-1.588
			C388.279,102.282,388.083,102.033,387.882,101.792z"/>
		<path style="fill:#DD6E45;" d="M390.359,92.638l-4.211,1.554h4.638C390.739,93.548,390.59,92.977,390.359,92.638z"/>
		<path style="fill:#DD6E45;" d="M390.003,98.842c1.341,1.582,2.642,3.257,3.809,4.886c1.732,2.435,2.958,4.465,3.746,6.128
			c0.421,0.133,0.852,0.196,1.284,0.196c0.414,0,0.816-0.063,1.219-0.173c0.766-1.663,1.996-3.677,3.758-6.157
			c1.162-1.622,2.474-3.285,3.821-4.88H390.003z M400.108,107.389c-0.45,0.644-0.766,1.151-0.955,1.588
			c-0.104,0.029-0.212,0.047-0.316,0.047l-0.002-0.002c-0.11,0-0.219-0.018-0.327-0.058c-0.207-0.421-0.523-0.944-0.955-1.564
			c-0.306-0.421-0.644-0.852-0.984-1.266h4.528C400.752,106.547,400.412,106.973,400.108,107.389z"/>
		<path style="fill:#DD6E45;" d="M385.79,87.572v0.002c-0.097,0-0.167,0.018-0.212,0.057l-0.701,2.681l-0.685,2.595l3.026-4.363
			C386.862,87.951,386.216,87.572,385.79,87.572z"/>
		<path style="fill:#DD6E45;" d="M375.571,94.573c0.005,0.644,0.144,1.065,0.306,1.248l6.163-1.122l-5.691-2.503
			C375.887,92.603,375.565,93.576,375.571,94.573z"/>
		<path style="fill:#EA5E51;" d="M380.129,88.093l-0.002-0.002c-0.593,0.086-2.273,1.3-3.118,2.537
			c-0.241,0.356-0.379,0.673-0.379,0.881l5.979,2.636L380.129,88.093z"/>
		<path style="fill:#EA5E51;" d="M381.71,102.184c0.086,0,0.162-0.011,0.225-0.023l0.858-6.474l-5.168,3.947
			C377.93,100.532,380.329,102.184,381.71,102.184z"/>
		<polygon points="387.412,101.226 387.411,101.227 387.412,101.23 		"/>
		<path style="fill:#DD6E45;" d="M377.168,99.043h0.002l4.672-3.557l-5.801,1.054c-0.018,0.207,0.052,0.68,0.322,1.306
			C376.626,98.46,376.943,98.876,377.168,99.043z"/>
	</g>
</g>
<g id="Layer_1">
</g>
</svg>
