<?xml version="1.0" encoding="iso-8859-1"?>
<!-- Generator: Adobe Illustrator 21.0.0, SVG Export Plug-In . SVG Version: 6.00 Build 0)  -->
<svg version="1.1" xmlns="http://www.w3.org/2000/svg" xmlns:xlink="http://www.w3.org/1999/xlink" x="0px" y="0px"
	 viewBox="0 0 414 211" style="enable-background:new 0 0 414 211;" xml:space="preserve">
<g id="helicopter">
	<g id="Layer_25">
		<path style="fill:#35838D;stroke:#3E3E3E;stroke-width:0.5;stroke-miterlimit:10;" d="M346.795,64.841
			c-8.276-3.371-16.184-2.365-23.794,2.052c-0.132,0.085-0.253,0.19-0.368,0.304c-0.068,0.077-0.108,0.181-0.266,0.461
			c0.255,0.239,0.453,0.556,0.715,0.627l0.004,0.004c4.403,1.287,8.753,2.858,13.246,3.735c4.744,0.927,8.319-1.502,11.023-5.285
			C347.959,65.901,347.77,65.237,346.795,64.841z"/>
	</g>
	<g id="Layer_24">
		<path style="fill:none;stroke:#3E3E3E;stroke-width:0.5;stroke-miterlimit:10;" d="M382.054,79.325l-9.927-3.039
			c-3.58-1.096-7.18-2.154-10.736-3.331c-0.556-0.181-1.18-0.851-1.361-1.423c-0.978-3.139-2.952-5.3-6.005-6.43
			c-1.544-0.57-3.153-0.982-4.877-1.51c0.181-1.964,0.439-3.798,0.5-5.648c0.014-0.627-0.452-1.259-0.701-1.897
			c-0.543,0.412-1.25,0.713-1.599,1.246l-2.208,3.899c-0.249,0.377-1.041,0.721-1.471,0.618c-9.789-2.435-18.264,0.132-25.658,6.724
			l-0.002-0.003c-1.061,0.941-1.942,2.128-2.722,3.341c-1.024,1.572-0.812,3.061,0.808,3.993c2.063,1.193,4.25,2.28,6.515,3.018
			c6.652,2.189,13.353,4.257,20.085,6.221c6.29,1.837,11.488,0.029,15.391-5.219c0.668-0.9,1.31-1.165,2.392-1.011
			c6.082,0.863,12.19,1.551,18.252,2.534C380.647,81.714,381.524,81.148,382.054,79.325z"/>
	</g>
	<g id="Layer_23">
		<path style="fill:#8BBDC9;stroke:#3E3E3E;stroke-width:0.5;stroke-miterlimit:10;" d="M352.182,59.346
			c7.119,2.616,14.216,5.278,21.334,7.902c2.03,0.755,3.782-0.845,3.292-3.078c-0.094-0.393-0.777-0.805-1.254-0.935
			c-4.555-1.164-9.131-2.269-13.69-3.39c-3.004-0.742-6.016-1.477-9.023-2.212c-0.455-0.114-0.912-0.182-1.357-0.274
			C350.803,58.443,351.133,58.964,352.182,59.346z"/>
	</g>
	<g id="Layer_22">
		<path style="fill:#DD6E45;stroke:#3E3E3E;stroke-width:0.5;stroke-miterlimit:10;" d="M384.284,73.887
			c-2.999-1.221-6.236-0.332-7.917,2.196c0.975,0.557,1.803,0.677,2.891-0.086c2.017-1.418,5.101-0.619,6.516,1.444
			c1.51,2.189,1.078,5.11-0.991,6.755l0.006-0.001c-2.049,1.634-4.965,1.328-6.838-0.572c-0.648-0.671-1.587-1.064-2.501-1.425
			c0.393,2.985,3.024,4.975,6.174,5.005c3.36,0.033,6.19-2.26,6.879-5.556C389.181,78.411,387.416,75.165,384.284,73.887z"/>
	</g>
	<g id="Layer_21">
		<path style="fill:#35838D;stroke:#3E3E3E;stroke-width:0.5;stroke-miterlimit:10;" d="M348.411,88.824
			c-10.893-3.318-21.78-6.642-32.666-9.983l0.002,0.003c-1.198-0.367-2.331-0.499-2.728,0.945c-0.373,1.363,0.651,1.826,1.777,2.162
			c5.416,1.641,10.832,3.307,16.25,4.966l0.005-0.015c5.467,1.674,10.936,3.348,16.401,5.029c1.106,0.339,2.191,0.546,2.617-0.873
			C350.477,89.687,349.55,89.173,348.411,88.824z"/>
	</g>
	<g id="Layer_20">
		<path style="fill:#8BBDC9;stroke:#3E3E3E;stroke-width:0.5;stroke-miterlimit:10;" d="M322.915,51.722
			c7.199,1.775,14.412,3.503,21.606,5.296c1.116,0.28,1.568-0.143,1.828-1.229c-3.284-1.219-6.528-2.424-9.765-3.621
			c-4.558-1.682-9.121-3.345-13.662-5.055l-0.003-0.001c-1.106-0.419-1.62-0.168-1.969,0.999
			C320.081,50.979,320.02,51.005,322.915,51.722z"/>
	</g>
</g>
<g id="Layer_1">
</g>
</svg>
