<?xml version="1.0" encoding="iso-8859-1"?>
<!-- Generator: Adobe Illustrator 21.0.0, SVG Export Plug-In . SVG Version: 6.00 Build 0)  -->
<svg version="1.1" xmlns="http://www.w3.org/2000/svg" xmlns:xlink="http://www.w3.org/1999/xlink" x="0px" y="0px"
	 viewBox="0 0 414 211" style="enable-background:new 0 0 414 211;" xml:space="preserve">
<g id="hotel">
	<g id="hotel_1_">
		<g>
			<path style="fill:none;stroke:#3E3E3E;stroke-miterlimit:10;" d="M156.466,170.93c0,0.312,0.255,0.567,0.567,0.567h19.451
				c0.312,0,0.567-0.255,0.567-0.567v-42.368c0-0.312-0.255-0.567-0.567-0.567h-19.451c-0.312,0-0.567,0.255-0.567,0.567V170.93z
				 M161.598,133.215c0-0.312,0.255-0.567,0.567-0.567h9.301c0.312,0,0.567,0.255,0.567,0.567v9.21c0,0.312-0.255,0.567-0.567,0.567
				h-9.301c-0.312,0-0.567-0.255-0.567-0.567V133.215z"/>
		</g>
		<g>
			<path style="fill:#DD6E45;" d="M172.033,132.789c0-0.078-0.064-0.142-0.142-0.142H161.74c-0.078,0-0.142,0.064-0.142,0.142v10.06
				c0,0.078,0.064,0.142,0.142,0.142h10.151c0.078,0,0.142-0.064,0.142-0.142V132.789z"/>
			<path style="fill:none;stroke:#3E3E3E;stroke-miterlimit:10;" d="M172.033,132.789c0-0.078-0.064-0.142-0.142-0.142H161.74
				c-0.078,0-0.142,0.064-0.142,0.142v10.06c0,0.078,0.064,0.142,0.142,0.142h10.151c0.078,0,0.142-0.064,0.142-0.142V132.789z"/>
		</g>
		<polygon style="fill:#DD6E45;stroke:#3E3E3E;stroke-miterlimit:10;" points="160.207,123.49 166.759,120.057 173.31,123.49 
			172.068,116.208 177.359,111.042 170.043,109.964 166.776,103.338 163.491,109.981 156.175,111.059 161.484,116.225 		"/>
		<g>
			<path style="fill:none;stroke:#3E3E3E;stroke-miterlimit:10;" d="M182.833,170.969c0,0.312,0.255,0.567,0.567,0.567h19.394
				c0.312,0,0.567-0.255,0.567-0.567v-67.053c0-0.312-0.255-0.567-0.567-0.567H183.4c-0.312,0-0.567,0.255-0.567,0.567V170.969z
				 M187.965,108.712c0-0.312,0.255-0.567,0.567-0.567h9.21c0.312,0,0.567,0.255,0.567,0.567v9.284c0,0.312-0.255,0.567-0.567,0.567
				h-9.21c-0.312,0-0.567-0.255-0.567-0.567V108.712z M187.925,133.215c0-0.312,0.255-0.567,0.567-0.567h9.21
				c0.312,0,0.567,0.255,0.567,0.567v9.193c0,0.312-0.255,0.567-0.567,0.567h-9.21c-0.312,0-0.567-0.255-0.567-0.567V133.215z"/>
		</g>
		<g>
			<path style="fill:none;stroke:#3E3E3E;stroke-miterlimit:10;" d="M198.269,132.789c0-0.078-0.064-0.142-0.142-0.142h-10.061
				c-0.078,0-0.142,0.064-0.142,0.142v10.043c0,0.078,0.064,0.142,0.142,0.142h10.061c0.078,0,0.142-0.064,0.142-0.142V132.789z"/>
		</g>
		<g>
			<path style="fill:none;stroke:#3E3E3E;stroke-miterlimit:10;" d="M198.309,108.287c0-0.078-0.064-0.142-0.142-0.142h-10.06
				c-0.078,0-0.142,0.064-0.142,0.142v10.135c0,0.078,0.064,0.142,0.142,0.142h10.06c0.078,0,0.142-0.064,0.142-0.142V108.287z"/>
		</g>
		<g>
			<path style="fill:none;stroke:#3E3E3E;stroke-miterlimit:10;" d="M155.919,196.989c0,0.312,0.255,0.567,0.567,0.567h127.052
				c0.312,0,0.567-0.255,0.567-0.567v-21.476c0-0.312-0.255-0.567-0.567-0.567H156.486c-0.312,0-0.567,0.255-0.567,0.567V196.989z
				 M242.741,179.089c0-0.312,0.255-0.567,0.567-0.567h2.025c0.312,0,0.567,0.255,0.567,0.567v11.075
				c0,0.312,0.255,0.567,0.567,0.567h4.049c0.312,0,0.567,0.255,0.567,0.567v1.768c0,0.312-0.255,0.567-0.567,0.567h-7.209
				c-0.312,0-0.567-0.255-0.567-0.567V179.089z M232.14,179.089c0-0.312,0.255-0.567,0.567-0.567h7.659
				c0.312,0,0.567,0.255,0.567,0.567v1.677c0,0.312-0.255,0.567-0.567,0.567h-4.523c-0.312,0-0.567,0.255-0.567,0.567v1.603
				c0,0.312,0.255,0.567,0.567,0.567h4.523c0.312,0,0.567,0.255,0.567,0.567v1.752c0,0.312-0.255,0.567-0.567,0.567h-4.523
				c-0.312,0-0.567,0.255-0.567,0.567v2.641c0,0.312,0.255,0.567,0.567,0.567h4.523c0.312,0,0.567,0.255,0.567,0.567v1.768
				c0,0.312-0.255,0.567-0.567,0.567h-7.659c-0.312,0-0.567-0.255-0.567-0.567V179.089z M220.137,179.075
				c0.069-0.304,0.381-0.553,0.693-0.553h8.298c0.312,0,0.623,0.249,0.693,0.553l0.387,1.705c0.069,0.304-0.13,0.553-0.441,0.553
				h-2.641c-0.312,0-0.567,0.255-0.567,0.567v11.166c0,0.312-0.255,0.567-0.567,0.567h-2.002c-0.312,0-0.567-0.255-0.567-0.567
				V181.9c0-0.312-0.255-0.567-0.567-0.567h-2.664c-0.312,0-0.51-0.249-0.441-0.553L220.137,179.075z M203.27,185.877
				c0.031-0.292,0.112-0.779,0.18-1.084c0,0,0.441-1.984,1.188-3.079c0.582-0.878,1.781-1.836,1.781-1.836
				c0.244-0.195,0.443-0.358,0.443-0.362s0.232-0.115,0.515-0.246c0,0,2.296-1.057,3.956-1.057c1.625,0,3.119,0.439,4.453,1.294
				c0.895,0.582,1.642,1.334,2.224,2.207c0.895,1.334,1.267,3.819,1.267,3.819c0.046,0.308,0.058,0.814,0.025,1.125l-0.415,1.939
				c-0.091,0.298-0.164,0.544-0.162,0.545c0.002,0.002-0.108,0.233-0.243,0.514c0,0-0.193,0.402-0.501,0.841
				c-0.93,1.334-2.116,2.298-3.632,2.92c-0.987,0.399-2.007,0.605-3.028,0.605c-0.53,0-1.078-0.057-1.608-0.166
				c-1.078-0.199-2.042-0.604-2.886-1.186c-0.399-0.257-0.779-0.594-0.779-0.594c-0.233-0.207-0.588-0.571-0.789-0.81
				c0,0-0.987-1.174-1.386-2.104c-0.422-0.946-0.604-1.973-0.604-3.01C203.27,185.877,203.27,185.877,203.27,185.877z
				 M188.969,179.089c0-0.312,0.255-0.567,0.567-0.567h2.002c0.312,0,0.567,0.255,0.567,0.567v4.124
				c0,0.312,0.255,0.567,0.567,0.567h5.053c0.312,0,0.567-0.255,0.567-0.567v-4.124c0-0.312,0.255-0.567,0.567-0.567h2.002
				c0.312,0,0.567,0.255,0.567,0.567v13.977c0,0.312-0.255,0.567-0.567,0.567h-2.002c-0.312,0-0.567-0.255-0.567-0.567v-5.8
				c0-0.312-0.255-0.567-0.567-0.567h-5.053c-0.312,0-0.567,0.255-0.567,0.567v5.8c0,0.312-0.255,0.567-0.567,0.567h-2.002
				c-0.312,0-0.567-0.255-0.567-0.567V179.089z"/>
		</g>
		<path style="fill:none;stroke:#3E3E3E;stroke-miterlimit:10;" d="M205.625,191.699c0.382,0.405,0.804,0.713,1.203,0.97
			c0.844,0.582,1.808,0.986,2.886,1.186c0.53,0.109,1.078,0.166,1.608,0.166c1.021,0,2.041-0.205,3.028-0.605
			c1.517-0.622,2.703-1.585,3.632-2.92c0.308-0.439,0.547-0.895,0.747-1.351l-0.006-0.006c0.422-0.964,0.604-1.984,0.639-3.045
			c0-1.585-0.456-3.045-1.351-4.379c-0.582-0.872-1.328-1.625-2.224-2.207c-1.334-0.855-2.828-1.294-4.453-1.294
			c-1.659,0-3.136,0.439-4.471,1.294v0.017c-0.873,0.582-1.642,1.312-2.224,2.19c-0.747,1.095-1.186,2.298-1.311,3.632
			c-0.04,0.257-0.057,0.53-0.057,0.804c0,1.037,0.182,2.064,0.604,3.01C204.273,190.092,204.861,190.953,205.625,191.699z
			 M206.851,184.195c0.108-0.308,0.274-0.599,0.439-0.855c0.182-0.274,0.388-0.513,0.604-0.73v-0.017
			c0.239-0.257,0.473-0.439,0.713-0.605c0.069-0.057,0.2-0.148,0.399-0.239c0.2-0.091,0.348-0.16,0.439-0.216
			c0.639-0.257,1.237-0.382,1.842-0.382c0.616,0,1.237,0.142,1.859,0.399h0.006c1.186,0.513,2.064,1.403,2.555,2.646
			c0.239,0.57,0.365,1.209,0.365,1.882c0,1.768-0.707,3.136-2.133,4.105c-0.844,0.587-1.716,0.878-2.612,0.878
			c-0.604,0-1.243-0.148-1.881-0.422c-0.896-0.382-1.608-1.004-2.155-1.825c-0.456-0.679-0.713-1.443-0.787-2.264
			c-0.017-0.142-0.017-0.308-0.017-0.473C206.486,185.416,206.612,184.8,206.851,184.195z"/>
		<polygon style="fill:none;stroke:#3E3E3E;stroke-miterlimit:10;" points="223.422,193.632 226.558,193.632 226.558,181.333 
			230.333,181.333 229.694,178.522 220.262,178.522 219.624,181.333 223.422,181.333 		"/>
		<polygon style="fill:none;stroke:#3E3E3E;stroke-miterlimit:10;" points="240.933,190.73 235.276,190.73 235.276,186.955 
			240.933,186.955 240.933,184.07 235.276,184.07 235.276,181.333 240.933,181.333 240.933,178.522 232.14,178.522 232.14,193.632 
			240.933,193.632 		"/>
		<polygon style="fill:none;stroke:#3E3E3E;stroke-miterlimit:10;" points="251.083,190.73 245.9,190.73 245.9,178.522 
			242.741,178.522 242.741,193.632 251.083,193.632 		"/>
		<polygon style="fill:none;stroke:#3E3E3E;stroke-miterlimit:10;" points="192.105,186.699 198.292,186.699 198.292,193.632 
			201.428,193.632 201.428,178.522 198.292,178.522 198.292,183.779 192.105,183.779 192.105,178.522 188.969,178.522 
			188.969,193.632 192.105,193.632 		"/>
		<g>
			<path style="fill:#D8583D;" d="M155.919,209.688c0,0.312,0.255,0.567,0.567,0.567h127.052c0.312,0,0.567-0.255,0.567-0.567
				v-7.824c0-0.312-0.255-0.567-0.567-0.567H156.486c-0.312,0-0.567,0.255-0.567,0.567V209.688z"/>
			<path style="fill:none;stroke:#3E3E3E;stroke-miterlimit:10;" d="M155.919,209.688c0,0.312,0.255,0.567,0.567,0.567h127.052
				c0.312,0,0.567-0.255,0.567-0.567v-7.824c0-0.312-0.255-0.567-0.567-0.567H156.486c-0.312,0-0.567,0.255-0.567,0.567V209.688z"/>
		</g>
		<path style="fill:none;stroke:#3E3E3E;stroke-miterlimit:10;" d="M207.29,188.814c0.547,0.821,1.26,1.443,2.155,1.825
			c0.639,0.274,1.277,0.422,1.881,0.422c0.896,0,1.768-0.291,2.612-0.878c1.426-0.969,2.133-2.338,2.133-4.105
			c0-0.673-0.126-1.312-0.365-1.882c-0.49-1.243-1.368-2.133-2.555-2.646h-0.006c-0.622-0.257-1.243-0.399-1.859-0.399
			c-0.605,0-1.203,0.125-1.842,0.382c-0.091,0.057-0.239,0.125-0.439,0.216c-0.199,0.091-0.331,0.182-0.399,0.239
			c-0.239,0.165-0.473,0.348-0.713,0.605v0.017c-0.216,0.217-0.422,0.456-0.604,0.73c-0.166,0.257-0.331,0.547-0.439,0.855
			c-0.239,0.604-0.365,1.22-0.365,1.882c0,0.165,0,0.331,0.017,0.473C206.577,187.372,206.834,188.136,207.29,188.814z"/>
		<polygon style="fill:#DD6E45;stroke:#3E3E3E;stroke-miterlimit:10;" points="186.557,99.512 193.109,96.079 199.661,99.512 
			198.417,92.23 203.726,87.064 196.41,85.986 193.143,79.36 189.876,85.986 182.56,87.064 187.851,92.23 		"/>
		<g>
			<path style="fill:none;stroke:#3E3E3E;stroke-miterlimit:10;" d="M262.995,170.93c0,0.312,0.255,0.567,0.567,0.567h19.451
				c0.312,0,0.567-0.255,0.567-0.567v-42.368c0-0.312-0.255-0.567-0.567-0.567h-19.451c-0.312,0-0.567,0.255-0.567,0.567V170.93z
				 M268.047,133.237c0-0.312,0.255-0.567,0.567-0.567h9.324c0.312,0,0.567,0.255,0.567,0.567v9.159
				c0,0.312-0.255,0.567-0.567,0.567h-9.324c-0.312,0-0.567-0.255-0.567-0.567V133.237z"/>
		</g>
		<g>
			<path style="fill:#DD6E45;" d="M278.505,132.812c0-0.078-0.064-0.142-0.142-0.142h-10.174c-0.078,0-0.142,0.064-0.142,0.142
				v10.009c0,0.078,0.064,0.142,0.142,0.142h10.174c0.078,0,0.142-0.064,0.142-0.142V132.812z"/>
			<path style="fill:none;stroke:#3E3E3E;stroke-miterlimit:10;" d="M278.505,132.812c0-0.078-0.064-0.142-0.142-0.142h-10.174
				c-0.078,0-0.142,0.064-0.142,0.142v10.009c0,0.078,0.064,0.142,0.142,0.142h10.174c0.078,0,0.142-0.064,0.142-0.142V132.812z"/>
		</g>
		<g>
			<path style="fill:none;stroke:#3E3E3E;stroke-miterlimit:10;" d="M225.332,160.771v10.034c0,0.312,0.255,0.567,0.567,0.567h4.34
				c0.312,0,0.567-0.255,0.567-0.567V78.787c0-0.312-0.255-0.567-0.567-0.567h-20.364c-0.312,0-0.567,0.255-0.567,0.567v92.091
				c0,0.312,0.255,0.567,0.567,0.567h4.34c0.312,0,0.567-0.255,0.567-0.567v-0.799c0-0.312-0.003-0.822-0.007-1.134
				c0,0-0.067-5.512,0.064-8.556 M222.047,155.57c2.224,0.969,3.285,2.771,3.285,5.2 M214.84,160.389
				c0.165-3.866,3.849-6.312,7.207-4.819 M214.931,84.113c0-0.312,0.255-0.567,0.567-0.567h9.119c0.312,0,0.567,0.255,0.567,0.567
				v9.284c0,0.312-0.255,0.567-0.567,0.567h-9.119c-0.312,0-0.567-0.255-0.567-0.567V84.113z M215.481,143.014
				c-0.312,0-0.567-0.255-0.567-0.567v-9.176c0-0.312,0.255-0.567,0.567-0.567h9.119c0.312,0,0.567,0.255,0.568,0.567l0.015,9.176
				c0.001,0.312-0.254,0.567-0.566,0.567H215.481z M225.189,117.979c0,0.312-0.255,0.567-0.567,0.567h-9.142
				c-0.312,0-0.567-0.255-0.567-0.567v-9.284c0-0.312,0.255-0.567,0.567-0.567h9.142c0.312,0,0.567,0.255,0.567,0.567V117.979z"/>
		</g>
		<g>
			<path style="fill:none;stroke:#3E3E3E;stroke-miterlimit:10;" d="M214.914,118.404c0,0.078,0.064,0.142,0.142,0.142h9.992
				c0.078,0,0.142-0.064,0.142-0.142V108.27c0-0.078-0.064-0.142-0.142-0.142h-9.992c-0.078,0-0.142,0.064-0.142,0.142V118.404z"/>
		</g>
		<g>
			<path style="fill:none;stroke:#3E3E3E;stroke-miterlimit:10;" d="M225.184,83.688c0-0.078-0.064-0.142-0.142-0.142h-9.969
				c-0.078,0-0.142,0.064-0.142,0.142v10.134c0,0.078,0.064,0.142,0.142,0.142h9.969c0.078,0,0.142-0.064,0.142-0.142V83.688z"/>
		</g>
		<g>
			<path style="fill:#D8583D;" d="M215.056,132.704c-0.078,0-0.142,0.064-0.142,0.142v10.026c0,0.078,0.064,0.142,0.142,0.142h9.986
				c0.078,0,0.142-0.064,0.141-0.142l-0.017-10.026c0-0.078-0.064-0.142-0.142-0.142H215.056z"/>
			<path style="fill:none;stroke:#3E3E3E;stroke-miterlimit:10;" d="M215.056,132.704c-0.078,0-0.142,0.064-0.142,0.142v10.026
				c0,0.078,0.064,0.142,0.142,0.142h9.986c0.078,0,0.142-0.064,0.141-0.142l-0.017-10.026c0-0.078-0.064-0.142-0.142-0.142H215.056
				z"/>
		</g>
		<polygon style="fill:#DD6E45;stroke:#3E3E3E;stroke-miterlimit:10;" points="240.517,99.512 247.068,96.079 253.621,99.512 
			252.377,92.23 257.669,87.064 250.353,85.986 247.086,79.36 243.818,85.986 236.503,87.064 241.794,92.23 		"/>
		<polygon style="fill:#DD6E45;stroke:#3E3E3E;stroke-miterlimit:10;" points="276.281,109.964 273.014,103.338 269.729,109.981 
			262.413,111.059 267.705,116.225 266.445,123.49 272.996,120.057 279.549,123.49 278.305,116.208 283.597,111.042 		"/>
		<polygon style="fill:#D8583D;stroke:#3E3E3E;stroke-miterlimit:10;" points="212.234,74.268 212.234,74.28 219.932,70.248 
			227.63,74.28 226.153,65.721 232.374,59.642 223.764,58.399 219.915,50.587 216.066,58.376 207.455,59.619 213.677,65.675 		"/>
		<g>
			<path style="fill:none;stroke:#3E3E3E;stroke-miterlimit:10;" d="M257.322,103.878c-0.038-0.309-0.325-0.563-0.637-0.563
				l-19.411-0.016c-0.312,0-0.568-0.002-0.57-0.003c-0.002-0.002-0.003,0.252-0.003,0.564v67.218c0,0.312,0.255,0.567,0.567,0.567
				h19.543c0.312,0,0.567-0.255,0.567-0.567v-0.252c0-0.312,0.008-0.645,0.017-0.741c0.009-0.096,0-0.646,0-0.958
				c0,0-0.034-42.827-0.034-64.518C257.361,104.188,257.322,103.878,257.322,103.878z M241.811,108.672
				c0-0.312,0.255-0.567,0.567-0.567h9.142c0.312,0,0.567,0.255,0.567,0.567v9.284c0,0.312-0.255,0.567-0.567,0.567h-9.142
				c-0.312,0-0.567-0.255-0.567-0.567V108.672z M252.138,142.447c0,0.312-0.255,0.567-0.567,0.567h-9.176
				c-0.312,0-0.567-0.255-0.567-0.567v-9.267c0-0.312,0.255-0.567,0.567-0.567h9.176c0.312,0,0.567,0.255,0.567,0.567V142.447z"/>
		</g>
		<g>
			<path style="fill:none;stroke:#3E3E3E;stroke-miterlimit:10;" d="M252.086,108.247c0-0.078-0.064-0.142-0.142-0.142h-9.992
				c-0.078,0-0.142,0.064-0.142,0.142v10.134c0,0.078,0.064,0.142,0.142,0.142h9.992c0.078,0,0.142-0.064,0.142-0.142V108.247z"/>
		</g>
		<g>
			<path style="fill:none;stroke:#3E3E3E;stroke-miterlimit:10;" d="M241.828,142.872c0,0.078,0.064,0.142,0.142,0.142h10.026
				c0.078,0,0.142-0.064,0.142-0.142v-10.118c0-0.078-0.064-0.142-0.142-0.142H241.97c-0.078,0-0.142,0.064-0.142,0.142V142.872z"/>
		</g>
	</g>
</g>
<g id="Layer_1">
</g>
</svg>
