<?xml version="1.0" encoding="iso-8859-1"?>
<!-- Generator: Adobe Illustrator 21.0.0, SVG Export Plug-In . SVG Version: 6.00 Build 0)  -->
<svg version="1.1" xmlns="http://www.w3.org/2000/svg" xmlns:xlink="http://www.w3.org/1999/xlink" x="0px" y="0px"
	 viewBox="0 0 414 211" style="enable-background:new 0 0 414 211;" xml:space="preserve">
<g id="man">
	<g id="man_1_">
		<path style="fill:none;stroke:#3E3E3E;stroke-width:2;stroke-miterlimit:10;" d="M191.811,96.078
			c-0.934,2.02-1.697,3.212-2.63,4.118c-0.88,0.84-1.903,1.285-2.962,1.29h-0.002h-0.022c-0.727,0-1.327-0.222-1.772-0.464v34.781
			c0,1.876,1.521,3.395,3.395,3.395c1.875,0,3.396-1.519,3.396-3.395v-24.79h1.273v24.79c0,1.876,1.521,3.395,3.395,3.395
			c1.875,0,3.396-1.519,3.396-3.395v-32.093c-0.07,0.079-0.135,0.162-0.207,0.239c-2.317,2.51-5.764,3.893-9.702,3.893h-0.102
			c-0.467,0-0.953-0.018-1.443-0.053c-0.732-0.052-1.399-0.386-1.879-0.941c-0.48-0.554-0.716-1.263-0.663-1.994
			c0.102-1.43,1.304-2.551,2.737-2.551c0.065,0,0.132,0.002,0.198,0.007c0.365,0.026,0.719,0.039,1.051,0.039
			c3.324-0.027,4.846-1.17,5.802-2.163c1.345-1.42,1.974-3.421,2.263-4.848l0.522,0.178c-0.383,1.84-1.133,3.722-2.39,5.05
			c-1.285,1.334-3.029,2.305-6.198,2.33c-0.347,0-0.71-0.013-1.09-0.041c-1.211-0.087-2.262,0.824-2.349,2.035
			c-0.086,1.21,0.824,2.261,2.035,2.348h0c0.48,0.034,0.948,0.052,1.404,0.052c0.034,0,0.068,0,0.102,0
			c4.106,0,7.271-1.52,9.3-3.718c1.88-2.015,2.843-4.432,3.366-6.625c0.043-0.182,0.085-0.363,0.122-0.542
			c0.005-0.023,0.012-0.044,0.016-0.068c0.374-1.831,0.456-3.484,0.458-4.651c0-1.022-0.065-1.671-0.071-1.731
			c-0.116-1.121-1.058-1.971-2.185-1.971h-2.883c-0.057,0-0.113,0.004-0.168,0.009c-0.056-0.005-0.111-0.009-0.168-0.009h-2.53
			c-0.013,0.211-0.048,0.423-0.112,0.634C193.559,91.737,192.676,94.177,191.811,96.078z"/>
		<path style="fill:none;stroke:#3E3E3E;stroke-width:2;stroke-miterlimit:10;" d="M191.885,85.071c0.271,0,0.542,0.04,0.804,0.121
			c0.523,0.16,0.962,0.464,1.29,0.853c2.363-0.868,4.049-3.137,4.049-5.802c0-3.412-2.766-6.179-6.179-6.179
			s-6.179,2.766-6.179,6.179c0,2.683,1.711,4.966,4.1,5.819C190.28,85.446,191.044,85.071,191.885,85.071z"/>
		<path style="fill:none;stroke:#3E3E3E;stroke-width:2;stroke-miterlimit:10;" d="M181.934,95.935
			c0.244,0.939,0.545,1.905,1.053,2.822c0.243,0.426,0.533,0.855,0.967,1.257c0.04,0.037,0.079,0.074,0.121,0.11
			c0.485,0.424,1.254,0.813,2.119,0.813c0.007,0,0.014,0,0.021,0c1.09-0.005,1.96-0.541,2.582-1.136
			c0.949-0.92,1.676-2.142,2.512-3.951c0.822-1.807,1.701-4.201,2.677-7.391c0.355-1.161-0.299-2.389-1.459-2.743
			c-1.161-0.355-2.388,0.298-2.743,1.459h-0.001c-1.246,4.088-2.318,6.717-3.128,8.165c-0.074,0.134-0.145,0.258-0.214,0.371
			c-0.072-0.211-0.14-0.441-0.202-0.676l0.343-0.748c0.578-1.192,1.377-3.145,2.373-6.301h-2.413c-0.057,0-0.113,0.004-0.168,0.009
			c-0.056-0.004-0.111-0.009-0.168-0.009h-2.883c-0.604,0-1.177,0.246-1.593,0.683c-0.416,0.437-0.632,1.022-0.602,1.625
			c0.01,0.072,0.14,3,0.792,5.607C181.926,95.913,181.931,95.924,181.934,95.935z"/>
	</g>
</g>
<g id="Layer_1">
</g>
</svg>
