<?xml version="1.0" encoding="iso-8859-1"?>
<!-- Generator: Adobe Illustrator 21.0.0, SVG Export Plug-In . SVG Version: 6.00 Build 0)  -->
<svg version="1.1" xmlns="http://www.w3.org/2000/svg" xmlns:xlink="http://www.w3.org/1999/xlink" x="0px" y="0px"
	 viewBox="0 0 414 211" style="enable-background:new 0 0 414 211;" xml:space="preserve">
<g id="map">
	<g id="map_1_">
		<path style="fill:none;" d="M126.709,147.132c0.201-0.008,0.381-0.18,0.422-0.377c0.241-1.142,1.006-2.129,2.082-2.634
			c0.182-0.085,0.287-0.292,0.224-0.484l-0.983-3.008c-0.064-0.193-0.274-0.379-0.471-0.42l-2.775-0.556l0,0.001
			c-0.197-0.041-0.331,0.091-0.317,0.291c0.039,0.562-0.024,1.242-0.372,1.897c-0.43,0.81-1.209,1.402-2.317,1.771
			c-0.193,0.063-0.3,0.261-0.241,0.454l0.916,2.897c0.063,0.193,0.276,0.341,0.476,0.33L126.709,147.132z"/>
		<path style="fill:none;" d="M124.193,141.668c0.328-0.618,0.369-1.276,0.318-1.802c-0.021-0.198-0.212-0.392-0.409-0.432
			l-3.622-0.722c-0.197-0.037-0.307,0.083-0.241,0.275l0,0.001l1.375,4.034c0.067,0.192,0.275,0.304,0.468,0.241
			C123.099,142.925,123.805,142.392,124.193,141.668z"/>
		<path style="fill:none;" d="M130.195,144.567c-1.621,0.333-2.67,1.925-2.336,3.549c0.334,1.624,1.926,2.673,3.547,2.339
			c1.624-0.334,2.672-1.929,2.339-3.55C133.41,145.282,131.818,144.233,130.195,144.567z M131.169,149.31
			c-0.99,0.204-1.961-0.434-2.165-1.426c-0.204-0.993,0.436-1.964,1.426-2.168c0.993-0.204,1.964,0.432,2.168,1.429
			C132.802,148.134,132.162,149.106,131.169,149.31z"/>
		<path style="fill:none;" d="M130.385,143.426c0.062,0.19,0.274,0.332,0.476,0.334c0.267,0.002,0.534,0.035,0.789,0.097
			c0.195,0.047,0.406-0.053,0.461-0.247c0.354-1.246,0.476-3.248,0.477-3.271l0.004-0.062c0.003-0.034,0.159-0.113,0.351-0.18
			l4.517-1.549c0.192-0.067,0.327-0.28,0.306-0.481l-0.415-3.756c-0.024-0.197-0.172-0.261-0.332-0.14l-7.452,5.646
			c-0.16,0.124-0.239,0.376-0.177,0.562L130.385,143.426z"/>
		<path style="fill:none;" d="M146.561,139.199l-7.375-0.332c-0.201-0.009-0.344,0.146-0.32,0.346l0.503,4.02
			c0.028,0.2,0.21,0.352,0.409,0.334l7.068-0.587c0.203-0.014,0.352-0.19,0.338-0.393l-0.231-3.008
			C146.938,139.377,146.762,139.208,146.561,139.199z"/>
		<path style="fill:none;" d="M138.74,138.122c0.021,0.201,0.2,0.37,0.401,0.379l7.389,0.332c0.2,0.005,0.35-0.147,0.336-0.349
			l-0.275-3.582c-0.015-0.202-0.189-0.39-0.387-0.423l-7.62-1.212c-0.2-0.034-0.343,0.104-0.322,0.305l0.001,0.001L138.74,138.122z"
			/>
		<path style="fill:none;" d="M137.505,138.934l-4.202,1.444c-0.19,0.062-0.358,0.279-0.373,0.481
			c-0.06,0.693-0.2,1.977-0.466,2.898c-0.058,0.194,0.034,0.411,0.21,0.513c0.44,0.254,0.828,0.599,1.135,1.011
			c0.121,0.164,0.357,0.247,0.546,0.178l3.815-1.402c0.188-0.068,0.318-0.288,0.294-0.488l-0.57-4.395l0.001,0.001
			C137.87,138.974,137.693,138.865,137.505,138.934z"/>
		<path style="fill:none;" d="M128.156,150.659c0.129-0.155,0.106-0.386-0.035-0.529c-0.487-0.497-0.843-1.132-0.993-1.863
			c-0.007-0.032-0.013-0.062-0.016-0.095c-0.011-0.052-0.18-0.087-0.38-0.077l-3.299,0.162c-0.2,0.012-0.351,0.181-0.332,0.382
			l0.653,7.717c0.017,0.202,0.195,0.361,0.397,0.357l2.389-0.042c0.201-0.005,0.356-0.168,0.348-0.372l-0.172-3.512
			c-0.011-0.2,0.085-0.49,0.215-0.645L128.156,150.659z"/>
		<path style="fill:none;" d="M130.842,151.259c-0.656,0.006-1.288-0.16-1.843-0.464c-0.178-0.095-0.414-0.064-0.544,0.092
			l-1.146,1.382c-0.127,0.155-0.226,0.445-0.215,0.645l0.162,3.379c0.011,0.203,0.182,0.364,0.384,0.359l3.724-0.064
			c0.201-0.005,0.35-0.17,0.328-0.371l0.001-0.001l-0.449-4.615C131.222,151.4,131.044,151.258,130.842,151.259z"/>
		<path style="fill:none;" d="M147.436,144.26c-0.067-0.192-0.278-0.334-0.481-0.319l-6.816,0.522
			c-0.199,0.015-0.381,0.035-0.402,0.043c-0.022,0.008,0.009,0.17,0.068,0.363l2.292,7.456c0.06,0.194,0.271,0.349,0.474,0.352
			l2.202,0.019c0.203,0.003,0.315-0.152,0.256-0.346l-1.698-5.39c-0.063-0.193,0.051-0.36,0.253-0.379l2.865-0.238
			c0.202-0.017,0.388,0.049,0.415,0.148c0.031,0.099-0.109,0.191-0.311,0.209l-2.471,0.215c-0.202,0.017-0.316,0.186-0.256,0.379
			l1.592,5.068c0.06,0.193,0.275,0.351,0.475,0.358l4.035,0.094l-0.001-0.002c0.2,0.006,0.315-0.146,0.245-0.334L147.436,144.26z"/>
		<path style="fill:none;" d="M140.192,149.348c-0.06-0.194-0.266-0.31-0.46-0.253c-1.687,0.488-2.856,1.315-3.469,2.467
			c-0.64,1.201-0.544,2.503-0.375,3.328c0.041,0.197,0.235,0.292,0.422,0.217l4.684-1.931l0.001,0
			c0.187-0.075,0.287-0.295,0.23-0.489L140.192,149.348z"/>
		<path style="fill:none;" d="M135.935,151.39c0.658-1.241,1.902-2.131,3.684-2.649c0.191-0.056,0.302-0.251,0.243-0.444
			l-0.957-3.094c-0.06-0.193-0.263-0.294-0.451-0.224l-3.712,1.367c-0.188,0.069-0.322,0.187-0.302,0.268l0.033,0.145
			c0.349,1.695-0.513,3.36-1.989,4.101c-0.177,0.091-0.318,0.309-0.297,0.51l0.474,4.832c0.017,0.199,0.055,0.363,0.077,0.361
			c0.024,0.001,0.192-0.064,0.379-0.139l2.166-0.894l0.001,0c0.186-0.078,0.293-0.296,0.25-0.493
			C135.345,154.162,135.22,152.735,135.935,151.39z"/>
		<polygon style="fill:#3E3E3E;" points="139.369,143.234 139.369,143.233 139.369,143.233 		"/>
		
			<ellipse transform="matrix(0.9795 -0.2014 0.2014 0.9795 -27.0286 29.3653)" style="fill:#228C4D;" cx="130.8" cy="147.514" rx="1.835" ry="1.835"/>
		<g>
			
				<ellipse transform="matrix(0.9795 -0.2014 0.2014 0.9795 -27.0277 29.3649)" style="fill:none;" cx="130.801" cy="147.511" rx="3.004" ry="3.006"/>
			<path style="fill:none;" d="M137.505,138.934l-4.202,1.444c-0.19,0.062-0.358,0.279-0.373,0.481
				c-0.06,0.693-0.2,1.977-0.466,2.898c-0.058,0.194,0.034,0.411,0.21,0.513c0.44,0.254,0.828,0.599,1.135,1.011
				c0.121,0.164,0.357,0.247,0.546,0.178l3.815-1.402c0.188-0.068,0.318-0.288,0.294-0.488l-0.57-4.395l0.001,0.001
				C137.87,138.974,137.693,138.865,137.505,138.934z"/>
			<path style="fill:none;" d="M130.385,143.426c0.062,0.19,0.274,0.332,0.476,0.334c0.267,0.002,0.534,0.035,0.789,0.097
				c0.195,0.047,0.406-0.053,0.461-0.247c0.354-1.246,0.476-3.248,0.477-3.271l0.004-0.062c0.003-0.034,0.159-0.113,0.351-0.18
				l4.517-1.549c0.192-0.067,0.327-0.28,0.306-0.481l-0.415-3.756c-0.024-0.197-0.172-0.261-0.332-0.14l-7.452,5.646
				c-0.16,0.124-0.239,0.376-0.177,0.562L130.385,143.426z"/>
			<path style="fill:none;" d="M146.561,139.199l-7.375-0.332c-0.201-0.009-0.344,0.146-0.32,0.346l0.503,4.02
				c0.028,0.2,0.21,0.352,0.409,0.334l7.068-0.587c0.203-0.014,0.352-0.19,0.338-0.393l-0.231-3.008
				C146.938,139.377,146.762,139.208,146.561,139.199z"/>
			<polygon style="fill:none;" points="139.369,143.234 139.369,143.233 139.369,143.233 			"/>
			<path style="fill:none;" d="M124.193,141.668c0.328-0.618,0.369-1.276,0.318-1.802c-0.021-0.198-0.212-0.392-0.409-0.432
				l-3.622-0.722c-0.197-0.037-0.307,0.083-0.241,0.275l0,0.001l1.375,4.034c0.067,0.192,0.275,0.304,0.468,0.241
				C123.099,142.925,123.805,142.392,124.193,141.668z"/>
			<path style="fill:none;" d="M138.74,138.122c0.021,0.201,0.2,0.37,0.401,0.379l7.389,0.332c0.2,0.005,0.35-0.147,0.336-0.349
				l-0.275-3.582c-0.015-0.202-0.189-0.39-0.387-0.423l-7.62-1.212c-0.2-0.034-0.343,0.104-0.322,0.305l0.001,0.001L138.74,138.122z
				"/>
			<path style="fill:none;" d="M147.436,144.26c-0.067-0.192-0.278-0.334-0.481-0.319l-6.816,0.522
				c-0.199,0.015-0.381,0.035-0.402,0.043c-0.022,0.008,0.009,0.17,0.068,0.363l2.292,7.456c0.06,0.194,0.271,0.349,0.474,0.352
				l2.202,0.019c0.203,0.003,0.315-0.152,0.256-0.346l-1.698-5.39c-0.063-0.193,0.051-0.36,0.253-0.379l2.865-0.238
				c0.202-0.017,0.388,0.049,0.415,0.148c0.031,0.099-0.109,0.191-0.311,0.209l-2.471,0.215c-0.202,0.017-0.316,0.186-0.256,0.379
				l1.592,5.068c0.06,0.193,0.275,0.351,0.475,0.358l4.035,0.094l-0.001-0.002c0.2,0.006,0.315-0.146,0.245-0.334L147.436,144.26z"
				/>
			<path style="fill:none;" d="M140.192,149.348c-0.06-0.194-0.266-0.31-0.46-0.253c-1.687,0.488-2.856,1.315-3.469,2.467
				c-0.64,1.201-0.544,2.503-0.375,3.328c0.041,0.197,0.235,0.292,0.422,0.217l4.684-1.931l0.001,0
				c0.187-0.075,0.287-0.295,0.23-0.489L140.192,149.348z"/>
			<path style="fill:none;" d="M126.709,147.132c0.201-0.008,0.381-0.18,0.422-0.377c0.241-1.142,1.006-2.129,2.082-2.634
				c0.182-0.085,0.287-0.292,0.224-0.484l-0.983-3.008c-0.064-0.193-0.274-0.379-0.471-0.42l-2.775-0.556l0,0.001
				c-0.197-0.041-0.331,0.091-0.317,0.291c0.039,0.562-0.024,1.242-0.372,1.897c-0.43,0.81-1.209,1.402-2.317,1.771
				c-0.193,0.063-0.3,0.261-0.241,0.454l0.916,2.897c0.063,0.193,0.276,0.341,0.476,0.33L126.709,147.132z"/>
			<path style="fill:none;" d="M130.842,151.259c-0.656,0.006-1.288-0.16-1.843-0.464c-0.178-0.095-0.414-0.064-0.544,0.092
				l-1.146,1.382c-0.127,0.155-0.226,0.445-0.215,0.645l0.162,3.379c0.011,0.203,0.182,0.364,0.384,0.359l3.724-0.064
				c0.201-0.005,0.35-0.17,0.328-0.371l0.001-0.001l-0.449-4.615C131.222,151.4,131.044,151.258,130.842,151.259z"/>
			<path style="fill:none;" d="M128.156,150.659c0.129-0.155,0.106-0.386-0.035-0.529c-0.487-0.497-0.843-1.132-0.993-1.863
				c-0.007-0.032-0.013-0.062-0.016-0.095c-0.011-0.052-0.18-0.087-0.38-0.077l-3.299,0.162c-0.2,0.012-0.351,0.181-0.332,0.382
				l0.653,7.717c0.017,0.202,0.195,0.361,0.397,0.357l2.389-0.042c0.201-0.005,0.356-0.168,0.348-0.372l-0.172-3.512
				c-0.011-0.2,0.085-0.49,0.215-0.645L128.156,150.659z"/>
			<path style="fill:none;" d="M135.935,151.39c0.658-1.241,1.902-2.131,3.684-2.649c0.191-0.056,0.302-0.251,0.243-0.444
				l-0.957-3.094c-0.06-0.193-0.263-0.294-0.451-0.224l-3.712,1.367c-0.188,0.069-0.322,0.187-0.302,0.268l0.033,0.145
				c0.349,1.695-0.513,3.36-1.989,4.101c-0.177,0.091-0.318,0.309-0.297,0.51l0.474,4.832c0.017,0.199,0.055,0.363,0.077,0.361
				c0.024,0.001,0.192-0.064,0.379-0.139l2.166-0.894l0.001,0c0.186-0.078,0.293-0.296,0.25-0.493
				C135.345,154.162,135.22,152.735,135.935,151.39z"/>
			<path style="fill:#27AE60;stroke:#228C4D;stroke-width:0.25;stroke-miterlimit:10;" d="M151.526,153.476l-3.185-9.569
				l0.001-0.002c-0.063-0.193-0.128-0.51-0.143-0.709l-0.699-9.126c-0.014-0.203-0.188-0.389-0.387-0.423l-8.699-1.404
				c-0.199-0.033-0.491,0.04-0.652,0.161l-8.875,6.725c-0.161,0.12-0.45,0.187-0.65,0.15l-9.212-1.835
				c-0.197-0.041-0.306,0.083-0.244,0.276l3.11,9.302c0.063,0.193,0.128,0.51,0.146,0.709l0.835,9.604
				c0.018,0.202,0.195,0.361,0.397,0.357l9.348-0.162c0.201-0.005,0.515-0.069,0.702-0.144l8.839-3.641
				c0.187-0.075,0.501-0.137,0.701-0.131l8.418,0.202C151.475,153.82,151.588,153.669,151.526,153.476z M147.184,142.587
				c0.014,0.203-0.135,0.379-0.338,0.393l-7.068,0.587c-0.199,0.018-0.381-0.134-0.409-0.334l0,0.001l0-0.001c0,0,0,0,0,0
				l-0.503-4.02c-0.024-0.2,0.119-0.355,0.32-0.346l7.375,0.332c0.201,0.009,0.377,0.179,0.392,0.381L147.184,142.587z
				 M138.584,133.266l7.62,1.212c0.199,0.033,0.372,0.221,0.387,0.423l0.275,3.582c0.014,0.203-0.136,0.355-0.336,0.349
				l-7.389-0.332c-0.201-0.009-0.38-0.178-0.401-0.379l-0.477-4.549l-0.001-0.001C138.241,133.371,138.384,133.233,138.584,133.266z
				 M138.463,143.569c0.024,0.2-0.105,0.42-0.294,0.488l-3.815,1.402c-0.188,0.069-0.424-0.014-0.546-0.178
				c-0.307-0.412-0.695-0.757-1.135-1.011c-0.176-0.102-0.268-0.319-0.21-0.513c0.266-0.921,0.407-2.205,0.466-2.898
				c0.015-0.202,0.184-0.419,0.373-0.481l4.202-1.444c0.188-0.069,0.365,0.04,0.39,0.24l-0.001-0.001L138.463,143.569z
				 M131.405,150.455c-1.621,0.333-3.213-0.716-3.547-2.339c-0.334-1.624,0.715-3.216,2.336-3.549
				c1.624-0.334,3.216,0.715,3.549,2.339C134.077,148.527,133.029,150.122,131.405,150.455z M129.568,139.817l7.452-5.646
				c0.161-0.12,0.309-0.057,0.332,0.14l0.415,3.756c0.021,0.201-0.114,0.414-0.306,0.481l-4.517,1.549
				c-0.192,0.067-0.347,0.145-0.351,0.18l-0.004,0.062c-0.002,0.023-0.123,2.025-0.477,3.271c-0.055,0.194-0.266,0.294-0.461,0.247
				c-0.255-0.062-0.522-0.095-0.789-0.097c-0.203-0.003-0.414-0.145-0.476-0.334l-0.994-3.047
				C129.329,140.193,129.408,139.94,129.568,139.817z M121.614,143.021l-1.375-4.034l0-0.001c-0.067-0.192,0.043-0.312,0.241-0.275
				l3.622,0.722c0.197,0.041,0.389,0.234,0.409,0.432c0.051,0.526,0.011,1.184-0.318,1.802c-0.388,0.724-1.094,1.257-2.111,1.594
				C121.889,143.325,121.681,143.213,121.614,143.021z M122.878,146.966l-0.916-2.897c-0.06-0.193,0.048-0.391,0.241-0.454
				c1.108-0.369,1.887-0.961,2.317-1.771c0.348-0.655,0.41-1.335,0.372-1.897c-0.014-0.2,0.121-0.331,0.317-0.291l0-0.001
				l2.775,0.556c0.197,0.041,0.407,0.226,0.471,0.42l0.983,3.008c0.063,0.193-0.042,0.4-0.224,0.484
				c-1.076,0.505-1.841,1.491-2.082,2.634c-0.041,0.197-0.221,0.369-0.422,0.377l-3.355,0.164
				C123.154,147.307,122.941,147.159,122.878,146.966z M126.887,156.298c0.008,0.204-0.147,0.367-0.348,0.372l-2.389,0.042
				c-0.201,0.005-0.38-0.155-0.397-0.357l-0.653-7.717c-0.018-0.202,0.132-0.371,0.332-0.382l3.299-0.162
				c0.2-0.011,0.37,0.025,0.38,0.077c0.004,0.033,0.01,0.062,0.016,0.095c0.15,0.731,0.506,1.366,0.993,1.863
				c0.141,0.143,0.164,0.374,0.035,0.529l-1.226,1.483c-0.13,0.155-0.226,0.445-0.215,0.645L126.887,156.298z M131.692,156.218
				c0.021,0.201-0.127,0.367-0.328,0.371l-3.724,0.064c-0.201,0.005-0.373-0.156-0.384-0.359l-0.162-3.379
				c-0.011-0.2,0.088-0.49,0.215-0.645l1.146-1.382c0.13-0.155,0.366-0.187,0.544-0.092c0.555,0.304,1.186,0.471,1.843,0.464
				c0.202-0.002,0.38,0.141,0.401,0.342l0.449,4.615L131.692,156.218z M135.285,155.529l-0.001,0l-2.166,0.894
				c-0.187,0.075-0.356,0.141-0.379,0.139c-0.023,0.002-0.061-0.162-0.077-0.361l-0.474-4.832c-0.021-0.201,0.119-0.419,0.297-0.51
				c1.477-0.742,2.338-2.406,1.989-4.101l-0.033-0.145c-0.02-0.08,0.114-0.198,0.302-0.268l3.712-1.367
				c0.188-0.069,0.391,0.031,0.451,0.224l0.957,3.094c0.06,0.193-0.052,0.388-0.243,0.444c-1.782,0.518-3.026,1.408-3.684,2.649
				c-0.715,1.344-0.59,2.772-0.4,3.646C135.579,155.233,135.472,155.451,135.285,155.529z M140.995,153.175l-0.001,0l-4.684,1.931
				c-0.187,0.075-0.381-0.02-0.422-0.217c-0.17-0.825-0.265-2.127,0.375-3.328c0.613-1.151,1.782-1.979,3.469-2.467
				c0.194-0.057,0.4,0.059,0.46,0.253l1.034,3.339C141.283,152.88,141.182,153.1,140.995,153.175z M149.926,152.813l0.001,0.002
				l-4.035-0.094c-0.2-0.006-0.415-0.164-0.475-0.358l-1.592-5.068c-0.06-0.193,0.054-0.362,0.256-0.379l2.471-0.215
				c0.202-0.018,0.342-0.11,0.311-0.209c-0.027-0.099-0.213-0.165-0.415-0.148l-2.865,0.238c-0.202,0.018-0.316,0.186-0.253,0.379
				l1.698,5.39c0.06,0.193-0.053,0.348-0.256,0.346l-2.202-0.019c-0.203-0.003-0.414-0.157-0.474-0.352l-2.292-7.456
				c-0.06-0.193-0.09-0.356-0.068-0.363c0.022-0.008,0.203-0.028,0.402-0.043l6.816-0.522c0.203-0.014,0.414,0.128,0.481,0.319
				l2.735,8.219C150.24,152.667,150.126,152.819,149.926,152.813z"/>
		</g>
	</g>
	<g id="backpack">
		<path style="fill:#228C4D;" d="M88.211,167.67c1.209,0.303,2.44-0.435,2.743-1.644l1.245-4.973
			c0.303-1.209-0.435-2.44-1.644-2.743l-1.255-0.314l-2.097,8.375l-0.985-0.247l2.097-8.375l-16.75-4.194l-2.097,8.375l-0.985-0.247
			l2.097-8.375l-1.255-0.314c-1.209-0.303-2.44,0.435-2.743,1.644l-1.245,4.973c-0.303,1.209,0.435,2.44,1.644,2.743l1.255,0.314
			l-1.245,4.971c-0.586-0.046-1.158,0.081-1.657,0.344l0.437-1.744c0.068-0.272-0.097-0.548-0.369-0.616
			c-0.272-0.068-0.548,0.097-0.616,0.369l-0.384,1.532c-0.466-0.797-1.238-1.415-2.203-1.656c-0.272-0.068-0.548,0.097-0.616,0.369
			c-0.068,0.272,0.097,0.548,0.369,0.616c1.189,0.298,1.972,1.395,1.92,2.575l-1.921-0.481l-0.74,2.956l-0.985-0.247l-1.249,4.988
			c-0.4,1.596,0.574,3.219,2.17,3.619l2.542,0.637c-0.187,1.122,0.507,2.221,1.629,2.502l14.44,3.616
			c1.122,0.281,2.253-0.362,2.616-1.439l2.542,0.637c1.596,0.4,3.219-0.574,3.619-2.17l1.002-4.003l0.247-0.985l1.222-4.88
			c0.142-0.569-0.204-1.147-0.773-1.29l-1.385-0.347c-0.569-0.142-1.147,0.204-1.29,0.773l-0.235,0.939l-1.971-0.493l1.604-6.404
			L88.211,167.67z M74.134,157.928c0.213-0.849,1.076-1.367,1.925-1.154l6.774,1.696c0.849,0.213,1.367,1.076,1.154,1.925
			l-0.231,0.924l-0.985-0.247l0.231-0.924c0.077-0.305-0.11-0.616-0.415-0.693l-6.774-1.696c-0.305-0.076-0.617,0.11-0.693,0.415
			l-0.231,0.924l-0.985-0.247L74.134,157.928z M71.517,164.199l0.167-0.667l0.247-0.985l0.66-2.638
			c0.044-0.175,0.223-0.282,0.398-0.239l0.667,0.167l9.853,2.467l0.667,0.167c0.175,0.044,0.282,0.223,0.239,0.398l-0.66,2.638
			l-0.247,0.985l-0.167,0.667c-0.044,0.175-0.223,0.282-0.398,0.239l-0.174-0.044l-2.956-0.74l-4.926-1.234l-2.956-0.74
			l-0.174-0.044C71.58,164.553,71.473,164.374,71.517,164.199z M82.029,168.216l-1.069,4.27l-1.314,1.067l-0.656-1.56l1.069-4.27
			L82.029,168.216z M74.147,166.242l-1.069,4.27l-1.314,1.067l-0.656-1.56l1.069-4.27L74.147,166.242z M66.738,168.65l-0.353,1.408
			l-1.408-0.353C65.329,169.061,66.004,168.657,66.738,168.65z M62.197,172.15l0.493-1.971l3.448,0.863l-0.493,1.971L62.197,172.15z
			 M88.308,174.5l0.235-0.939c0.006-0.026,0.032-0.041,0.058-0.035l1.385,0.347c0.026,0.006,0.041,0.032,0.035,0.058l-1.222,4.88
			l-1.478-0.37L88.308,174.5z M87.076,175.239l-0.74,2.956l-1.971-0.493l0.74-2.956L87.076,175.239z M84.367,173.513l-0.987,3.941
			l-0.247,0.985l-1.685,6.727c-0.16,0.637-0.807,1.025-1.444,0.866l-14.44-3.616c-0.637-0.16-1.025-0.807-0.866-1.444l1.685-6.727
			l0.247-0.985l0.74-2.956l1.85-7.39l1.478,0.37l-0.167,0.667c-0.152,0.608,0.141,1.222,0.67,1.506l-1.121,4.478
			c-0.027,0.106-0.018,0.219,0.025,0.32l0.984,2.341c0.062,0.147,0.19,0.257,0.345,0.296c0.155,0.039,0.319,0.002,0.443-0.098
			l1.971-1.6c0.085-0.069,0.146-0.165,0.173-0.271l1.11-4.434l3.941,0.987l-1.11,4.434c-0.027,0.106-0.018,0.219,0.025,0.32
			l0.985,2.341c0.062,0.147,0.19,0.257,0.345,0.296c0.155,0.039,0.319,0.002,0.443-0.098l1.971-1.6
			c0.085-0.069,0.146-0.165,0.173-0.271l1.121-4.478c0.6-0.001,1.148-0.405,1.301-1.013l0.167-0.667l1.478,0.37L84.367,173.513z"/>
		<path style="fill:none;stroke:#27AE60;stroke-width:0.25;stroke-miterlimit:10;" d="M71.763,171.579l1.314-1.067l1.069-4.27
			l-1.971-0.493l-1.069,4.27L71.763,171.579z M72.052,168.335c0.068-0.272,0.344-0.437,0.616-0.369
			c0.272,0.068,0.437,0.344,0.369,0.616c-0.068,0.272-0.344,0.437-0.616,0.369C72.149,168.883,71.984,168.607,72.052,168.335z"/>
		<path style="fill:none;stroke:#27AE60;stroke-width:0.25;stroke-miterlimit:10;" d="M66.738,168.65
			c-0.734,0.007-1.409,0.411-1.761,1.055l1.408,0.353L66.738,168.65z"/>
		<path style="fill:none;stroke:#27AE60;stroke-width:0.25;stroke-miterlimit:10;" d="M79.646,173.552l1.314-1.067l1.069-4.27
			l-1.971-0.493l-1.069,4.27L79.646,173.552z M79.934,170.309c0.068-0.272,0.344-0.437,0.616-0.369
			c0.272,0.068,0.437,0.344,0.369,0.616c-0.068,0.272-0.344,0.437-0.616,0.369C80.032,170.857,79.866,170.581,79.934,170.309z"/>
		<path style="fill:none;stroke:#27AE60;stroke-width:0.25;stroke-miterlimit:10;" d="M90.021,173.931
			c0.006-0.026-0.009-0.051-0.035-0.058l-1.385-0.347c-0.026-0.006-0.051,0.009-0.058,0.035l-0.235,0.939l-0.987,3.941l1.478,0.37
			L90.021,173.931z"/>
		<path style="fill:none;stroke:#27AE60;stroke-width:0.25;stroke-miterlimit:10;" d="M71.756,164.597l0.174,0.044l2.956,0.74
			l4.926,1.234l2.956,0.74l0.174,0.044c0.175,0.044,0.354-0.063,0.398-0.239l0.167-0.667l0.247-0.985l0.66-2.638
			c0.044-0.175-0.063-0.354-0.239-0.398l-0.667-0.167l-9.853-2.467l-0.667-0.167c-0.175-0.044-0.354,0.063-0.398,0.239l-0.66,2.638
			l-0.247,0.985l-0.167,0.667C71.473,164.374,71.58,164.553,71.756,164.597z M74.344,163.363l0.347-1.385
			c0.108-0.433,0.549-0.697,0.982-0.589l4.834,1.21c0.433,0.108,0.697,0.549,0.589,0.982l-0.347,1.385
			c-0.108,0.433-0.549,0.697-0.982,0.589l-4.834-1.21C74.5,164.237,74.236,163.796,74.344,163.363z"/>
		<path style="fill:none;stroke:#27AE60;stroke-width:0.25;stroke-miterlimit:10;" d="M75.12,158.175
			c0.076-0.305,0.388-0.492,0.693-0.415l6.774,1.696c0.305,0.077,0.492,0.388,0.415,0.693l-0.231,0.924l0.985,0.247l0.231-0.924
			c0.213-0.849-0.305-1.712-1.154-1.925l-6.774-1.696c-0.849-0.213-1.712,0.305-1.925,1.154l-0.231,0.924l0.985,0.247L75.12,158.175
			z"/>
		<path style="fill:none;stroke:#27AE60;stroke-width:0.25;stroke-miterlimit:10;" d="M84.326,167.406
			c-0.152,0.608-0.7,1.011-1.301,1.013l-1.121,4.478c-0.027,0.106-0.087,0.202-0.173,0.271l-1.971,1.6
			c-0.124,0.101-0.288,0.137-0.443,0.098c-0.155-0.039-0.283-0.148-0.345-0.296l-0.985-2.341c-0.043-0.101-0.051-0.214-0.025-0.32
			l1.11-4.434l-3.941-0.987l-1.11,4.434c-0.027,0.106-0.087,0.202-0.173,0.271l-1.971,1.6c-0.124,0.101-0.288,0.137-0.443,0.098
			c-0.155-0.039-0.283-0.148-0.345-0.296l-0.984-2.341c-0.043-0.101-0.051-0.214-0.025-0.32l1.121-4.478
			c-0.529-0.284-0.822-0.898-0.67-1.506l0.167-0.667l-1.478-0.37l-1.85,7.39l-0.74,2.956l-0.247,0.985l-1.685,6.727
			c-0.159,0.637,0.229,1.284,0.866,1.444l14.44,3.616c0.637,0.159,1.284-0.229,1.444-0.866l1.685-6.727l0.247-0.985l0.987-3.941
			l1.604-6.404l-1.478-0.37L84.326,167.406z M80.576,182.38c-0.289,1.154-1.464,1.858-2.618,1.569l-9.606-2.405
			c-1.154-0.289-1.858-1.464-1.569-2.618l0.339-1.355l3.448,0.863l-0.247,0.985c-0.068,0.272,0.097,0.548,0.369,0.616
			c0.272,0.068,0.548-0.097,0.616-0.369l0.247-0.985l9.36,2.344L80.576,182.38z M81.448,178.901l-0.285,1.139l-13.794-3.454
			l0.285-1.139c0.183-0.73,0.925-1.176,1.655-0.993l11.146,2.791C81.185,177.428,81.631,178.171,81.448,178.901z"/>
		<path style="fill:#27AE60;stroke:#228C4D;stroke-width:0.25;stroke-miterlimit:10;" d="M80.455,177.245l-11.146-2.791
			c-0.73-0.183-1.472,0.263-1.655,0.993l-0.285,1.139l13.794,3.454l0.285-1.139C81.631,178.171,81.185,177.428,80.455,177.245z"/>
		<path style="fill:#27AE60;stroke:#228C4D;stroke-width:0.25;stroke-miterlimit:10;" d="M71.309,179.667
			c-0.068,0.272-0.344,0.437-0.616,0.369c-0.272-0.068-0.437-0.344-0.369-0.616l0.247-0.985l-3.448-0.863l-0.339,1.355
			c-0.289,1.154,0.415,2.329,1.569,2.618l9.606,2.405c1.154,0.289,2.329-0.415,2.618-1.569l0.339-1.355l-9.36-2.344L71.309,179.667z
			"/>
		
			<ellipse transform="matrix(0.2429 -0.97 0.97 0.2429 -108.4904 197.9108)" style="fill:#27AE60;stroke:#228C4D;stroke-width:0.25;stroke-miterlimit:10;" cx="72.545" cy="168.459" rx="0.508" ry="0.508"/>
		
			<ellipse transform="matrix(0.2429 -0.9701 0.9701 0.2429 -104.4371 207.0531)" style="fill:#27AE60;stroke:#228C4D;stroke-width:0.25;stroke-miterlimit:10;" cx="80.427" cy="170.433" rx="0.508" ry="0.508"/>
		<path style="fill:#27AE60;stroke:#228C4D;stroke-width:0.25;stroke-miterlimit:10;" d="M74.933,164.345l4.834,1.21
			c0.433,0.108,0.873-0.156,0.982-0.589l0.347-1.385c0.108-0.433-0.156-0.873-0.589-0.982l-4.834-1.21
			c-0.433-0.108-0.873,0.156-0.982,0.589l-0.347,1.385C74.236,163.796,74.5,164.237,74.933,164.345z M75.626,162.425l4.434,1.11
			l-0.247,0.985l-4.434-1.11L75.626,162.425z"/>
		
			<rect x="77.212" y="161.187" transform="matrix(0.2429 -0.9701 0.9701 0.2429 -99.7351 199.1569)" style="fill:#27AE60;stroke:#228C4D;stroke-width:0.25;stroke-miterlimit:10;" width="1.016" height="4.571"/>
		
			<rect x="63.152" y="169.819" transform="matrix(0.2429 -0.9701 0.9701 0.2429 -117.876 192.1614)" style="fill:#27AE60;stroke:#228C4D;stroke-width:0.25;stroke-miterlimit:10;" width="2.031" height="3.555"/>
		
			<rect x="84.197" y="175.454" transform="matrix(0.2429 -0.9701 0.9701 0.2429 -106.2849 216.7624)" style="fill:#27AE60;stroke:#228C4D;stroke-width:0.25;stroke-miterlimit:10;" width="3.047" height="2.031"/>
	</g>
</g>
<g id="Layer_1">
</g>
</svg>
