<?xml version="1.0" encoding="iso-8859-1"?>
<!-- Generator: Adobe Illustrator 21.0.0, SVG Export Plug-In . SVG Version: 6.00 Build 0)  -->
<svg version="1.1" xmlns="http://www.w3.org/2000/svg" xmlns:xlink="http://www.w3.org/1999/xlink" x="0px" y="0px"
	 viewBox="0 0 414 211" style="enable-background:new 0 0 414 211;" xml:space="preserve">
<g id="medicine-bottle">
	<g id="Layer_43">
		<g>
			<path style="fill:none;" d="M384.017,177.043v5.901h5.491v-5.901c0-0.506,0.574-0.505,1.08-0.505h6.241v-5.491h-6.228
				c-0.002,0-0.045-0.038-0.048-0.038c-0.003,0-0.046-0.034-0.049-0.034c-0.506,0-0.997-0.409-0.997-0.915v-6.335h-5.491v6.335
				c0,0.506-0.82,0.987-1.326,0.987h-5.995v5.491h5.995C383.197,176.538,384.017,176.537,384.017,177.043z"/>
			<path style="fill:none;" d="M369.375,127.12c0-0.506,0.409-0.915,0.915-0.915c0.506,0,0.915,0.409,0.915,0.915v7.321h2.745
				v-7.321c0-0.506,0.409-0.915,0.915-0.915c0.506,0,0.915,0.409,0.915,0.915v7.321h3.661v-7.321c0-0.506,0.409-0.915,0.915-0.915
				c0.506,0,0.915,0.409,0.915,0.915v7.321h3.661v-7.321c0-0.506,0.409-0.915,0.915-0.915c0.506,0,0.915,0.409,0.915,0.915v7.321
				h3.661v-7.321c0-0.506,0.409-0.915,0.915-0.915c0.506,0,0.915,0.409,0.915,0.915v7.321h3.661v-7.321
				c0-0.506,0.409-0.915,0.915-0.915c0.506,0,0.915,0.409,0.915,0.915v7.321h2.745v-7.321c0-0.506,0.409-0.915,0.915-0.915
				c0.506,0,0.915,0.409,0.915,0.915v7.321h1.83v-8.825c0-0.66-0.443-1.242-1.104-1.242h-34.519c-0.66,0-0.983,0.582-0.983,1.242
				v8.825h1.83V127.12z"/>
			<rect x="371.205" y="136.272" style="fill:none;" width="29.284" height="5.491"/>
			<path style="fill:none;" d="M362.054,199.232c0,2.145,1.363,3.844,3.508,3.844h40.877c2.145,0,4.118-1.699,4.118-3.844v-7.137
				h-48.502V199.232z"/>
			<path style="fill:none;" d="M362.054,190.265h48.502V157.32h-48.502V190.265z M374.866,170.883c0-0.958,0.78-1.666,1.737-1.666
				h5.584v-5.243c0-0.958,0.368-2.078,1.326-2.078h6.252c0.958,0,1.573,1.12,1.573,2.078v5.243h5.584
				c0.957,0,1.737,0.708,1.737,1.666v5.336c0,0.958-0.78,2.149-1.737,2.149h-5.584v5.009c0,0.958-0.615,1.397-1.573,1.397h-6.252
				c-0.958,0-1.326-0.439-1.326-1.397v-5.009h-5.584c-0.957,0-1.737-1.191-1.737-2.149V170.883z"/>
			<path style="fill:none;" d="M402.32,143.593h-32.64c-4.416,0-7.626,3.312-7.626,7.727v4.169h48.502v-4.169
				C410.556,146.905,406.735,143.593,402.32,143.593z"/>
			<g>
				<path style="fill:none;" d="M390.554,171.01c-0.003,0-0.046-0.034-0.049-0.034c-0.506,0-0.997-0.409-0.997-0.915v-6.335h-5.491
					v6.335c0,0.506-0.82,0.987-1.326,0.987h-5.995v5.491h5.995c0.506,0,1.326-0.001,1.326,0.505v5.901h5.491v-5.901
					c0-0.506,0.574-0.505,1.08-0.505h6.241v-5.491h-6.228C390.6,171.047,390.557,171.01,390.554,171.01z"/>
				<g>
					<path style="fill:none;" d="M390.554,171.01c-0.003,0-0.046-0.034-0.049-0.034c-0.506,0-0.997-0.409-0.997-0.915v-6.335h-5.491
						v6.335c0,0.506-0.82,0.987-1.326,0.987h-5.995v5.491h5.995c0.506,0,1.326-0.001,1.326,0.505v5.901h5.491v-5.901
						c0-0.506,0.574-0.505,1.08-0.505h6.241v-5.491h-6.228C390.6,171.047,390.557,171.01,390.554,171.01z"/>
					<path style="fill:#DD6E45;" d="M362.055,157.319v32.945h48.502v-32.945H362.055z M398.659,176.219
						c0,0.958-0.78,2.149-1.737,2.149h-5.584v5.009c0,0.958-0.615,1.397-1.573,1.397h-6.252c-0.958,0-1.326-0.439-1.326-1.397
						v-5.009h-5.584c-0.957,0-1.737-1.191-1.737-2.149v-5.336c0-0.958,0.78-1.666,1.737-1.666h5.584v-5.243
						c0-0.958,0.368-2.078,1.326-2.078h6.252c0.958,0,1.573,1.12,1.573,2.078v5.243h5.584c0.957,0,1.737,0.708,1.737,1.666V176.219z
						"/>
				</g>
			</g>
			<g>
				<path style="fill:none;" d="M362.054,199.232c0,2.145,1.363,3.844,3.508,3.844h40.877c2.145,0,4.118-1.699,4.118-3.844v-7.137
					h-48.502V199.232z"/>
				<rect x="371.205" y="136.272" style="fill:none;" width="29.284" height="5.491"/>
				<path style="fill:none;" d="M369.375,127.12c0-0.506,0.409-0.915,0.915-0.915c0.506,0,0.915,0.409,0.915,0.915v7.321h2.745
					v-7.321c0-0.506,0.409-0.915,0.915-0.915c0.506,0,0.915,0.409,0.915,0.915v7.321h3.661v-7.321c0-0.506,0.409-0.915,0.915-0.915
					c0.506,0,0.915,0.409,0.915,0.915v7.321h3.661v-7.321c0-0.506,0.409-0.915,0.915-0.915c0.506,0,0.915,0.409,0.915,0.915v7.321
					h3.661v-7.321c0-0.506,0.409-0.915,0.915-0.915c0.506,0,0.915,0.409,0.915,0.915v7.321h3.661v-7.321
					c0-0.506,0.409-0.915,0.915-0.915c0.506,0,0.915,0.409,0.915,0.915v7.321h2.745v-7.321c0-0.506,0.409-0.915,0.915-0.915
					c0.506,0,0.915,0.409,0.915,0.915v7.321h1.83v-8.825c0-0.66-0.443-1.242-1.104-1.242h-34.519c-0.66,0-0.983,0.582-0.983,1.242
					v8.825h1.83V127.12z"/>
				<rect x="362.054" y="157.32" style="fill:none;" width="48.502" height="32.945"/>
				<path style="fill:none;" d="M402.32,143.593h-32.64c-4.416,0-7.626,3.312-7.626,7.727v4.169h48.502v-4.169
					C410.556,146.905,406.735,143.593,402.32,143.593z"/>
				<g>
					<rect x="371.205" y="136.272" style="fill:none;" width="29.284" height="5.491"/>
					<path style="fill:none;" d="M362.054,199.232c0,2.145,1.363,3.844,3.508,3.844h40.877c2.145,0,4.118-1.699,4.118-3.844v-7.137
						h-48.502V199.232z"/>
					<path style="fill:none;" d="M369.375,127.12c0-0.506,0.409-0.915,0.915-0.915c0.506,0,0.915,0.409,0.915,0.915v7.321h2.745
						v-7.321c0-0.506,0.409-0.915,0.915-0.915c0.506,0,0.915,0.409,0.915,0.915v7.321h3.661v-7.321c0-0.506,0.409-0.915,0.915-0.915
						c0.506,0,0.915,0.409,0.915,0.915v7.321h3.661v-7.321c0-0.506,0.409-0.915,0.915-0.915c0.506,0,0.915,0.409,0.915,0.915v7.321
						h3.661v-7.321c0-0.506,0.409-0.915,0.915-0.915c0.506,0,0.915,0.409,0.915,0.915v7.321h3.661v-7.321
						c0-0.506,0.409-0.915,0.915-0.915c0.506,0,0.915,0.409,0.915,0.915v7.321h2.745v-7.321c0-0.506,0.409-0.915,0.915-0.915
						c0.506,0,0.915,0.409,0.915,0.915v7.321h1.83v-8.825c0-0.66-0.443-1.242-1.104-1.242h-34.519c-0.66,0-0.983,0.582-0.983,1.242
						v8.825h1.83V127.12z"/>
					<rect x="362.054" y="157.32" style="fill:none;" width="48.502" height="32.945"/>
					<path style="fill:none;" d="M402.32,143.593h-32.64c-4.416,0-7.626,3.312-7.626,7.727v4.169h48.502v-4.169
						C410.556,146.905,406.735,143.593,402.32,143.593z"/>
					<path style="fill:none;stroke:#3E3E3E;stroke-miterlimit:10;" d="M402.32,141.755v-5.484h3.661v-10.905
						c0-1.669-1.275-2.822-2.944-2.822h-34.509c-1.987,0-2.813,1.403-2.813,3.072v10.655h3.661v5.498
						c-5.283,0.163-9.151,4.229-9.151,10.466v47.911c0,2.239,2.184,4.761,5.338,4.761h40.877c3.154,0,5.948-2.521,5.948-4.76
						v-47.912C412.386,145.896,407.745,141.755,402.32,141.755z M400.489,136.272v5.491h-29.284v-5.491H400.489z M410.556,199.232
						c0,2.145-1.973,3.844-4.118,3.844h-40.877c-2.145,0-3.508-1.699-3.508-3.844v-7.137h48.502V199.232z M410.556,155.49h-48.502
						v-4.169c0-4.416,3.21-7.727,7.626-7.727h32.64c4.415,0,8.236,3.312,8.236,7.727V155.49z"/>
				</g>
			</g>
		</g>
	</g>
	<g id="Layer_42">
		<path style="fill:#3E3E3E;stroke:#3E3E3E;stroke-miterlimit:10;" d="M367.544,134.442v-8.825c0-0.66,0.323-1.242,0.983-1.242
			h34.519c0.661,0,1.104,0.582,1.104,1.242v8.825h-1.83v-7.321c0-0.506-0.409-0.915-0.915-0.915c-0.506,0-0.915,0.409-0.915,0.915
			v7.321h-2.745v-7.321c0-0.506-0.409-0.915-0.915-0.915c-0.506,0-0.915,0.409-0.915,0.915v7.321h-3.661v-7.321
			c0-0.506-0.409-0.915-0.915-0.915c-0.506,0-0.915,0.409-0.915,0.915v7.321h-3.661v-7.321c0-0.506-0.409-0.915-0.915-0.915
			c-0.506,0-0.915,0.409-0.915,0.915v7.321h-3.661v-7.321c0-0.506-0.409-0.915-0.915-0.915c-0.506,0-0.915,0.409-0.915,0.915v7.321
			h-3.661v-7.321c0-0.506-0.409-0.915-0.915-0.915c-0.506,0-0.915,0.409-0.915,0.915v7.321h-2.745v-7.321
			c0-0.506-0.409-0.915-0.915-0.915c-0.506,0-0.915,0.409-0.915,0.915v7.321H367.544z"/>
	</g>
</g>
<g id="Layer_1">
</g>
</svg>
