<?xml version="1.0" encoding="iso-8859-1"?>
<!-- Generator: Adobe Illustrator 21.0.0, SVG Export Plug-In . SVG Version: 6.00 Build 0)  -->
<svg version="1.1" xmlns="http://www.w3.org/2000/svg" xmlns:xlink="http://www.w3.org/1999/xlink" x="0px" y="0px"
	 viewBox="0 0 414 211" style="enable-background:new 0 0 414 211;" xml:space="preserve">
<g id="medsign">
	<g id="Layer_40">
		<path style="fill:#DD6E45;stroke:#3E3E3E;stroke-miterlimit:10;" d="M44.505,113.129c-0.727,0.206-1.356,0.585-1.927,1.078
			c-0.696,0.597-1.266,1.307-1.791,2.052c-0.8,1.133-1.484,2.344-2.208,3.527c-0.023,0.032-0.041,0.067-0.026,0.125
			c0.307,0.133,0.646,0.188,0.982,0.22c0.751,0.072,1.408-0.139,1.945-0.69c0.296-0.304,0.522-0.655,0.716-1.032
			c0.33-0.635,0.565-1.31,0.809-1.979c0.423-1.156,0.809-2.33,1.652-3.292h-0.003C44.581,113.102,44.546,113.12,44.505,113.129z"/>
	</g>
	<g id="Layer_39">
		<path style="fill:#DD6E45;stroke:#3E3E3E;stroke-miterlimit:10;" d="M35.125,116.174c1.217-1.278,2.452-2.53,3.831-3.637
			c0.965-0.777,1.988-1.461,3.139-1.933c0.638-0.264,1.292-0.452,1.979-0.525c0.243-0.023,0.264-0.043,0.217-0.197
			c-0.238-0.782-0.455-1.576-0.788-2.33c-0.081-0.177-0.177-0.241-0.374-0.241c-0.953,0.003-1.86,0.209-2.733,0.585
			c-1.093,0.469-2.052,1.139-2.965,1.884c-1.292,1.055-2.458,2.243-3.631,3.423c-1.304,1.313-2.611,2.623-4.051,3.788
			c-1.223,0.991-2.521,1.858-3.982,2.457c-1.533,0.632-3.115,0.968-4.782,0.771c-0.141-0.02-0.286-0.02-0.475-0.029
			c0.232,0.336,0.455,0.617,0.69,0.887c0.606,0.71,1.278,1.348,2.107,1.803c0.956,0.525,1.965,0.69,3.034,0.449
			c0.774-0.174,1.475-0.51,2.142-0.924c1.084-0.678,2.037-1.521,2.953-2.405C32.708,118.765,33.905,117.455,35.125,116.174z"/>
	</g>
	<g id="Layer_38">
		<path style="fill:#D8583D;stroke:#3E3E3E;stroke-miterlimit:10;" d="M38.049,119.348c0.64-1.04,1.249-2.104,1.933-3.118
			c0.551-0.814,1.136-1.597,1.849-2.275c0.765-0.727,1.626-1.281,2.663-1.536c0.304-0.072,0.617-0.087,0.968-0.151l0.003-0.003
			c-0.385-0.441-0.643-0.898-0.835-1.394c-0.041-0.116-0.11-0.139-0.223-0.133c-0.252,0.012-0.504,0.052-0.753,0.101
			c-1.104,0.22-2.087,0.71-3.02,1.319c-1.159,0.759-2.191,1.672-3.188,2.631c-1.487,1.435-2.866,2.973-4.304,4.457
			c-1.151,1.191-2.333,2.353-3.68,3.321c-0.038,0.026-0.09,0.055-0.072,0.113c0.478,0.38,1.403,0.849,2.058,1.046
			c1.388,0.423,2.646,0.188,3.77-0.736c0.455-0.374,0.855-0.803,1.223-1.264C37.04,120.976,37.55,120.165,38.049,119.348z"/>
	</g>
	<g id="Layer_37">
		<path style="fill:#DD6E45;stroke:#3E3E3E;stroke-miterlimit:10;" d="M19.673,113.184c2.06-0.498,4.025-1.266,5.944-2.159
			c2.382-1.107,4.657-2.408,6.894-3.776c1.066-0.655,2.121-1.333,3.237-1.91c0.887-0.458,1.8-0.858,2.782-1.087
			c0.82-0.185,1.649-0.232,2.469-0.009c1.009,0.278,1.762,0.91,2.368,1.739c0.574,0.782,0.951,1.663,1.237,2.582
			c0.197,0.623,0.362,1.255,0.591,1.872c0.145,0.397,0.316,0.782,0.571,1.122c0.525,0.701,1.574,1.075,2.362,0.838
			c-0.012-0.046-0.052-0.052-0.087-0.067c-0.823-0.307-1.319-0.91-1.568-1.739c-0.139-0.461-0.206-0.933-0.229-1.414
			c-0.026-0.597-0.012-1.194-0.006-1.791c0.009-0.991,0.049-1.979-0.11-2.962c-0.162-0.988-0.591-1.808-1.411-2.417
			c-0.852-0.626-1.788-1.04-2.82-1.249c-1.394-0.278-2.785-0.2-4.173,0.032c-1.353,0.229-2.666,0.611-3.959,1.069
			c-2.005,0.71-3.933,1.597-5.845,2.515c-2.86,1.379-5.866,2.208-9.024,2.51c-1.881,0.177-3.753,0.154-5.622-0.119
			c-2.26-0.327-4.402-0.997-6.41-2.092c-0.072-0.041-0.139-0.11-0.235-0.09l0.006,0.003c-0.012,0.009-0.023,0.02-0.02,0.026
			c0.31,1.582,0.771,3.112,1.542,4.535c0.698,1.295,1.614,2.4,2.857,3.211c1.414,0.922,2.988,1.29,4.651,1.321
			C17.021,113.708,18.354,113.499,19.673,113.184z"/>
	</g>
	<g id="Layer_36">
		<polygon style="fill:none;stroke:#3E3E3E;stroke-miterlimit:10;" points="13.114,114.044 13.121,114.045 13.12,114.041 		"/>
	</g>
	<g id="Layer_35">
		<path style="fill:#D8583D;stroke:#3E3E3E;stroke-miterlimit:10;" d="M40.416,130.824c0.446-0.568,0.982-1.037,1.585-1.429
			c0.962-0.626,2.014-1.032,3.118-1.321c0.191-0.049,0.383-0.096,0.603-0.151c-0.078-0.067-0.139-0.07-0.194-0.072
			c-0.44-0.015-0.878-0.072-1.313-0.128c-0.878-0.116-1.756-0.272-2.597-0.577c-0.464-0.168-0.904-0.368-1.284-0.693
			c-0.275-0.229-0.487-0.507-0.568-0.866c-0.206-0.893,0.377-1.884,1.264-2.147c0.507-0.148,1.02-0.139,1.542-0.09
			c0.948,0.09,1.875,0.29,2.817,0.406c0.82,0.099,1.637,0.148,2.457,0.029c0.356-0.055,0.71-0.139,1.046-0.278
			c0.168-0.07,0.174-0.125,0.049-0.255c-0.09-0.093-0.209-0.139-0.333-0.171c-0.241-0.064-0.484-0.064-0.727-0.058
			c-0.403,0.014-0.8,0.032-1.203,0.049c-0.116,0.006-0.232,0-0.345-0.046c-0.046-0.02-0.087-0.049-0.093-0.101
			c-0.012-0.067,0.026-0.11,0.081-0.139c0.142-0.07,0.298-0.096,0.452-0.113c0.4-0.044,0.797-0.072,1.197-0.122
			c0.278-0.032,0.565-0.058,0.809-0.246h-0.003c-0.026-0.046-0.029-0.07-0.046-0.087c-0.046-0.035-0.093-0.072-0.142-0.104
			c-0.623-0.429-1.319-0.681-2.046-0.846c-1.194-0.27-2.4-0.304-3.617-0.194c-1.165,0.101-2.295,0.345-3.388,0.777
			c-0.861,0.339-1.658,0.785-2.33,1.437c-0.922,0.89-1.197,1.988-1.046,3.22c0.101,0.849,0.467,1.588,1.008,2.243
			c0.803,0.971,1.834,1.629,2.956,2.171C40.272,130.989,40.338,130.925,40.416,130.824z"/>
	</g>
	<g id="Layer_34">
		<polygon style="fill:none;stroke:#3E3E3E;stroke-miterlimit:10;" points="20.507,120.191 20.51,120.191 20.51,120.191 		"/>
	</g>
	<g id="Layer_33">
		<path style="fill:#D8583D;stroke:#3E3E3E;stroke-miterlimit:10;" d="M25.938,118.626c1.136-0.522,2.168-1.211,3.147-1.979
			c1.148-0.901,2.205-1.907,3.24-2.933c1.116-1.101,2.2-2.234,3.347-3.298c1.006-0.933,2.052-1.814,3.24-2.518
			c1.09-0.649,2.246-1.104,3.515-1.232c0.177-0.017,0.354-0.035,0.53-0.052c-0.2-0.33-0.42-0.591-0.664-0.829
			c-0.594-0.58-1.298-0.924-2.136-0.988c-0.646-0.049-1.269,0.058-1.884,0.235c-1.145,0.336-2.197,0.869-3.22,1.472
			c-1.035,0.614-2.058,1.249-3.089,1.869c-2.359,1.417-4.767,2.739-7.303,3.822c-2.408,1.029-4.877,1.858-7.509,2.107
			c-0.997,0.093-1.994,0.093-2.985-0.067c-0.34-0.055-0.683-0.124-1.049-0.19c-0.007,0.154,0.046,0.264,0.081,0.37
			c0.455,1.345,1.301,2.397,2.452,3.211c1.681,1.194,3.582,1.759,5.616,1.933C22.915,119.698,24.454,119.31,25.938,118.626z"/>
	</g>
	<g id="Layer_32">
		<path style="fill:#DD6E45;stroke:#3E3E3E;stroke-miterlimit:10;" d="M62.638,115.58c0.293,0.768,0.542,1.55,0.869,2.304
			c0.203,0.467,0.435,0.919,0.751,1.321c0.417,0.53,0.948,0.866,1.632,0.936c0.455,0.044,0.898-0.038,1.333-0.159
			c0.07-0.02,0.151-0.02,0.197-0.113c-0.287-0.475-0.571-0.953-0.861-1.432c-0.562-0.93-1.127-1.858-1.791-2.721
			c-0.585-0.762-1.229-1.469-2.046-2c-0.426-0.281-0.881-0.498-1.4-0.591v0.006c0.159,0.226,0.33,0.44,0.478,0.675
			C62.151,114.363,62.403,114.966,62.638,115.58z"/>
	</g>
	<g id="Layer_31">
		<path style="fill:#D8583D;stroke:#3E3E3E;stroke-miterlimit:10;" d="M92.702,114.065c-1.423,0.354-2.869,0.368-4.315,0.2
			c-1.287-0.151-2.539-0.449-3.776-0.835c-2.315-0.722-4.515-1.713-6.663-2.828c-2.101-1.095-4.127-2.321-6.141-3.564
			c-0.959-0.588-1.936-1.153-2.973-1.591c-0.768-0.325-1.556-0.583-2.397-0.649c-1.481-0.113-2.562,0.542-3.376,1.724
			c-0.014,0.02-0.014,0.052-0.02,0.072l0.003-0.003c0.029,0.049,0.07,0.041,0.104,0.046c1.194,0.055,2.307,0.406,3.359,0.956
			c1.284,0.672,2.402,1.574,3.472,2.542c1.29,1.171,2.492,2.437,3.733,3.66c0.977,0.962,1.968,1.907,3.043,2.762
			c1.177,0.936,2.426,1.759,3.831,2.315c1.035,0.412,2.098,0.693,3.22,0.713c0.748,0.014,1.487-0.058,2.22-0.197
			c1.417-0.27,2.756-0.745,3.97-1.536c1.165-0.762,2.081-1.742,2.623-3.043c0.101-0.238,0.2-0.481,0.241-0.739
			c-0.035-0.012-0.049-0.02-0.07-0.02C92.76,114.053,92.731,114.059,92.702,114.065z"/>
	</g>
	<g id="Layer_30">
		<path style="fill:#DD6E45;stroke:#3E3E3E;stroke-miterlimit:10;" d="M99.341,104.524c-0.313,0.2-0.646,0.365-0.979,0.527
			c-2.458,1.188-5.063,1.785-7.778,1.921c-1.666,0.087-3.324-0.014-4.976-0.264c-2.402-0.368-4.718-1.032-6.929-2.037
			c-1.194-0.542-2.365-1.127-3.567-1.649c-2.023-0.878-4.077-1.663-6.242-2.11c-1.481-0.304-2.979-0.449-4.489-0.209
			c-1.217,0.194-2.324,0.652-3.292,1.437c-0.606,0.487-0.977,1.107-1.159,1.852c-0.214,0.884-0.22,1.782-0.212,2.684
			c0.006,0.606,0.032,1.214,0.029,1.82c-0.003,0.745-0.046,1.487-0.287,2.202c-0.258,0.768-0.739,1.327-1.504,1.623
			c-0.046,0.015-0.125,0.006-0.116,0.125c0.183,0,0.365,0.003,0.548,0c0.869-0.02,1.542-0.385,1.988-1.145
			c0.206-0.356,0.362-0.736,0.487-1.127c0.203-0.632,0.388-1.269,0.594-1.901c0.333-1.023,0.811-1.968,1.539-2.776
			c1.023-1.133,2.298-1.542,3.788-1.356c0.884,0.11,1.71,0.4,2.518,0.759c1.217,0.542,2.353,1.24,3.483,1.939
			c2.289,1.414,4.611,2.773,7.039,3.938c2.246,1.072,4.547,2,6.99,2.524c1.591,0.342,3.188,0.504,4.811,0.27
			c1.075-0.154,2.095-0.481,3.034-1.035c1.319-0.777,2.295-1.875,3.043-3.194c0.693-1.22,1.139-2.527,1.469-3.883
			c0.061-0.255,0.072-0.519,0.174-0.762l0.003,0.003C99.347,104.643,99.347,104.588,99.341,104.524z"/>
	</g>
	<g id="Layer_29">
		<path style="fill:#DD6E45;stroke:#3E3E3E;stroke-miterlimit:10;" d="M85.234,120.197c-0.304,0.02-0.603,0.052-0.907,0.067
			c-1.365,0.058-2.663-0.243-3.924-0.733c-1.606-0.623-3.014-1.574-4.335-2.657c-1.516-1.246-2.883-2.643-4.266-4.031
			c-0.881-0.887-1.768-1.771-2.715-2.594c-0.901-0.785-1.846-1.51-2.915-2.063c-1.037-0.539-2.133-0.869-3.315-0.869
			c-0.206,0-0.319,0.064-0.4,0.255c-0.342,0.79-0.568,1.621-0.825,2.467c0.1,0.017,0.2,0.037,0.298,0.057
			c0.096,0.012,0.194,0.017,0.29,0.035c1.017,0.171,1.953,0.553,2.843,1.064c1.058,0.606,2.008,1.353,2.918,2.162
			c1.391,1.237,2.66,2.6,3.935,3.95c1.203,1.272,2.397,2.556,3.721,3.707c0.861,0.748,1.762,1.432,2.805,1.913
			c0.617,0.284,1.264,0.475,1.945,0.507c0.962,0.043,1.834-0.243,2.631-0.768c0.965-0.632,1.719-1.475,2.385-2.402
			c0.006-0.012,0-0.035,0-0.055C85.35,120.168,85.289,120.194,85.234,120.197z"/>
	</g>
	<g id="Layer_28">
		<path style="fill:none;stroke:#3E3E3E;stroke-miterlimit:10;" d="M56.503,144.966c0.009-0.002,0.018-0.003,0.027-0.005
			c-0.002-0.007-0.008-0.007-0.009-0.015L56.503,144.966z"/>
	</g>
	<g id="Layer_27">
		<path style="fill:#DD6E45;stroke:#3E3E3E;stroke-miterlimit:10;" d="M68.307,122.866c-0.536-0.4-1.113-0.722-1.733-0.977
			c-1.148-0.472-2.347-0.736-3.585-0.838c-1.197-0.104-2.388-0.07-3.562,0.2c-0.701,0.159-1.371,0.4-1.974,0.8
			c-0.093,0.064-0.206,0.113-0.255,0.229c0.133,0.125,0.298,0.162,0.461,0.194c0.307,0.067,0.617,0.096,0.93,0.119
			c0.301,0.023,0.606,0.043,0.901,0.116c0.107,0.026,0.267,0.041,0.246,0.194c-0.02,0.145-0.174,0.142-0.287,0.148
			c-0.232,0.015-0.467,0.003-0.701-0.02c-0.342-0.035-0.687-0.029-1.029-0.02c-0.188,0.006-0.374,0.041-0.542,0.122
			c-0.107,0.055-0.223,0.128-0.217,0.255c0.009,0.116,0.145,0.113,0.232,0.145c0.904,0.327,1.84,0.345,2.782,0.27
			c0.985-0.078,1.953-0.287,2.933-0.414c0.591-0.078,1.185-0.139,1.782-0.029c0.797,0.145,1.33,0.672,1.519,1.516
			c0.151,0.675-0.116,1.264-0.785,1.727c-0.119,0.087-0.249,0.159-0.377,0.229c-0.267,0.145-0.551,0.258-0.838,0.354
			c-1.142,0.38-2.327,0.539-3.515,0.64c-1.188,0.101-2.385,0.139-3.579,0.119c-0.597-0.009-1.194-0.038-1.791-0.052
			c-0.145-0.006-0.22-0.052-0.2-0.206c0.006-0.041,0.003-0.078,0.003-0.119c0.032-0.991,0.067-1.976,0.096-2.965
			c0.035-1.064,0.07-2.127,0.09-3.196c0.003-0.209,0.072-0.345,0.241-0.464c0.223-0.157,0.44-0.322,0.678-0.461
			c1.968-1.159,4.101-1.533,6.352-1.371c0.27,0.017,0.536,0.049,0.8,0.072c0.017-0.061-0.003-0.096-0.023-0.128
			c-0.38-0.646-0.646-1.339-0.901-2.037c-0.278-0.751-0.527-1.513-0.878-2.237c-0.194-0.409-0.42-0.794-0.725-1.133
			c-0.27-0.301-0.597-0.539-0.98-0.675c-0.522-0.185-1.066-0.243-1.62-0.209c-0.922,0.061-1.782,0.333-2.617,0.713
			c-0.096,0.041-0.18,0.113-0.293,0.104c-0.009-0.012-0.017-0.02-0.017-0.029c0-0.041,0-0.075,0.003-0.116
			c0.064-0.603,0.267-1.159,0.574-1.681c0.212-0.365,0.438-0.719,0.652-1.081c0.455-0.768,0.542-1.574,0.281-2.429
			c-0.087-0.281-0.185-0.556-0.31-0.823c-0.043-0.096-0.043-0.165,0.049-0.223c0.041-0.026,0.078-0.061,0.11-0.09
			c1.753-1.51,2.481-3.414,2.069-5.695c-0.574-3.185-3.669-5.292-6.836-4.701c-3.776,0.707-5.889,4.79-4.28,8.283
			c0.374,0.806,0.898,1.49,1.577,2.058c0.284,0.238,0.281,0.238,0.139,0.591c-0.07,0.174-0.133,0.348-0.188,0.525
			c-0.29,0.887-0.214,1.736,0.27,2.542l0.507,0.823c0.238,0.385,0.446,0.785,0.568,1.22c0.078,0.27,0.162,0.539,0.136,0.849
			c-0.296-0.122-0.568-0.246-0.849-0.356c-0.948-0.365-1.924-0.582-2.953-0.452c-0.652,0.081-1.223,0.327-1.678,0.814
			c-0.278,0.296-0.487,0.632-0.672,0.991c-0.307,0.594-0.53,1.217-0.759,1.843c-0.327,0.898-0.635,1.808-1.124,2.64
			c-0.017,0.023-0.014,0.055-0.02,0.081c0.012,0.009,0.02,0.014,0.029,0.014c0.229-0.017,0.464-0.038,0.698-0.058
			c1.51-0.136,2.991,0.006,4.437,0.464c0.959,0.304,1.849,0.739,2.669,1.339c0.168,0.125,0.252,0.261,0.255,0.484
			c0.006,0.771,0.044,1.548,0.07,2.318c0.043,1.313,0.084,2.62,0.125,3.933c0.006,0.206-0.009,0.22-0.209,0.229
			c-0.461,0.02-0.922,0.052-1.379,0.046c-1.122-0.017-2.229,0.07-3.324,0.31c-1.275,0.281-2.486,0.696-3.585,1.411
			c-1.188,0.774-2.075,1.803-2.597,3.136c-0.551,1.408-0.539,2.84-0.064,4.254c0.866,2.585,2.562,4.495,4.892,5.863
			c0.377,0.22,0.38,0.209,0.687-0.113c1.22-1.284,2.66-2.205,4.385-2.657c0.136-0.038,0.275-0.07,0.426-0.11
			c-0.026-0.026-0.038-0.049-0.055-0.052l-0.533-0.154c-1.026-0.304-2-0.73-2.837-1.423c-0.878-0.727-1.411-1.64-1.504-2.788
			c-0.075-0.933,0.156-1.762,0.858-2.426c0.414-0.391,0.907-0.646,1.44-0.829c0.985-0.339,2.003-0.441,3.037-0.417
			c0.455,0.014,0.461,0.012,0.481,0.472c0.046,1.153,0.084,2.307,0.125,3.46c0.049,1.368,0.096,2.739,0.142,4.106
			c0.009,0.278,0.003,0.281-0.258,0.301c-0.89,0.064-1.736,0.287-2.542,0.664c-1.692,0.785-3.031,1.962-3.927,3.614
			c-0.246,0.449-0.397,0.933-0.446,1.446c-0.099,1.055,0.154,2.04,0.643,2.968c0.649,1.223,1.556,2.2,2.805,2.831
			c0.275,0.142,0.278,0.139,0.484-0.081c0.742-0.797,1.597-1.44,2.588-1.895c0.07-0.032,0.151-0.041,0.191-0.119
			c-0.067-0.072-0.162-0.072-0.241-0.104c-1.101-0.438-1.808-1.232-2.031-2.397c-0.22-1.145,0.322-2.034,1.394-2.391
			c0.397-0.127,0.806-0.174,1.217-0.171c0.255,0.003,0.264,0.006,0.27,0.264c0.049,1.536,0.096,3.072,0.142,4.608
			c0.012,0.313,0.006,0.31-0.296,0.426c-1.171,0.446-2.229,1.069-3.026,2.055c-1.107,1.368-1.481,2.889-0.84,4.582
			c0.322,0.858,0.852,1.559,1.611,2.081c0.116,0.078,0.206,0.116,0.33-0.003c0.614-0.577,1.336-0.985,2.101-1.327
			c0.067-0.032,0.154-0.038,0.183-0.133c-0.159-0.113-0.325-0.217-0.472-0.342c-0.414-0.345-0.678-0.774-0.727-1.324
			c-0.029-0.354,0.093-0.632,0.377-0.84c0.209-0.154,0.449-0.238,0.698-0.29c0.188-0.041,0.214-0.017,0.223,0.191
			c0.041,0.916,0.072,1.837,0.116,2.756c0.006,0.136-0.029,0.223-0.168,0.264c-0.064,0.02-0.125,0.049-0.188,0.078
			c-0.698,0.319-1.356,0.71-1.889,1.269c-0.866,0.907-1.255,1.979-1.02,3.225c0.162,0.866,0.62,1.556,1.394,2.011
			c0.296,0.174,0.298,0.171,0.553-0.049c0.365-0.316,0.748-0.606,1.159-0.852c0.055-0.032,0.125-0.052,0.154-0.125
			c-0.052-0.087-0.145-0.125-0.22-0.188c-0.197-0.165-0.362-0.354-0.478-0.588c-0.101-0.206-0.145-0.429-0.096-0.655
			c0.072-0.336,0.516-0.835,0.861-0.982c0.006,0.026,0.02,0.052,0.02,0.078c0.015,0.771,0.029,1.548,0.055,2.318
			c0.006,0.171-0.055,0.261-0.206,0.339c-0.533,0.272-1.003,0.646-1.397,1.101c-0.829,0.956-1.156,2.058-0.864,3.301
			c0.194,0.817,0.696,1.458,1.29,2.032c0.096,0.096,0.174,0.09,0.278,0.014c0.159-0.116,0.342-0.197,0.519-0.278
			c0.148-0.07,0.319-0.09,0.461-0.197c-0.197-0.345-0.374-0.696-0.504-1.064c-0.249-0.696-0.101-1.304,0.368-1.855
			c0.038-0.046,0.067-0.122,0.154-0.104c0.035,0.052,0.032,0.113,0.032,0.171c0.017,0.959,0.032,1.918,0.046,2.878
			c0.003,0.217,0.003,0.22-0.232,0.287c-0.469,0.133-0.855,0.385-1.124,0.797c-0.304,0.464-0.38,0.977-0.333,1.519
			c0.064,0.777,0.368,1.472,0.751,2.142c0.296,0.519,0.643,1.006,0.965,1.507c0.046,0.067,0.064,0.165,0.159,0.2
			c0.006-0.017,0.02-0.032,0.02-0.046c-0.075-0.927-0.157-1.852-0.235-2.779c-0.014-0.188-0.058-0.359-0.174-0.519
			c-0.145-0.197-0.171-0.435-0.104-0.672c0.052-0.191,0.151-0.354,0.388-0.385c0.012,0.072,0.02,0.133,0.02,0.188
			c0,0.597,0.017,1.194,0.064,1.791c0.075,0.936,0.096,1.878,0.217,2.808c0.162,1.275,0.322,2.547,0.391,3.825
			c0.014,0.238,0.032,0.475,0.049,0.713c0.064-0.156,0.084-0.322,0.093-0.484c0.055-1.104,0.151-2.205,0.296-3.304
			c0.119-0.898,0.383-1.73,1.003-2.426c0.258-0.29,0.478-0.62,0.672-0.959c0.333-0.58,0.533-1.197,0.504-1.872
			c-0.02-0.455-0.238-0.817-0.533-1.145c-0.07-0.075-0.125-0.07-0.191,0.006c-0.223,0.261-0.487,0.481-0.771,0.675
			c-0.122,0.084-0.11,0.148-0.046,0.261c0.139,0.252,0.183,0.536,0.139,0.823c-0.038,0.229-0.151,0.411-0.4,0.49
			c0-0.481,0.006-0.939-0.003-1.397c-0.003-0.174,0.058-0.284,0.2-0.385c0.765-0.559,1.42-1.229,1.918-2.04
			c0.446-0.725,0.696-1.507,0.62-2.371c-0.043-0.516-0.203-0.994-0.49-1.455c-0.606,0.51-1.278,0.852-2.06,1.058
			c0.452,0.423,0.672,0.913,0.661,1.487c-0.012,0.574-0.246,1.046-0.675,1.42c-0.084-0.052-0.064-0.107-0.064-0.151
			c0.012-0.951,0.029-1.898,0.035-2.849c0.003-0.125,0.064-0.171,0.165-0.2c0.264-0.078,0.516-0.186,0.759-0.313
			c1.194-0.626,2.113-1.521,2.573-2.811c0.455-1.275,0.229-2.426-0.748-3.399c-0.177-0.174-0.18-0.174-0.4-0.052
			c-0.565,0.313-1.151,0.585-1.768,0.782c-0.099,0.035-0.206,0.038-0.296,0.11c0.032,0.101,0.125,0.148,0.191,0.217
			c0.165,0.168,0.316,0.348,0.432,0.554c0.365,0.635-0.006,1.504-0.727,1.71c-0.049-0.07-0.029-0.148-0.026-0.223
			c0.014-0.753,0.038-1.504,0.058-2.26c0.009-0.298,0.009-0.298,0.278-0.38c0.649-0.197,1.266-0.467,1.843-0.823
			c0.907-0.556,1.672-1.261,2.185-2.205c0.696-1.278,0.707-2.576,0.07-3.883c-0.107-0.22-0.11-0.217-0.316-0.099
			c-0.342,0.194-0.678,0.394-1.023,0.577c-0.655,0.342-1.33,0.62-2.052,0.782c-0.075,0.017-0.18-0.017-0.235,0.075
			c0.049,0.072,0.127,0.087,0.194,0.128c0.472,0.29,0.638,0.675,0.513,1.223c-0.159,0.707-0.626,1.151-1.252,1.461
			c-0.012,0.009-0.035-0.006-0.055-0.009c-0.009-0.017-0.026-0.032-0.026-0.049c0.055-0.948,0.116-1.892,0.165-2.843
			c0.009-0.157,0.078-0.223,0.22-0.255c0.409-0.093,0.809-0.229,1.2-0.38c1.423-0.548,2.715-1.298,3.77-2.42
			c1.122-1.191,1.742-2.605,1.843-4.243c0.067-1.075-0.081-2.127-0.365-3.162c-0.081-0.301-0.087-0.301-0.359-0.168
			c-0.968,0.464-1.968,0.817-3.014,1.052c-0.377,0.085-0.762,0.148-1.141,0.221c0.022,0.076,0.088,0.095,0.136,0.133
			c0.655,0.464,0.936,1.113,0.837,1.887c-0.174,1.339-0.936,2.22-2.208,2.666c-0.22,0.078-0.455,0.104-0.69,0.133
			c-0.11,0.014-0.171-0.026-0.162-0.145c0.003-0.049,0.003-0.099,0.003-0.148c0.049-1.527,0.099-3.052,0.148-4.579
			c0.009-0.252,0.009-0.261,0.258-0.267c0.617-0.014,1.232-0.078,1.837-0.188c1.51-0.27,2.973-0.704,4.353-1.374
			c1.924-0.936,3.362-2.408,4.414-4.257c0.823-1.443,1.255-2.988,1.072-4.669c-0.101-0.93-0.411-1.788-0.887-2.588
			c-0.078-0.13-0.159-0.151-0.31-0.104c-2.023,0.62-4.098,0.93-6.213,0.965c-0.064,0-0.139-0.026-0.183,0.052
			c0.006,0.009,0.009,0.023,0.014,0.026l0.359,0.194c0.866,0.487,1.414,1.206,1.513,2.208c0.099,0.988-0.142,1.901-0.745,2.707
			c-0.411,0.548-0.927,0.977-1.516,1.321c-1.104,0.652-2.31,1.009-3.562,1.22c-0.246,0.044-0.252,0.026-0.243-0.243
			c0.049-1.397,0.096-2.799,0.142-4.196c0.041-1.174,0.078-2.347,0.122-3.521c0.012-0.243,0.015-0.238,0.255-0.22
			c0.409,0.029,0.817,0.067,1.229,0.075c2.684,0.07,5.338-0.168,7.955-0.765c0.469-0.107,0.948-0.186,1.385-0.38
			c0.742-0.333,1.437-0.753,2.066-1.275c0.664-0.551,1.226-1.185,1.577-1.982C70.127,126.178,70.086,124.187,68.307,122.866z"/>
	</g>
	<g id="Layer_26">
		<path style="fill:#D8583D;stroke:#3E3E3E;stroke-miterlimit:10;" d="M73.007,119.437c-1.174-1.217-2.33-2.452-3.507-3.669
			c-1.026-1.064-2.095-2.084-3.275-2.979c-0.939-0.716-1.927-1.336-3.052-1.721c-0.498-0.171-1.011-0.287-1.542-0.33
			c-0.168-0.014-0.275,0.02-0.33,0.197c-0.052,0.159-0.133,0.307-0.206,0.455c-0.156,0.307-0.351,0.585-0.588,0.858
			c0.238,0.078,0.452,0.07,0.661,0.104c1.04,0.188,1.927,0.678,2.713,1.371c0.791,0.696,1.432,1.524,2.023,2.391
			c0.716,1.052,1.348,2.156,2.011,3.24c0.53,0.866,1.075,1.727,1.724,2.515c0.435,0.533,0.916,1.017,1.49,1.403
			c0.869,0.585,1.82,0.777,2.852,0.582c0.942-0.177,1.768-0.611,2.556-1.133c0.023-0.012,0.035-0.041,0.064-0.081v-0.003
			c-0.023-0.014-0.049-0.032-0.075-0.055C75.239,121.663,74.103,120.571,73.007,119.437z"/>
	</g>
	<g id="Layer_25">
		<polygon style="fill:none;stroke:#3E3E3E;stroke-miterlimit:10;" points="61.63,110.039 61.63,110.037 61.627,110.036 		"/>
	</g>
</g>
<g id="Layer_1">
</g>
</svg>
