<?xml version="1.0" encoding="iso-8859-1"?>
<!-- Generator: Adobe Illustrator 21.0.0, SVG Export Plug-In . SVG Version: 6.00 Build 0)  -->
<svg version="1.1" xmlns="http://www.w3.org/2000/svg" xmlns:xlink="http://www.w3.org/1999/xlink" x="0px" y="0px"
	 viewBox="0 0 414 211" style="enable-background:new 0 0 414 211;" xml:space="preserve">
<g id="mountains">
	<g id="fire">
		<g transform="translate(-840.000000, -883.000000)">
			<g transform="translate(841.000000, 884.000000)">
				<path style="fill:none;stroke:#27AE60;stroke-width:0.75;stroke-linejoin:round;" d="M118.107,81.866
					c0,0.941-0.763,1.704-1.704,1.704s-1.704-0.763-1.704-1.704s0.763-1.704,1.704-1.704S118.107,80.925,118.107,81.866
					L118.107,81.866z"/>
				<path style="fill:none;stroke:#27AE60;stroke-width:0.75;stroke-linejoin:round;" d="M113.848,81.582
					c0,0.784-0.636,1.42-1.42,1.42c-0.784,0-1.42-0.636-1.42-1.42s0.636-1.42,1.42-1.42
					C113.213,80.162,113.848,80.798,113.848,81.582L113.848,81.582z"/>
				<path style="fill:none;stroke:#27AE60;stroke-width:0.75;stroke-linejoin:round;" d="M121.799,81.582
					c0,0.784-0.636,1.42-1.42,1.42s-1.42-0.636-1.42-1.42s0.636-1.42,1.42-1.42S121.799,80.798,121.799,81.582L121.799,81.582z"/>
				<path style="fill:none;stroke:#27AE60;stroke-width:0.75;stroke-linejoin:round;" d="M109.873,79.869
					c0,0.627-0.381,1.136-0.852,1.136c-0.47,0-0.852-0.509-0.852-1.136c0-0.627,0.381-1.136,0.852-1.136
					C109.492,78.733,109.873,79.242,109.873,79.869L109.873,79.869z"/>
				<path style="fill:none;stroke:#27AE60;stroke-width:0.75;stroke-linejoin:round;" d="M112.549,80.174
					c0.727,0.062,1.299,0.665,1.299,1.407c0,0.165-0.034,0.321-0.085,0.469l0.937-0.469l0.852-2.555L112.549,80.174L112.549,80.174z
					"/>
				<path style="fill:none;stroke:#228C4D;stroke-width:0.75;stroke-linejoin:round;" d="M116.972,67.101
					c0,0-0.946-0.122-1.796,0.524c-0.538,0.409-0.805,1.082-0.74,1.755c0.029,0.297,0.085,0.633,0.193,0.944
					c0.069,0.199,0.086,0.418,0.001,0.61c-0.095,0.213-0.308,0.426-0.781,0.426c0,0-0.852,0.154-0.852-1.136
					c0,0-2.059,1.467,0.284,3.123c0,0,0.852,0.497,0.852,1.136c0,0,0.154,1.136-0.852,1.136c0,0-1.443,0.237-1.704-1.136
					c0,0-2.067,3.461,1.704,4.259h5.963c0,0,2.402-0.367,1.704-3.975c0,0-2.316,1.189-2.25-1.247
					c0.008-0.311,0.167-0.744,0.501-1.122c0.835-0.947,0.787-2.382-0.028-3.346c-0.143-0.17-0.307-0.346-0.493-0.531
					c0,0-0.183,0.449-0.544,0.842c-0.648,0.707-1.857,0.119-1.713-0.829C116.476,68.156,116.639,67.685,116.972,67.101
					L116.972,67.101z"/>
				<path style="fill:none;stroke:#27AE60;stroke-width:0.75;stroke-linejoin:round;" d="M109.022,78.733
					c0.47,0,0.852,0.509,0.852,1.136c0,0.627-0.381,1.136-0.852,1.136h2.112c0.221-0.496,0.717-0.843,1.295-0.843
					c0.045,0,0.089,0.003,0.133,0.008l2.99-1.143v-0.293H109.022L109.022,78.733z"/>
				<path style="fill:none;stroke:#27AE60;stroke-width:0.75;stroke-linejoin:round;" d="M118.984,81.828
					c-0.016-0.08-0.025-0.162-0.025-0.247c0-0.074,0.009-0.147,0.022-0.219c0.106-0.679,0.689-1.2,1.398-1.2l-3.123-1.136
					l0.852,2.555l0.938,0.469l0,0C119.019,81.978,118.998,81.905,118.984,81.828L118.984,81.828z"/>
				<path style="fill:none;stroke:#27AE60;stroke-width:0.75;stroke-linejoin:round;" d="M122.934,79.869
					c0,0.627,0.381,1.136,0.852,1.136c0.47,0,0.852-0.509,0.852-1.136c0-0.627-0.381-1.136-0.852-1.136
					C123.316,78.733,122.934,79.242,122.934,79.869L122.934,79.869z"/>
				<path style="fill:none;stroke:#27AE60;stroke-width:0.75;stroke-linejoin:round;" d="M123.786,78.733
					c-0.47,0-0.852,0.509-0.852,1.136c0,0.627,0.381,1.136,0.852,1.136h-2.112c-0.221-0.496-0.717-0.843-1.295-0.843
					c-0.045,0-0.089,0.003-0.133,0.008l-2.99-1.143v-0.293H123.786L123.786,78.733z"/>
				<path style="fill:#228C4D;" d="M117.412,78.33c0.486-0.486,0.543-1.244,0.161-1.815l-1.17-1.756l-1.17,1.752
					c-0.382,0.572-0.325,1.334,0.161,1.82c0,0,0.34,0.403,1.009,0.403C116.404,78.733,116.945,78.798,117.412,78.33L117.412,78.33z"
					/>
			</g>
		</g>
	</g>
	<g id="Layer_13">
		<path style="fill:#228C4D;" d="M67.083,84.11c-0.373-0.107-0.742-0.25-1.111-0.392c-0.832-0.321-1.775-0.686-2.808-0.686
			c-0.91,0-1.734,0.313-2.463,0.586c-0.616,0.232-1.198,0.453-1.726,0.453c-0.412,0-0.891-0.21-1.399-0.431
			c-0.649-0.286-1.386-0.608-2.233-0.608c-1.129,0-2.148,0.34-3.132,0.668c-0.435,0.145-0.868,0.29-1.308,0.4
			c-0.559,0.139-0.899,0.705-0.762,1.263c0.137,0.558,0.705,0.898,1.263,0.762c0.492-0.122,0.979-0.283,1.465-0.445
			c0.865-0.289,1.682-0.563,2.471-0.563c0.411,0,0.89,0.21,1.398,0.431c0.65,0.284,1.386,0.608,2.234,0.608
			c0.91,0,1.734-0.313,2.462-0.586c0.616-0.232,1.197-0.453,1.726-0.453c0.644,0,1.332,0.265,2.057,0.546
			c0.426,0.165,0.855,0.327,1.288,0.451c0.096,0.027,0.193,0.041,0.288,0.041c0.454,0,0.871-0.3,1.002-0.757
			C67.957,84.847,67.636,84.269,67.083,84.11z"/>
	</g>
	<g id="Layer_12">
		<path style="fill:#228C4D;" d="M101.754,96.426c-0.374-0.107-0.743-0.251-1.111-0.393c-0.832-0.321-1.775-0.684-2.809-0.684
			c-0.91,0-1.734,0.312-2.462,0.585c-0.616,0.232-1.197,0.451-1.726,0.451c-0.411,0-0.891-0.21-1.398-0.431
			c-0.65-0.283-1.386-0.605-2.234-0.605c-1.129,0-2.148,0.339-3.132,0.667c-0.435,0.146-0.868,0.291-1.307,0.4
			c-0.56,0.139-0.9,0.704-0.762,1.263c0.139,0.558,0.705,0.897,1.262,0.762c0.493-0.123,0.98-0.284,1.467-0.447
			c0.865-0.288,1.682-0.562,2.471-0.562c0.411,0,0.891,0.21,1.398,0.431c0.65,0.283,1.387,0.607,2.234,0.607
			c0.91,0,1.736-0.312,2.462-0.585c0.616-0.233,1.199-0.453,1.726-0.453c0.644,0,1.332,0.265,2.057,0.545
			c0.428,0.166,0.857,0.328,1.289,0.454c0.095,0.026,0.193,0.04,0.287,0.04c0.454,0,0.871-0.3,1.002-0.758
			C102.628,97.162,102.308,96.585,101.754,96.426z"/>
	</g>
	<g id="Layer_11">
		<path style="fill:#228C4D;" d="M127.724,106.79c-0.373-0.108-0.742-0.251-1.111-0.393c-0.83-0.321-1.773-0.685-2.808-0.685
			c-0.91,0-1.733,0.312-2.463,0.586c-0.615,0.231-1.197,0.451-1.725,0.451c-0.411,0-0.891-0.211-1.399-0.431
			c-0.649-0.283-1.385-0.607-2.233-0.607c-1.128,0-2.148,0.34-3.132,0.668c-0.435,0.145-0.868,0.291-1.308,0.399
			c-0.559,0.139-0.899,0.705-0.761,1.263c0.139,0.56,0.705,0.9,1.262,0.762c0.492-0.123,0.98-0.283,1.467-0.447
			c0.864-0.288,1.682-0.562,2.471-0.562c0.411,0,0.891,0.211,1.398,0.432c0.65,0.283,1.386,0.605,2.234,0.605
			c0.91,0,1.734-0.312,2.463-0.585c0.615-0.232,1.198-0.453,1.725-0.453c0.646,0,1.332,0.265,2.055,0.545
			c0.428,0.166,0.857,0.329,1.29,0.454c0.095,0.027,0.192,0.04,0.287,0.04c0.454,0,0.871-0.299,1.002-0.757
			C128.6,107.524,128.279,106.949,127.724,106.79z"/>
	</g>
	<g id="Layer_10">
		<path style="fill:#228C4D;" d="M68.55,73.159c0.492-0.122,0.98-0.282,1.465-0.445c0.865-0.289,1.682-0.563,2.471-0.563
			c0.411,0,0.891,0.21,1.398,0.431c0.649,0.286,1.386,0.608,2.234,0.608c0.909,0,1.734-0.313,2.463-0.586
			c0.615-0.232,1.197-0.453,1.725-0.453c0.646,0,1.333,0.265,2.057,0.546c0.428,0.165,0.855,0.328,1.289,0.451
			c0.096,0.028,0.192,0.041,0.287,0.041c0.454,0,0.872-0.299,1.002-0.756c0.159-0.554-0.162-1.131-0.716-1.29
			c-0.373-0.108-0.742-0.25-1.111-0.392c-0.83-0.322-1.773-0.687-2.809-0.687c-0.909,0-1.733,0.313-2.462,0.586
			c-0.615,0.232-1.197,0.453-1.726,0.453c-0.411,0-0.891-0.21-1.398-0.431c-0.649-0.284-1.386-0.608-2.234-0.608
			c-1.128,0-2.147,0.34-3.132,0.671c-0.435,0.145-0.868,0.289-1.308,0.399c-0.559,0.137-0.899,0.705-0.762,1.262
			C67.426,72.957,67.992,73.295,68.55,73.159z"/>
	</g>
	<g id="Layer_9">
		<path style="fill:#228C4D;" d="M85.24,92.282c0.454,0,0.872-0.3,1.002-0.758c0.159-0.553-0.161-1.13-0.716-1.29
			c-0.373-0.105-0.742-0.25-1.111-0.392c-0.83-0.321-1.773-0.685-2.808-0.685c-0.91,0-1.733,0.313-2.463,0.585
			c-0.615,0.233-1.197,0.453-1.725,0.453c-0.411,0-0.891-0.21-1.398-0.431c-0.65-0.284-1.386-0.607-2.234-0.607
			c-1.129,0-2.148,0.34-3.132,0.668c-0.435,0.145-0.868,0.29-1.308,0.399c-0.559,0.139-0.899,0.705-0.761,1.264
			c0.139,0.558,0.703,0.898,1.263,0.761c0.492-0.122,0.979-0.283,1.465-0.445c0.865-0.288,1.682-0.562,2.472-0.562
			c0.411,0,0.891,0.21,1.398,0.431c0.65,0.283,1.386,0.607,2.234,0.607c0.909,0,1.734-0.313,2.463-0.585
			c0.615-0.233,1.198-0.453,1.726-0.453c0.644,0,1.332,0.265,2.055,0.545c0.428,0.165,0.855,0.328,1.289,0.453
			C85.049,92.267,85.146,92.282,85.24,92.282z"/>
	</g>
	<g id="Layer_8">
		<path style="fill:#27AE60;" d="M46.563,46.398l3.192,0.819c0.41,0.104,0.841-0.047,1.093-0.385l19.171-25.6l2.528,1.828
			l0.11,0.195l9.686,17.205c0.248,0.441,0.778,0.641,1.255,0.472l5.191-1.827l3.969,1.961l3.795,2.138
			c0.393,0.222,0.885,0.165,1.217-0.14l16.55-15.17l2.271-0.707l21.482,19.528c0.201,0.181,0.451,0.271,0.702,0.271
			c0.282,0,0.566-0.115,0.771-0.341c0.386-0.425,0.357-1.085-0.071-1.473l-22.939-20.854c-0.399-0.363-1.009-0.363-1.406,0.002
			L96.92,41.014l-7.031-3.962c-0.03-0.017-0.064-0.017-0.094-0.031c-0.272-0.198-0.633-0.258-0.961-0.142l-5.105,1.795L71.907,17.67
			c-0.173-0.307-0.489-0.506-0.841-0.528c-0.348-0.023-0.691,0.134-0.903,0.416L49.597,45.022l-4.408-1.13
			c-0.346-0.089-0.712,0.005-0.973,0.25l-8.472,7.95c-0.419,0.395-0.442,1.054-0.047,1.474c0.396,0.419,1.054,0.441,1.475,0.046
			l6.998-6.568"/>
	</g>
	<g id="Layer_7">
		<path style="fill:#27AE60;stroke:#068C49;stroke-width:0.25;stroke-miterlimit:10;" d="M44.17,47.044l3.105,2.807l-3.42,2.605
			c-0.289,0.22-0.443,0.576-0.405,0.938c0.038,0.363,0.262,0.679,0.591,0.834l12.045,5.694c0.145,0.068,0.296,0.099,0.444,0.099
			c0.391,0,0.765-0.222,0.943-0.597c0.246-0.52,0.024-1.142-0.498-1.388l-10.493-4.96l3.055-2.326
			c0.246-0.188,0.397-0.475,0.41-0.785c0.013-0.31-0.113-0.61-0.342-0.817l-3.042-2.75L44.17,47.044z"/>
	</g>
	<g id="Layer_6">
		<path style="fill:#27AE60;stroke:#068C49;stroke-width:0.25;stroke-miterlimit:10;" d="M72.547,23.059l0.643,2.984
			c0.07,0.323-0.018,0.66-0.236,0.909l-5.347,6.093l9.818,8.732c0.43,0.383,0.468,1.043,0.085,1.473
			c-0.206,0.231-0.492,0.349-0.78,0.349c-0.246,0-0.494-0.088-0.692-0.264l-10.591-9.421c-0.428-0.38-0.468-1.035-0.09-1.467
			l5.683-6.477l-1.022-4.74L72.547,23.059z"/>
	</g>
	<g id="Layer_5">
		<path style="fill:#27AE60;" d="M94.124,52.147l1.661-6.204c0.081-0.302,0.024-0.623-0.16-0.877l-2.867-4.001l-3.969-1.961
			l4.856,6.773l-1.952,7.288L94.124,52.147z"/>
	</g>
	<g id="Layer_4">
		<path style="fill:#228C4D;" d="M91.693,53.166c-0.136,0.509,0.141,1.016,0.614,1.216c0.686,0.436,2.155,0.807,5.078,1.54
			c1.649,0.415,4.059,1.019,5.623,1.533c-5.592,1.724-13.492,3.009-21.815,4.362C60.955,65.107,40.031,68.51,41.29,79.428
			c1.548,13.413,19.341,24.015,36.543,32.615c0.149,0.075,0.31,0.11,0.466,0.11c0.383,0,0.75-0.211,0.934-0.576
			c0.257-0.515,0.05-1.142-0.467-1.399c-15.728-7.86-33.964-18.488-35.405-30.988c-1.032-8.939,19.791-12.324,38.163-15.312
			c9.211-1.497,17.91-2.912,23.709-4.959c1.032-0.365,1.159-1.037,1.141-1.404c-0.062-1.332-1.719-1.91-8.17-3.535
			c15.355-0.81,33.583-0.15,35.325,1.911c-0.832,1.582-10.513,4.069-17.614,5.896C101.23,65.56,86.044,69.461,86.644,75.76
			c1.056,11.09,28.991,15.961,49.912,18.662c0.564,0.076,1.093-0.331,1.167-0.902c0.075-0.571-0.329-1.096-0.9-1.168
			c-31.243-4.03-47.426-9.68-48.103-16.791c-0.431-4.523,16.506-8.876,27.715-11.757c12.975-3.334,19.212-5.065,19.212-7.955
			c0-0.377-0.121-0.937-0.693-1.467c-3.934-3.644-30.828-2.936-40.829-2.237L91.693,53.166z"/>
	</g>
	<g id="Layer_3">
		<path style="fill:#27AE60;" d="M114.319,27.894l-1.071,5.333c-0.089,0.449,0.124,0.905,0.527,1.123l5.293,2.849l-12.698,8.935
			c-0.47,0.332-0.584,0.982-0.254,1.454c0.204,0.288,0.526,0.443,0.855,0.443c0.206,0,0.417-0.062,0.599-0.19l14.077-9.906
			c0.296-0.209,0.463-0.554,0.441-0.915c-0.022-0.361-0.229-0.685-0.546-0.857l-6.096-3.283l1.143-5.695L114.319,27.894z"/>
	</g>
</g>
<g id="Layer_1">
</g>
</svg>
