<?xml version="1.0" encoding="iso-8859-1"?>
<!-- Generator: Adobe Illustrator 21.0.0, SVG Export Plug-In . SVG Version: 6.00 Build 0)  -->
<svg version="1.1" xmlns="http://www.w3.org/2000/svg" xmlns:xlink="http://www.w3.org/1999/xlink" x="0px" y="0px"
	 viewBox="0 0 414 211" style="enable-background:new 0 0 414 211;" xml:space="preserve">
<g id="museum">
	<g id="camera">
		<g>
			<path style="fill:none;stroke:#228C4D;stroke-width:2;stroke-miterlimit:10;" d="M333.797,76.653
				c-0.1-0.768-0.189-1.831-0.13-3.091c0.081-1.73,0.412-8.794,5.396-11.584c3.101-1.735,6.532-0.993,7.95-0.59"/>
			<path style="fill:none;stroke:#228C4D;stroke-width:2;stroke-miterlimit:10;" d="M346.879,61.337
				c5.617,2.131,6.879,3.761,6.814,4.918c-0.084,1.515-2.43,2.028-4.505,4.174c-2.753,2.845-3.388,7.047-3.403,10.375"/>
		</g>
		<path style="fill:#228C4D;" d="M330.121,74.958c0.176,0.062,0.369-0.029,0.433-0.204l0.142-0.415l1.277,0.438l-0.142,0.415
			c-0.061,0.179,0.034,0.374,0.213,0.435c0.179,0.061,0.374-0.034,0.435-0.213l0.25-0.728c0.061-0.178-0.034-0.372-0.212-0.434
			l-1.942-0.666c-0.175-0.051-0.36,0.044-0.419,0.217l-0.25,0.728C329.85,74.708,329.946,74.898,330.121,74.958z"/>
		<path style="fill:#27AE60;stroke:#228C4D;stroke-width:0.25;stroke-miterlimit:10;" d="M336.928,75.359
			c0.26-0.286,0.666-0.39,1.032-0.265l3.149,1.079c0.366,0.125,0.623,0.456,0.653,0.842l0.162,2.098l-6.402-2.194L336.928,75.359z
			 M343.242,94.867l-18.411-6.311c-0.59-0.204-0.905-0.846-0.704-1.438l2.977-8.686l3.566,1.222
			c0.179,0.061,0.374-0.034,0.435-0.213c0.061-0.179-0.034-0.374-0.213-0.435l-3.566-1.222l0.538-1.568
			c0.204-0.59,0.846-0.905,1.438-0.704l18.411,6.311c0.59,0.204,0.905,0.846,0.704,1.438l-0.538,1.568l-3.617-1.24
			c-0.179-0.061-0.374,0.034-0.435,0.213c-0.061,0.179,0.034,0.374,0.213,0.435l3.617,1.24l-2.977,8.686
			C344.475,94.754,343.833,95.068,343.242,94.867z M347.935,81.175l-5.307-1.819l-0.183-2.393c-0.05-0.659-0.487-1.225-1.113-1.439
			l-3.139-1.076c-0.625-0.215-1.318-0.036-1.762,0.454l-1.613,1.777l-5.295-1.815c-0.949-0.324-1.981,0.181-2.308,1.13
			l-3.737,10.903c-0.324,0.949,0.181,1.981,1.13,2.308l18.411,6.311c0.949,0.324,1.981-0.181,2.308-1.13l3.737-10.903
			C349.388,82.534,348.883,81.502,347.935,81.175z"/>
		<path style="fill:#228C4D;" d="M338.372,79.061c-3.383-1.16-7.065,0.643-8.224,4.025s0.643,7.065,4.025,8.224
			c3.382,1.159,7.063-0.642,8.224-4.023C343.554,83.905,341.753,80.224,338.372,79.061z M334.426,90.575
			c-2.976-1.02-4.562-4.26-3.542-7.237c1.02-2.976,4.26-4.562,7.237-3.542s4.562,4.26,3.542,7.237l0,0
			c-1.022,2.976-4.26,4.562-7.238,3.544L334.426,90.575z"/>
		<path style="fill:#27AE60;stroke:#228C4D;stroke-width:0.25;stroke-miterlimit:10;" d="M337.929,80.355
			c-2.669-0.915-5.575,0.507-6.49,3.177s0.507,5.575,3.177,6.49c2.669,0.915,5.575-0.507,6.49-3.177
			C342.016,84.176,340.595,81.273,337.929,80.355z M334.867,89.286c-2.263-0.776-3.469-3.239-2.693-5.503
			c0.776-2.263,3.239-3.469,5.503-2.693c2.263,0.776,3.469,3.239,2.693,5.503C339.592,88.854,337.13,90.059,334.867,89.286z"/>
		<path style="fill:#228C4D;" d="M340.513,76.938l-2.53-0.867c-0.179-0.061-0.374,0.034-0.435,0.213
			c-0.061,0.179,0.034,0.374,0.213,0.435l2.53,0.867c0.179,0.061,0.374-0.034,0.435-0.213C340.788,77.194,340.692,77,340.513,76.938
			z"/>
	</g>
	<g id="masks">
		<g>
			<path style="fill:#228C4D;" d="M369.515,21.454l-3.458-0.198c-1.645-0.089-3.263-0.425-4.83-0.963l-3.03-1.056
				c-1.424-0.499-2.99,0.361-3.287,1.837l-1.577,7.951c-0.802,4.083,0.146,8.339,2.561,11.736l1.927,2.682
				c0.651,0.909,1.899,1.174,2.848,0.575l2.631-1.628c3.566-2.201,6.058-5.798,6.879-9.92l1.597-8.088
				C372.051,22.914,371.003,21.53,369.515,21.454z M357.281,26.641c0.942-0.261,2.021-0.048,2.699,0.972
				c0.345,0.513,0.898,1.065,0.6,1.956c-0.058,0.312-0.37,0.514-0.676,0.443c-0.767-0.35-1.755,0.132-2.568-0.257
				C355.88,29.256,355.618,27.209,357.281,26.641z M356.159,34.982l0.013,0.006c2.674,2.064,6.301,2.216,9.459,1.875
				C362.691,40.48,357.945,39.023,356.159,34.982z M366.536,31.597c-0.897,0.04-1.632-0.765-2.471-0.745
				c-0.312-0.058-0.514-0.37-0.456-0.682c0.057-0.93,0.779-1.236,1.292-1.581c1.026-0.69,2.105-0.477,2.86,0.127
				C369.101,29.872,368.076,31.667,366.536,31.597z"/>
		</g>
		<g>
			<path style="fill:none;" d="M373.763,36.484c0.565-0.742,1.338-0.599,1.956-0.6c1.235-0.001,2.003,0.771,2.322,1.694
				c0.47,1.696-1.388,2.621-2.618,1.699c-0.774-0.467-0.938-1.539-1.653-1.994C373.549,37.075,373.535,36.711,373.763,36.484z"/>
			<path style="fill:#27AE60;stroke:#228C4D;stroke-width:0.25;stroke-miterlimit:10;" d="M384.327,32.202
				c-0.111-0.104-0.221-0.208-0.338-0.299l-2.771-2.096c-1.249-0.948-2.388-2.084-3.338-3.337l-1.894-2.52
				c-0.098-0.13-0.189-0.24-0.299-0.344c-0.826-0.818-1.984-1.103-3.043-0.835c0.299,0.409,0.456,0.909,0.457,1.429
				c0.539-0.105,1.112,0.051,1.521,0.466c0.052,0.058,0.117,0.123,0.163,0.195l1.894,2.52c1.035,1.377,2.271,2.61,3.631,3.629
				l2.771,2.096c0.059,0.045,0.13,0.097,0.182,0.156c0.677,0.662,0.671,1.748-0.004,2.418l-5.817,5.837
				c-2.805,2.824-6.69,4.362-10.662,4.217l-3.114-0.107c-0.351-0.013-0.67-0.155-0.91-0.389c-0.247-0.253-0.397-0.572-0.398-0.929
				l-0.007-0.247l-0.422,0.26c-0.331,0.208-0.702,0.3-1.066,0.313c0.079,0.624,0.372,1.209,0.827,1.663
				c0.508,0.513,1.203,0.811,1.925,0.83l3.114,0.107c4.388,0.158,8.695-1.544,11.792-4.66l5.817-5.837
				C385.578,35.489,385.589,33.448,384.327,32.202z"/>
			<path style="fill:#27AE60;stroke:#228C4D;stroke-width:0.25;stroke-miterlimit:10;" d="M371.583,34.309
				c0.74-0.573,0.584-1.333,0.583-1.951c0.006-0.533-0.151-0.968-0.378-1.326l-0.356,1.755c-0.116,0.559-0.252,1.125-0.427,1.671
				C371.206,34.51,371.427,34.458,371.583,34.309z"/>
			<path style="fill:#27AE60;stroke:#228C4D;stroke-width:0.25;stroke-miterlimit:10;" d="M373.764,37.296
				c0.715,0.454,0.879,1.527,1.653,1.994c1.242,0.928,3.087-0.003,2.618-1.699c-0.319-0.923-1.087-1.695-2.322-1.694
				c-0.617,0.001-1.385-0.154-1.956,0.6C373.535,36.711,373.549,37.075,373.764,37.296z"/>
			<path style="fill:#27AE60;stroke:#228C4D;stroke-width:0.25;stroke-miterlimit:10;" d="M370.163,43.897
				c-0.015-1.404-0.608-3.048-2.052-4.255c-0.169,0.208-0.351,0.41-0.539,0.592c1.132,0.987,2.076,2.188,2.565,3.65L370.163,43.897z
				"/>
		</g>
	</g>
	<g id="museum_1_">
		<path style="fill:#27AE60;stroke:#228C4D;stroke-width:0.25;stroke-miterlimit:10;" d="M318.842,49.798h-44.543
			c-0.463,0-0.841,0.367-0.841,0.819v1.23c0,0.453,0.378,0.819,0.841,0.819h44.543c0.463,0,0.841-0.367,0.841-0.819v-1.23
			C319.683,50.164,319.305,49.798,318.842,49.798z"/>
		<path style="fill:#27AE60;stroke:#228C4D;stroke-width:0.25;stroke-miterlimit:10;" d="M276.198,45.748v1.159
			c0,0.453,0.378,0.819,0.841,0.819h39.101c0.463,0,0.841-0.367,0.841-0.819v-1.159c0-0.453-0.378-0.819-0.841-0.819h-39.096
			C276.576,44.924,276.198,45.297,276.198,45.748z"/>
		<path style="fill:#27AE60;stroke:#228C4D;stroke-width:0.25;stroke-miterlimit:10;" d="M319.165,14.751v0.002
			c0.463,0,0.701-0.071,0.522-0.162c-0.13-0.064-0.221-0.113-0.324-0.152c-7.383-2.934-14.759-5.868-22.142-8.817
			c-0.468-0.184-0.853-0.184-1.316,0.005c-6.773,2.706-13.546,5.398-20.325,8.094c-0.512,0.206-1.02,0.409-1.532,0.62
			c-0.431,0.172-0.772,0.34-0.76,0.361c0.012,0.02,0.394,0.049,0.858,0.049H319.165z"/>
		<path style="fill:#228C4D;" d="M283.461,42.248c0.463,0,0.841-0.367,0.841-0.819V23.014c0-0.453-0.377-0.819-0.841-0.819h-3.812
			c-0.463,0-0.841,0.367-0.841,0.819v18.416c0,0.453,0.378,0.819,0.841,0.819H283.461z"/>
		<path style="fill:#27AE60;stroke:#228C4D;stroke-width:0.25;stroke-miterlimit:10;" d="M319.317,16.952h-45.481
			c-0.463,0-0.841,0.367-0.841,0.819v0.647c0,0.453,0.378,0.819,0.841,0.819h45.481c0.463,0,0.841-0.367,0.841-0.819v-0.647
			C320.158,17.318,319.78,16.952,319.317,16.952z"/>
		<path style="fill:#228C4D;" d="M314.307,41.446V23.014c0-0.453-0.377-0.819-0.841-0.819h-3.797c-0.463,0-0.841,0.367-0.841,0.819
			v18.421c0,0.453,0.377,0.819,0.841,0.819l3.797,0.01v0.002C313.929,42.265,314.307,41.898,314.307,41.446z"/>
		<path style="fill:#228C4D;" d="M303.458,42.221c0.463,0,0.841-0.367,0.841-0.819V23.004c0-0.453-0.378-0.819-0.841-0.819h-3.78
			c-0.463,0-0.841,0.367-0.841,0.819v18.394c0,0.453,0.377,0.819,0.841,0.819L303.458,42.221z"/>
		<path style="fill:#228C4D;" d="M293.475,42.26c0.463,0,0.841-0.367,0.841-0.819V23.009c0-0.453-0.377-0.819-0.841-0.819h-3.797
			c-0.463,0-0.841,0.367-0.841,0.819v18.433c0,0.453,0.378,0.819,0.841,0.819H293.475z"/>
	</g>
	<path id="path" style="fill:#228C4D;" d="M278.136,64.829c-1.047,1.647-2.078,3.321-3.092,4.986
		c-0.893,1.485-0.644,2.885,0.608,3.694c1.285,0.827,2.756,0.427,3.695-1.073c0.901-1.426,1.748-2.88,2.616-4.318l0.02,0.011
		l0.384-0.729c0.814-1.497,0.532-2.931-0.738-3.681c-1.222-0.712-2.605-0.292-3.496,1.109L278.136,64.829z M259.952,91.025
		c-1.317,1.382-2.656,2.756-3.979,4.134c-0.245,0.255-0.447,0.541-0.56,0.674c-0.62,1.177-0.398,2.442,0.442,3.158
		c1.021,0.867,2.408,0.901,3.412-0.073c1.523-1.465,2.972-2.999,4.399-4.541c1.15-1.252,1.129-2.71,0.008-3.728
		c-1.077-1.02-2.561-0.845-3.724,0.374L259.952,91.025z M269.77,78.092c-1.326,1.787-2.563,3.65-3.842,5.478
		c-0.702,1.227-0.426,2.577,0.66,3.311c1.2,0.811,2.538,0.654,3.423-0.532c1.32-1.752,2.578-3.548,3.806-5.361
		c0.78-1.173,0.508-2.602-0.512-3.357C272.114,76.755,270.661,76.895,269.77,78.092z M247.655,65.212
		c-0.553,2.194-1.04,4.414-1.476,6.644c-0.25,1.277,0.543,2.391,1.812,2.786c1.078,0.337,2.272-0.212,3.055-1.26
		c0.498-2.526,1.07-5.039,1.438-7.578c0.177-1.162-0.862-2.149-2.032-2.343c-1.32-0.217-2.449,0.418-2.793,1.752L247.655,65.212z
		 M243.814,80.65c-0.674,2.365-1.215,4.77-1.656,7.189c-0.209,1.175,0.722,2.212,1.884,2.495c1.096,0.278,2.224-0.25,2.934-1.597
		c0.472-2.168,1.12-4.671,1.552-7.202c0.186-1.106-0.793-2.126-1.876-2.38c-1.177-0.278-2.492,0.272-2.839,1.498L243.814,80.65z
		 M248.269,55.04c-3.157-1.035-5.921-0.125-8.452,1.778c-0.362,0.275-0.629,0.805-0.745,1.26c-0.247,0.988,0.047,1.857,0.872,2.496
		c0.906,0.695,1.875,0.77,2.84,0.185c1.371-0.836,2.709-1.43,4.411-0.9c1.118,0.341,2.023-0.314,2.491-1.122
		c0.794-1.589,0.112-3.195-1.414-3.695L248.269,55.04z M236.326,63.656c-1.186-0.885-2.719-0.57-3.661,0.805
		c-1.031,1.519-2.032,3.055-2.873,4.336l-0.305,0.578c-0.96,1.668-0.734,3.055,0.631,3.86c1.337,0.785,2.59,0.352,3.616-1.238
		c1.001-1.535,1.985-3.096,3.02-4.614c0.921-1.334,0.78-2.826-0.43-3.724L236.326,63.656z M242.195,98.299
		c0.686,2.151,2.036,3.763,4.41,5.069c0.479,0.103,1.381,0.386,2.298,0.485c1.339,0.133,2.422-0.731,2.659-1.96
		c0.251-1.303-0.471-2.584-1.822-2.847c-1.535-0.305-2.358-1.148-2.924-2.539c-0.507-1.266-1.913-1.815-3.108-1.364
		c-1.238,0.454-1.927,1.842-1.512,3.153L242.195,98.299z M228.015,82.263c0.327-0.622,0.702-1.227,0.971-1.867
		c0.456-1.126-0.064-2.425-1.143-2.993c-1.133-0.597-2.572-0.305-3.207,0.77c-0.683,1.143-1.303,2.32-1.869,3.524
		c-0.533,1.141,0.007,2.532,1.102,3.121c1.108,0.596,2.536,0.268,3.212-0.78C227.439,83.463,227.705,82.852,228.015,82.263z"/>
</g>
<g id="Layer_1">
</g>
</svg>
