<?xml version="1.0" encoding="iso-8859-1"?>
<!-- Generator: Adobe Illustrator 21.0.0, SVG Export Plug-In . SVG Version: 6.00 Build 0)  -->
<svg version="1.1" xmlns="http://www.w3.org/2000/svg" xmlns:xlink="http://www.w3.org/1999/xlink" x="0px" y="0px"
	 viewBox="0 0 414 211" style="enable-background:new 0 0 414 211;" xml:space="preserve">
<g id="nurse">
	<g id="Layer_7">
		<path style="fill:#3E3E3E;stroke:#000000;stroke-width:0.25;stroke-miterlimit:10;" d="M251.025,167.195
			c-5.288-12.514-11.104-24.852-16.568-37.367c0.529-1.939,7.403-17.978,9.87-25.029c-26.615-27.32-65.039-19.741-87.247,0
			c-0.353,0.353-0.529,0.881-0.353,1.234c2.644,8.46,4.583,16.921,10.575,23.618c0.176,0.176,0.353,0.353,0.529,0.529
			c-5.288,13.219-10.575,26.967-13.924,40.715c-1.586,6.874-3.701,14.982-2.115,22.208c3.525,16.921,26.086,18.683,36.485,6.522
			c0,0,6.522,2.82,10.047,3.349c6.522,1.058,12.338-0.176,17.449-2.996c11.633,14.101,35.604,11.28,39.658-7.579
			C257.194,183.939,254.198,174.774,251.025,167.195z M243.622,158.206c-7.579-0.881-14.806-0.353-22.385-2.291
			c-10.928-2.82-18.154-9.342-23.795-18.683c0.705-1.586,1.234-3.349,1.586-5.111c5.816-1.058,11.28-1.234,17.273,1.41
			c5.111,2.115,8.989,3.878,14.453,2.468c0.881-0.176,1.763-1.234,2.468-2.468C236.043,141.814,239.921,150.098,243.622,158.206z
			 M163.249,117.314c-1.058-2.644-1.939-5.464-2.82-8.284c-0.881-3.173-1.763-2.468,0.881-4.583
			c6.522-5.464,14.101-9.87,22.032-12.867c19.388-7.05,42.654-1.763,57.46,11.985c-2.996,8.637-6.874,16.744-10.399,25.029
			c-3.173,7.755-16.568-0.705-23.266-1.234s-13.748,2.291-20.27,3.701C175.234,133.882,167.655,127.889,163.249,117.314z
			 M169.771,131.767c6.522,4.759,15.687,3.349,23.266,1.763c1.41-0.353,2.82-0.705,4.23-0.881
			c-4.054,7.05-7.932,12.514-15.158,16.921c-6.345,3.878-13.924,5.816-20.975,8.108
			C163.778,148.864,167.127,140.404,169.771,131.767z M158.666,200.155c-5.288-4.583-4.583-13.396-3.701-19.565
			c0.881-7.05,2.82-13.748,4.935-20.446c2.644,0,5.288-0.705,8.108-1.586c-1.939,14.453,5.464,30.669,17.449,38.953
			C178.583,204.561,166.598,206.853,158.666,200.155z M196.914,199.097c-18.507-2.996-26.439-24.852-26.791-41.068
			c4.759-1.763,9.342-4.054,13.219-6.169c5.111-2.82,10.047-7.05,13.043-12.162c5.464,18.154,37.895,22.385,37.895,22.385
			C232.694,181.119,218.417,202.622,196.914,199.097z M248.029,199.802c-8.284,10.047-20.975,4.759-29.435-1.586
			c11.28-7.932,18.331-23.266,19.212-36.133l0,0c2.468,0,5.111-0.176,7.403-0.353c2.291,5.111,4.23,10.399,5.816,15.687
			C252.788,184.82,253.14,193.457,248.029,199.802z"/>
	</g>
	<g id="Layer_6">
		<path style="fill:#3E3E3E;stroke:#000000;stroke-width:0.25;stroke-miterlimit:10;" d="M186.691,164.198
			c-0.176,0.705-0.705,1.41-0.705,2.291c0,1.058,1.41,1.41,1.939,0.529c0.529-0.881,0.176-1.763-0.176-2.82
			C187.572,163.846,186.867,163.846,186.691,164.198z"/>
	</g>
	<g id="Layer_5">
		<path style="fill:#3E3E3E;stroke:#000000;stroke-width:0.25;stroke-miterlimit:10;" d="M215.95,164.198
			c-0.176,0.705-0.705,1.41-0.705,2.291c0,1.058,1.41,1.41,1.939,0.529c0.529-0.881,0.176-1.763-0.176-2.82
			C216.831,163.846,216.126,163.846,215.95,164.198z"/>
	</g>
	<g id="Layer_4">
		<path style="fill:#3E3E3E;stroke:#000000;stroke-width:0.25;stroke-miterlimit:10;" d="M207.842,184.115
			c-4.23,2.291-8.637,1.586-12.867-0.176c-0.705-0.353-1.058,0.705-0.705,1.234c3.349,4.23,10.752,3.878,14.982,1.234
			C210.662,185.702,209.252,183.41,207.842,184.115z"/>
	</g>
	<g id="Layer_3">
		<path style="fill:#DD6E45;stroke:#000000;stroke-width:0.25;stroke-miterlimit:10;" d="M163.191,117.294
			c-1.058-2.644-1.939-5.464-2.82-8.284c-0.881-3.173-1.763-2.468,0.881-4.583c6.522-5.464,14.101-9.87,22.032-12.867
			c19.388-7.05,42.654-1.763,57.46,11.985c-2.996,8.637-6.874,16.744-10.399,25.029c-3.173,7.755-16.568-0.705-23.266-1.234
			c-6.698-0.529-13.748,2.291-20.27,3.701C175.177,133.862,167.598,127.869,163.191,117.294z"/>
	</g>
	<g id="Layer_8">
		<path style="fill:#3E3E3E;stroke:#000000;stroke-width:0.25;stroke-miterlimit:10;" d="M192.155,110.792
			c2.468,0.705,5.111,0.881,7.755,0.705c-0.176,2.996-0.529,6.345,0.176,9.342c0.176,1.41,2.468,1.41,2.82,0
			c0.529-2.996,0.176-9.342,0.176-9.342c3.349,0,6.698,0.529,9.694-0.705c0.705-0.353,0.705-1.41,0-1.763
			c-2.996-1.234-9.87-0.705-9.87-0.705c0-2.644,0-5.288-0.705-7.755c-0.176-0.881-1.586-0.881-1.763,0
			c-0.353,2.644-0.353,5.288-0.353,7.932c-2.644,0-5.464,0-7.932,0.705C191.45,109.559,191.45,110.616,192.155,110.792z"/>
	</g>
</g>
<g id="Layer_1">
</g>
</svg>
