<?xml version="1.0" encoding="iso-8859-1"?>
<!-- Generator: Adobe Illustrator 21.0.0, SVG Export Plug-In . SVG Version: 6.00 Build 0)  -->
<svg version="1.1" xmlns="http://www.w3.org/2000/svg" xmlns:xlink="http://www.w3.org/1999/xlink" x="0px" y="0px"
	 viewBox="0 0 414 211" style="enable-background:new 0 0 414 211;" xml:space="preserve">
<g id="restaurant">
	<path style="fill:none;stroke:#3E3E3E;stroke-miterlimit:10;" d="M301.083,41.57c0.753,0,1.367-0.167,1.367-0.376v-0.567
		c0.004-0.205-0.609-0.376-1.363-0.376h-23.519c-0.053,0.44-0.125,0.879-0.221,1.319H301.083z"/>
	<path style="fill:#4C3232;stroke:#DD6E45;stroke-width:0.25;stroke-miterlimit:10;" d="M303.701,9.55
		c-0.636-0.636-1.549-0.795-2.344-0.516c0.279-0.795,0.121-1.706-0.516-2.344c-0.883-0.883-2.306-0.879-3.189,0
		c-0.469,0.469-0.67,1.097-0.636,1.716c0.14,2.041-1.008,3.682-1.883,4.556c-2.362,2.362-9.639,2.961-9.639,2.961v0.009
		c-1.469,0.205-2.887,0.818-4.083,1.841c-0.511,0.201-0.981-0.697,0.051-1.507c0.516-0.404,1.781-0.879,1.311-1.135
		c-7.216,0.192-13.335,4.223-15.833,9.858c0.288,0.069,0.576,0.13,0.863,0.219c5.932,1.829,9.773,7.266,9.868,13.164
		c1.662-0.003,3.531-0.022,5.633-0.022c14.771,0,17.579,0.841,17.579-7.727c0-3.844-1.595-7.355-4.216-10.066
		c-0.391,1.581-0.647,3.255-0.753,4.478l-0.004,0.038l-0.009,0.038c-0.288,2.069-1.2,3.92-2.641,5.361
		c-1.781,1.781-4.153,2.766-6.672,2.766c-2.259,0-4.235-0.665-5.943-2.115c-0.911-0.833,0.177-1.934,1.2-0.953
		c0.321,0.241,0.66,0.446,1.004,0.632c0.084,0.047,0.167,0.093,0.251,0.135c0.288,0.139,0.581,0.27,0.879,0.372
		c0.186,0.065,0.376,0.116,0.567,0.167c0.232,0.061,0.456,0.131,0.689,0.171c0.433,0.074,0.865,0.121,1.306,0.121
		c0.907,0.004,1.805-0.163,2.665-0.465c1.097-0.381,2.139-0.985,3.018-1.864c1.274-1.274,1.999-2.874,2.232-4.529l0.028,0.004
		c0,0,0.604-7.281,2.967-9.639c0.883-0.888,2.557-2.055,4.641-1.883h0.078v-0.004c0.558-0.015,1.112-0.224,1.534-0.651
		c0.879-0.879,0.879-2.306,0-3.189L303.701,9.55z"/>
	<path style="fill:none;" d="M266.636,35.585c-0.668,1.57-1.414,3.426-1.769,4.671c0.059-0.002,0.118-0.005,0.179-0.005h1.31
		l1.113-3.611C267.14,36.342,266.864,35.993,266.636,35.585z"/>
	<path style="fill:none;" d="M269.492,37.728l-0.778,2.523h0.864l0.715-2.318C270.011,37.872,269.743,37.805,269.492,37.728z"/>
	<path style="fill:none;" d="M268.087,37.11l-0.968,3.141h0.831l0.855-2.773C268.548,37.368,268.308,37.247,268.087,37.11z"/>
	<path style="fill:none;" d="M271.015,38.067l-0.673,2.184h1.241c0.161-0.663,0.316-1.366,0.46-2.057
		C271.684,38.159,271.339,38.117,271.015,38.067z"/>
	<path style="fill:none;" d="M251.296,34.771c-2.104,6.826,1.741,14.092,8.566,16.196c6.826,2.104,14.091-1.737,16.195-8.563
		c0.085-0.277,0.146-0.556,0.212-0.834h-1.177c-0.043,0.164-0.074,0.329-0.125,0.493c-1.285,4.168-4.67,7.099-8.632,8.015
		l1.489-5.906c0,0,0.015-0.006,0.032-0.004c0.975,0.073,1.931-0.268,2.644-0.845c0.223-0.183,0.479-0.853,0.738-1.752h-1.303
		l-0.008,0.027l-0.088-0.027h-4.793c-0.123,0-0.24-0.006-0.353-0.014c0.273,0.876,0.871,1.688,1.717,2.169l-2.436,6.653
		c-1.244,0.035-2.514-0.125-3.77-0.513c-0.933-0.288-1.789-0.692-2.589-1.17l1.944-7.708c0,0,0.894-0.046,0.907-0.045
		c1.601-0.186,3.189-1.699,3.921-4.072c0.797-2.584-0.525-5.433-2.457-6.052l-0.01-0.003c-1.951-0.579-4.641,1.033-5.438,3.617
		c-0.732,2.373-0.271,4.517,0.947,5.572c0.119,0.114,0.718,0.539,0.718,0.539l-2.455,6.714c-3.239-2.988-4.682-7.658-3.297-12.151
		c1.826-5.921,7.879-9.357,13.819-8.045c0.099-0.371,0.202-0.74,0.33-1.1C260.006,24.477,253.303,28.261,251.296,34.771z
		 M258.126,39.444c-0.04,0.041-0.112,0.049-0.166,0.016c-0.014-0.008-0.089-0.058-0.192-0.157c-0.022-0.027-0.043-0.057-0.071-0.086
		l-0.038-0.051c-0.116-0.143-0.271-0.345-0.403-0.604c-0.433-0.789-0.417-1.451-0.442-2.152c0-0.242,0.022-0.442,0.078-0.676
		c0.057-0.197,0.119-0.385,0.2-0.594c0.168-0.397,0.376-0.731,0.541-0.975c0.186-0.288,0.4-0.493,0.537-0.621
		c0.173-0.148,0.287-0.246,0.287-0.246c0.053-0.04,0.138-0.034,0.189,0.018c0.055,0.061,0.066,0.131,0.032,0.188
		c-0.001,0.003-0.106,0.141-0.198,0.297l0-0.002c-0.104,0.14-0.198,0.351-0.328,0.629c-0.114,0.252-0.229,0.569-0.342,0.946
		c-0.049,0.16-0.088,0.338-0.128,0.524c-0.033,0.161-0.053,0.359-0.048,0.515c0.032,0.73,0.013,1.424,0.169,1.971
		c0.037,0.109,0.074,0.218,0.1,0.316c0.042,0.136,0.082,0.256,0.122,0.345c0.052,0.144,0.104,0.227,0.104,0.227
		C258.167,39.329,258.166,39.4,258.126,39.444z"/>
	<path style="fill:none;" d="M275.359,40.251h1.153c0.082-0.629,0.123-1.257,0.112-1.879c-0.394-0.002-0.772-0.006-1.141-0.011
		C275.495,38.986,275.45,39.618,275.359,40.251z"/>
	<path style="fill:none;" d="M269.578,40.251h-0.864l-0.274,0.888l-0.698-0.215l0.208-0.673h-0.831l-0.134,0.436l-0.698-0.215
		l0.068-0.221h-1.31c-0.061,0-0.12,0.003-0.179,0.005c-0.171,0.597-0.252,1.054-0.189,1.265c0.004,0.012,0.011,0.023,0.014,0.036
		c0.113,0.008,0.23,0.014,0.353,0.014h4.793l-0.61-0.188L269.578,40.251z"/>
	<path style="fill:none;" d="M275.092,41.57h1.177c0.104-0.44,0.186-0.879,0.243-1.319h-1.153
		C275.296,40.691,275.207,41.131,275.092,41.57z"/>
	<path style="fill:none;" d="M270.342,40.251l-0.407,1.319h1.303c0.115-0.401,0.231-0.85,0.345-1.319H270.342z"/>
	<path style="fill:none;" d="M271.569,33.793l-0.789-0.243l-1.288,4.178c0.252,0.077,0.52,0.145,0.801,0.205L271.569,33.793z"/>
	<path style="fill:none;" d="M267.157,27.304l0.004-0.001c4.997,1.54,8.227,6.097,8.322,11.057c0.369,0.005,0.746,0.01,1.141,0.011
		c-0.095-5.45-3.644-10.475-9.129-12.166c-0.316-0.098-0.634-0.169-0.952-0.241c-0.129,0.36-0.231,0.729-0.33,1.1
		C266.528,27.134,266.843,27.207,267.157,27.304z"/>
	<path style="fill:none;" d="M272.805,34.174l-0.538-0.166l-1.251,4.059c0.324,0.05,0.668,0.092,1.028,0.128
		C272.479,36.104,272.805,34.174,272.805,34.174z"/>
	<path style="fill:none;" d="M267.468,36.64l1.158-3.758l-0.703-0.217c0,0-0.602,1.307-1.288,2.919
		C266.864,35.993,267.14,36.342,267.468,36.64z"/>
	<path style="fill:none;" d="M270.082,33.334l-0.759-0.234l-1.236,4.01c0.221,0.137,0.461,0.258,0.718,0.367L270.082,33.334z"/>
	<path style="fill:#D8583D;" d="M271.584,40.251h3.776c0.091-0.633,0.136-1.265,0.124-1.89c-1.298-0.019-2.438-0.067-3.44-0.166
		C271.899,38.885,271.744,39.588,271.584,40.251z"/>
	<path style="fill:#D8583D;" d="M270.293,37.933l-0.715,2.318h0.764l0.673-2.184C270.763,38.027,270.524,37.982,270.293,37.933z"/>
	<path style="fill:#D9573D;" d="M263.678,41.194v-0.567c0-0.192,0.52-0.347,1.188-0.371c0.355-1.244,1.101-3.101,1.769-4.671
		c-0.637-1.136-0.907-2.727-0.907-4.961c0-1.227,0.179-2.415,0.485-3.559c-5.939-1.312-11.993,2.123-13.819,8.045
		c-1.385,4.492,0.058,9.163,3.297,12.151l2.455-6.714c0,0-0.599-0.425-0.718-0.539c-1.218-1.056-1.679-3.2-0.947-5.572
		c0.797-2.584,3.487-4.196,5.438-3.617l0.01,0.003c1.932,0.619,3.254,3.467,2.457,6.052c-0.732,2.373-2.32,3.886-3.921,4.072
		c-0.013-0.001-0.907,0.045-0.907,0.045l-1.944,7.708c0.801,0.478,1.657,0.882,2.589,1.17c1.257,0.387,2.527,0.548,3.77,0.513
		l2.436-6.653c-0.846-0.482-1.444-1.294-1.717-2.169C264.11,41.513,263.678,41.369,263.678,41.194z"/>
	<path style="fill:#D9573D;" d="M270.5,43.322c-0.714,0.577-1.67,0.919-2.644,0.845c-0.016-0.002-0.032,0.004-0.032,0.004
		l-1.489,5.906c3.963-0.915,7.347-3.846,8.632-8.015c0.05-0.164,0.082-0.329,0.125-0.493h-3.854
		C270.98,42.469,270.723,43.139,270.5,43.322z"/>
	<polygon points="269.927,41.597 269.935,41.57 269.839,41.57 	"/>
	<path style="fill:#D8583D;" d="M268.805,37.478l-0.855,2.773h0.764l0.778-2.523C269.249,37.653,269.021,37.57,268.805,37.478z"/>
	<path style="fill:#D8583D;" d="M267.468,36.64l-1.113,3.611h0.764l0.968-3.141C267.862,36.97,267.658,36.812,267.468,36.64z"/>
	<polygon style="fill:#D8583D;" points="269.578,40.251 269.229,41.382 269.839,41.57 269.935,41.57 270.342,40.251 	"/>
	<path style="fill:#D8583D;" d="M271.584,40.251c-0.114,0.469-0.229,0.919-0.345,1.319h3.854c0.115-0.44,0.204-0.879,0.267-1.319
		H271.584z"/>
	<path style="fill:#D8583D;" d="M264.866,40.256c-0.668,0.024-1.188,0.179-1.188,0.371v0.567c0,0.175,0.432,0.319,1.014,0.362
		c-0.004-0.012-0.011-0.023-0.014-0.036C264.614,41.31,264.696,40.853,264.866,40.256z"/>
	<polygon style="fill:#D8583D;" points="266.287,40.472 266.985,40.687 267.119,40.251 266.355,40.251 	"/>
	<polygon style="fill:#D8583D;" points="267.742,40.924 268.44,41.139 268.714,40.251 267.95,40.251 	"/>
	<path style="fill:#D9573D;" d="M266.636,35.585c0.686-1.612,1.288-2.919,1.288-2.919l0.703,0.217l-1.158,3.758
		c0.19,0.172,0.394,0.33,0.619,0.47l1.236-4.01l0.759,0.234l-1.277,4.143c0.216,0.092,0.444,0.176,0.687,0.25l1.288-4.178
		l0.789,0.243l-1.276,4.14c0.231,0.049,0.47,0.095,0.723,0.134l1.251-4.059l0.538,0.166c0,0-0.326,1.93-0.762,4.021
		c1.093,0.248,2.156,0.269,3.44,0.166c-0.095-4.96-3.325-9.517-8.322-11.057l-0.004,0.001c-0.314-0.097-0.629-0.17-0.944-0.24
		c-0.306,1.144-0.717,2.296-0.717,3.524C265.496,32.823,265.999,34.449,266.636,35.585z"/>
	<path style="fill:#3E3E3E;" d="M276.624,38.372c0.011,0.623-0.03,1.25-0.112,1.879h1.056c0.076-0.629,0.112-1.256,0.102-1.878
		C277.312,38.373,276.963,38.373,276.624,38.372z"/>
	<path style="fill:#3E3E3E;" d="M276.057,42.404c-2.104,6.826-9.369,10.667-16.195,8.563c-6.825-2.104-10.67-9.37-8.566-16.196
		c2.007-6.51,8.71-10.293,15.247-8.806c0.118-0.331,0.255-0.654,0.397-0.974c-7.119-1.711-14.454,2.38-16.641,9.473
		c-2.273,7.373,1.875,15.228,9.254,17.503c7.375,2.274,15.23-1.882,17.503-9.254c0.117-0.38,0.206-0.761,0.29-1.142h-1.078
		C276.203,41.848,276.143,42.127,276.057,42.404z"/>
	<path style="fill:#3E3E3E;" d="M276.269,41.57h1.078c0.096-0.44,0.169-0.88,0.221-1.319h-1.056
		C276.455,40.691,276.373,41.131,276.269,41.57z"/>
	<path style="fill:#3E3E3E;" d="M267.803,25.209c-0.287-0.088-0.575-0.15-0.863-0.219c-0.142,0.321-0.279,0.644-0.397,0.974
		c0.318,0.072,0.636,0.144,0.952,0.241c5.484,1.691,9.034,6.716,9.129,12.166c0.339,0.001,0.688,0.002,1.046,0.001
		C277.575,32.476,273.735,27.038,267.803,25.209z"/>
	<path style="fill:#F2754E;" d="M258.129,39.271c0,0-0.052-0.083-0.104-0.227c-0.039-0.09-0.08-0.209-0.122-0.345
		c-0.026-0.098-0.064-0.207-0.1-0.316c-0.156-0.547-0.136-1.241-0.169-1.971c-0.005-0.156,0.015-0.353,0.048-0.515
		c0.04-0.185,0.079-0.364,0.128-0.524c0.113-0.377,0.227-0.694,0.342-0.946c0.13-0.278,0.224-0.49,0.328-0.629l0,0.002
		c0.092-0.156,0.197-0.294,0.198-0.297c0.034-0.056,0.022-0.127-0.032-0.188c-0.051-0.052-0.136-0.059-0.189-0.018
		c0,0-0.114,0.099-0.287,0.246c-0.137,0.128-0.351,0.333-0.537,0.621c-0.165,0.244-0.373,0.578-0.541,0.975
		c-0.081,0.209-0.143,0.398-0.2,0.594c-0.055,0.234-0.077,0.435-0.078,0.676c0.025,0.7,0.009,1.362,0.442,2.152
		c0.132,0.258,0.287,0.46,0.403,0.604l0.038,0.051c0.028,0.028,0.049,0.059,0.071,0.086c0.103,0.099,0.178,0.149,0.192,0.157
		c0.054,0.033,0.126,0.025,0.166-0.016C258.166,39.4,258.167,39.329,258.129,39.271z"/>
</g>
<g id="Layer_1">
</g>
</svg>
