<?xml version="1.0" encoding="iso-8859-1"?>
<!-- Generator: Adobe Illustrator 21.0.0, SVG Export Plug-In . SVG Version: 6.00 Build 0)  -->
<svg version="1.1" xmlns="http://www.w3.org/2000/svg" xmlns:xlink="http://www.w3.org/1999/xlink" x="0px" y="0px"
	 viewBox="0 0 414 211" style="enable-background:new 0 0 414 211;" xml:space="preserve">
<g id="rocket">
	<g id="Layer_30">
		<g>
			<path style="fill:#3E3E3E;" d="M48.008,151.607c0.124,0,0.249,0.008,0.37,0.025c1.524,0.209,2.802,1.844,2.629,3.368
				c-0.15,1.367-1.703,2.709-3.134,2.709c-0.11,0-0.219-0.008-0.326-0.025c-1.549-0.231-2.791-1.849-2.607-3.39
				C45.122,152.813,46.498,151.607,48.008,151.607 M48.008,150.607c-1.982,0-3.816,1.561-4.06,3.566
				c-0.247,2.064,1.375,4.19,3.452,4.501c0.157,0.024,0.315,0.035,0.474,0.035c1.92,0,3.917-1.686,4.128-3.6
				c0.235-2.066-1.421-4.184-3.487-4.468C48.345,150.619,48.176,150.607,48.008,150.607L48.008,150.607z"/>
		</g>
	</g>
	<g id="Layer_29">
		<g>
			<path style="fill:#35838D;" d="M56.052,141.032c0.685-0.034,1.369-0.071,2.052-0.108c2.326-0.127,4.731-0.258,7.085-0.269
				c0.177,0,0.397,0.025,0.486,0.145c0.079,0.106,0.173,0.413-0.085,1.268c-0.54,1.811-1.085,3.616-1.645,5.466l-0.811,2.688
				C61.102,147.577,56.052,141.032,56.052,141.032z"/>
			<path style="fill:#3E3E3E;" d="M65.197,140.155v1c0.024,0,0.044,0.001,0.063,0.002c0.001,0.119-0.022,0.354-0.148,0.77
				c-0.544,1.825-1.094,3.647-1.659,5.514c-0.17,0.563-0.342,1.13-0.514,1.702c-1.693-2.198-3.336-4.328-5.015-6.503l-0.893-1.157
				c0.367-0.02,0.733-0.039,1.099-0.059c2.321-0.126,4.72-0.257,7.062-0.268L65.197,140.155 M65.197,140.155
				c-0.003,0-0.006,0-0.009,0c-3.362,0.015-6.721,0.269-10.117,0.424c2.817,3.652,5.447,7.057,8.263,10.716l0,0.002
				c0.95-3.159,1.852-6.117,2.737-9.085C66.349,141.287,66.497,140.155,65.197,140.155L65.197,140.155z"/>
		</g>
	</g>
	<g id="Layer_28">
		<g>
			<path style="fill:#35838D;" d="M26.97,188.464c-0.059,0-0.197,0-0.372-0.343c-0.193-0.382-0.513-0.681-0.823-0.971
				c-0.702-0.655-0.963-0.952-0.366-1.715l0.446-0.574c1.202-1.545,2.404-3.092,3.59-4.653c0.214-0.279,0.363-0.584,0.507-0.879
				c0.061-0.123,0.121-0.246,0.186-0.366l0.1-0.184l-0.062-0.201c-0.048-0.158-0.103-0.314-0.158-0.469l-0.289-0.833l-0.555,0.452
				c-0.547,0.447-1.022,0.674-1.412,0.674c-0.646,0-1.15-0.662-1.685-1.363l-0.283-0.367c-1.505-1.903-3.003-3.804-4.492-5.726
				c-0.154-0.199-0.328-0.398-0.501-0.597c-0.504-0.575-0.98-1.118-0.921-1.656c0.047-0.43,0.437-0.916,1.159-1.445l0.829-0.608
				l-1.726-0.482l-0.116,0.022c-0.147,0.029-0.299,0.048-0.451,0.066c-0.362,0.046-0.735,0.093-1.099,0.248l-0.917,0.386
				c-1.552,0.652-3.156,1.326-4.672,2.122c-0.343,0.181-0.639,0.272-0.88,0.272c-0.502,0-0.789-0.41-1.215-1.08
				c-0.199-0.313-0.405-0.637-0.664-0.901c-0.155-0.16-0.241-0.303-0.235-0.394c0.011-0.172,0.34-0.432,0.58-0.621
				c0.117-0.093,0.232-0.184,0.333-0.274l0.89-0.801c2.389-2.149,4.859-4.372,7.353-6.468c0.4-0.338,1.13-0.564,1.952-0.606
				c0.411-0.022,0.825-0.036,1.241-0.036c0.954,0,1.775,0.074,2.509,0.229c0.385,0.081,0.761,0.122,1.117,0.122
				c1.749,0,2.964-0.938,4.251-2.344c5.878-6.43,12.031-10.793,18.811-13.339c1.696-0.638,2.691-1.012,3.387-1.012
				c0.884,0,1.399,0.617,3.051,2.759l0.711,0.925c1.669,2.17,3.396,4.415,5.207,6.543c0.605,0.711,0.576,1.084,0.188,1.779
				c-3.021,5.408-7.294,10.036-12.703,13.754c-1.371,0.94-2.833,1.812-4.247,2.653c-1.204,0.717-2.45,1.459-3.643,2.246
				c-0.713,0.469-1.363,1.408-1.617,2.336c-0.263,0.978-0.436,1.983-0.603,2.956c-0.144,0.836-0.292,1.702-0.496,2.528
				c-0.128,0.518-0.536,1.116-0.969,1.424c-2.033,1.438-4.134,2.859-6.167,4.234c-1.063,0.72-2.127,1.439-3.187,2.166
				C27.68,188.164,27.24,188.464,26.97,188.464L26.97,188.464z M48.008,150.107c-2.281,0-4.283,1.759-4.556,4.005
				c-0.28,2.344,1.53,4.705,3.874,5.056c0.18,0.027,0.363,0.041,0.547,0.041c2.227,0,4.388-1.89,4.625-4.045
				c0.267-2.349-1.563-4.694-3.916-5.018C48.391,150.12,48.199,150.107,48.008,150.107z"/>
			<path style="fill:#3E3E3E;" d="M52.319,142.249c0.647,0,1.153,0.616,2.67,2.584l0.699,0.908c1.672,2.174,3.402,4.423,5.219,6.559
				c0.449,0.527,0.43,0.677,0.132,1.211c-2.983,5.342-7.205,9.913-12.549,13.586c-1.357,0.932-2.812,1.798-4.219,2.636
				c-1.21,0.72-2.46,1.465-3.662,2.258c-0.821,0.54-1.537,1.569-1.826,2.626c-0.269,0.999-0.443,2.016-0.612,2.999
				c-0.149,0.866-0.289,1.685-0.489,2.493c-0.101,0.406-0.434,0.895-0.771,1.136c-2.028,1.434-4.125,2.853-6.153,4.225
				c-1.066,0.721-2.132,1.443-3.193,2.169c-0.258,0.175-0.413,0.257-0.5,0.294c-0.006-0.011-0.012-0.023-0.019-0.036
				c-0.233-0.462-0.603-0.807-0.928-1.111c-0.653-0.609-0.653-0.609-0.312-1.045l0.409-0.526c1.195-1.536,2.43-3.124,3.626-4.7
				c0.248-0.322,0.416-0.666,0.564-0.97c0.056-0.116,0.113-0.232,0.174-0.345l0.199-0.368l-0.122-0.4
				c-0.051-0.165-0.108-0.329-0.165-0.492l-0.053-0.151l-0.468-1.354l-1.11,0.906c-0.443,0.362-0.832,0.561-1.096,0.561
				c-0.398,0-0.85-0.593-1.287-1.167c-0.096-0.126-0.192-0.251-0.288-0.374c-1.431-1.81-2.956-3.744-4.488-5.721
				c-0.161-0.208-0.341-0.415-0.522-0.621c-0.391-0.447-0.835-0.953-0.8-1.272c0.014-0.129,0.136-0.495,0.957-1.097l1.658-1.217
				l-1.981-0.553l-0.622-0.174l-0.227-0.063l-0.232,0.045c-0.137,0.026-0.278,0.043-0.419,0.061
				c-0.377,0.047-0.804,0.101-1.229,0.283l-0.924,0.39c-1.559,0.655-3.171,1.332-4.705,2.138c-0.353,0.187-0.556,0.215-0.645,0.215
				c-0.218,0-0.412-0.25-0.793-0.849c-0.213-0.334-0.433-0.68-0.727-0.982c-0.005-0.005-0.01-0.01-0.015-0.015
				c0.093-0.086,0.221-0.187,0.311-0.257c0.126-0.1,0.25-0.198,0.358-0.296l0.916-0.824c2.377-2.139,4.835-4.35,7.316-6.435
				c0.309-0.262,0.958-0.453,1.657-0.488c0.44-0.024,0.836-0.036,1.211-0.036c0.919,0,1.706,0.071,2.406,0.218
				c0.419,0.088,0.83,0.133,1.221,0.133c2.046,0,3.429-1.205,4.62-2.507c5.823-6.37,11.913-10.69,18.618-13.208l0.047-0.018
				C50.696,142.632,51.714,142.249,52.319,142.249 M47.874,159.709c2.465,0,4.858-2.098,5.121-4.487
				c0.297-2.609-1.733-5.213-4.345-5.572c-0.211-0.029-0.427-0.043-0.642-0.043c-2.529,0-4.749,1.953-5.053,4.447
				c-0.31,2.599,1.697,5.22,4.294,5.608C47.453,159.693,47.663,159.709,47.874,159.709 M52.319,141.249
				c-0.794,0-1.827,0.391-3.563,1.044c-7.517,2.823-13.656,7.619-19.004,13.469c-1.155,1.263-2.27,2.182-3.882,2.182
				c-0.318,0-0.655-0.036-1.015-0.111c-0.845-0.177-1.73-0.239-2.611-0.239c-0.424,0-0.848,0.014-1.266,0.037
				c-0.77,0.039-1.687,0.248-2.248,0.723c-2.806,2.357-5.526,4.825-8.255,7.279c-0.581,0.523-1.651,1.036-0.702,2.01
				c0.707,0.726,1.068,2.133,2.237,2.133c0.308,0,0.672-0.097,1.113-0.331c1.789-0.939,3.681-1.697,5.553-2.491
				c0.445-0.19,0.969-0.19,1.448-0.283l0.622,0.174c-2.63,1.93-0.834,3.116,0.165,4.408c1.49,1.923,2.989,3.824,4.495,5.73
				c0.693,0.877,1.328,1.92,2.36,1.92c0.477,0,1.038-0.222,1.729-0.786c0.069,0.2,0.144,0.403,0.207,0.608
				c-0.215,0.397-0.379,0.827-0.651,1.181c-1.331,1.754-2.684,3.487-4.032,5.222c-1.294,1.653,0.628,2.214,1.137,3.221
				c0.228,0.449,0.509,0.616,0.817,0.616c0.36,0,0.759-0.228,1.158-0.499c3.122-2.138,6.276-4.223,9.361-6.405
				c0.532-0.379,1.007-1.076,1.165-1.711c0.445-1.805,0.613-3.68,1.096-5.473c0.208-0.76,0.761-1.623,1.41-2.05
				c2.586-1.705,5.345-3.152,7.898-4.904c5.324-3.659,9.685-8.244,12.857-13.923c0.498-0.893,0.484-1.493-0.244-2.347
				c-2.05-2.409-3.961-4.93-5.887-7.429C54.146,142.102,53.492,141.249,52.319,141.249L52.319,141.249z M47.874,158.709
				c-0.159,0-0.317-0.012-0.474-0.035c-2.076-0.31-3.698-2.436-3.452-4.501c0.245-2.005,2.079-3.566,4.06-3.566
				c0.168,0,0.337,0.011,0.506,0.034c2.066,0.284,3.722,2.402,3.487,4.468C51.791,157.023,49.793,158.709,47.874,158.709
				L47.874,158.709z"/>
		</g>
	</g>
	<g id="Layer_27">
		<g>
			<path style="fill:#DD6E45;" d="M8.723,187.489c-0.4,0-0.829-0.148-1.406-0.441c0.103-0.054,0.204-0.106,0.305-0.159
				c0.798-0.414,1.551-0.805,2.273-1.264c0.417-0.269,1.169-0.838,1.548-1.657c0.301-0.623,0.369-1.648-0.051-2.205
				c-0.286-0.389-0.836-0.441-1.336-0.441c-0.178,0-0.359,0.008-0.527,0.016l-0.179,0.007c-0.16,0.005-0.308,0.047-0.449,0.106
				c0.267-1.853,1.577-2.873,3.125-3.897c0.033-0.022,0.113-0.048,0.166-0.063c0.154-0.049,0.345-0.108,0.511-0.262
				c0.481-0.455,0.936-0.921,1.395-1.39l1.074-1.091l-2.42-0.978c0.026-0.022,0.052-0.045,0.078-0.067
				c0.476-0.411,0.925-0.8,1.41-1.006c0.625-0.264,1.317-0.397,2.056-0.397c1.73,0,3.528,0.763,4.692,1.989
				c2.136,2.248,2.601,4.787,1.381,7.547c-1.146,2.571-3.099,4.204-5.957,4.976l0.147-2.299l0.054-0.755l-0.715,0.246
				c-0.248,0.085-0.5,0.16-0.751,0.235c-0.622,0.187-1.264,0.38-1.852,0.711c-0.528,0.292-1.014,0.655-1.483,1.007
				c-0.484,0.362-0.941,0.705-1.436,0.969C9.608,187.331,9.144,187.489,8.723,187.489z"/>
			<path style="fill:#3E3E3E;" d="M16.294,172.799c1.598,0,3.257,0.703,4.33,1.834c1.983,2.087,2.416,4.442,1.288,6.996
				c-0.991,2.222-2.623,3.702-4.969,4.497l0.114-1.578l0.109-1.508l-1.43,0.491c-0.242,0.083-0.488,0.156-0.733,0.23
				c-0.647,0.194-1.317,0.395-1.947,0.749c-0.562,0.311-1.061,0.685-1.544,1.046c-0.468,0.351-0.911,0.682-1.368,0.926
				c-0.691,0.365-1.089,0.507-1.421,0.507c-0.059,0-0.121-0.005-0.186-0.014c0.559-0.295,1.099-0.593,1.63-0.93
				c0.46-0.296,1.298-0.933,1.722-1.852c0.318-0.658,0.498-1.941-0.092-2.722c-0.478-0.649-1.364-0.649-1.742-0.649
				c-0.167,0-0.338,0.007-0.499,0.014c0.382-1.102,1.292-1.9,2.719-2.849c0.021-0.007,0.043-0.014,0.065-0.02
				c0.169-0.053,0.451-0.141,0.709-0.379c0.485-0.46,0.952-0.937,1.403-1.399l0.546-0.556l1.055-1.066l-1.39-0.564l-0.955-0.385
				c0.246-0.194,0.486-0.358,0.723-0.459C14.995,172.92,15.622,172.799,16.294,172.799 M16.294,171.799
				c-0.779,0-1.547,0.14-2.252,0.437c-0.815,0.347-1.475,1.084-2.258,1.682c1.111,0.45,1.808,0.728,2.503,1.01
				c-0.645,0.652-1.264,1.306-1.925,1.932c-0.155,0.143-0.431,0.147-0.613,0.275c-1.813,1.2-3.454,2.517-3.397,5.167
				c0.429-0.198,0.722-0.451,1.015-0.459c0.208-0.008,0.452-0.022,0.688-0.022c0.406,0,0.791,0.043,0.937,0.242
				c0.284,0.377,0.229,1.212-0.004,1.694c-0.268,0.58-0.816,1.095-1.363,1.446c-1.033,0.656-2.155,1.182-3.367,1.836l0.002,0
				c1.107,0.634,1.784,0.949,2.462,0.949c0.551,0,1.103-0.208,1.888-0.623c1.032-0.551,1.9-1.413,2.929-1.982
				c0.768-0.432,1.669-0.617,2.52-0.909l-0.189,2.626c-0.005,0.093,0.038,0.199,0.065,0.339c3.175-0.7,5.536-2.368,6.89-5.404
				c1.281-2.901,0.817-5.68-1.476-8.092C20.066,172.592,18.149,171.799,16.294,171.799L16.294,171.799z"/>
		</g>
	</g>
</g>
<g id="Layer_1">
</g>
</svg>
