<?xml version="1.0" encoding="iso-8859-1"?>
<!-- Generator: Adobe Illustrator 21.0.0, SVG Export Plug-In . SVG Version: 6.00 Build 0)  -->
<svg version="1.1" xmlns="http://www.w3.org/2000/svg" xmlns:xlink="http://www.w3.org/1999/xlink" x="0px" y="0px"
	 viewBox="0 0 414 211" style="enable-background:new 0 0 414 211;" xml:space="preserve">
<g id="ship">
	<g id="Layer_38">
		<path style="fill:#8BBDC9;stroke:#3E3E3E;stroke-width:0.5;stroke-miterlimit:10;" d="M407.051,177.451
			c-0.39,0.157-0.763,0.31-1.131,0.477c-0.74,0.344-1.446,0.752-2.186,1.078c-1.433,0.617-2.92,0.739-4.453,0.535v0.002
			c-1.3-0.175-2.371-0.84-3.473-1.475c-1.818-1.044-3.677-1.025-5.513-0.018c-0.384,0.209-0.747,0.448-1.126,0.665
			c-1.51,0.863-3.136,1.044-4.832,0.845c-1.155-0.135-2.191-0.572-3.153-1.2c-1.089-0.718-2.255-1.089-3.584-1.044
			c-1.219,0.047-2.279,0.461-3.298,1.078c-2.302,1.399-4.721,1.504-7.187,0.506c-0.798-0.326-1.521-0.845-2.297-1.242
			c-0.426-0.222-0.874-0.361-1.346-0.408c-0.408-0.035-0.74,0.344-0.74,0.758v2.495c0,0.408,0.339,0.729,0.74,0.816
			c0.81,0.175,1.504,0.63,2.204,1.067c2.016,1.248,4.178,1.574,6.493,1.118c1.253-0.244,2.326-0.874,3.369-1.568
			c0.892-0.588,1.871-0.752,2.925-0.647c0.967,0.093,1.73,0.617,2.535,1.078c3.216,1.854,6.4,1.854,9.524-0.215
			c1.807-1.2,3.573-1.2,5.409-0.04c3.415,2.167,6.825,2.18,10.21-0.117c0.286-0.193,0.594-0.344,0.927-0.495
			c0.373-0.169,0.67-0.647,0.67-1.055v-2.53C407.739,177.51,407.437,177.3,407.051,177.451z"/>
	</g>
	<g id="Layer_37">
		<path style="fill:#8BBDC9;stroke:#3E3E3E;stroke-width:0.5;stroke-miterlimit:10;" d="M407.052,183.97
			c-0.39,0.157-0.763,0.31-1.131,0.477c-0.739,0.344-1.446,0.752-2.186,1.078c-1.433,0.617-2.92,0.739-4.453,0.535v0.002
			c-1.3-0.175-2.371-0.84-3.473-1.475c-1.818-1.044-3.677-1.025-5.513-0.018c-0.384,0.209-0.747,0.448-1.126,0.665
			c-1.51,0.863-3.136,1.044-4.832,0.845c-1.155-0.135-2.191-0.572-3.153-1.2c-1.089-0.718-2.255-1.089-3.584-1.044
			c-1.219,0.047-2.279,0.461-3.298,1.078c-2.302,1.399-4.721,1.504-7.187,0.506c-0.798-0.326-1.521-0.845-2.297-1.242
			c-0.426-0.222-0.874-0.361-1.346-0.408c-0.408-0.035-0.74,0.344-0.74,0.758v2.495c0,0.408,0.339,0.729,0.74,0.816
			c0.811,0.175,1.504,0.63,2.204,1.067c2.016,1.248,4.178,1.574,6.493,1.118c1.253-0.244,2.326-0.874,3.369-1.568
			c0.893-0.588,1.871-0.752,2.925-0.647c0.967,0.093,1.73,0.617,2.535,1.078c3.216,1.854,6.4,1.854,9.524-0.215
			c1.807-1.2,3.573-1.2,5.409-0.04c3.415,2.167,6.825,2.18,10.21-0.117c0.286-0.193,0.594-0.344,0.927-0.495
			c0.373-0.169,0.67-0.647,0.67-1.055v-2.53C407.74,184.028,407.438,183.819,407.052,183.97z"/>
	</g>
	<g id="Layer_36">
		<path style="fill:#94C8D8;stroke:#3E3E3E;stroke-width:0.5;stroke-miterlimit:10;" d="M374.73,156.417"/>
	</g>
	<g id="Layer_35">
		<g>
			<g>
				
					<ellipse transform="matrix(0.4472 -0.8944 0.8944 0.4472 67.1144 421.1045)" style="fill:none;" cx="374.238" cy="156.256" rx="0.002" ry="0.003"/>
				<path style="fill:none;" d="M378.59,147.839h13.288c0.227,0,0.411-0.183,0.411-0.41c0-0.436,0-0.854-0.005-1.279
					c-0.009-0.72-0.031-0.74-0.772-0.74l-9.5,0.001c-1.085,0.001-2.176,0.003-3.266-0.001c-0.008,0-0.014,0-0.022,0
					c-0.518,0-0.527,0.202-0.533,0.35v0.001c-0.029,0.56-0.024,1.111-0.017,1.664C378.176,147.653,378.364,147.839,378.59,147.839z"
					/>
				<path style="fill:none;" d="M377.309,155.1c2.253-0.841,4.583-1.71,6.888-2.515c0.595-0.208,1.387-0.211,2.063-0.004
					c1.961,0.602,3.903,1.297,5.542,1.9c1.131,0.417,2.232,0.868,3.397,1.345l0.663,0.271c0.076,0.03,0.143,0.033,0.176,0.012
					c0.033-0.022,0.052-0.085,0.052-0.165v-4.284c0-1-0.029-1.029-1.029-1.029l-15.292,0.003c-0.494,0-0.988,0-1.482,0
					c-0.991,0-1.982,0.001-2.975,0.007c-0.924,0-0.988,0.067-0.988,1.016c-0.005,1.486-0.005,2.967,0,4.452
					c0.001,0.043,0.004,0.079,0.005,0.109c0.11-0.047,0.199-0.084,0.29-0.115C375.513,155.771,376.411,155.435,377.309,155.1z"/>
				<path style="fill:none;" d="M378.191,145.76v-0.001c0.007-0.148,0.016-0.35,0.533-0.35c0.008,0,0.014,0,0.022,0
					c1.09,0.004,2.181,0.003,3.266,0.001l9.5-0.001c0.74,0,0.763,0.021,0.772,0.74c0.005,0.425,0.005,0.843,0.005,1.279
					c0,0.227-0.185,0.41-0.411,0.41H378.59c-0.227,0-0.414-0.186-0.417-0.414C378.167,146.872,378.162,146.32,378.191,145.76z"/>
				<path style="fill:#35838D;stroke:#3E3E3E;stroke-width:0.25;stroke-miterlimit:10;" d="M401.064,159.673l-0.173-0.117
					c-0.579-0.394-1.178-0.802-1.797-1.122c-0.218-0.111-0.389-0.233-0.522-0.375l-2.655-1.241l0.012-0.028
					c-0.102-0.005-0.208-0.029-0.315-0.071l-0.004-0.001l-0.666-0.273c-1.16-0.474-2.256-0.923-3.375-1.337
					c-1.63-0.599-3.561-1.291-5.507-1.887c-0.536-0.165-1.182-0.168-1.645-0.004c-2.3,0.801-4.625,1.67-6.874,2.51
					c-0.899,0.336-1.798,0.671-2.697,1.003c-0.104,0.037-0.201,0.079-0.307,0.124l-2.748,1.283l-0.001-0.004
					c-0.14,0.122-0.313,0.225-0.52,0.316c-0.468,0.202-0.919,0.511-1.355,0.811c-1.161,0.796-1.242,1.069-0.714,2.294
					c0.696,1.624,1.421,3.174,2.152,4.608c1.097,2.14,1.537,4.186,1.347,6.254l-0.216,2.291c-0.097,1.014-0.195,2.039-0.29,3.09
					c0.168,0.388,3.145,3.309,3.591,3.533l2.037,0.704c2.204,0.764,4.409,1.527,6.622,2.257c0.472,0.155,1.105,0.155,1.571,0
					c2.141-0.705,4.275-1.44,6.407-2.174l2.759-0.948c0.394-0.211,2.962-2.942,3.11-3.414l-0.031-0.22
					c-0.089-0.92-0.173-1.79-0.315-2.66c-0.55-3.561-0.094-6.588,1.398-9.257c0.592-1.067,1.076-2.233,1.544-3.362
					c0.193-0.467,0.385-0.932,0.586-1.393C401.608,160.563,401.709,160.114,401.064,159.673z M391.011,170.162h-0.085h-3.849v3.934
					h-3.849v-3.934h-3.934v-3.849h3.934v-3.935h3.849v3.935h3.934V170.162z"/>
			</g>
			
				<line style="fill:none;stroke:#94C8D8;stroke-width:0;stroke-linecap:round;stroke-linejoin:round;" x1="374.386" y1="156.557" x2="371.651" y2="157.835"/>
			
				<line style="fill:none;stroke:#94C8D8;stroke-width:0;stroke-linecap:round;stroke-linejoin:round;" x1="398.794" y1="157.793" x2="396.059" y2="156.515"/>
		</g>
	</g>
	<g id="Layer_34">
		<g>
			<path style="fill:none;" d="M379.77,150.633c-0.494,0-0.988,0-1.482,0c-0.991,0-1.982,0.001-2.975,0.007
				c-0.924,0-0.988,0.067-0.988,1.016c-0.005,1.486-0.005,2.967,0,4.452c0.001,0.043,0.004,0.079,0.005,0.109
				c0.11-0.047,0.199-0.084,0.29-0.115c0.894-0.33,1.792-0.666,2.689-1.001c2.253-0.841,4.583-1.71,6.888-2.515
				c0.595-0.208,1.387-0.211,2.063-0.004c1.961,0.602,3.903,1.297,5.542,1.9c1.131,0.417,2.232,0.868,3.397,1.345l0.663,0.271
				c0.076,0.03,0.143,0.033,0.176,0.012c0.033-0.022,0.052-0.085,0.052-0.165v-4.284c0-1-0.029-1.029-1.029-1.029L379.77,150.633z"
				/>
			
				<ellipse transform="matrix(0.4472 -0.8944 0.8944 0.4472 67.1144 421.1045)" style="fill:none;" cx="374.238" cy="156.256" rx="0.002" ry="0.003"/>
			<path style="fill:none;" d="M372.252,157.183l1.439-0.672c-0.004-0.018-0.008-0.037-0.01-0.056
				c-0.016-0.079-0.021-0.173-0.024-0.266c-0.009-1.566-0.009-3.047-0.004-4.535c0-1.322,0.356-1.685,1.658-1.685
				c1.489-0.008,2.971-0.007,4.46-0.007l1.349,0.001l0.14-0.004h13.802c1.383,0,1.7,0.317,1.7,1.7v4.284
				c0,0.177-0.042,0.339-0.119,0.473l1.578,0.738c-0.003-0.051-0.003-0.102-0.003-0.156c0.028-2.442,0.008-4.414-0.063-6.209
				c-0.045-1.058-0.823-1.919-1.936-2.143c-0.244-0.05-0.488-0.072-0.747-0.093c-0.577-0.041-1.048-0.549-1.048-1.132
				c0-0.425,0-0.837-0.005-1.254c-0.021-1.847-1.008-2.828-2.854-2.84c-0.599-0.005-1.199-0.005-1.83,0
				c-0.599,0-1.085-0.482-1.085-1.075v-2.249c0-0.227-0.185-0.412-0.411-0.412h-6.102c-0.227,0-0.41,0.185-0.41,0.412v2.233
				c0,0.291-0.114,0.564-0.321,0.768c-0.206,0.202-0.495,0.321-0.767,0.307l-0.122-0.001c-0.307-0.003-0.608-0.004-0.907-0.004
				c-0.317,0-0.63,0.003-0.944,0.01c-1.602,0.03-2.566,1.007-2.583,2.612c-0.005,0.493-0.005,0.991,0,1.489
				c0,0.532-0.233,1.079-0.678,1.102c-0.135,0.012-0.261,0.018-0.387,0.018c-1.785,0.031-2.772,1.034-2.772,2.823l-0.005,1.554
				c-0.007,1.287-0.014,2.62,0.024,3.926C372.267,156.962,372.264,157.076,372.252,157.183z"/>
			<path style="fill:none;" d="M401.064,159.673l-0.173-0.117c-0.579-0.394-1.178-0.802-1.797-1.122
				c-0.218-0.111-0.389-0.233-0.522-0.375l-2.655-1.241l0.012-0.028c-0.102-0.005-0.208-0.029-0.315-0.071l-0.004-0.001
				l-0.666-0.273c-1.16-0.474-2.256-0.923-3.375-1.337c-1.63-0.599-3.561-1.291-5.507-1.887c-0.536-0.165-1.182-0.168-1.645-0.004
				c-2.3,0.801-4.625,1.67-6.874,2.51c-0.899,0.336-1.798,0.671-2.697,1.003c-0.104,0.037-0.201,0.079-0.307,0.124l-2.748,1.283
				l-0.001-0.004c-0.14,0.122-0.313,0.225-0.52,0.316c-0.468,0.202-0.919,0.511-1.355,0.811c-1.161,0.796-1.242,1.069-0.714,2.294
				c0.696,1.624,1.421,3.174,2.152,4.608c1.097,2.14,1.537,4.186,1.347,6.254l-0.216,2.291c-0.097,1.014-0.195,2.039-0.29,3.09
				c0.168,0.388,3.145,3.309,3.591,3.533l2.037,0.704c2.204,0.764,4.409,1.527,6.622,2.257c0.472,0.155,1.105,0.155,1.571,0
				c2.141-0.705,4.275-1.44,6.407-2.174l2.759-0.948c0.394-0.211,2.962-2.942,3.11-3.414l-0.031-0.22
				c-0.089-0.92-0.173-1.79-0.315-2.66c-0.55-3.561-0.094-6.588,1.398-9.257c0.592-1.067,1.076-2.233,1.544-3.362
				c0.193-0.467,0.385-0.932,0.586-1.393C401.608,160.563,401.709,160.114,401.064,159.673z M379.293,166.313h3.934
				 M379.293,170.162v-3.849 M382.891,170.162h-3.597 M383.228,166.313v-3.935h3.849v3.935h3.934v3.849h-0.085h-3.849v3.934h-3.849
				v-3.934h-0.337"/>
		</g>
	</g>
	<g id="Layer_33">
		<path style="fill:#3E3E3E;" d="M401.441,159.12l-0.173-0.118c-0.596-0.406-1.212-0.826-1.866-1.162
			c-0.408-0.211-0.518-0.391-0.514-0.835c0.028-2.452,0.008-4.435-0.063-6.244c-0.059-1.372-1.054-2.487-2.473-2.773
			c-0.27-0.055-0.54-0.08-0.83-0.104c-0.232-0.017-0.429-0.229-0.429-0.464c0-0.427,0-0.843-0.005-1.262
			c-0.026-2.212-1.309-3.489-3.52-3.503c-0.603-0.005-1.203-0.005-1.837,0c-0.227,0-0.412-0.181-0.412-0.404v-2.249
			c0-0.596-0.486-1.083-1.083-1.083h-6.102c-0.596,0-1.081,0.486-1.081,1.083v2.233c0,0.11-0.043,0.212-0.122,0.29
			c-0.076,0.076-0.157,0.128-0.287,0.114l-0.125-0.001c-0.64-0.005-1.258-0.008-1.871,0.007c-1.948,0.037-3.219,1.322-3.238,3.275
			c-0.005,0.498-0.005,1.001,0,1.501c0,0.266-0.084,0.423-0.054,0.429c-0.125,0.01-0.232,0.017-0.346,0.017
			c-2.152,0.038-3.436,1.345-3.436,3.494l-0.005,1.55c-0.007,1.294-0.014,2.632,0.024,3.949c0.016,0.545-0.123,0.773-0.59,0.975
			c-0.526,0.228-1.004,0.557-1.514,0.906c-1.387,0.949-1.564,1.554-0.904,3.08c0.701,1.637,1.432,3.2,2.17,4.649
			c1.037,2.024,1.455,3.95,1.276,5.887l-0.216,2.288c-0.097,1.017-0.195,2.042-0.29,3.092c-0.072,0.729,3.725,4.126,4.026,4.225
			l2.051,0.709c2.207,0.764,4.414,1.529,6.632,2.259c0.303,0.101,0.65,0.151,0.997,0.151c0.347,0,0.693-0.05,0.995-0.151
			c2.144-0.705,4.28-1.442,6.415-2.177l2.76-0.948c0.384-0.135,3.624-3.347,3.554-4.043l-0.029-0.29
			c-0.089-0.932-0.174-1.813-0.318-2.701c-0.535-3.452-0.115-6.257,1.321-8.825c0.612-1.101,1.102-2.286,1.578-3.431
			c0.191-0.463,0.383-0.925,0.581-1.381C402.432,160.355,402.203,159.639,401.441,159.12z M377.802,144.826
			c0-0.42,0.341-0.761,0.761-0.761h13.408c0.42,0,0.761,0.341,0.761,0.761v1.33c0,0.42-0.341,0.761-0.761,0.761h-13.408
			c-0.42,0-0.761-0.341-0.761-0.761V144.826z M374.324,151.655c0-0.949,0.064-1.016,0.988-1.016
			c0.993-0.005,1.984-0.007,2.975-0.007c0.494,0,0.988,0,1.482,0l15.292-0.003c1,0,1.029,0.029,1.029,1.029v4.284
			c0,0.08-0.02,0.143-0.052,0.165c-0.033,0.021-0.1,0.018-0.176-0.012l-0.663-0.271c-1.165-0.477-2.266-0.928-3.397-1.345
			c-1.64-0.603-3.582-1.299-5.542-1.9c-0.676-0.207-1.468-0.204-2.063,0.004c-2.305,0.805-4.635,1.674-6.888,2.515
			c-0.898,0.336-1.795,0.671-2.689,1.001c-0.09,0.031-0.18,0.068-0.29,0.115c-0.001-0.03-0.004-0.066-0.005-0.109
			C374.319,154.623,374.319,153.142,374.324,151.655z M374.239,156.253c0.001,0,0.003,0,0.004,0l-0.005,0.003l-0.001-0.003
			C374.237,156.253,374.238,156.253,374.239,156.253z M401.474,160.865c-0.201,0.461-0.393,0.927-0.586,1.393
			c-0.468,1.128-0.951,2.295-1.544,3.362c-1.493,2.668-1.949,5.696-1.398,9.257c0.142,0.87,0.225,1.74,0.315,2.66l0.031,0.22
			c-0.148,0.472-2.716,3.203-3.11,3.414l-2.759,0.948c-2.132,0.734-4.266,1.469-6.407,2.174c-0.467,0.155-1.1,0.155-1.571,0
			c-2.214-0.73-4.418-1.493-6.622-2.257l-2.037-0.704c-0.446-0.224-3.423-3.145-3.591-3.533c0.094-1.051,0.193-2.076,0.29-3.09
			l0.216-2.291c0.19-2.068-0.25-4.114-1.347-6.254c-0.731-1.434-1.456-2.984-2.152-4.608c-0.528-1.224-0.447-1.498,0.714-2.294
			c0.436-0.3,0.887-0.609,1.355-0.811c0.207-0.09,0.38-0.194,0.52-0.316l0.001,0.004l2.748-1.283
			c0.106-0.046,0.203-0.088,0.307-0.124c0.899-0.332,1.798-0.667,2.697-1.003c2.249-0.84,4.574-1.709,6.874-2.51
			c0.463-0.164,1.109-0.161,1.645,0.004c1.946,0.596,3.877,1.288,5.507,1.887c1.119,0.414,2.215,0.862,3.375,1.337l0.666,0.273
			l0.004,0.001c0.106,0.042,0.212,0.066,0.315,0.071l-0.012,0.028l2.655,1.241c0.132,0.142,0.304,0.263,0.522,0.375
			c0.619,0.32,1.218,0.727,1.797,1.122l0.173,0.117C401.709,160.114,401.608,160.563,401.474,160.865z"/>
	</g>
	<g id="Layer_32">
		<path style="fill:#3E3E3E;" d="M387.862,141.668h-5.331c-0.218,0-0.397-0.179-0.397-0.397v-0.926c0-0.218,0.179-0.397,0.397-0.397
			h5.331c0.218,0,0.397,0.179,0.397,0.397v0.926C388.259,141.489,388.081,141.668,387.862,141.668z"/>
	</g>
</g>
<g id="Layer_1">
</g>
</svg>
