<?xml version="1.0" encoding="iso-8859-1"?>
<!-- Generator: Adobe Illustrator 21.0.0, SVG Export Plug-In . SVG Version: 6.00 Build 0)  -->
<svg version="1.1" xmlns="http://www.w3.org/2000/svg" xmlns:xlink="http://www.w3.org/1999/xlink" x="0px" y="0px"
	 viewBox="0 0 414 211" style="enable-background:new 0 0 414 211;" xml:space="preserve">
<g id="sign">
	<path id="sign_1_" style="fill:#8DC0C9;stroke:#3E3E3E;stroke-miterlimit:10;" d="M113.858,57.993l-0.004-0.004
		c-3.024-2.271-6.057-4.528-9.069-6.812c-0.774-0.583-1.609-0.854-2.575-0.848c-4.083,0.012-8.169,0-12.252,0.021
		c-0.496,0-0.602-0.153-0.589-0.608c0.033-1.065,0.021-2.131,0.012-3.198c-0.006-1.179-0.794-1.98-1.965-1.992
		c-1.225-0.012-2.455-0.012-3.68,0c-1.258,0.012-2.025,0.782-2.04,2.04c-0.012,1.065-0.027,2.131,0.006,3.198
		c0.012,0.463-0.132,0.569-0.575,0.563c-2.515-0.021-5.031-0.021-7.546-0.012c-1.986,0.006-3.475,1.489-3.481,3.469
		c-0.006,3.421-0.006,6.839,0,10.26c0.006,2.191,1.436,3.608,3.634,3.614c2.476,0,4.952,0.012,7.42-0.006
		c0.424-0.006,0.55,0.12,0.536,0.542c-0.033,0.906-0.039,1.814,0,2.714c0.027,0.523-0.112,0.674-0.656,0.668
		c-4.125-0.027-8.247-0.006-12.372-0.012c-0.815,0-1.543,0.219-2.191,0.707c-3.105,2.329-6.216,4.654-9.313,6.99
		c-0.807,0.608-0.788,1.363,0.027,1.98c3.084,2.317,6.177,4.634,9.267,6.95c0.668,0.503,1.417,0.728,2.251,0.722
		c2.031-0.006,4.065,0,6.096,0c2.091,0,4.183,0.021,6.276-0.012c0.523-0.006,0.623,0.165,0.616,0.65
		c-0.021,2.958-0.012,5.912-0.006,8.87c0,1.324,0.788,2.085,2.112,2.085h3.382c1.456,0,2.184-0.734,2.191-2.191
		c0-2.939,0.012-5.871-0.012-8.81c-0.006-0.484,0.139-0.602,0.602-0.596c2.495,0.027,4.991,0.012,7.48,0.012
		c2.019,0,3.508-1.483,3.514-3.502c0.006-3.442,0.006-6.878-0.006-10.32c-0.006-2.073-1.469-3.521-3.541-3.521
		c-2.495,0-4.991-0.012-7.48,0.006c-0.451,0.006-0.59-0.112-0.569-0.569c0.039-0.881,0.039-1.775,0-2.654
		c-0.027-0.53,0.105-0.707,0.683-0.701c4.125,0.027,8.247,0.012,12.372,0.012c0.815,0,1.543-0.238,2.191-0.722
		c3.09-2.317,6.177-4.634,9.261-6.95C114.718,59.375,114.704,58.628,113.858,57.993z M96.087,75.402v0.002
		c0.96,0,1.059,0.105,1.059,1.08v7.658c0,0.807-0.153,0.96-0.939,0.96c-9.048,0-18.098,0-27.139,0.006
		c-0.319,0-0.583-0.066-0.84-0.259c-1.781-1.311-3.568-2.608-5.355-3.912c-0.728-0.53-0.722-0.848,0-1.378
		c1.754-1.285,3.508-2.555,5.256-3.845c0.304-0.226,0.616-0.325,0.999-0.325c4.501,0.006,9.009,0.006,13.51,0.006
		C87.117,75.402,91.606,75.402,96.087,75.402z M108.198,59.696l0.002,0.002c-1.754,1.285-3.508,2.555-5.256,3.845
		c-0.304,0.226-0.616,0.325-0.999,0.325c-8.99-0.006-17.972-0.006-26.961-0.006c-0.96,0-1.059-0.112-1.059-1.08v-7.6
		c0-0.894,0.126-1.02,0.999-1.02h13.57c4.462,0,8.93,0.006,13.392-0.006c0.424,0,0.761,0.105,1.105,0.364
		c1.727,1.285,3.475,2.536,5.209,3.806C108.926,58.856,108.926,59.166,108.198,59.696z"/>
</g>
<g id="Layer_1">
</g>
</svg>
