<?xml version="1.0" encoding="iso-8859-1"?>
<!-- Generator: Adobe Illustrator 21.0.0, SVG Export Plug-In . SVG Version: 6.00 Build 0)  -->
<svg version="1.1" xmlns="http://www.w3.org/2000/svg" xmlns:xlink="http://www.w3.org/1999/xlink" x="0px" y="0px"
	 viewBox="0 0 414 211" style="enable-background:new 0 0 414 211;" xml:space="preserve">
<g id="stethoscope">
	<g id="Layer_23">
		<path style="fill:none;stroke:#3E3E3E;stroke-width:0.5;stroke-miterlimit:10;" d="M363.376,71.27
			c1.346-0.841,3.306-2.447,5.755-5.495c2.666-3.332,3.326-6.019,3.387-7.761c0.037-1.243-0.828-2.502-1.472-2.851
			c-0.644-0.353-0.759,0.309-0.636,1.543c0.181,1.852-0.11,4.682-2.51,7.755c-0.041,0.051-0.079,0.093-0.122,0.146l0.018-0.138
			c0.573-0.885,1.068-1.813,1.444-2.804c3.901-10.331-4.528-22.374-4.892-22.878c-0.081-0.11-0.185-0.189-0.286-0.27l-2.098,2.095
			c0.715,1.046,7.655,11.576,4.469,19.999c-0.132,0.347-0.331,0.664-0.495,0.999l-0.026,0.004c-0.193-0.047-0.378-0.118-0.585-0.118
			c-0.499,0-0.967,0.15-1.356,0.396l0.591,0.565c-0.355,0.437-0.595,0.971-0.595,1.574c0,0.152,0.032,0.294,0.059,0.439
			c-1.119,1.22-2.518,2.309-4.209,3.243l0.835,3.886C361.522,71.794,362.612,71.749,363.376,71.27z M367.317,65.089l0.03,0.028
			c-0.201,0.242-0.404,0.497-0.603,0.719C366.943,65.593,367.134,65.343,367.317,65.089z"/>
	</g>
	<g id="Layer_22">
		<path style="fill:#D8583D;stroke:#3E3E3E;stroke-width:0.5;stroke-miterlimit:10;" d="M342.225,40.842
			c0.23,0.209,0.725-0.191,1.115-0.9c0.386-0.715,1.594-1.752,2.699-2.325l1.764-0.918c1.105-0.571,1.275-1.736,0.378-2.599
			l-2.522-2.435c-0.896-0.861-2.081-0.672-2.658,0.435l-1.005,1.935c-0.579,1.105-1.557,2.329-2.193,2.743
			c-0.64,0.406-0.924,0.954-0.644,1.218l0.516,0.479l2.144,1.988C341.819,40.465,342,40.635,342.225,40.842z"/>
	</g>
	<g id="Layer_21">
		<path style="fill:none;stroke:#3E3E3E;stroke-width:0.5;stroke-miterlimit:10;" d="M337.261,60.614
			c-3.34-8.833,4.453-19.983,4.53-20.094c0.012-0.016,0.012-0.039,0.029-0.055l-2.144-1.988c-0.122,0.087-0.238,0.177-0.331,0.309
			c-0.363,0.506-8.792,12.549-4.892,22.878c1.308,3.456,3.83,6.266,7.519,8.415l1.399-2.65
			C340.355,65.641,338.305,63.365,337.261,60.614z"/>
	</g>
	<g id="Layer_20">
		<path style="fill:none;stroke:#3E3E3E;stroke-width:0.5;stroke-miterlimit:10;" d="M349.708,79.9
			c-0.357,2.386-0.837,8.218,2.199,12.114c1.813,2.325,4.512,3.543,8.017,3.633c0.189,0.01,0.374,0.01,0.554,0.01
			c11.769,0,13.052-9.765,14.09-17.629c0.089-0.692,0.177-1.383,0.274-2.061c0.77-5.375,2.682-9.178,5.387-10.705
			c1.363-0.77,2.989-0.985,4.847-0.664l1.604,0.39c0.489,0.152,0.979,0.325,1.488,0.538c0.77,0.325,1.645-0.026,1.966-0.792
			c0.325-0.764-0.033-1.645-0.796-1.968c-0.225-0.099-0.445-0.168-0.67-0.252l-1.645-0.55c-3.127-0.869-5.905-0.656-8.266,0.676
			c-4.528,2.554-6.244,8.425-6.881,12.892c-0.1,0.686-0.193,1.391-0.286,2.091c-1.011,7.722-1.978,15.026-11.142,15.026
			c-0.148,0-0.296,0-0.451-0.004c-2.599-0.065-4.473-0.873-5.72-2.473c-2.301-2.944-1.901-7.767-1.608-9.771"/>
	</g>
	<g id="Layer_19">
		<path style="fill:#DD6E45;stroke:#3E3E3E;stroke-width:0.5;stroke-miterlimit:10;" d="M359.816,67.713
			c-0.621-0.357-1.375-0.467-2.112-0.246l-5.913,1.758l-6.325-2.006c-0.725-0.225-1.48-0.126-2.095,0.209l-1.399,2.65
			c0.104,1.034,0.808,1.955,1.862,2.293l5.166,1.632l-0.136,3.852c-0.024,0.8,0.307,1.529,0.845,2.045l2.961,0.501
			c0.906-0.406,1.555-1.304,1.588-2.361l0.136-3.958l4.851-1.444c0.603-0.181,1.074-0.564,1.407-1.04L359.816,67.713z"/>
	</g>
	<g id="Layer_18">
		<path style="fill:#D8583D;stroke:#3E3E3E;stroke-width:0.5;stroke-miterlimit:10;" d="M363.843,37.204
			c-0.636-0.406-1.62-1.637-2.193-2.739l-1.009-1.939c-0.571-1.099-1.765-1.292-2.66-0.435l-2.518,2.441
			c-0.898,0.861-0.725,2.022,0.374,2.599l1.771,0.912c1.099,0.577,2.307,1.616,2.697,2.325c0.29,0.53,0.962,0.603,1.661,0.246
			l2.098-2.095C364.299,37.967,364.243,37.468,363.843,37.204z"/>
	</g>
	<g id="Layer_17">
		<path style="fill:none;stroke:#3E3E3E;stroke-width:0.5;stroke-miterlimit:10;" d="M390.134,64.734
			c-0.321,0.765-1.196,1.117-1.966,0.792c-0.51-0.213-0.999-0.386-1.488-0.538c-0.532,1.218-0.516,2.382,0.16,2.916
			c0.922,0.731,2.711,0.012,3.99-1.61h-0.002c1.273-1.612,1.572-3.515,0.642-4.25c-0.66-0.524-1.756-0.292-2.802,0.471
			c0.225,0.083,0.445,0.152,0.67,0.252C390.101,63.089,390.459,63.97,390.134,64.734z"/>
	</g>
	<g id="Layer_16">
		<path style="fill:#D8583D;stroke:#3E3E3E;stroke-width:0.5;stroke-miterlimit:10;" d="M396.959,58.518v-0.006
			c-2.296-1.813-6.595-0.264-9.935,3.452l1.645,0.55c1.046-0.764,2.142-0.995,2.802-0.471c0.93,0.735,0.632,2.638-0.642,4.25h0.002
			c-1.279,1.622-3.068,2.341-3.99,1.61c-0.676-0.534-0.692-1.698-0.16-2.916l-1.604-0.39c-2.329,3.858-2.626,7.88-0.5,9.568
			c2.461,1.951,7.233,0.029,10.652-4.293C398.646,65.552,399.42,60.47,396.959,58.518z"/>
	</g>
	<g id="Layer_15">
		<path style="fill:none;stroke:#3E3E3E;stroke-width:0.5;stroke-miterlimit:10;" d="M367.317,65.089
			c-0.183,0.254-0.374,0.504-0.573,0.747c0.199-0.221,0.402-0.477,0.603-0.719L367.317,65.089z"/>
	</g>
</g>
<g id="Layer_1">
</g>
</svg>
