<?xml version="1.0" encoding="iso-8859-1"?>
<!-- Generator: Adobe Illustrator 21.0.0, SVG Export Plug-In . SVG Version: 6.00 Build 0)  -->
<svg version="1.1" xmlns="http://www.w3.org/2000/svg" xmlns:xlink="http://www.w3.org/1999/xlink" x="0px" y="0px"
	 viewBox="0 0 414 211" style="enable-background:new 0 0 414 211;" xml:space="preserve">
<g id="tea">
	<g id="tea_1_">
		<path style="fill:#B74320;" d="M337.626,61.771c-1.085-2.502-1.866-9.296-1.866-9.296s2.202,6.099,2.698,7.795
			c0.502,1.686,2.694,4.083,2.694,4.083S338.707,64.273,337.626,61.771z"/>
		<path style="fill:none;" d="M356.345,55.849c0.004-0.288-0.035-0.662-0.23-0.806c-0.301-0.227-1.027-0.163-2.112,0.163
			c-0.176,1.674-0.509,3.546-1.098,5.277C354.489,59.644,356.332,57.788,356.345,55.849z"/>
		<path style="fill:none;" d="M335.759,52.476c0,0,0.781,6.794,1.866,9.296c1.081,2.502,3.526,2.582,3.526,2.582
			s-2.192-2.397-2.694-4.083C337.961,58.575,335.759,52.476,335.759,52.476z"/>
		<path style="fill:#4C3232;" d="M357.62,66.755l-0.001-0.001h-9.408v-0.57c1.315-0.013,2.787-1.789,3.661-3.357
			c2.57-0.352,6.342-3.453,6.368-6.957c0.013-1.322-0.538-2.003-1.002-2.346c-0.918-0.682-2.17-0.547-3.101-0.323
			c0.026-0.726,0.019-1.373-0.006-1.872h-11.027c-0.928-0.006-5.872-0.006-9.142-0.006c-0.176,3.411,1.133,14.432,6.122,14.858v0.57
			h-9.011c-0.346,0-0.627,0.278-0.627,0.627v0.586c0,0.346,0.278,0.627,0.627,0.627h26.55c0.346,0,0.627-0.278,0.627-0.627v-0.582
			C358.247,67.033,357.968,66.755,357.62,66.755z M354.003,55.206c1.085-0.326,1.811-0.39,2.112-0.163
			c0.195,0.144,0.234,0.518,0.23,0.806c-0.013,1.939-1.856,3.795-3.44,4.634C353.494,58.752,353.827,56.88,354.003,55.206z"/>
		<path style="fill:#D8583D;" d="M342.611,49.055c0.026,0.016,0.054,0.026,0.077,0.026c0.077,0,0.144-0.064,0.144-0.144
			c0-0.016-0.003-0.032-0.01-0.048c-0.33-1.434-0.166-2.598,0.483-3.466c0.621-0.829,0.899-1.888,0.739-2.832
			c-0.138-0.819-0.579-1.507-1.28-1.978c-0.048-0.032-0.112-0.032-0.16,0c-0.048,0.032-0.07,0.093-0.054,0.147
			c0.349,1.491,0.022,2.47-0.749,3.853c-0.419,0.755-0.592,1.6-0.483,2.378C341.443,47.858,341.888,48.569,342.611,49.055z"/>
		<path style="fill:#DD6E45;" d="M346.192,49.058h-0.001c0.019,0.013,0.042,0.019,0.064,0.019c0.064,0,0.115-0.054,0.115-0.115
			c0-0.013-0.003-0.029-0.006-0.038c-0.269-1.171-0.134-2.122,0.394-2.832c0.506-0.675,0.733-1.539,0.602-2.314
			c-0.112-0.672-0.474-1.229-1.043-1.613c-0.038-0.029-0.09-0.026-0.128,0c-0.038,0.029-0.054,0.077-0.048,0.122
			c0.285,1.219,0.019,2.016-0.611,3.146c-0.342,0.614-0.483,1.306-0.394,1.939C345.235,48.082,345.6,48.662,346.192,49.058z"/>
	</g>
</g>
<g id="Layer_1">
</g>
</svg>
