<?xml version="1.0" encoding="iso-8859-1"?>
<!-- Generator: Adobe Illustrator 21.0.0, SVG Export Plug-In . SVG Version: 6.00 Build 0)  -->
<svg version="1.1" xmlns="http://www.w3.org/2000/svg" xmlns:xlink="http://www.w3.org/1999/xlink" x="0px" y="0px"
	 viewBox="0 0 414 211" style="enable-background:new 0 0 414 211;" xml:space="preserve">
<g id="tech">
	
		<rect x="7.183" y="111.284" transform="matrix(0.9756 -0.2196 0.2196 0.9756 -27.5759 12.0252)" style="fill:none;" width="66.265" height="37.593"/>
	
		<rect x="89.88" y="156.797" transform="matrix(0.4181 -0.9084 0.9084 0.4181 -90.4113 186.535)" style="fill:none;" width="21.011" height="14.074"/>
	
		<ellipse transform="matrix(0.418 -0.9084 0.9084 0.418 -104.5402 188.6032)" style="fill:none;" cx="94.934" cy="175.895" rx="1.542" ry="1.542"/>
	<path style="fill:#DD6E45;stroke:#4C3232;stroke-miterlimit:10;" d="M71.084,102.349c-0.217-0.966-0.894-1.524-1.851-1.309
		L2.48,116.063c-0.957,0.215-1.856,1.128-1.639,2.094l8.822,39.202c0.217,0.966,1.512,1.811,2.469,1.596l66.753-15.022
		c0.957-0.215,1.238-1.416,1.021-2.381L71.084,102.349z M12.118,155.693l-8.254-36.676l64.648-14.549l8.254,36.676L12.118,155.693z"
		/>
	<path style="fill:#DD6E45;stroke:#4C3232;stroke-miterlimit:10;" d="M58.359,158.737l-0.002,0.003c0,0-1.448-0.756-2.268-1.275
		c-0.82-0.519-1.164-1.196-1.164-1.196l-1.783-5.454l-14.749,3.319l0.724,5.695c0,0,0.002,0.858-0.517,1.678
		c-0.519,0.82-1.513,2.079-1.513,2.079s-0.901,1.109,0.798,0.983c0.973-0.074,5.211-0.827,8.582-1.585l3.183-0.716
		c3.44-0.774,7.516-1.917,8.424-2.269C59.66,159.385,58.359,158.737,58.359,158.737z"/>
	<path style="fill:#D8583D;stroke:#3E3E3E;stroke-width:0.6;stroke-miterlimit:10;" d="M112.334,151.825l-10.596-4.876
		c-1.186-0.546-2.587-0.028-3.133,1.158l-11.403,24.779c-0.546,1.186-0.028,2.587,1.158,3.133l10.596,4.876
		c1.186,0.546,2.587,0.028,3.133-1.158l11.403-24.779C114.035,153.77,113.518,152.369,112.334,151.825z M96.335,176.539
		c-0.356,0.773-1.272,1.112-2.045,0.756c-0.773-0.356-1.112-1.272-0.756-2.045s1.272-1.112,2.045-0.756
		C96.352,174.85,96.69,175.766,96.335,176.539z M102.386,176.319l-12.785-5.884l8.784-19.087l12.785,5.884L102.386,176.319z"/>
	<path style="fill:#4C3232;stroke:#3E3E3E;stroke-width:0.45;stroke-miterlimit:10;" d="M113.722,103.29
		c-0.828-0.46-1.714-0.813-2.573-1.218c-0.119-0.055-0.233-0.122-0.349-0.184l-2.148-0.692c-0.561-0.111-1.122-0.227-1.685-0.334
		c-3.013-0.578-6.014-0.507-9.003,0.168c-1.383,0.312-2.718,0.769-4.021,1.331c-0.699,0.301-1.364,0.631-1.725,1.355l-0.102,0.316
		c0.005,0.054,0.02,0.108,0.012,0.161c-0.12,0.874,0.302,1.665,1.091,2.038c0.668,0.316,1.301,0.184,1.943-0.112
		c4.006-1.849,8.153-2.235,12.418-1.105c4.288,1.136,7.72,3.534,10.291,7.15c0.492,0.693,0.892,1.452,1.389,2.142
		c0.602,0.837,1.912,0.962,2.688,0.286c0.228-0.2,0.406-0.459,0.607-0.69l0.001,0l0.163-0.505c0.046-0.982-0.502-1.731-0.986-2.502
		C119.714,107.673,117.04,105.136,113.722,103.29z"/>
	<path style="fill:#4C3232;stroke:#3E3E3E;stroke-width:0.45;stroke-miterlimit:10;" d="M112.592,110.366
		c-2.131-1.682-4.546-2.711-7.209-3.156c-2.289-0.383-4.56-0.223-6.789,0.411c-1.053,0.299-2.091,0.663-3.024,1.252
		c-1.046,0.66-1.117,2.278-0.159,3.058c0.729,0.593,1.506,0.596,2.322,0.205c2.454-1.175,5.015-1.509,7.68-0.928
		c2.438,0.531,4.524,1.705,6.172,3.577c0.666,0.757,1.198,1.636,1.754,2.483c0.468,0.713,1.07,1.151,1.944,1.068
		c0.838-0.08,1.394-0.552,1.677-1.344l0.002,0c0.177-0.538,0.116-1.055-0.143-1.542
		C115.761,113.465,114.363,111.764,112.592,110.366z"/>
	<path style="fill:#4C3232;stroke:#3E3E3E;stroke-width:0.45;stroke-miterlimit:10;" d="M107.61,120.414
		c0.287,0.582,0.698,1.04,1.335,1.203c0.765,0.196,1.457,0.007,1.983-0.599c0.564-0.65,0.64-1.4,0.276-2.166
		c-1.14-2.401-2.993-4.006-5.232-4.775l-0.001-0.001c-1.513-0.478-2.779-0.616-4.07-0.467c-1.334,0.154-2.604,0.531-3.722,1.296
		c-0.624,0.426-0.883,1.062-0.78,1.815c0.101,0.737,0.502,1.254,1.196,1.541c0.673,0.276,1.286,0.122,1.905-0.194
		c1.476-0.754,2.989-0.802,4.512-0.145C106.185,118.427,107.045,119.272,107.61,120.414z"/>
	<path style="fill:#4C3232;stroke:#3E3E3E;stroke-width:0.45;stroke-miterlimit:10;" d="M102.108,120.43
		c0.05,0.03,0.078,0.016,0.083-0.043L102.108,120.43z"/>
	<path style="fill:#4C3232;stroke:#3E3E3E;stroke-width:0.45;stroke-miterlimit:10;" d="M100.655,121.98
		c-0.391,1.226,0.311,2.587,1.534,2.975c1.231,0.39,2.59-0.309,2.978-1.531c0.391-1.233-0.308-2.588-1.533-2.977l-0.001,0.001
		C102.402,120.056,101.046,120.754,100.655,121.98z"/>
</g>
<g id="Layer_1">
</g>
</svg>
